<svg width="38" height="17" viewBox="0 0 38 17" fill="none" xmlns="http://www.w3.org/2000/svg">
<g id="Group 119">
<path id="Vector" d="M23.4392 2.99566C22.3595 4.35865 21.7129 6.08858 21.7129 7.97146C21.7129 9.85434 22.3591 11.5843 23.4392 12.9473C24.5188 11.5843 25.1655 9.85434 25.1655 7.97146C25.1655 6.08858 24.5193 4.35865 23.4392 2.99566Z" fill="#FED0C8"/>
<g id="Mask group">
<path id="Vector_2" d="M23.452 12.982C24.914 14.8075 27.1599 15.9766 29.6786 15.9766C34.0844 15.9766 37.6562 12.4004 37.6562 7.98822C37.6562 3.57605 34.0849 -0.000122851 29.6786 -0.000123814C27.1599 -0.000124364 24.914 1.16892 23.452 2.99442C24.5472 4.36233 25.2027 6.09852 25.2027 7.98821C25.2027 9.8779 24.5472 11.6141 23.452 12.982Z" fill="#F72717"/>
</g>
<path id="Vector_3" d="M23.4575 3.15338C21.999 1.32744 19.7584 0.15811 17.2458 0.15811C12.8504 0.158109 9.28711 3.73515 9.28711 8.14839C9.28711 12.5616 12.8499 16.1387 17.2458 16.1387C19.7584 16.1387 21.999 14.9693 23.4575 13.1434C22.3649 11.7752 21.711 10.0385 21.711 8.14839C21.711 6.25824 22.3649 4.52163 23.4575 3.15338Z" fill="#B0EFFF"/>
<path id="Rectangle 1" d="M0.343749 8.13549C0.343749 3.71897 3.92405 0.138673 8.34057 0.138673L16.8451 0.138675L16.8451 16.1323L8.34057 16.1323C3.92404 16.1323 0.343748 12.552 0.343749 8.13549Z" fill="#B0EFFF"/>
</g>
</svg>
