<?xml version="1.0" standalone="no"?>
<!DOCTYPE svg PUBLIC "-//W3C//DTD SVG 1.1//EN" "http://www.w3.org/Graphics/SVG/1.1/DTD/svg11.dtd" >
<svg xmlns="http://www.w3.org/2000/svg" xmlns:xlink="http://www.w3.org/1999/xlink" version="1.1">
<metadata>
Created by FontForge 20170731 at Thu Jun  8 12:22:51 2017
 By Aleksey,,,
Copyright (c) Joseph Churchward and BluHead Studio, 2017. All rights reserved.
</metadata>
<defs>
<font id="Edenred-Regular" horiz-adv-x="575" >
  <font-face 
    font-family="Edenred"
    font-weight="500"
    font-stretch="normal"
    units-per-em="1000"
    panose-1="2 11 6 3 4 5 2 2 2 7"
    ascent="800"
    descent="-200"
    x-height="527"
    cap-height="706"
    bbox="-133 -308 1278 1027"
    underline-thickness="50"
    underline-position="-200"
    unicode-range="U+0020-FB04"
  />
<missing-glyph horiz-adv-x="250" 
 />
    <glyph glyph-name="ff" unicode="ff" horiz-adv-x="558" 
d="M167 0h-112v533q0 86 48.5 132t136.5 46q43 0 91 -13l-19 -84q-25 9 -58 9q-85 0 -85 -76v-27h132l-16 -88h-118v-432zM446 0h-112v533q0 86 48.5 132t136.5 46q43 0 91 -13l-19 -84q-25 9 -58 9q-85 0 -85 -76v-27h132l-16 -88h-118v-432z" />
    <glyph glyph-name="fi" unicode="fi" horiz-adv-x="501" 
d="M167 0h-112v533q0 86 48.5 132t136.5 46q43 0 91 -13l-19 -84q-25 9 -58 9q-85 0 -85 -76v-27h132l-16 -88h-118v-432zM334 527h112v-527h-112v527zM334 706h112v-96h-112v96z" />
    <glyph glyph-name="fl" unicode="fl" horiz-adv-x="501" 
d="M167 0h-112v533q0 86 48.5 132t136.5 46q43 0 91 -13l-19 -84q-25 9 -58 9q-85 0 -85 -76v-27h132l-16 -88h-118v-432zM334 706h112v-706h-112v706z" />
    <glyph glyph-name="ffi" unicode="ffi" horiz-adv-x="780" 
d="M167 0h-112v533q0 86 48.5 132t136.5 46q43 0 91 -13l-19 -84q-25 9 -58 9q-85 0 -85 -76v-27h132l-16 -88h-118v-432zM446 0h-112v533q0 86 48.5 132t136.5 46q43 0 91 -13l-19 -84q-25 9 -58 9q-85 0 -85 -76v-27h132l-16 -88h-118v-432zM613 527h112v-527h-112v527z
M613 706h112v-96h-112v96z" />
    <glyph glyph-name="ffl" unicode="ffl" horiz-adv-x="780" 
d="M167 0h-112v533q0 86 48.5 132t136.5 46q43 0 91 -13l-19 -84q-25 9 -58 9q-85 0 -85 -76v-27h132l-16 -88h-118v-432zM446 0h-112v533q0 86 48.5 132t136.5 46q43 0 91 -13l-19 -84q-25 9 -58 9q-85 0 -85 -76v-27h132l-16 -88h-118v-432zM613 706h112v-706h-112v706z
" />
    <glyph glyph-name=".notdef" horiz-adv-x="250" 
 />
    <glyph glyph-name=".null" horiz-adv-x="0" 
 />
    <glyph glyph-name="nonmarkingreturn" horiz-adv-x="333" 
 />
    <glyph glyph-name="space" unicode=" " horiz-adv-x="317" 
 />
    <glyph glyph-name="exclam" unicode="!" horiz-adv-x="255" 
d="M78 233l-13 472h123l-13 -472h-97zM60 141h70h64v-141h-134v141z" />
    <glyph glyph-name="quotedbl" unicode="&#x22;" horiz-adv-x="472" 
d="M75 404v302h112v-302h-112zM285 404v302h112v-302h-52h-60z" />
    <glyph glyph-name="numbersign" unicode="#" horiz-adv-x="761" 
d="M420 284l48 136h-122l-48 -136h122zM348 698h95l-71 -204h120l72 204h94l-70 -204h126l-24 -74h-128l-48 -135h136l-25 -74h-137l-72 -205h-96l73 205h-121l-73 -205h-95l72 205h-130l27 74h130l48 135h-140l25 74h141z" />
    <glyph glyph-name="dollar" unicode="$" horiz-adv-x="557" 
d="M248 -84v84q-89 6 -202 50l37 94q17 -12 64.5 -29t100.5 -21v236l-64 27q-70 30 -109 69.5t-39 102.5q0 82 59 127t153 52v66h61v-65q111 -3 191 -46l-40 -92q-71 39 -151 43v-195l53 -22q83 -35 121 -82.5t38 -121.5q0 -86 -58.5 -135t-153.5 -57v-85h-61zM402 193
q0 37 -21.5 61t-71.5 49v-205q43 9 68 36.5t25 58.5zM156 532q0 -29 22.5 -47.5t69.5 -39.5v167q-42 -6 -67.5 -25.5t-24.5 -54.5z" />
    <glyph glyph-name="percent" unicode="%" horiz-adv-x="886" 
d="M31 528q1 86 52.5 137.5t131.5 51.5q79 0 132 -51.5t53 -137.5t-53 -138t-132 -52q-80 0 -132.5 52t-51.5 138zM120 528q0 -53 23 -87.5t72 -34.5t72 34.5t23 87.5q0 51 -23.5 85.5t-71.5 34.5q-49 0 -72 -34t-23 -86zM572 717l72 -30l-328 -699l-70 35zM487 173
q1 87 52.5 138.5t131.5 51.5q79 0 132 -52t53 -138t-53 -138t-132 -52q-80 0 -132.5 52t-51.5 138zM576 173q0 -53 23 -87.5t72 -34.5t72 34.5t23 87.5q0 52 -23.5 86.5t-71.5 34.5q-49 0 -72 -34.5t-23 -86.5z" />
    <glyph glyph-name="ampersand" unicode="&#x26;" horiz-adv-x="729" 
d="M554 0q-32 32 -67 87q-109 -98 -229 -98q-105 0 -171.5 55t-66.5 150q0 74 43.5 121.5t96.5 60.5q-52 23 -78.5 64t-26.5 88q0 79 60.5 130.5t153.5 51.5q91 0 152.5 -50.5t61.5 -132.5q0 -53 -32 -94.5t-89 -58.5q49 -7 79.5 -35t70.5 -95q33 38 54 59.5t53 41t63 21.5
v-98q-8 -1 -15.5 -4.5t-16.5 -10.5t-15.5 -12t-18 -17.5t-17 -18t-20 -21t-19.5 -21.5q65 -101 131 -163h-137zM129 205q0 -61 39.5 -92t97.5 -31q87 0 174 83q-52 93 -73 117q-40 45 -102 45q-61 0 -98.5 -33t-37.5 -89zM166 525q0 -38 25.5 -70.5t77.5 -32.5q48 0 75.5 31
t27.5 72q0 44 -30.5 72t-72.5 28t-72.5 -27t-30.5 -73z" />
    <glyph glyph-name="quotesingle" unicode="'" horiz-adv-x="262" 
d="M75 404v302h112v-302h-112z" />
    <glyph glyph-name="parenleft" unicode="(" horiz-adv-x="297" 
d="M287 -184h-107q-60 117 -93 220t-33 225q1 122 33.5 225.5t91.5 219.5h107q-109 -216 -109 -445q0 -227 110 -445z" />
    <glyph glyph-name="parenright" unicode=")" horiz-adv-x="297" 
d="M118 -184h-108q110 214 110 445q0 233 -109 445h108q59 -117 91 -220t33 -225t-32 -225t-93 -220z" />
    <glyph glyph-name="asterisk" unicode="*" horiz-adv-x="500" 
d="M329 320l-80 129l-77 -128l-83 56l103 116l-143 27l31 95l131 -51l-8 142h94l-8 -142l129 51l33 -95l-143 -27l103 -116z" />
    <glyph glyph-name="plus" unicode="+" horiz-adv-x="833" 
d="M696 301h-225v-227h-109v227h-224v105h224v225h109v-225h225v-105z" />
    <glyph glyph-name="comma" unicode="," horiz-adv-x="237" 
d="M100 -136l-73 60q35 36 35 91v118h122v-102q0 -54 -16.5 -88t-67.5 -79z" />
    <glyph glyph-name="hyphen" unicode="-" horiz-adv-x="410" 
d="M41 216v118h329v-118h-329z" />
    <glyph glyph-name="period" unicode="." horiz-adv-x="252" 
d="M59 135h134v-135h-134v135z" />
    <glyph glyph-name="slash" unicode="/" horiz-adv-x="355" 
d="M118 -10l-100 34l239 697l101 -33z" />
    <glyph glyph-name="zero" unicode="0" horiz-adv-x="692" 
d="M35 349q0 168 88 266.5t223 98.5q134 0 222 -98.5t88 -266.5t-88 -266.5t-222 -98.5t-222.5 99t-88.5 266zM166 349q0 -115 47.5 -187t132.5 -72t132.5 72t47.5 187q0 114 -47.5 186.5t-132.5 72.5t-132.5 -72t-47.5 -187z" />
    <glyph glyph-name="one" unicode="1" horiz-adv-x="526" 
d="M71 0l11 104h152v479q-54 -49 -147 -100l-56 88q48 26 98.5 60t76.5 55l26 20h120v-602h160l-11 -104h-430z" />
    <glyph glyph-name="two" unicode="2" horiz-adv-x="586" 
d="M519 0h-491q0 132 47.5 206t169.5 150q11 7 39.5 24.5t40 25.5t32 23.5t29.5 27t16.5 27t7.5 31.5q0 51 -41 76t-98 25q-110 0 -191 -50l-41 91q102 61 237 61q54 0 99 -10.5t83.5 -32.5t60.5 -62.5t22 -95.5q0 -68 -34.5 -113t-101.5 -80q-17 -10 -65 -34t-69 -37.5
t-52 -37.5t-45.5 -51t-17.5 -60h380z" />
    <glyph glyph-name="three" unicode="3" horiz-adv-x="601" 
d="M427 204q0 58 -41.5 89t-118.5 31h-132v92h118q62 0 96.5 28.5t34.5 72.5q0 52 -44.5 75.5t-102.5 24.5q-84 1 -174 -30l-33 90q99 38 218 38q48 0 91.5 -9.5t83 -29.5t63.5 -57t24 -87q0 -52 -32.5 -93.5t-83.5 -52.5q69 -10 117 -57t48 -128q0 -72 -44.5 -122
t-108.5 -70.5t-141 -20.5q-136 0 -247 38l33 94q119 -35 205 -34q70 1 120.5 29t50.5 89z" />
    <glyph glyph-name="four" unicode="4" horiz-adv-x="627" 
d="M374 208h-307l-44 98l310 400h159v-397h113l-10 -101h-103v-208h-118v208zM142 309h232v295z" />
    <glyph glyph-name="five" unicode="5" horiz-adv-x="630" 
d="M583 252q0 -124 -83 -194t-202 -70q-54 0 -104 9t-76 18t-75 28l32 100q39 -19 59.5 -28t61.5 -18.5t83 -8.5q75 1 123 44t48 124q0 65 -38.5 97t-94.5 32q-48 0 -83.5 -20.5t-50.5 -42.5h-107l17 384h431l5 -101h-339l-8 -190q69 62 169 63q106 0 169 -61t63 -165z" />
    <glyph glyph-name="six" unicode="6" horiz-adv-x="634" 
d="M37 283q0 126 68.5 239t189.5 184h201q-136 -58 -214 -136.5t-103 -166.5q76 69 172 69q115 0 184 -65.5t69 -172.5q0 -110 -78 -178t-201 -68q-130 0 -209 80t-79 215zM179 233q0 -67 40.5 -105.5t108.5 -38.5q69 0 110 38.5t41 105.5q0 65 -40.5 103t-106.5 38
q-68 0 -110.5 -38.5t-42.5 -102.5z" />
    <glyph glyph-name="seven" unicode="7" horiz-adv-x="540" 
d="M373 602h-361l6 104h507q-104 -337 -303 -706h-143q87 134 167 301.5t127 300.5z" />
    <glyph glyph-name="eight" unicode="8" horiz-adv-x="645" 
d="M35 207q0 69 41.5 118t108.5 62q-50 13 -81 53.5t-31 96.5q0 64 38.5 106.5t92 58.5t119.5 16q65 0 118.5 -16t92 -58.5t38.5 -106.5q0 -55 -31 -95.5t-81 -54.5q67 -14 108.5 -63.5t41.5 -117.5q0 -74 -42 -124.5t-105 -72t-141 -21.5q-121 0 -204 55.5t-83 163.5z
M165 216q0 -61 45.5 -95.5t111.5 -34.5q67 0 112.5 34.5t45.5 95.5q0 63 -45.5 95t-112.5 32q-66 0 -111.5 -32t-45.5 -95zM198 528q0 -53 37 -78t88 -25t88 25t37 78q0 52 -35.5 76.5t-89.5 24.5t-89.5 -24.5t-35.5 -76.5z" />
    <glyph glyph-name="nine" unicode="9" horiz-adv-x="633" 
d="M597 419q0 -123 -66.5 -234.5t-187.5 -184.5h-195q261 119 312 306q-81 -72 -179 -72q-113 0 -182 65.5t-69 172.5q0 112 79 179t196 67q133 0 212.5 -80.5t79.5 -218.5zM455 473q0 67 -40 105.5t-108 38.5q-69 0 -109.5 -39t-40.5 -105q0 -64 40.5 -102t105.5 -38
q67 0 109.5 38t42.5 102z" />
    <glyph glyph-name="colon" unicode=":" horiz-adv-x="252" 
d="M59 135h69h65v-135h-134v135zM59 519h134v-135h-134v135z" />
    <glyph glyph-name="semicolon" unicode=";" horiz-adv-x="252" 
d="M59 384v135h134v-135h-134zM106 -143l-75 60q35 38 35 91v125h124v-109q0 -53 -17.5 -88t-66.5 -79z" />
    <glyph glyph-name="less" unicode="&#x3c;" horiz-adv-x="833" 
d="M651 93l-475 210v101l475 206v-115l-352 -140l352 -147v-115z" />
    <glyph glyph-name="equal" unicode="=" horiz-adv-x="833" 
d="M696 421h-558v50v56h558v-106zM696 180h-558v106h558v-106z" />
    <glyph glyph-name="greater" unicode="&#x3e;" horiz-adv-x="833" 
d="M657 303l-474 -210v115l352 147l-352 140v115l474 -206v-101z" />
    <glyph glyph-name="question" unicode="?" horiz-adv-x="540" 
d="M140 176v156q25 -5 66 -5q72 0 123.5 37t51.5 106q0 65 -45.5 104.5t-111.5 39.5q-98 0 -172 -60l-49 83q97 81 235 81q118 0 194.5 -65t76.5 -179q0 -105 -71.5 -166t-179.5 -67v-65h-118zM133 119h134v-119h-134v119z" />
    <glyph glyph-name="at" unicode="@" horiz-adv-x="866" 
d="M576 153v63q-20 -31 -60 -50.5t-85 -19.5q-89 0 -147 57t-58 149t58.5 148.5t151.5 56.5q94 0 152.5 -55t58.5 -163v-106q88 4 88 143q0 122 -77.5 198t-218.5 76q-139 0 -223 -91.5t-84 -206.5q0 -138 84 -217.5t214 -79.5q99 0 170 49l38 -68q-10 -6 -27.5 -16
t-73.5 -26t-112 -16q-160 0 -267.5 101t-107.5 273q0 71 26.5 137.5t74.5 120t123.5 86t165.5 32.5q171 0 273.5 -96.5t102.5 -258.5q0 -220 -240 -220zM564 352q0 60 -35.5 94t-91.5 34q-60 0 -94 -36.5t-34 -91.5q0 -57 33.5 -93t93.5 -36q57 0 92.5 34.5t35.5 94.5z" />
    <glyph glyph-name="A" unicode="A" horiz-adv-x="625" 
d="M509 0l-62 179h-278l-61 -179h-115l248 706h146l246 -706h-124zM308 596l-107 -320h214z" />
    <glyph glyph-name="B" unicode="B" horiz-adv-x="658" 
d="M68 706h310q209 0 209 -182q0 -58 -25 -98.5t-75 -48.5q72 -10 107 -57t35 -120q0 -200 -230 -200h-158q-84 0 -128.5 43.5t-44.5 120.5v542zM188 364v-191q0 -73 79 -73h113q118 0 118 111q0 58 -28 82t-86 24h-118q-33 0 -50 11.5t-28 35.5zM188 606v-132q0 -31 18 -50
t53 -19h82q117 0 117 102q0 59 -29 79t-84 20h-157z" />
    <glyph glyph-name="C" unicode="C" horiz-adv-x="615" 
d="M37 354q1 168 104.5 266t267.5 98q110 0 196 -46l-49 -94q-63 34 -136 34q-115 0 -182.5 -71.5t-67.5 -186.5q0 -118 71 -189.5t189 -71.5q75 0 147 38l-11 -112q-70 -31 -157 -31q-165 0 -269 98.5t-103 267.5z" />
    <glyph glyph-name="D" unicode="D" horiz-adv-x="789" 
d="M434 0h-193q-84 0 -128.5 43.5t-44.5 121.5v541h366q151 0 237 -101t86 -252t-86 -252t-237 -101zM267 100h138q105 0 162 74t57 179t-57 179t-162 74h-217v-433q0 -73 79 -73z" />
    <glyph glyph-name="E" unicode="E" horiz-adv-x="586" 
d="M529 0h-289q-79 0 -125.5 41.5t-46.5 118.5v546h485l-18 -100h-347v-205h311l-17 -96h-294v-125q0 -80 76 -80h283z" />
    <glyph glyph-name="F" unicode="F" horiz-adv-x="536" 
d="M68 0v540q0 79 40.5 122.5t121.5 43.5h294l-17 -100h-217q-62 0 -82 -18.5t-20 -73.5v-116h299l-17 -97h-282v-301h-120z" />
    <glyph glyph-name="G" unicode="G" horiz-adv-x="783" 
d="M611 75q-34 -42 -93.5 -64.5t-121.5 -22.5q-157 0 -258.5 100t-101.5 261q0 169 104.5 269t275.5 100q166 0 269 -92l-60 -85q-80 75 -203 75q-117 0 -184 -72.5t-67 -191.5q0 -112 66.5 -185t180.5 -73q68 0 126.5 33.5t59.5 97.5v87h-274l14 99h378v-304q0 -70 33 -107
h-125q-18 28 -19 75z" />
    <glyph glyph-name="H" unicode="H" horiz-adv-x="712" 
d="M69 0v706h121v-300h333v300h120v-706h-120v307h-334v-307h-120z" />
    <glyph glyph-name="I" unicode="I" horiz-adv-x="259" 
d="M69 0v706h120v-706h-120z" />
    <glyph glyph-name="J" unicode="J" horiz-adv-x="276" 
d="M95 706h120v-340q0 -181 -97 -366h-131q36 64 54 101.5t36 112t18 158.5v334z" />
    <glyph glyph-name="K" unicode="K" horiz-adv-x="633" 
d="M69 706h120v-304h27l246 304h134l-262 -315h30q65 0 97.5 -28.5t62.5 -102.5l44 -109q15 -36 34.5 -72t33 -56t17.5 -23h-143q-8 9 -26.5 43t-31.5 68l-36 93q-24 62 -36 75q-22 22 -77 22h-114v-301h-120v706z" />
    <glyph glyph-name="L" unicode="L" horiz-adv-x="539" 
d="M525 0h-285q-79 0 -125.5 41.5t-46.5 118.5v546h120v-524q0 -80 76 -80h279z" />
    <glyph glyph-name="M" unicode="M" horiz-adv-x="866" 
d="M179 0h-110v706h196l163 -512h2l173 512h194v-706h-120l1 614h-2l-206 -614h-96l-194 614h-2z" />
    <glyph glyph-name="N" unicode="N" horiz-adv-x="729" 
d="M660 0h-139l-343 548v-548h-109v706h145l337 -542v542h109v-706z" />
    <glyph glyph-name="O" unicode="O" horiz-adv-x="832" 
d="M37 353q1 172 105 268.5t274 96.5q171 0 275.5 -96.5t104.5 -268.5t-104.5 -268.5t-275.5 -96.5q-170 0 -275 96.5t-104 268.5zM170 353q0 -114 65.5 -185.5t180.5 -71.5q116 0 181.5 71.5t65.5 185.5t-65.5 185.5t-181.5 71.5q-115 0 -180.5 -71.5t-65.5 -185.5z" />
    <glyph glyph-name="P" unicode="P" horiz-adv-x="669" 
d="M69 706h369q105 0 160 -63t55 -157q0 -96 -58 -157.5t-170 -61.5h-151q-25 0 -43 8.5t-24.5 16t-17.5 22.5v-314h-120v706zM189 607v-171q0 -68 83 -68h127q61 0 92.5 32t31.5 87q0 120 -118 120h-216z" />
    <glyph glyph-name="Q" unicode="Q" horiz-adv-x="832" 
d="M796 353q0 -159 -89.5 -254.5t-240.5 -107.5v-27q0 -57 29 -94h-108q-26 40 -26 92v29q-149 15 -237 110.5t-87 251.5q1 173 105.5 269t273.5 96q170 0 275 -96t105 -269zM170 353q0 -98 49 -165t141 -84v96h105v-96q95 14 146.5 81.5t51.5 167.5q0 114 -65.5 185.5
t-181.5 71.5t-181 -71.5t-65 -185.5z" />
    <glyph glyph-name="R" unicode="R" horiz-adv-x="701" 
d="M69 706h372q108 0 164.5 -63t56.5 -150q0 -85 -52.5 -142.5t-126.5 -59.5q26 -5 46.5 -17t33 -24.5t24.5 -34t18 -36.5t16 -41.5t16 -40.5q31 -68 54 -97h-142q-19 19 -40 74q-5 12 -13.5 37.5t-13 37t-13.5 31.5t-16.5 29t-20 22t-26 19t-32 10.5t-41.5 4.5h-63
q-15 0 -27.5 2.5t-19 4.5t-13 8.5t-8.5 9t-7 11.5t-6 11v-312h-120v706zM189 607v-177q0 -68 83 -68h136q60 0 92 33t32 88q0 124 -128 124h-215z" />
    <glyph glyph-name="S" unicode="S" horiz-adv-x="558" 
d="M30 41l44 101q99 -54 193 -54q126 0 126 99q0 42 -30 69.5t-86 53.5l-83 39q-80 37 -121 79t-41 108q0 90 72 136t179 46q115 0 221 -50l-42 -99q-76 50 -173 50q-127 0 -127 -81q0 -23 18 -42.5t32 -27.5t52 -25q2 -2 3.5 -2.5t4 -1.5t4.5 -2l82 -39q85 -40 125.5 -86.5
t40.5 -122.5q0 -98 -72.5 -149.5t-183.5 -51.5q-126 0 -238 53z" />
    <glyph glyph-name="T" unicode="T" horiz-adv-x="577" 
d="M228 0v604h-227v102h575l-14 -102h-214v-604h-120z" />
    <glyph glyph-name="U" unicode="U" horiz-adv-x="718" 
d="M64 238v468h120v-453q0 -81 51 -120t128 -39q78 0 128 39t50 120v453h113v-468q0 -123 -82.5 -186.5t-208.5 -63.5q-58 0 -109 13.5t-95 41.5t-69.5 78t-25.5 117z" />
    <glyph glyph-name="V" unicode="V" horiz-adv-x="633" 
d="M254 0l-266 706h131l203 -571l203 571h121l-264 -706h-128z" />
    <glyph glyph-name="W" unicode="W" horiz-adv-x="967" 
d="M220 0l-217 706h129l154 -543l146 543h116l149 -543l146 543h115l-207 -706h-122l-144 525l-145 -525h-120z" />
    <glyph glyph-name="X" unicode="X" horiz-adv-x="617" 
d="M308 264l-169 -264h-132l235 360l-226 346h134l159 -249l160 249h130l-225 -345q15 -23 102.5 -156.5t133.5 -204.5h-132z" />
    <glyph glyph-name="Y" unicode="Y" horiz-adv-x="580" 
d="M42 467v239h120v-222q0 -60 34.5 -90.5t96.5 -30.5q63 0 96 30.5t33 89.5v223h114v-245q0 -85 -47 -134.5t-134 -59.5v-267h-121v266q-93 9 -142.5 59.5t-49.5 141.5z" />
    <glyph glyph-name="Z" unicode="Z" horiz-adv-x="613" 
d="M570 0h-550q0 124 46 207t167 183q5 4 34 27.5t36.5 30t31 27t33.5 31.5t26 29t26 34.5t18 34.5h-383v102h538q-1 -60 -18.5 -111t-53.5 -96.5t-75.5 -81.5t-101.5 -82q-79 -61 -123.5 -112t-55.5 -120h405v-103z" />
    <glyph glyph-name="bracketleft" unicode="[" horiz-adv-x="322" 
d="M77 -184v890h246v-84h-133v-722h133v-84h-246z" />
    <glyph glyph-name="backslash" unicode="\" horiz-adv-x="355" 
d="M340 25l-103 -35l-242 697l103 34z" />
    <glyph glyph-name="bracketright" unicode="]" horiz-adv-x="317" 
d="M248 706v-890h-247v85h134v720h-134v85h247z" />
    <glyph glyph-name="asciicircum" unicode="^" horiz-adv-x="800" 
d="M439 706l243 -228h-143l-139 133l-139 -133h-143l244 228h77z" />
    <glyph glyph-name="underscore" unicode="_" horiz-adv-x="500" 
d="M0 -125h500v-80h-500v80z" />
    <glyph glyph-name="grave" unicode="`" horiz-adv-x="500" 
d="M268 602l-134 151h138l92 -151h-96z" />
    <glyph glyph-name="a" unicode="a" horiz-adv-x="649" 
d="M602 255v-255h-109v84q-33 -43 -85 -67.5t-113 -24.5q-115 0 -191 74t-76 194t80.5 197t205.5 77q132 0 210 -76t78 -203zM485 262q0 78 -47.5 126.5t-124.5 48.5q-76 0 -123 -50.5t-47 -124.5q0 -76 46.5 -125t123.5 -49t124.5 48.5t47.5 125.5z" />
    <glyph glyph-name="b" unicode="b" horiz-adv-x="638" 
d="M41 278v428h111v-258q29 38 79.5 62t114.5 24q117 0 191 -75t74 -197q0 -117 -80.5 -194t-201.5 -77q-132 0 -210 77t-78 210zM154 263q0 -78 47 -126.5t124 -48.5q76 0 123 50.5t47 124.5q0 76 -46.5 125t-123.5 49t-124 -48t-47 -126z" />
    <glyph glyph-name="c" unicode="c" horiz-adv-x="453" 
d="M422 113l-9 -99q-49 -23 -116 -23q-122 0 -195.5 74t-73.5 198q0 122 74.5 196.5t197.5 74.5q79 0 149 -35l-38 -88q-47 29 -99 29q-74 0 -121 -48t-47 -129q0 -79 46 -129t129 -49q57 1 103 28z" />
    <glyph glyph-name="d" unicode="d" horiz-adv-x="638" 
d="M597 706v-426q0 -133 -78 -211t-210 -78q-122 0 -201.5 77t-79.5 195q0 122 76 196.5t194 74.5q62 0 111 -23t77 -61v256h111zM485 263q0 77 -47.5 125.5t-124.5 48.5t-123.5 -49t-46.5 -125q0 -74 47 -124.5t123 -50.5q77 0 124.5 48.5t47.5 126.5z" />
    <glyph glyph-name="e" unicode="e" horiz-adv-x="590" 
d="M451 109l-8 -94q-53 -24 -131 -24q-127 0 -205.5 75.5t-78.5 200.5q0 117 76.5 192t196.5 75q129 0 199 -80.5t68 -214.5h-421q7 -79 59.5 -119t126.5 -40q66 0 118 29zM303 449q-60 0 -101 -34.5t-54 -93.5h300q-8 61 -46.5 94.5t-98.5 33.5z" />
    <glyph glyph-name="f" unicode="f" horiz-adv-x="279" 
d="M167 0h-112v533q0 86 48.5 132t136.5 46q43 0 91 -13l-19 -84q-25 9 -58 9q-85 0 -85 -76v-27h132l-16 -88h-118v-432z" />
    <glyph glyph-name="g" unicode="g" horiz-adv-x="647" 
d="M602 251v-132q0 -97 -21 -160.5t-93 -142.5h-138q65 53 101.5 115t42.5 155q-30 -45 -83 -69.5t-116 -24.5q-116 0 -191.5 74.5t-75.5 194.5q0 121 82 197t201 76q133 0 212 -76t79 -207zM485 262q0 78 -47.5 126.5t-124.5 48.5q-75 0 -122.5 -50.5t-47.5 -124.5
q0 -76 46.5 -125t123.5 -49t124.5 48.5t47.5 125.5z" />
    <glyph glyph-name="h" unicode="h" horiz-adv-x="579" 
d="M55 706h111v-239q51 67 153 67q100 0 154.5 -54.5t54.5 -159.5v-320h-111v306q0 135 -119 135q-59 0 -95.5 -33.5t-36.5 -96.5v-311h-111v706z" />
    <glyph glyph-name="i" unicode="i" horiz-adv-x="222" 
d="M55 527h112v-527h-112v527zM55 706h112v-96h-112v96z" />
    <glyph glyph-name="j" unicode="j" horiz-adv-x="223" 
d="M58 527h112v-331q0 -68 -10.5 -132t-26 -107t-30.5 -76.5t-25 -48.5l-11 -16h-123q5 6 12.5 18t27 50t34.5 79.5t27.5 104t12.5 125.5v334zM58 706h112v-96h-112v96z" />
    <glyph glyph-name="k" unicode="k" horiz-adv-x="498" 
d="M55 706h112v-399h19l175 220h124l-184 -224h15q48 0 70 -20t39 -70l29 -88q26 -79 57 -125h-124q-19 42 -33 83l-28 83q-11 35 -24.5 48.5t-44.5 13.5h-90v-228h-112v706z" />
    <glyph glyph-name="l" unicode="l" horiz-adv-x="222" 
d="M55 706h112v-706h-112v706z" />
    <glyph glyph-name="m" unicode="m" horiz-adv-x="890" 
d="M442 428h4q20 52 70 79t112 27q97 0 153 -53.5t56 -152.5v-328h-111v308q0 61 -28 95t-84 34q-114 0 -114 -130v-307h-110v307q0 130 -114 130q-56 0 -84 -34.5t-28 -94.5v-308h-111v328q0 99 56 152.5t153 53.5q62 0 110.5 -27t69.5 -79z" />
    <glyph glyph-name="n" unicode="n" 
d="M413 0v302q0 65 -32 100t-94 35q-61 0 -93 -35t-32 -100v-302h-111v320q0 104 64 158.5t172 54.5q109 0 173 -54.5t64 -158.5v-320h-111z" />
    <glyph glyph-name="o" unicode="o" horiz-adv-x="629" 
d="M28 262q0 125 83.5 199t203.5 73q124 -1 204.5 -73.5t81.5 -198.5t-80 -198.5t-206 -72.5t-206 72.5t-81 198.5zM144 262q0 -79 48 -126.5t123 -47.5t122.5 47.5t46.5 126.5q0 79 -47.5 127t-121.5 48q-72 1 -121.5 -47.5t-49.5 -127.5z" />
    <glyph glyph-name="p" unicode="p" horiz-adv-x="642" 
d="M44 -181v444q0 120 77.5 195.5t207.5 75.5q124 0 204.5 -76.5t80.5 -196.5q0 -119 -74.5 -194.5t-189.5 -75.5q-130 0 -195 88v-260h-111zM157 262q0 -77 47.5 -125.5t124.5 -48.5t123 49t46 125q0 74 -47 124.5t-122 50.5q-77 0 -124.5 -48.5t-47.5 -126.5z" />
    <glyph glyph-name="q" unicode="q" horiz-adv-x="648" 
d="M597 262v-443h-111v260q-65 -88 -195 -88q-115 0 -189 75.5t-74 194.5q0 120 80.5 196.5t204.5 76.5q129 0 206.5 -76t77.5 -196zM485 262q0 78 -47.5 126.5t-124.5 48.5q-76 0 -123 -50.5t-47 -124.5q0 -76 46.5 -125t123.5 -49t124.5 48.5t47.5 125.5z" />
    <glyph glyph-name="r" unicode="r" horiz-adv-x="333" 
d="M348 519l-25 -95q-30 12 -60 12q-57 0 -79 -33t-22 -101v-302h-111v322q0 212 209 212q20 0 88 -15z" />
    <glyph glyph-name="s" unicode="s" horiz-adv-x="427" 
d="M21 31l36 90q78 -42 148 -42q82 0 82 64q0 29 -22 47.5t-69 39.5l-43 20q-31 14 -51 25.5t-40.5 29t-30.5 40t-10 51.5q0 70 54.5 104t137.5 34q94 0 177 -40l-37 -88q-64 41 -135 41q-81 0 -81 -50q0 -6 1.5 -11t5 -9.5t6.5 -8t9.5 -8t10.5 -7.5t12.5 -7t13 -6t15 -7
t14.5 -7l43 -20q67 -31 101 -66.5t34 -95.5q0 -75 -56 -114t-141 -39q-98 0 -185 40z" />
    <glyph glyph-name="t" unicode="t" horiz-adv-x="273" 
d="M48 268v393l112 44v-178h108l-17 -89h-91v-172q0 -123 97 -257l6 -9h-124l-11 16q-11 17 -14.5 23t-14.5 25t-16 31.5t-13 34.5t-12 41.5t-7 45t-3 51.5z" />
    <glyph glyph-name="u" unicode="u" 
d="M413 223v304h111v-322q0 -104 -64 -159t-173 -55q-108 0 -172 55t-64 159v322h111v-304q0 -65 32 -100t93 -35q62 0 94 35t32 100z" />
    <glyph glyph-name="v" unicode="v" horiz-adv-x="464" 
d="M175 0q-135 377 -183 514q-3 9 -4 11l-1 2h120l130 -413l130 413h110l-188 -527h-114z" />
    <glyph glyph-name="w" unicode="w" horiz-adv-x="886" 
d="M446 97h-4q-20 -52 -70 -79t-112 -27q-97 0 -153 53.5t-56 152.5v330h111v-309q0 -62 28 -96t84 -34q114 0 114 130v309h110v-309q0 -130 114 -130q56 0 84 34.5t28 95.5v309h111v-330q0 -99 -56 -152.5t-153 -53.5q-61 0 -110 27t-70 79z" />
    <glyph glyph-name="x" unicode="x" horiz-adv-x="497" 
d="M118 0h-121l190 268l-184 259h123l123 -178l122 178h122l-184 -258l192 -269h-123l-130 187z" />
    <glyph glyph-name="y" unicode="y" horiz-adv-x="577" 
d="M428 -184h-133q5 4 12.5 11.5t27 33t35 52.5t29 68t14.5 82q-52 -72 -155 -72q-98 0 -152.5 52t-54.5 160v324h111v-299q0 -140 118 -140q70 0 101.5 39.5t31.5 98.5v301h111v-455q0 -68 -24 -132t-48 -94z" />
    <glyph glyph-name="z" unicode="z" horiz-adv-x="470" 
d="M314 439h-279v88h414q0 -86 -37.5 -145t-114.5 -120q-63 -50 -97.5 -90t-42.5 -84h284v-88h-424q1 56 14 101t39.5 82.5t53.5 63.5t70 61q100 79 120 131z" />
    <glyph glyph-name="braceleft" unicode="{" horiz-adv-x="333" 
d="M105 -30v170q0 33 -19.5 56t-57.5 23v86q38 0 57.5 23t19.5 56v172q0 78 38 114t127 36h77v-85h-52q-77 0 -77 -85v-174q0 -42 -18 -65.5t-61 -34.5q44 -12 61.5 -35.5t17.5 -65.5v-169q0 -49 23 -70t54 -21h52v-85h-75q-90 0 -128.5 38t-38.5 116z" />
    <glyph glyph-name="bar" unicode="|" horiz-adv-x="500" 
d="M204 764h92v-1000h-92v1000z" />
    <glyph glyph-name="braceright" unicode="}" horiz-adv-x="333" 
d="M228 140v-170q0 -78 -39 -116t-128 -38h-76v85h52q32 0 55 20.5t23 70.5v169q0 42 17.5 65.5t61.5 35.5q-43 11 -61 34.5t-18 65.5v174q0 85 -77 85h-53v85h77q90 0 128 -36t38 -114v-172q0 -34 19.5 -56.5t57.5 -22.5v-86q-38 0 -57.5 -22.5t-19.5 -56.5z" />
    <glyph glyph-name="asciitilde" unicode="~" horiz-adv-x="821" 
d="M670 430l36 -95q-87 -63 -170 -63q-14 0 -26.5 1.5t-29 6.5t-22 6.5t-26.5 9.5l-22 8q-80 28 -124 28q-35 0 -64 -11.5t-72 -42.5l-35 94q89 65 174 65q47 0 128 -29q85 -31 120 -31t63.5 11.5t69.5 41.5z" />
    <glyph glyph-name="nbspace" unicode="&#xa0;" horiz-adv-x="317" 
 />
    <glyph glyph-name="exclamdown" unicode="&#xa1;" horiz-adv-x="255" 
d="M78 291h97l13 -472h-123zM60 385v140h134v-140h-62h-72z" />
    <glyph glyph-name="cent" unicode="&#xa2;" horiz-adv-x="484" 
d="M258 -25v94q-102 16 -163 87.5t-61 179.5q0 111 60 182.5t164 85.5v77h71v-74q73 -3 131 -33l-37 -89q-42 26 -94 29v-355h4q63 0 103 31l-9 -102q-45 -20 -98 -23v-90h-71zM151 336q0 -59 28.5 -102t78.5 -62v332q-51 -17 -79 -60.5t-28 -107.5z" />
    <glyph glyph-name="sterling" unicode="&#xa3;" horiz-adv-x="572" 
d="M38 0v101q55 0 90.5 3.5t70.5 13.5t52 32t17 57q0 54 -73 121h-157v64h98q-64 64 -64 145q0 62 39.5 104.5t91 59t107.5 16.5q119 0 202 -50l-43 -88q-78 41 -148 41q-51 0 -86 -23.5t-35 -66.5q0 -26 17.5 -55t30.5 -42.5t42 -40.5h216l-9 -64h-155q14 -20 20.5 -29
t14.5 -29t8 -39q1 -86 -86 -129h244l-17 -102h-488z" />
    <glyph glyph-name="currency" unicode="&#xa4;" horiz-adv-x="582" 
d="M151 352q0 -57 41.5 -98.5t99.5 -41.5q57 0 98 41.5t41 98.5q0 58 -40.5 99.5t-98.5 41.5t-99.5 -41.5t-41.5 -99.5zM58 352q0 69 38 126l-66 71l66 60l63 -67q59 43 133 43q70 0 131 -43l64 67l65 -60l-66 -71q38 -59 38 -126q0 -70 -38 -126l66 -71l-66 -62l-63 69
q-60 -42 -131 -42q-75 0 -133 42l-63 -68l-66 61l66 71q-38 57 -38 126z" />
    <glyph glyph-name="yen" unicode="&#xa5;" 
d="M97 131h134v40h-134v60h134v35q-88 3 -139.5 56t-51.5 145v239h117v-222q0 -121 134 -121q65 0 99 31t33 89v223h111v-245q1 -88 -48.5 -139t-133.5 -55v-36h134v-60h-134v-40h134v-59h-134v-72h-121v72h-134v59z" />
    <glyph glyph-name="brokenbar" unicode="&#xa6;" horiz-adv-x="500" 
d="M204 699h92v-370h-92v370zM204 199h92v-370h-41h-51v370z" />
    <glyph glyph-name="section" unicode="&#xa7;" horiz-adv-x="600" 
d="M532 210q0 -89 -88 -141q59 -48 59 -128q0 -88 -56.5 -127.5t-140.5 -39.5q-104 0 -209 57l38 85q85 -57 171 -57q39 0 68.5 18.5t29.5 59.5q0 21 -6 36.5t-20.5 27.5t-26.5 18.5t-36 18.5l-112 54q-75 36 -105 81.5t-30 106.5q0 91 90 142q-59 45 -59 129t58 125.5
t152 41.5q90 0 181 -49l-37 -83q-76 47 -144 47q-45 0 -78 -18.5t-33 -61.5q0 -21 5.5 -36t21 -27.5t25 -18t35.5 -18.5l112 -55q76 -38 105.5 -83t29.5 -105zM341 322l-124 63q-49 -39 -49 -101q0 -40 20.5 -66t70.5 -50l123 -61q51 36 51 99q0 39 -21.5 66t-70.5 50z" />
    <glyph glyph-name="dieresis" unicode="&#xa8;" horiz-adv-x="500" 
d="M92 625v105h104v-105h-50h-54zM304 625v105h105v-105h-105z" />
    <glyph glyph-name="copyright" unicode="&#xa9;" horiz-adv-x="713" 
d="M63 353q0 121 86 207t207 86t207 -86t86 -207t-86 -207t-207 -86t-207 86t-86 207zM129 353q0 -94 66.5 -161t160.5 -67t161 66.5t67 161.5t-67 161.5t-161 66.5t-160.5 -67t-66.5 -161zM444 264l-1 -66q-31 -14 -71 -14q-76 0 -123.5 45.5t-47.5 120.5q0 76 48 121.5
t123 45.5q56 0 93 -23l-31 -57q-20 17 -58 17q-45 0 -73.5 -28t-28.5 -76t30.5 -75.5t75.5 -27.5q39 0 64 17z" />
    <glyph glyph-name="ordfeminine" unicode="&#xaa;" horiz-adv-x="427" 
d="M390 540v-158h-75v51q-12 -23 -43.5 -39.5t-71.5 -16.5q-76 0 -126.5 45.5t-50.5 120.5q0 76 52 122.5t133 46.5q82 0 132 -47t50 -125zM306 545q0 45 -27 73t-72 28t-72 -28t-27 -73q0 -46 27 -74.5t72 -28.5t72 28.5t27 74.5z" />
    <glyph glyph-name="guillemotleft" unicode="&#xab;" horiz-adv-x="645" 
d="M319 393l-177 -128l177 -128v-117l-279 201v88l279 201v-117zM595 393l-176 -128l176 -128v-59v-58l-279 201v88l279 201v-117z" />
    <glyph glyph-name="logicalnot" unicode="&#xac;" horiz-adv-x="833" 
d="M696 407v-310h-106v203h-452v107h558z" />
    <glyph glyph-name="uni00AD" unicode="&#xad;" horiz-adv-x="410" 
d="M41 216v118h329v-118h-329z" />
    <glyph glyph-name="registered" unicode="&#xae;" horiz-adv-x="687" 
d="M235 594h144q43 0 66.5 -26.5t23.5 -62.5q0 -34 -22.5 -56t-52.5 -23q11 -1 20 -6t15.5 -15.5t10.5 -19.5t10 -25.5t10 -24.5q15 -30 20 -35h-69q-5 7 -14 31l-6.5 19.5t-7 19t-7 14.5t-9.5 13t-12.5 7t-17.5 3h-15q-18 0 -27 15v-121h-60v293zM295 545v-62
q0 -16 7.5 -22t29.5 -6h24q25 0 38.5 12t13.5 33q0 27 -13.5 36t-42.5 9h-57zM63 447q0 115 82.5 197.5t198.5 82.5t198 -82.5t82 -197.5t-82 -197.5t-198 -82.5t-198.5 82.5t-82.5 197.5zM128 447q0 -89 63.5 -152.5t152.5 -63.5t152 63.5t63 152.5t-63 152.5t-152 63.5
t-152.5 -63.5t-63.5 -152.5z" />
    <glyph glyph-name="macron" unicode="&#xaf;" horiz-adv-x="500" 
d="M100 638v77h300v-77h-300z" />
    <glyph glyph-name="degree" unicode="&#xb0;" horiz-adv-x="413" 
d="M21 532q0 77 54.5 131.5t131.5 54.5t131.5 -54.5t54.5 -131.5t-54.5 -131.5t-131.5 -54.5t-131.5 54.5t-54.5 131.5zM98 532q0 -45 32 -77t77 -32t76.5 32t31.5 77t-31.5 77t-76.5 32t-77 -32t-32 -77z" />
    <glyph glyph-name="plusminus" unicode="&#xb1;" horiz-adv-x="833" 
d="M690 355h-214v-217h-109v217h-214v106h214v215h109v-215h214v-106zM690 -15h-537v106h537v-106z" />
    <glyph glyph-name="twosuperior" unicode="&#xb2;" horiz-adv-x="389" 
d="M337 251h-315q0 65 28 97q6 39 29 68.5t52 47t57 33t47 36t19 47.5q0 55 -78 55q-59 0 -112 -34l-31 71q65 40 152 40q72 0 120.5 -31t48.5 -99q0 -41 -22.5 -72.5t-56 -51t-67 -37t-59.5 -40.5t-31 -51h230z" />
    <glyph glyph-name="threesuperior" unicode="&#xb3;" horiz-adv-x="399" 
d="M270 388q0 32 -22.5 49.5t-63.5 17.5h-90v75h81q32 0 50.5 15.5t18.5 40.5q0 29 -24.5 42t-54.5 13q-56 1 -114 -22l-25 70q67 27 143 27q68 0 118.5 -29t50.5 -91q0 -29 -16.5 -54t-43.5 -38q40 -11 65.5 -41.5t25.5 -77.5q0 -69 -55.5 -104.5t-133.5 -35.5
q-83 0 -162 28l24 70q81 -24 134 -23q38 0 66 16t28 52z" />
    <glyph glyph-name="acute" unicode="&#xb4;" horiz-adv-x="500" 
d="M364 751l-132 -149h-96l89 149h139z" />
    <glyph glyph-name="mu" unicode="&#xb5;" horiz-adv-x="596" 
d="M415 225v302h111v-527h-111v53q-15 -21 -44.5 -40t-73.5 -19q-32 0 -57.5 9.5t-36 18.5t-24.5 24v-230h-111v711h111v-302q0 -64 31 -100.5t87 -36.5t87 36.5t31 100.5z" />
    <glyph glyph-name="paragraph" unicode="&#xb6;" horiz-adv-x="693" 
d="M637 706v-77h-68v-775h-89v775h-91v-775h-89v420q-103 4 -169 64t-66 155q0 110 66.5 161.5t183.5 51.5h322z" />
    <glyph glyph-name="periodcentered" unicode="&#xb7;" horiz-adv-x="252" 
d="M59 405h134v-135h-134v135z" />
    <glyph glyph-name="cedilla" unicode="&#xb8;" horiz-adv-x="500" 
d="M202 5h71l-13 -66q19 -2 38 -9t38.5 -30t19.5 -58q0 -38 -22.5 -68t-56 -46.5t-56.5 -24.5t-40 -11l-20 57q100 37 100 85q0 28 -24.5 41.5t-58.5 12.5z" />
    <glyph glyph-name="onesuperior" unicode="&#xb9;" horiz-adv-x="297" 
d="M146 253v358l-76 -61l-44 60l117 96h93v-453h-90z" />
    <glyph glyph-name="ordmasculine" unicode="&#xba;" horiz-adv-x="412" 
d="M23 545q0 79 51.5 123t130.5 44q81 0 132 -44t51 -123t-51 -123.5t-132 -44.5q-79 0 -130.5 45t-51.5 123zM108 545q0 -45 27.5 -73.5t69.5 -28.5q43 0 70.5 28.5t27.5 73.5q0 46 -27.5 73.5t-70.5 27.5t-70 -27.5t-27 -73.5z" />
    <glyph glyph-name="guillemotright" unicode="&#xbb;" horiz-adv-x="638" 
d="M219 265l-176 128v117l279 -201v-88l-279 -201v117zM496 265l-176 128v117l279 -201v-88l-279 -201v64v53z" />
    <glyph glyph-name="onequarter" unicode="&#xbc;" horiz-adv-x="857" 
d="M270 -12l-70 35l326 694l72 -30zM146 253v358l-76 -61l-44 60l117 96h93v-453h-90zM674 134h-182l-27 69l181 251h116v-249h55l-8 -71h-47v-134h-88v134zM674 381l-127 -176h127v176z" />
    <glyph glyph-name="onehalf" unicode="&#xbd;" horiz-adv-x="884" 
d="M270 -12l-70 35l326 694l72 -30zM832 0h-316v31q0 57 24 99t58 65t67.5 41.5t57.5 41t24 51.5q0 55 -78 55q-58 0 -112 -34l-31 71q67 40 152 40q72 0 120.5 -31t48.5 -99q0 -41 -22.5 -72.5t-55.5 -51t-66.5 -37t-59.5 -40.5t-31 -51h230zM146 253v358l-76 -61l-44 60
l117 96h93v-453h-90z" />
    <glyph glyph-name="threequarters" unicode="&#xbe;" horiz-adv-x="938" 
d="M347 -12l-70 35l327 694l72 -30zM751 133h-181l-28 69l182 251h116v-248h54l-8 -72h-46v-133h-89v133zM751 380l-127 -175h127v175zM270 388q0 32 -22.5 49.5t-63.5 17.5h-90v75h81q32 0 50.5 15.5t18.5 40.5q0 29 -24.5 42t-54.5 13q-56 1 -114 -22l-25 70q67 27 143 27
q68 0 118.5 -29t50.5 -91q0 -29 -16.5 -54t-43.5 -38q40 -11 65.5 -41.5t25.5 -77.5q0 -69 -55.5 -104.5t-133.5 -35.5q-83 0 -162 28l24 70q81 -24 134 -23q38 0 66 16t28 52z" />
    <glyph glyph-name="questiondown" unicode="&#xbf;" horiz-adv-x="540" 
d="M421 348v-156q-25 5 -66 5q-72 0 -123.5 -37t-51.5 -106q0 -65 45.5 -104.5t111.5 -39.5q99 0 173 60l49 -83q-99 -81 -236 -81q-118 0 -194.5 65t-76.5 179q0 105 71.5 166t179.5 67v65h118zM429 407h-134v118h134v-118z" />
    <glyph glyph-name="Agrave" unicode="&#xc0;" horiz-adv-x="625" 
d="M509 0l-62 179h-278l-61 -179h-115l248 706h146l246 -706h-124zM308 596l-107 -320h214zM271 773l-134 151h138l92 -151h-96z" />
    <glyph glyph-name="Aacute" unicode="&#xc1;" horiz-adv-x="625" 
d="M509 0l-62 179h-278l-61 -179h-115l248 706h146l246 -706h-124zM308 596l-107 -320h214zM497 922l-132 -149h-96l89 149h139z" />
    <glyph glyph-name="Acircumflex" unicode="&#xc2;" horiz-adv-x="625" 
d="M509 0l-62 179h-278l-61 -179h-115l248 706h146l246 -706h-124zM308 596l-107 -320h214zM319 863l-81 -90h-90l111 149h121l112 -149h-91z" />
    <glyph glyph-name="Atilde" unicode="&#xc3;" horiz-adv-x="625" 
d="M509 0l-62 179h-278l-61 -179h-115l248 706h146l246 -706h-124zM308 596l-107 -320h214zM216 784h-65q2 15 6 31t14.5 40.5t32 40t50.5 15.5q26 0 69.5 -21.5t60.5 -21.5q10 0 18 4.5t12 11.5t6 13.5t3 13t1 7.5h65q-2 -15 -6 -31.5t-14.5 -41t-31 -40.5t-47.5 -16
q-28 0 -71 23.5t-60 23.5q-11 0 -19 -4.5t-12 -12t-6.5 -14t-3.5 -14.5z" />
    <glyph glyph-name="Adieresis" unicode="&#xc4;" horiz-adv-x="625" 
d="M509 0l-62 179h-278l-61 -179h-115l248 706h146l246 -706h-124zM308 596l-107 -320h214zM162 796v105h104v-105h-50h-54zM374 796v105h105v-105h-105z" />
    <glyph glyph-name="Aring" unicode="&#xc5;" horiz-adv-x="625" 
d="M509 0l-62 179h-278l-61 -179h-115l248 706h146l246 -706h-124zM308 596l-107 -320h214zM188 895q0 55 38.5 93.5t93.5 38.5t94 -38.5t39 -93.5t-38.5 -93.5t-94.5 -38.5t-94 38t-38 94zM253 895q0 -28 19.5 -47.5t47.5 -19.5t47.5 19.5t19.5 47.5t-19.5 47.5t-47.5 19.5
t-47.5 -19.5t-19.5 -47.5z" />
    <glyph glyph-name="AE" unicode="&#xc6;" horiz-adv-x="929" 
d="M872 0h-299q-74 0 -117.5 38.5t-43.5 107.5v33h-234l-69 -179h-116l273 706h630l-18 -100h-347v-205h311l-17 -96h-294v-125q0 -80 76 -80h283zM340 606l-127 -330h198v330h-71z" />
    <glyph glyph-name="Ccedilla" unicode="&#xc7;" horiz-adv-x="615" 
d="M37 354q1 168 104.5 266t267.5 98q110 0 196 -46l-49 -94q-63 34 -136 34q-115 0 -182.5 -71.5t-67.5 -186.5q0 -118 71 -189.5t189 -71.5q75 0 147 38l-11 -112q-68 -30 -158 -31l-10 -49q19 -2 38 -9t38.5 -30t19.5 -58q0 -38 -22.5 -68t-56 -46.5t-56.5 -24.5t-40 -11
l-19 57q99 37 99 85q0 28 -24.5 41.5t-58.5 12.5l21 105q-137 21 -219 116.5t-81 244.5z" />
    <glyph glyph-name="Egrave" unicode="&#xc8;" horiz-adv-x="586" 
d="M529 0h-289q-79 0 -125.5 41.5t-46.5 118.5v546h485l-18 -100h-347v-205h311l-17 -96h-294v-125q0 -80 76 -80h283zM265 765l-134 151h138l92 -151h-96z" />
    <glyph glyph-name="Eacute" unicode="&#xc9;" horiz-adv-x="586" 
d="M529 0h-289q-79 0 -125.5 41.5t-46.5 118.5v546h485l-18 -100h-347v-205h311l-17 -96h-294v-125q0 -80 76 -80h283zM491 914l-132 -149h-96l89 149h139z" />
    <glyph glyph-name="Ecircumflex" unicode="&#xca;" horiz-adv-x="586" 
d="M529 0h-289q-79 0 -125.5 41.5t-46.5 118.5v546h485l-18 -100h-347v-205h311l-17 -96h-294v-125q0 -80 76 -80h283zM304 855l-81 -90h-90l111 149h121l112 -149h-91z" />
    <glyph glyph-name="Edieresis" unicode="&#xcb;" horiz-adv-x="586" 
d="M529 0h-289q-79 0 -125.5 41.5t-46.5 118.5v546h485l-18 -100h-347v-205h311l-17 -96h-294v-125q0 -80 76 -80h283zM148 788v105h104v-105h-50h-54zM360 788v105h105v-105h-105z" />
    <glyph glyph-name="Igrave" unicode="&#xcc;" horiz-adv-x="259" 
d="M69 0v706h120v-706h-120zM88 765l-134 151h138l92 -151h-96z" />
    <glyph glyph-name="Iacute" unicode="&#xcd;" horiz-adv-x="259" 
d="M69 0v706h120v-706h-120zM314 914l-132 -149h-96l89 149h139z" />
    <glyph glyph-name="Icircumflex" unicode="&#xce;" horiz-adv-x="259" 
d="M69 0v706h120v-706h-120zM127 855l-81 -90h-90l111 149h121l112 -149h-91z" />
    <glyph glyph-name="Idieresis" unicode="&#xcf;" horiz-adv-x="259" 
d="M69 0v706h120v-706h-120zM-29 788v105h104v-105h-50h-54zM183 788v105h105v-105h-105z" />
    <glyph glyph-name="Eth" unicode="&#xd0;" horiz-adv-x="793" 
d="M438 0h-194q-84 0 -128.5 43.5t-44.5 121.5v154h-82v87h82v300h367q150 0 236 -101t86 -252t-86 -252t-236 -101zM270 100h138q105 0 162 74t57 179t-57 179t-162 74h-217v-200h154v-87h-154v-146q0 -73 79 -73z" />
    <glyph glyph-name="Ntilde" unicode="&#xd1;" horiz-adv-x="729" 
d="M660 0h-139l-343 548v-548h-109v706h145l337 -542v542h109v-706zM264 776h-65q2 15 6 31t14.5 40.5t32 40t50.5 15.5q26 0 69.5 -21.5t60.5 -21.5q10 0 18 4.5t12 11.5t6 13.5t3 13t1 7.5h65q-2 -15 -6 -31.5t-14.5 -41t-31 -40.5t-47.5 -16q-28 0 -71 23.5t-60 23.5
q-11 0 -19 -4.5t-12 -12t-6.5 -14t-3.5 -14.5z" />
    <glyph glyph-name="Ograve" unicode="&#xd2;" horiz-adv-x="832" 
d="M37 353q1 172 105 268.5t274 96.5q171 0 275.5 -96.5t104.5 -268.5t-104.5 -268.5t-275.5 -96.5q-170 0 -275 96.5t-104 268.5zM170 353q0 -114 65.5 -185.5t180.5 -71.5q116 0 181.5 71.5t65.5 185.5t-65.5 185.5t-181.5 71.5q-115 0 -180.5 -71.5t-65.5 -185.5z
M376 777l-134 151h138l92 -151h-96z" />
    <glyph glyph-name="Oacute" unicode="&#xd3;" horiz-adv-x="832" 
d="M37 353q1 172 105 268.5t274 96.5q171 0 275.5 -96.5t104.5 -268.5t-104.5 -268.5t-275.5 -96.5q-170 0 -275 96.5t-104 268.5zM170 353q0 -114 65.5 -185.5t180.5 -71.5q116 0 181.5 71.5t65.5 185.5t-65.5 185.5t-181.5 71.5q-115 0 -180.5 -71.5t-65.5 -185.5z
M602 926l-132 -149h-96l89 149h139z" />
    <glyph glyph-name="Ocircumflex" unicode="&#xd4;" horiz-adv-x="832" 
d="M37 353q1 172 105 268.5t274 96.5q171 0 275.5 -96.5t104.5 -268.5t-104.5 -268.5t-275.5 -96.5q-170 0 -275 96.5t-104 268.5zM170 353q0 -114 65.5 -185.5t180.5 -71.5q116 0 181.5 71.5t65.5 185.5t-65.5 185.5t-181.5 71.5q-115 0 -180.5 -71.5t-65.5 -185.5z
M416 867l-81 -90h-90l111 149h121l112 -149h-91z" />
    <glyph glyph-name="Otilde" unicode="&#xd5;" horiz-adv-x="832" 
d="M37 353q1 172 105 268.5t274 96.5q171 0 275.5 -96.5t104.5 -268.5t-104.5 -268.5t-275.5 -96.5q-170 0 -275 96.5t-104 268.5zM170 353q0 -114 65.5 -185.5t180.5 -71.5q116 0 181.5 71.5t65.5 185.5t-65.5 185.5t-181.5 71.5q-115 0 -180.5 -71.5t-65.5 -185.5z
M314 788h-65q2 15 6 31t14.5 40.5t32 40t50.5 15.5q26 0 69.5 -21.5t60.5 -21.5q10 0 18 4.5t12 11.5t6 13.5t3 13t1 7.5h65q-2 -15 -6 -31.5t-14.5 -41t-31 -40.5t-47.5 -16q-28 0 -71 23.5t-60 23.5q-11 0 -19 -4.5t-12 -12t-6.5 -14t-3.5 -14.5z" />
    <glyph glyph-name="Odieresis" unicode="&#xd6;" horiz-adv-x="832" 
d="M37 353q1 172 105 268.5t274 96.5q171 0 275.5 -96.5t104.5 -268.5t-104.5 -268.5t-275.5 -96.5q-170 0 -275 96.5t-104 268.5zM170 353q0 -114 65.5 -185.5t180.5 -71.5q116 0 181.5 71.5t65.5 185.5t-65.5 185.5t-181.5 71.5q-115 0 -180.5 -71.5t-65.5 -185.5z
M260 800v105h104v-105h-50h-54zM472 800v105h105v-105h-105z" />
    <glyph glyph-name="multiply" unicode="&#xd7;" horiz-adv-x="833" 
d="M695 561l-204 -205l201 -204l-77 -78l-201 205l-201 -205l-75 75l202 204l-202 203l78 76l201 -202l203 205z" />
    <glyph glyph-name="Oslash" unicode="&#xd8;" horiz-adv-x="832" 
d="M36 33l79 78q-79 95 -78 242q1 173 105.5 269t273.5 96q144 0 243 -70l80 79l57 -54l-79 -79q79 -95 79 -241q0 -173 -105 -269t-275 -96q-146 0 -243 69l-79 -78zM663 353q0 86 -40 149l-362 -358q60 -48 155 -48q117 0 182 71.5t65 185.5zM170 353q0 -88 38 -150
l363 358q-63 49 -155 49q-116 0 -181 -71.5t-65 -185.5z" />
    <glyph glyph-name="Ugrave" unicode="&#xd9;" horiz-adv-x="718" 
d="M64 238v468h120v-453q0 -81 51 -120t128 -39q78 0 128 39t50 120v453h113v-468q0 -123 -82.5 -186.5t-208.5 -63.5q-58 0 -109 13.5t-95 41.5t-69.5 78t-25.5 117zM321 765l-134 151h138l92 -151h-96z" />
    <glyph glyph-name="Uacute" unicode="&#xda;" horiz-adv-x="718" 
d="M64 238v468h120v-453q0 -81 51 -120t128 -39q78 0 128 39t50 120v453h113v-468q0 -123 -82.5 -186.5t-208.5 -63.5q-58 0 -109 13.5t-95 41.5t-69.5 78t-25.5 117zM547 914l-132 -149h-96l89 149h139z" />
    <glyph glyph-name="Ucircumflex" unicode="&#xdb;" horiz-adv-x="718" 
d="M64 238v468h120v-453q0 -81 51 -120t128 -39q78 0 128 39t50 120v453h113v-468q0 -123 -82.5 -186.5t-208.5 -63.5q-58 0 -109 13.5t-95 41.5t-69.5 78t-25.5 117zM360 855l-81 -90h-90l111 149h121l112 -149h-91z" />
    <glyph glyph-name="Udieresis" unicode="&#xdc;" horiz-adv-x="718" 
d="M64 238v468h120v-453q0 -81 51 -120t128 -39q78 0 128 39t50 120v453h113v-468q0 -123 -82.5 -186.5t-208.5 -63.5q-58 0 -109 13.5t-95 41.5t-69.5 78t-25.5 117zM204 788v105h104v-105h-50h-54zM416 788v105h105v-105h-105z" />
    <glyph glyph-name="Yacute" unicode="&#xdd;" horiz-adv-x="580" 
d="M42 467v239h120v-222q0 -60 34.5 -90.5t96.5 -30.5q63 0 96 30.5t33 89.5v223h114v-245q0 -85 -47 -134.5t-134 -59.5v-267h-121v266q-93 9 -142.5 59.5t-49.5 141.5zM477 914l-132 -149h-96l89 149h139z" />
    <glyph glyph-name="Thorn" unicode="&#xde;" horiz-adv-x="669" 
d="M189 706v-122h249q105 0 160 -63t55 -157q0 -96 -58 -157.5t-170 -61.5h-151q-25 0 -43 8.5t-24.5 16t-17.5 22.5v-192h-120v706h120zM405 485h-216v-171q0 -68 83 -68h127q61 0 92.5 32t31.5 87q0 120 -118 120z" />
    <glyph glyph-name="germandbls" unicode="&#xdf;" horiz-adv-x="633" 
d="M60 0v494q0 219 244 219q43 0 80.5 -8.5t71.5 -26.5t54 -52t20 -81q0 -42 -21 -76t-61 -47q73 -14 113.5 -69.5t40.5 -134.5q0 -108 -62 -166.5t-173 -58.5q-84 0 -141 30v106q58 -46 129 -46q61 0 95.5 35.5t34.5 100.5q0 67 -42.5 104.5t-113.5 37.5h-97v88h78
q44 0 74.5 21.5t30.5 65.5q0 39 -27 65t-86 26q-133 0 -133 -123v-504h-109z" />
    <glyph glyph-name="agrave" unicode="&#xe0;" horiz-adv-x="649" 
d="M602 255v-255h-109v84q-33 -43 -85 -67.5t-113 -24.5q-115 0 -191 74t-76 194t80.5 197t205.5 77q132 0 210 -76t78 -203zM485 262q0 78 -47.5 126.5t-124.5 48.5q-76 0 -123 -50.5t-47 -124.5q0 -76 46.5 -125t123.5 -49t124.5 48.5t47.5 125.5zM277 602l-134 151h138
l92 -151h-96z" />
    <glyph glyph-name="aacute" unicode="&#xe1;" horiz-adv-x="649" 
d="M602 255v-255h-109v84q-33 -43 -85 -67.5t-113 -24.5q-115 0 -191 74t-76 194t80.5 197t205.5 77q132 0 210 -76t78 -203zM485 262q0 78 -47.5 126.5t-124.5 48.5q-76 0 -123 -50.5t-47 -124.5q0 -76 46.5 -125t123.5 -49t124.5 48.5t47.5 125.5zM503 751l-132 -149h-96
l89 149h139z" />
    <glyph glyph-name="acircumflex" unicode="&#xe2;" horiz-adv-x="649" 
d="M602 255v-255h-109v84q-33 -43 -85 -67.5t-113 -24.5q-115 0 -191 74t-76 194t80.5 197t205.5 77q132 0 210 -76t78 -203zM485 262q0 78 -47.5 126.5t-124.5 48.5q-76 0 -123 -50.5t-47 -124.5q0 -76 46.5 -125t123.5 -49t124.5 48.5t47.5 125.5zM316 692l-81 -90h-90
l111 149h121l112 -149h-91z" />
    <glyph glyph-name="atilde" unicode="&#xe3;" horiz-adv-x="649" 
d="M602 255v-255h-109v84q-33 -43 -85 -67.5t-113 -24.5q-115 0 -191 74t-76 194t80.5 197t205.5 77q132 0 210 -76t78 -203zM485 262q0 78 -47.5 126.5t-124.5 48.5q-76 0 -123 -50.5t-47 -124.5q0 -76 46.5 -125t123.5 -49t124.5 48.5t47.5 125.5zM215 613h-65q2 15 6 31
t14.5 40.5t32 40t50.5 15.5q26 0 69.5 -21.5t60.5 -21.5q10 0 18 4.5t12 11.5t6 13.5t3 13t1 7.5h65q-2 -15 -6 -31.5t-14.5 -41t-31 -40.5t-47.5 -16q-28 0 -71 23.5t-60 23.5q-11 0 -19 -4.5t-12 -12t-6.5 -14t-4.5 -14.5z" />
    <glyph glyph-name="adieresis" unicode="&#xe4;" horiz-adv-x="649" 
d="M602 255v-255h-109v84q-33 -43 -85 -67.5t-113 -24.5q-115 0 -191 74t-76 194t80.5 197t205.5 77q132 0 210 -76t78 -203zM485 262q0 78 -47.5 126.5t-124.5 48.5q-76 0 -123 -50.5t-47 -124.5q0 -76 46.5 -125t123.5 -49t124.5 48.5t47.5 125.5zM160 625v105h104v-105
h-50h-54zM372 625v105h105v-105h-105z" />
    <glyph glyph-name="aring" unicode="&#xe5;" horiz-adv-x="649" 
d="M602 255v-255h-109v84q-33 -43 -85 -67.5t-113 -24.5q-115 0 -191 74t-76 194t80.5 197t205.5 77q132 0 210 -76t78 -203zM485 262q0 78 -47.5 126.5t-124.5 48.5q-76 0 -123 -50.5t-47 -124.5q0 -76 46.5 -125t123.5 -49t124.5 48.5t47.5 125.5zM186 724q0 55 38.5 93.5
t93.5 38.5t94 -38.5t39 -93.5t-38.5 -93.5t-94.5 -38.5t-94 38t-38 94zM251 724q0 -28 19.5 -47.5t47.5 -19.5t47.5 19.5t19.5 47.5t-19.5 47.5t-47.5 19.5t-47.5 -19.5t-19.5 -47.5z" />
    <glyph glyph-name="ae" unicode="&#xe6;" horiz-adv-x="1048" 
d="M908 109l-8 -94q-51 -24 -127 -24q-116 0 -188 70v-61h-92v84q-33 -43 -85 -67.5t-113 -24.5q-115 0 -191 74t-76 194t78 197t199 77q160 0 235 -116q34 54 92 85t131 31q126 0 195 -80.5t67 -214.5h-420q7 -81 60 -120t126 -39q66 0 117 29zM485 262q0 78 -47.5 126.5
t-124.5 48.5q-76 0 -123 -50.5t-47 -124.5q0 -76 46.5 -125t123.5 -49t124.5 48.5t47.5 125.5zM761 449q-61 0 -102 -34.5t-54 -93.5h301q-8 61 -46.5 94.5t-98.5 33.5z" />
    <glyph glyph-name="ccedilla" unicode="&#xe7;" horiz-adv-x="453" 
d="M28 263q0 122 74.5 196.5t197.5 74.5q79 0 149 -35l-38 -88q-47 29 -99 29q-74 0 -121 -48t-47 -129q0 -79 46 -129t129 -49q57 1 103 28l-9 -99q-49 -23 -118 -23l-9 -46q19 -2 38 -9.5t38.5 -30.5t19.5 -58q0 -38 -22.5 -68t-56 -46.5t-56.5 -24.5t-40 -11l-19 58
q26 10 43 17.5t36.5 26t19.5 40.5q0 28 -24.5 41.5t-58.5 12.5q9 49 21 105q-91 20 -144 90.5t-53 174.5z" />
    <glyph glyph-name="egrave" unicode="&#xe8;" horiz-adv-x="590" 
d="M451 109l-8 -94q-53 -24 -131 -24q-127 0 -205.5 75.5t-78.5 200.5q0 117 76.5 192t196.5 75q129 0 199 -80.5t68 -214.5h-421q7 -79 59.5 -119t126.5 -40q66 0 118 29zM303 449q-60 0 -101 -34.5t-54 -93.5h300q-8 61 -46.5 94.5t-98.5 33.5zM260 602l-134 151h138
l92 -151h-96z" />
    <glyph glyph-name="eacute" unicode="&#xe9;" horiz-adv-x="590" 
d="M451 109l-8 -94q-53 -24 -131 -24q-127 0 -205.5 75.5t-78.5 200.5q0 117 76.5 192t196.5 75q129 0 199 -80.5t68 -214.5h-421q7 -79 59.5 -119t126.5 -40q66 0 118 29zM303 449q-60 0 -101 -34.5t-54 -93.5h300q-8 61 -46.5 94.5t-98.5 33.5zM485 751l-132 -149h-96
l89 149h139z" />
    <glyph glyph-name="ecircumflex" unicode="&#xea;" horiz-adv-x="590" 
d="M451 109l-8 -94q-53 -24 -131 -24q-127 0 -205.5 75.5t-78.5 200.5q0 117 76.5 192t196.5 75q129 0 199 -80.5t68 -214.5h-421q7 -79 59.5 -119t126.5 -40q66 0 118 29zM303 449q-60 0 -101 -34.5t-54 -93.5h300q-8 61 -46.5 94.5t-98.5 33.5zM299 692l-81 -90h-90
l111 149h121l112 -149h-91z" />
    <glyph glyph-name="edieresis" unicode="&#xeb;" horiz-adv-x="590" 
d="M451 109l-8 -94q-53 -24 -131 -24q-127 0 -205.5 75.5t-78.5 200.5q0 117 76.5 192t196.5 75q129 0 199 -80.5t68 -214.5h-421q7 -79 59.5 -119t126.5 -40q66 0 118 29zM303 449q-60 0 -101 -34.5t-54 -93.5h300q-8 61 -46.5 94.5t-98.5 33.5zM143 625v105h104v-105h-50
h-54zM355 625v105h105v-105h-105z" />
    <glyph glyph-name="igrave" unicode="&#xec;" horiz-adv-x="222" 
d="M55 527h112v-527h-112v527zM70 593l-134 151h138l92 -151h-96z" />
    <glyph glyph-name="iacute" unicode="&#xed;" horiz-adv-x="222" 
d="M55 527h112v-527h-112v527zM295 742l-132 -149h-96l89 149h139z" />
    <glyph glyph-name="icircumflex" unicode="&#xee;" horiz-adv-x="222" 
d="M55 527h112v-527h-112v527zM109 683l-81 -90h-90l111 149h121l112 -149h-91z" />
    <glyph glyph-name="idieresis" unicode="&#xef;" horiz-adv-x="222" 
d="M55 527h112v-527h-112v527zM-22 625v105h104v-105h-50h-54zM140 625v105h105v-105h-105z" />
    <glyph glyph-name="eth" unicode="&#xf0;" horiz-adv-x="625" 
d="M195 534l61 55q-53 22 -98 29l35 87q78 -18 141 -48l71 65l45 -47l-57 -50q62 -40 105.5 -91t64 -104.5t28.5 -97.5t8 -88q0 -118 -81 -186t-205 -68q-126 1 -206.5 66t-80.5 176t78.5 176t194.5 65q94 0 163 -50q-38 76 -143 136l-80 -72zM142 234q0 -68 49 -109
t122 -41q74 0 121.5 41t47.5 109t-48 109.5t-121 41.5t-122 -41.5t-49 -109.5z" />
    <glyph glyph-name="ntilde" unicode="&#xf1;" 
d="M413 0v302q0 65 -32 100t-94 35q-61 0 -93 -35t-32 -100v-302h-111v320q0 104 64 158.5t172 54.5q109 0 173 -54.5t64 -158.5v-320h-111zM183 613h-65q2 15 6 31t14.5 40.5t32 40t50.5 15.5q26 0 69.5 -21.5t60.5 -21.5q10 0 18 4.5t12 11.5t6 13.5t3 13t1 7.5h65
q-2 -15 -6 -31.5t-14.5 -41t-31 -40.5t-47.5 -16q-28 0 -71 23.5t-60 23.5q-11 0 -19 -4.5t-12 -12t-6.5 -14t-4.5 -14.5z" />
    <glyph glyph-name="ograve" unicode="&#xf2;" horiz-adv-x="629" 
d="M28 262q0 125 83.5 199t203.5 73q124 -1 204.5 -73.5t81.5 -198.5t-80 -198.5t-206 -72.5t-206 72.5t-81 198.5zM144 262q0 -79 48 -126.5t123 -47.5t122.5 47.5t46.5 126.5q0 79 -47.5 127t-121.5 48q-72 1 -121.5 -47.5t-49.5 -127.5zM273 602l-134 151h138l92 -151
h-96z" />
    <glyph glyph-name="oacute" unicode="&#xf3;" horiz-adv-x="629" 
d="M28 262q0 125 83.5 199t203.5 73q124 -1 204.5 -73.5t81.5 -198.5t-80 -198.5t-206 -72.5t-206 72.5t-81 198.5zM144 262q0 -79 48 -126.5t123 -47.5t122.5 47.5t46.5 126.5q0 79 -47.5 127t-121.5 48q-72 1 -121.5 -47.5t-49.5 -127.5zM499 751l-132 -149h-96l89 149
h139z" />
    <glyph glyph-name="ocircumflex" unicode="&#xf4;" horiz-adv-x="629" 
d="M28 262q0 125 83.5 199t203.5 73q124 -1 204.5 -73.5t81.5 -198.5t-80 -198.5t-206 -72.5t-206 72.5t-81 198.5zM144 262q0 -79 48 -126.5t123 -47.5t122.5 47.5t46.5 126.5q0 79 -47.5 127t-121.5 48q-72 1 -121.5 -47.5t-49.5 -127.5zM313 692l-81 -90h-90l111 149h121
l112 -149h-91z" />
    <glyph glyph-name="otilde" unicode="&#xf5;" horiz-adv-x="629" 
d="M28 262q0 125 83.5 199t203.5 73q124 -1 204.5 -73.5t81.5 -198.5t-80 -198.5t-206 -72.5t-206 72.5t-81 198.5zM144 262q0 -79 48 -126.5t123 -47.5t122.5 47.5t46.5 126.5q0 79 -47.5 127t-121.5 48q-72 1 -121.5 -47.5t-49.5 -127.5zM211 613h-65q2 15 6 31t14.5 40.5
t32 40t50.5 15.5q26 0 69.5 -21.5t60.5 -21.5q10 0 18 4.5t12 11.5t6 13.5t3 13t1 7.5h65q-2 -15 -6 -31.5t-14.5 -41t-31 -40.5t-47.5 -16q-28 0 -71 23.5t-60 23.5q-11 0 -19 -4.5t-12 -12t-6.5 -14t-4.5 -14.5z" />
    <glyph glyph-name="odieresis" unicode="&#xf6;" horiz-adv-x="629" 
d="M28 262q0 125 83.5 199t203.5 73q124 -1 204.5 -73.5t81.5 -198.5t-80 -198.5t-206 -72.5t-206 72.5t-81 198.5zM144 262q0 -79 48 -126.5t123 -47.5t122.5 47.5t46.5 126.5q0 79 -47.5 127t-121.5 48q-72 1 -121.5 -47.5t-49.5 -127.5zM157 625v105h104v-105h-50h-54z
M369 625v105h105v-105h-105z" />
    <glyph glyph-name="divide" unicode="&#xf7;" horiz-adv-x="833" 
d="M696 301h-558v105h558v-105zM360 219h113v-112h-113v112zM360 601h113v-113h-113v55v58z" />
    <glyph glyph-name="oslash" unicode="&#xf8;" horiz-adv-x="632" 
d="M29 262q0 125 83.5 199t203.5 73q108 -2 181 -54l61 59l46 -46l-60 -57q58 -73 58 -174q1 -126 -80 -198.5t-206 -72.5q-105 0 -180 52l-62 -60l-46 47l60 57q-59 72 -59 175zM146 262q0 -56 24 -96l248 239q-45 32 -102 32q-72 1 -121 -47.5t-49 -127.5zM486 262
q-2 55 -24 94l-248 -238q42 -30 102 -30q75 0 122.5 47.5t47.5 126.5z" />
    <glyph glyph-name="ugrave" unicode="&#xf9;" 
d="M413 223v304h111v-322q0 -104 -64 -159t-173 -55q-108 0 -172 55t-64 159v322h111v-304q0 -65 32 -100t93 -35q62 0 94 35t32 100zM250 593l-134 151h138l92 -151h-96z" />
    <glyph glyph-name="uacute" unicode="&#xfa;" 
d="M413 223v304h111v-322q0 -104 -64 -159t-173 -55q-108 0 -172 55t-64 159v322h111v-304q0 -65 32 -100t93 -35q62 0 94 35t32 100zM476 742l-132 -149h-96l89 149h139z" />
    <glyph glyph-name="ucircumflex" unicode="&#xfb;" 
d="M413 223v304h111v-322q0 -104 -64 -159t-173 -55q-108 0 -172 55t-64 159v322h111v-304q0 -65 32 -100t93 -35q62 0 94 35t32 100zM289 683l-81 -90h-90l111 149h121l112 -149h-91z" />
    <glyph glyph-name="udieresis" unicode="&#xfc;" 
d="M413 223v304h111v-322q0 -104 -64 -159t-173 -55q-108 0 -172 55t-64 159v322h111v-304q0 -65 32 -100t93 -35q62 0 94 35t32 100zM133 616v105h104v-105h-50h-54zM345 616v105h105v-105h-105z" />
    <glyph glyph-name="yacute" unicode="&#xfd;" horiz-adv-x="577" 
d="M428 -184h-133q5 4 12.5 11.5t27 33t35 52.5t29 68t14.5 82q-52 -72 -155 -72q-98 0 -152.5 52t-54.5 160v324h111v-299q0 -140 118 -140q70 0 101.5 39.5t31.5 98.5v301h111v-455q0 -68 -24 -132t-48 -94zM471 742l-132 -149h-96l89 149h139z" />
    <glyph glyph-name="thorn" unicode="&#xfe;" horiz-adv-x="652" 
d="M55 -181v887h111v-255q72 83 188 83q118 0 194.5 -76.5t76.5 -196.5q0 -119 -74.5 -194.5t-189.5 -75.5q-131 0 -195 87v-259h-111zM168 262q0 -78 47 -126t124 -48t123.5 49t46.5 125q0 74 -47 124.5t-123 50.5q-77 0 -124 -48.5t-47 -126.5z" />
    <glyph glyph-name="ydieresis" unicode="&#xff;" horiz-adv-x="577" 
d="M428 -184h-133q5 4 12.5 11.5t27 33t35 52.5t29 68t14.5 82q-52 -72 -155 -72q-98 0 -152.5 52t-54.5 160v324h111v-299q0 -140 118 -140q70 0 101.5 39.5t31.5 98.5v301h111v-455q0 -68 -24 -132t-48 -94zM128 616v105h104v-105h-50h-54zM340 616v105h105v-105h-105z
" />
    <glyph glyph-name="Amacron" unicode="&#x100;" horiz-adv-x="625" 
d="M509 0l-62 179h-278l-61 -179h-115l248 706h146l246 -706h-124zM308 596l-107 -320h214zM170 809v77h300v-77h-300z" />
    <glyph glyph-name="amacron" unicode="&#x101;" horiz-adv-x="649" 
d="M602 255v-255h-109v84q-33 -43 -85 -67.5t-113 -24.5q-115 0 -191 74t-76 194t80.5 197t205.5 77q132 0 210 -76t78 -203zM485 262q0 78 -47.5 126.5t-124.5 48.5q-76 0 -123 -50.5t-47 -124.5q0 -76 46.5 -125t123.5 -49t124.5 48.5t47.5 125.5zM165 638v77h300v-77
h-300z" />
    <glyph glyph-name="Abreve" unicode="&#x102;" horiz-adv-x="625" 
d="M509 0l-62 179h-278l-61 -179h-115l248 706h146l246 -706h-124zM308 596l-107 -320h214zM320 853q30 0 48.5 18.5t21.5 51.5h86q-8 -74 -52 -107t-104 -33t-104 33t-52 107h86q3 -33 21.5 -51.5t48.5 -18.5z" />
    <glyph glyph-name="abreve" unicode="&#x103;" horiz-adv-x="649" 
d="M602 255v-255h-109v84q-33 -43 -85 -67.5t-113 -24.5q-115 0 -191 74t-76 194t80.5 197t205.5 77q132 0 210 -76t78 -203zM485 262q0 78 -47.5 126.5t-124.5 48.5q-76 0 -123 -50.5t-47 -124.5q0 -76 46.5 -125t123.5 -49t124.5 48.5t47.5 125.5zM318 682q30 0 48.5 18.5
t21.5 51.5h86q-8 -74 -52 -107t-104 -33t-104 33t-52 107h86q3 -33 21.5 -51.5t48.5 -18.5z" />
    <glyph glyph-name="Aogonek" unicode="&#x104;" horiz-adv-x="625" 
d="M545 0h-36l-62 179h-278l-62 -179h-114l248 706h146l246 -706q-48 -24 -73 -55t-25 -60t18 -44t43 -15q34 0 70 13l-7 -71q-38 -12 -90 -12q-45 0 -84 26.5t-39 84.5q0 42 29.5 76.5t69.5 56.5zM201 276h214l-107 320z" />
    <glyph glyph-name="aogonek" unicode="&#x105;" horiz-adv-x="649" 
d="M518 0h-25v84q-33 -43 -85 -67.5t-113 -24.5q-115 0 -191 74t-76 194t80.5 197t205.5 77q132 0 210 -76t78 -203v-255q-48 -24 -73 -55t-25 -60t18 -44t43 -15q34 0 70 13l-7 -71q-38 -12 -90 -12q-45 0 -84 26.5t-39 84.5q0 77 103 133zM485 262q0 78 -47.5 126.5
t-124.5 48.5q-76 0 -123 -50.5t-47 -124.5q0 -76 46.5 -125t123.5 -49t124.5 48.5t47.5 125.5z" />
    <glyph glyph-name="Cacute" unicode="&#x106;" horiz-adv-x="615" 
d="M37 354q1 168 104.5 266t267.5 98q110 0 196 -46l-49 -94q-63 34 -136 34q-115 0 -182.5 -71.5t-67.5 -186.5q0 -118 71 -189.5t189 -71.5q75 0 147 38l-11 -112q-70 -31 -157 -31q-165 0 -269 98.5t-103 267.5zM586 926l-132 -149h-96l89 149h139z" />
    <glyph glyph-name="cacute" unicode="&#x107;" horiz-adv-x="453" 
d="M422 113l-9 -99q-49 -23 -116 -23q-122 0 -195.5 74t-73.5 198q0 122 74.5 196.5t197.5 74.5q79 0 149 -35l-38 -88q-47 29 -99 29q-74 0 -121 -48t-47 -129q0 -79 46 -129t129 -49q57 1 103 28zM467 751l-132 -149h-96l89 149h139z" />
    <glyph glyph-name="Ccircumflex" unicode="&#x108;" horiz-adv-x="615" 
d="M37 354q1 168 104.5 266t267.5 98q110 0 196 -46l-49 -94q-63 34 -136 34q-115 0 -182.5 -71.5t-67.5 -186.5q0 -118 71 -189.5t189 -71.5q75 0 147 38l-11 -112q-70 -31 -157 -31q-165 0 -269 98.5t-103 267.5zM400 867l-81 -90h-90l111 149h121l112 -149h-91z" />
    <glyph glyph-name="ccircumflex" unicode="&#x109;" horiz-adv-x="453" 
d="M422 113l-9 -99q-49 -23 -116 -23q-122 0 -195.5 74t-73.5 198q0 122 74.5 196.5t197.5 74.5q79 0 149 -35l-38 -88q-47 29 -99 29q-74 0 -121 -48t-47 -129q0 -79 46 -129t129 -49q57 1 103 28zM281 692l-81 -90h-90l111 149h121l112 -149h-91z" />
    <glyph glyph-name="Cdotaccent" unicode="&#x10a;" horiz-adv-x="615" 
d="M37 354q1 168 104.5 266t267.5 98q110 0 196 -46l-49 -94q-63 34 -136 34q-115 0 -182.5 -71.5t-67.5 -186.5q0 -118 71 -189.5t189 -71.5q75 0 147 38l-11 -112q-70 -31 -157 -31q-165 0 -269 98.5t-103 267.5zM351 804v104h104v-104h-104z" />
    <glyph glyph-name="cdotaccent" unicode="&#x10b;" horiz-adv-x="453" 
d="M422 113l-9 -99q-49 -23 -116 -23q-122 0 -195.5 74t-73.5 198q0 122 74.5 196.5t197.5 74.5q79 0 149 -35l-38 -88q-47 29 -99 29q-74 0 -121 -48t-47 -129q0 -79 46 -129t129 -49q57 1 103 28zM232 629v104h104v-104h-104z" />
    <glyph glyph-name="Ccaron" unicode="&#x10c;" horiz-adv-x="615" 
d="M37 354q1 168 104.5 266t267.5 98q110 0 196 -46l-49 -94q-63 34 -136 34q-115 0 -182.5 -71.5t-67.5 -186.5q0 -118 71 -189.5t189 -71.5q75 0 147 38l-11 -112q-70 -31 -157 -31q-165 0 -269 98.5t-103 267.5zM320 926l81 -91l82 91h91l-112 -149h-121l-111 149h90z
" />
    <glyph glyph-name="ccaron" unicode="&#x10d;" horiz-adv-x="453" 
d="M422 113l-9 -99q-49 -23 -116 -23q-122 0 -195.5 74t-73.5 198q0 122 74.5 196.5t197.5 74.5q79 0 149 -35l-38 -88q-47 29 -99 29q-74 0 -121 -48t-47 -129q0 -79 46 -129t129 -49q57 1 103 28zM201 751l81 -91l82 91h91l-112 -149h-121l-111 149h90z" />
    <glyph glyph-name="Dcaron" unicode="&#x10e;" horiz-adv-x="789" 
d="M434 0h-193q-84 0 -128.5 43.5t-44.5 121.5v541h366q151 0 237 -101t86 -252t-86 -252t-237 -101zM267 100h138q105 0 162 74t57 179t-57 179t-162 74h-217v-433q0 -73 79 -73zM286 914l81 -91l82 91h91l-112 -149h-121l-111 149h90z" />
    <glyph glyph-name="dcaron" unicode="&#x10f;" horiz-adv-x="701" 
d="M597 706v-426q0 -133 -78 -211t-210 -78q-122 0 -201.5 77t-79.5 195q0 122 76 196.5t194 74.5q62 0 111 -23t77 -61v256h111zM485 263q0 77 -47.5 125.5t-124.5 48.5t-123.5 -49t-46.5 -125q0 -74 47 -124.5t123 -50.5q77 0 124.5 48.5t47.5 126.5zM701 515l-57 50
q20 15 27 29.5t7 41.5v70h88v-70q0 -41 -13.5 -68.5t-51.5 -52.5z" />
    <glyph glyph-name="Dcroat" unicode="&#x110;" horiz-adv-x="793" 
d="M438 0h-194q-84 0 -128.5 43.5t-44.5 121.5v154h-82v87h82v300h367q150 0 236 -101t86 -252t-86 -252t-236 -101zM270 100h138q105 0 162 74t57 179t-57 179t-162 74h-217v-200h154v-87h-154v-146q0 -73 79 -73z" />
    <glyph glyph-name="dcroat" unicode="&#x111;" horiz-adv-x="644" 
d="M341 578v69h145v59h111v-59h68v-69h-68v-298q0 -133 -78 -211t-210 -78q-122 0 -201.5 77t-79.5 195q0 122 76 196.5t194 74.5q62 0 111 -23t77 -61v128h-145zM485 263q0 77 -47.5 125.5t-124.5 48.5t-123.5 -49t-46.5 -125q0 -74 47 -124.5t123 -50.5q77 0 124.5 48.5
t47.5 126.5z" />
    <glyph glyph-name="Emacron" unicode="&#x112;" horiz-adv-x="586" 
d="M529 0h-289q-79 0 -125.5 41.5t-46.5 118.5v546h485l-18 -100h-347v-205h311l-17 -96h-294v-125q0 -80 76 -80h283zM153 801v77h300v-77h-300z" />
    <glyph glyph-name="emacron" unicode="&#x113;" horiz-adv-x="590" 
d="M451 109l-8 -94q-53 -24 -131 -24q-127 0 -205.5 75.5t-78.5 200.5q0 117 76.5 192t196.5 75q129 0 199 -80.5t68 -214.5h-421q7 -79 59.5 -119t126.5 -40q66 0 118 29zM303 449q-60 0 -101 -34.5t-54 -93.5h300q-8 61 -46.5 94.5t-98.5 33.5zM148 638v77h300v-77h-300z
" />
    <glyph glyph-name="Ebreve" unicode="&#x114;" horiz-adv-x="586" 
d="M529 0h-289q-79 0 -125.5 41.5t-46.5 118.5v546h485l-18 -100h-347v-205h311l-17 -96h-294v-125q0 -80 76 -80h283zM306 845q30 0 48.5 18.5t21.5 51.5h86q-8 -74 -52 -107t-104 -33t-104 33t-52 107h86q3 -33 21.5 -51.5t48.5 -18.5z" />
    <glyph glyph-name="ebreve" unicode="&#x115;" horiz-adv-x="590" 
d="M451 109l-8 -94q-53 -24 -131 -24q-127 0 -205.5 75.5t-78.5 200.5q0 117 76.5 192t196.5 75q129 0 199 -80.5t68 -214.5h-421q7 -79 59.5 -119t126.5 -40q66 0 118 29zM303 449q-60 0 -101 -34.5t-54 -93.5h300q-8 61 -46.5 94.5t-98.5 33.5zM301 682q30 0 48.5 18.5
t21.5 51.5h86q-8 -74 -52 -107t-104 -33t-104 33t-52 107h86q3 -33 21.5 -51.5t48.5 -18.5z" />
    <glyph glyph-name="Edotaccent" unicode="&#x116;" horiz-adv-x="586" 
d="M529 0h-289q-79 0 -125.5 41.5t-46.5 118.5v546h485l-18 -100h-347v-205h311l-17 -96h-294v-125q0 -80 76 -80h283zM255 792v104h104v-104h-104z" />
    <glyph glyph-name="edotaccent" unicode="&#x117;" horiz-adv-x="590" 
d="M451 109l-8 -94q-53 -24 -131 -24q-127 0 -205.5 75.5t-78.5 200.5q0 117 76.5 192t196.5 75q129 0 199 -80.5t68 -214.5h-421q7 -79 59.5 -119t126.5 -40q66 0 118 29zM303 449q-60 0 -101 -34.5t-54 -93.5h300q-8 61 -46.5 94.5t-98.5 33.5zM250 629v104h104v-104h-104
z" />
    <glyph glyph-name="Eogonek" unicode="&#x118;" horiz-adv-x="586" 
d="M436 0h-196q-79 0 -125.5 41.5t-46.5 118.5v546h485l-18 -100h-347v-205h311l-17 -96h-294v-125q0 -80 76 -80h283l-18 -100q-51 -20 -78 -52.5t-27 -62.5q0 -29 18 -44t43 -15q34 0 70 13l-7 -71q-38 -12 -90 -12q-45 0 -84 26.5t-39 84.5q0 80 101 133z" />
    <glyph glyph-name="eogonek" unicode="&#x119;" horiz-adv-x="590" 
d="M451 109l-8 -94q-38 -16 -68 -49.5t-30 -65.5q0 -29 18 -44.5t43 -15.5q34 0 70 13l-7 -70q-38 -12 -90 -12q-45 0 -84 26.5t-39 84.5q0 64 60 109h-4q-127 0 -205.5 75.5t-78.5 200.5q0 117 76.5 192t196.5 75q129 0 199 -80.5t68 -214.5h-421q7 -79 59.5 -119
t126.5 -40q66 0 118 29zM303 449q-60 0 -101 -34.5t-54 -93.5h300q-8 61 -46.5 94.5t-98.5 33.5z" />
    <glyph glyph-name="Ecaron" unicode="&#x11a;" horiz-adv-x="586" 
d="M529 0h-289q-79 0 -125.5 41.5t-46.5 118.5v546h485l-18 -100h-347v-205h311l-17 -96h-294v-125q0 -80 76 -80h283zM224 914l81 -91l82 91h91l-112 -149h-121l-111 149h90z" />
    <glyph glyph-name="ecaron" unicode="&#x11b;" horiz-adv-x="590" 
d="M451 109l-8 -94q-53 -24 -131 -24q-127 0 -205.5 75.5t-78.5 200.5q0 117 76.5 192t196.5 75q129 0 199 -80.5t68 -214.5h-421q7 -79 59.5 -119t126.5 -40q66 0 118 29zM303 449q-60 0 -101 -34.5t-54 -93.5h300q-8 61 -46.5 94.5t-98.5 33.5zM219 751l81 -91l82 91h91
l-112 -149h-121l-111 149h90z" />
    <glyph glyph-name="Gcircumflex" unicode="&#x11c;" horiz-adv-x="783" 
d="M611 75q-34 -42 -93.5 -64.5t-121.5 -22.5q-157 0 -258.5 100t-101.5 261q0 169 104.5 269t275.5 100q166 0 269 -92l-60 -85q-80 75 -203 75q-117 0 -184 -72.5t-67 -191.5q0 -112 66.5 -185t180.5 -73q68 0 126.5 33.5t59.5 97.5v87h-274l14 99h378v-304q0 -70 33 -107
h-125q-18 28 -19 75zM417 867l-81 -90h-90l111 149h121l112 -149h-91z" />
    <glyph glyph-name="gcircumflex" unicode="&#x11d;" horiz-adv-x="647" 
d="M602 251v-132q0 -97 -21 -160.5t-93 -142.5h-138q65 53 101.5 115t42.5 155q-30 -45 -83 -69.5t-116 -24.5q-116 0 -191.5 74.5t-75.5 194.5q0 121 82 197t201 76q133 0 212 -76t79 -207zM485 262q0 78 -47.5 126.5t-124.5 48.5q-75 0 -122.5 -50.5t-47.5 -124.5
q0 -76 46.5 -125t123.5 -49t124.5 48.5t47.5 125.5zM315 692l-81 -90h-90l111 149h121l112 -149h-91z" />
    <glyph glyph-name="Gbreve" unicode="&#x11e;" horiz-adv-x="783" 
d="M611 75q-34 -42 -93.5 -64.5t-121.5 -22.5q-157 0 -258.5 100t-101.5 261q0 169 104.5 269t275.5 100q166 0 269 -92l-60 -85q-80 75 -203 75q-117 0 -184 -72.5t-67 -191.5q0 -112 66.5 -185t180.5 -73q68 0 126.5 33.5t59.5 97.5v87h-274l14 99h378v-304q0 -70 33 -107
h-125q-18 28 -19 75zM419 857q30 0 48.5 18.5t21.5 51.5h86q-8 -74 -52 -107t-104 -33t-104 33t-52 107h86q3 -33 21.5 -51.5t48.5 -18.5z" />
    <glyph glyph-name="gbreve" unicode="&#x11f;" horiz-adv-x="647" 
d="M602 251v-132q0 -97 -21 -160.5t-93 -142.5h-138q65 53 101.5 115t42.5 155q-30 -45 -83 -69.5t-116 -24.5q-116 0 -191.5 74.5t-75.5 194.5q0 121 82 197t201 76q133 0 212 -76t79 -207zM485 262q0 78 -47.5 126.5t-124.5 48.5q-75 0 -122.5 -50.5t-47.5 -124.5
q0 -76 46.5 -125t123.5 -49t124.5 48.5t47.5 125.5zM317 682q30 0 48.5 18.5t21.5 51.5h86q-8 -74 -52 -107t-104 -33t-104 33t-52 107h86q3 -33 21.5 -51.5t48.5 -18.5z" />
    <glyph glyph-name="Gdotaccent" unicode="&#x120;" horiz-adv-x="783" 
d="M611 75q-34 -42 -93.5 -64.5t-121.5 -22.5q-157 0 -258.5 100t-101.5 261q0 169 104.5 269t275.5 100q166 0 269 -92l-60 -85q-80 75 -203 75q-117 0 -184 -72.5t-67 -191.5q0 -112 66.5 -185t180.5 -73q68 0 126.5 33.5t59.5 97.5v87h-274l14 99h378v-304q0 -70 33 -107
h-125q-18 28 -19 75zM368 804v104h104v-104h-104z" />
    <glyph glyph-name="gdotaccent" unicode="&#x121;" horiz-adv-x="647" 
d="M602 251v-132q0 -97 -21 -160.5t-93 -142.5h-138q65 53 101.5 115t42.5 155q-30 -45 -83 -69.5t-116 -24.5q-116 0 -191.5 74.5t-75.5 194.5q0 121 82 197t201 76q133 0 212 -76t79 -207zM485 262q0 78 -47.5 126.5t-124.5 48.5q-75 0 -122.5 -50.5t-47.5 -124.5
q0 -76 46.5 -125t123.5 -49t124.5 48.5t47.5 125.5zM266 626v104h104v-104h-104z" />
    <glyph glyph-name="Gcommaaccent" unicode="&#x122;" horiz-adv-x="783" 
d="M611 75q-34 -42 -93.5 -64.5t-121.5 -22.5q-157 0 -258.5 100t-101.5 261q0 169 104.5 269t275.5 100q166 0 269 -92l-60 -85q-80 75 -203 75q-117 0 -184 -72.5t-67 -191.5q0 -112 66.5 -185t180.5 -73q68 0 126.5 33.5t59.5 97.5v87h-274l14 99h378v-304q0 -70 33 -107
h-125q-18 28 -19 75zM385 -255l-57 51q20 14 27 28.5t7 41.5v70h88v-70q0 -41 -13.5 -68.5t-51.5 -52.5z" />
    <glyph glyph-name="gcommaaccent" unicode="&#x123;" horiz-adv-x="647" 
d="M602 251v-132q0 -97 -21 -160.5t-93 -142.5h-138q65 53 101.5 115t42.5 155q-30 -45 -83 -69.5t-116 -24.5q-116 0 -191.5 74.5t-75.5 194.5q0 121 82 197t201 76q133 0 212 -76t79 -207zM485 262q0 78 -47.5 126.5t-124.5 48.5q-75 0 -122.5 -50.5t-47.5 -124.5
q0 -76 46.5 -125t123.5 -49t124.5 48.5t47.5 125.5zM339 810l57 -51q-20 -14 -27 -28.5t-7 -41.5v-70h-88v70q0 41 13.5 68.5t51.5 52.5z" />
    <glyph glyph-name="Hcircumflex" unicode="&#x124;" horiz-adv-x="712" 
d="M69 0v706h121v-300h333v300h120v-706h-120v307h-334v-307h-120zM354 855l-81 -90h-90l111 149h121l112 -149h-91z" />
    <glyph glyph-name="hcircumflex" unicode="&#x125;" horiz-adv-x="579" 
d="M55 706h111v-239q51 67 153 67q100 0 154.5 -54.5t54.5 -159.5v-320h-111v306q0 135 -119 135q-59 0 -95.5 -33.5t-36.5 -96.5v-311h-111v706zM96 857l-81 -90h-90l111 149h121l112 -149h-91z" />
    <glyph glyph-name="Hbar" unicode="&#x126;" horiz-adv-x="716" 
d="M3 488v89h68v129h121v-129h333v129h120v-129h68v-89h-68v-488h-120v297h-334v-297h-120v488h-68zM192 396h333v92h-333v-92z" />
    <glyph glyph-name="hbar" unicode="&#x127;" horiz-adv-x="579" 
d="M55 706h111v-59h151v-69h-151v-111q51 67 153 67q100 0 154.5 -54.5t54.5 -159.5v-320h-111v306q0 135 -119 135q-59 0 -95.5 -33.5t-36.5 -96.5v-311h-111v578h-63v69h63v59z" />
    <glyph glyph-name="Itilde" unicode="&#x128;" horiz-adv-x="259" 
d="M69 0v706h120v-706h-120zM26 776h-65q2 15 6 31t14.5 40.5t32 40t50.5 15.5q26 0 69.5 -21.5t60.5 -21.5q10 0 18 4.5t12 11.5t6 13.5t3 13t1 7.5h65q-2 -15 -6 -31.5t-14.5 -41t-31 -40.5t-47.5 -16q-28 0 -71 23.5t-60 23.5q-11 0 -19 -4.5t-12 -12t-6.5 -14
t-3.5 -13.5z" />
    <glyph glyph-name="itilde" unicode="&#x129;" horiz-adv-x="222" 
d="M55 527h112v-527h-112v527zM7 604h-65q2 15 6 31t14.5 40.5t32 40t50.5 15.5q26 0 69.5 -21.5t60.5 -21.5q10 0 18 4.5t12 11.5t6 13.5t3 13t1 7.5h65q-2 -15 -6 -31.5t-14.5 -41t-31 -40.5t-47.5 -16q-28 0 -71 23.5t-60 23.5q-11 0 -19 -4.5t-12 -12t-6.5 -14
t-3.5 -14.5z" />
    <glyph glyph-name="Imacron" unicode="&#x12a;" horiz-adv-x="259" 
d="M69 0v706h120v-706h-120zM-24 801v77h300v-77h-300z" />
    <glyph glyph-name="imacron" unicode="&#x12b;" horiz-adv-x="222" 
d="M55 527h112v-527h-112v527zM-42 629v77h300v-77h-300z" />
    <glyph glyph-name="Ibreve" unicode="&#x12c;" horiz-adv-x="259" 
d="M69 0v706h120v-706h-120zM129 845q30 0 48.5 18.5t21.5 51.5h86q-8 -74 -52 -107t-104 -33t-104 33t-52 107h86q3 -33 21.5 -51.5t48.5 -18.5z" />
    <glyph glyph-name="ibreve" unicode="&#x12d;" horiz-adv-x="222" 
d="M55 527h112v-527h-112v527zM111 673q30 0 48.5 18.5t21.5 51.5h86q-8 -74 -52 -107t-104 -33t-104 33t-52 107h86q3 -33 21.5 -51.5t48.5 -18.5z" />
    <glyph glyph-name="Iogonek" unicode="&#x12e;" horiz-adv-x="259" 
d="M105 0h-36v706h120v-706q-79 -57 -79 -115q0 -29 17 -44t41 -15q30 0 66 13l-7 -71q-38 -12 -82 -12q-28 0 -54.5 9t-48 35.5t-21.5 66.5q0 73 84 133z" />
    <glyph glyph-name="iogonek" unicode="&#x12f;" horiz-adv-x="222" 
d="M83 0h-28v527h112v-527q-79 -57 -79 -115q0 -29 17 -44t41 -15q30 0 66 13l-7 -71q-38 -12 -82 -12q-28 0 -54.5 9t-48 35.5t-21.5 66.5q0 73 84 133zM55 706h112v-96h-112v96z" />
    <glyph glyph-name="Idotaccent" unicode="&#x130;" horiz-adv-x="259" 
d="M69 0v706h120v-706h-120zM78 792v104h104v-104h-104z" />
    <glyph glyph-name="dotlessi" unicode="&#x131;" horiz-adv-x="222" 
d="M55 527h112v-527h-112v527z" />
    <glyph glyph-name="IJ" unicode="&#x132;" horiz-adv-x="534" 
d="M69 0v706h120v-706h-120zM353 706h120v-340q0 -181 -97 -366h-131q36 64 54 101.5t36 112t18 158.5v334z" />
    <glyph glyph-name="ij" unicode="&#x133;" horiz-adv-x="441" 
d="M55 527h112v-527h-112v527zM55 706h112v-96h-112v96zM276 527h112v-331q0 -68 -10.5 -132t-26 -107t-30.5 -76.5t-25 -48.5l-11 -16h-123q5 6 12.5 18t27 50t34.5 79.5t27.5 104t12.5 125.5v334zM276 706h112v-96h-112v96z" />
    <glyph glyph-name="Jcircumflex" unicode="&#x134;" horiz-adv-x="276" 
d="M95 706h120v-340q0 -181 -97 -366h-131q36 64 54 101.5t36 112t18 158.5v334zM153 855l-81 -90h-90l111 149h121l112 -149h-91z" />
    <glyph glyph-name="jcircumflex" unicode="&#x135;" horiz-adv-x="223" 
d="M58 527h112v-331q0 -68 -10.5 -132t-26 -107t-30.5 -76.5t-25 -48.5l-11 -16h-123q5 6 12.5 18t27 50t34.5 79.5t27.5 104t12.5 125.5v334zM112 683l-81 -90h-90l111 149h121l112 -149h-91z" />
    <glyph glyph-name="Kcommaaccent" unicode="&#x136;" horiz-adv-x="633" 
d="M69 706h120v-304h27l246 304h134l-262 -315h30q65 0 97.5 -28.5t62.5 -102.5l44 -109q15 -36 34.5 -72t33 -56t17.5 -23h-143q-8 9 -26.5 43t-31.5 68l-36 93q-24 62 -36 75q-22 22 -77 22h-114v-301h-120v706zM320 -251l-57 51q20 14 27 28.5t7 41.5v70h88v-70
q0 -41 -13.5 -68.5t-51.5 -52.5z" />
    <glyph glyph-name="kcommaaccent" unicode="&#x137;" horiz-adv-x="498" 
d="M55 706h112v-399h19l175 220h124l-184 -224h15q48 0 70 -20t39 -70l29 -88q26 -79 57 -125h-124q-19 42 -33 83l-28 83q-11 35 -24.5 48.5t-44.5 13.5h-90v-228h-112v706zM250 -251l-57 51q20 14 27 28.5t7 41.5v70h88v-70q0 -41 -13.5 -68.5t-51.5 -52.5z" />
    <glyph glyph-name="kgreenlandic" unicode="&#x138;" horiz-adv-x="498" 
d="M55 527h112v-220h19l174 220h124l-183 -224h15q48 0 70 -20t39 -70l29 -88q26 -79 57 -125h-124q-19 42 -33 83l-28 83q-11 35 -24.5 48.5t-44.5 13.5h-91v-228h-111v527z" />
    <glyph glyph-name="Lacute" unicode="&#x139;" horiz-adv-x="539" 
d="M525 0h-285q-79 0 -125.5 41.5t-46.5 118.5v546h120v-524q0 -80 76 -80h279zM311 914l-132 -149h-96l89 149h139z" />
    <glyph glyph-name="lacute" unicode="&#x13a;" horiz-adv-x="222" 
d="M55 706h112v-706h-112v706zM296 915l-132 -149h-96l89 149h139z" />
    <glyph glyph-name="Lcommaaccent" unicode="&#x13b;" horiz-adv-x="539" 
d="M525 0h-285q-79 0 -125.5 41.5t-46.5 118.5v546h120v-524q0 -80 76 -80h279zM269 -251l-57 51q20 14 27 28.5t7 41.5v70h88v-70q0 -41 -13.5 -68.5t-51.5 -52.5z" />
    <glyph glyph-name="lcommaaccent" unicode="&#x13c;" horiz-adv-x="222" 
d="M55 706h112v-706h-112v706zM91 -251l-57 51q20 14 27 28.5t7 41.5v70h88v-70q0 -41 -13.5 -68.5t-51.5 -52.5z" />
    <glyph glyph-name="Lcaron" unicode="&#x13d;" horiz-adv-x="539" 
d="M525 0h-285q-79 0 -125.5 41.5t-46.5 118.5v546h120v-524q0 -80 76 -80h279zM387 515l-57 50q20 15 27 29.5t7 41.5v70h88v-70q0 -41 -13.5 -68.5t-51.5 -52.5z" />
    <glyph glyph-name="lcaron" unicode="&#x13e;" horiz-adv-x="348" 
d="M55 706h112v-706h-112v706zM269 515l-57 50q20 15 27 29.5t7 41.5v70h88v-70q0 -41 -13.5 -68.5t-51.5 -52.5z" />
    <glyph glyph-name="Ldot" unicode="&#x13f;" horiz-adv-x="542" 
d="M525 0h-285q-79 0 -125.5 41.5t-46.5 118.5v546h120v-524q0 -80 76 -80h279zM335 415h134v-135h-134v135z" />
    <glyph glyph-name="ldotaccent" unicode="&#x140;" horiz-adv-x="366" 
d="M55 706h112v-706h-112v706zM226 405h134v-135h-134v135z" />
    <glyph glyph-name="Lslash" unicode="&#x141;" horiz-adv-x="540" 
d="M-10 244v89l79 31v342h120v-295l125 50v-89l-125 -50v-135q0 -44 20.5 -64.5t52.5 -20.5h282l-18 -102h-294q-77 0 -120 46t-43 120v109z" />
    <glyph glyph-name="lslash" unicode="&#x142;" horiz-adv-x="231" 
d="M59 706h113v-301l65 26v-86l-65 -27v-318h-113v274l-65 -26v87l65 25v346z" />
    <glyph glyph-name="Nacute" unicode="&#x143;" horiz-adv-x="729" 
d="M660 0h-139l-343 548v-548h-109v706h145l337 -542v542h109v-706zM552 914l-132 -149h-96l89 149h139z" />
    <glyph glyph-name="nacute" unicode="&#x144;" 
d="M413 0v302q0 65 -32 100t-94 35q-61 0 -93 -35t-32 -100v-302h-111v320q0 104 64 158.5t172 54.5q109 0 173 -54.5t64 -158.5v-320h-111zM471 751l-132 -149h-96l89 149h139z" />
    <glyph glyph-name="Ncommaaccent" unicode="&#x145;" horiz-adv-x="729" 
d="M660 0h-139l-343 548v-548h-109v706h145l337 -542v542h109v-706zM354 -251l-57 51q20 14 27 28.5t7 41.5v70h88v-70q0 -41 -13.5 -68.5t-51.5 -52.5z" />
    <glyph glyph-name="ncommaaccent" unicode="&#x146;" 
d="M413 0v302q0 65 -32 100t-94 35q-61 0 -93 -35t-32 -100v-302h-111v320q0 104 64 158.5t172 54.5q109 0 173 -54.5t64 -158.5v-320h-111zM268 -251l-57 51q20 14 27 28.5t7 41.5v70h88v-70q0 -41 -13.5 -68.5t-51.5 -52.5z" />
    <glyph glyph-name="Ncaron" unicode="&#x147;" horiz-adv-x="729" 
d="M660 0h-139l-343 548v-548h-109v706h145l337 -542v542h109v-706zM285 914l81 -91l82 91h91l-112 -149h-121l-111 149h90z" />
    <glyph glyph-name="ncaron" unicode="&#x148;" 
d="M413 0v302q0 65 -32 100t-94 35q-61 0 -93 -35t-32 -100v-302h-111v320q0 104 64 158.5t172 54.5q109 0 173 -54.5t64 -158.5v-320h-111zM205 751l81 -91l82 91h91l-112 -149h-121l-111 149h90z" />
    <glyph glyph-name="napostrophe" unicode="&#x149;" horiz-adv-x="669" 
d="M507 0v302q0 65 -32 100t-94 35q-61 0 -93 -35t-32 -100v-302h-111v320q0 104 64 158.5t172 54.5q109 0 173 -54.5t64 -158.5v-320h-111zM57 515l-57 50q20 15 27 29.5t7 41.5v70h88v-70q0 -41 -13.5 -68.5t-51.5 -52.5z" />
    <glyph glyph-name="Eng" unicode="&#x14a;" horiz-adv-x="729" 
d="M551 706h109v-620q0 -104 -25 -182.5t-73 -153.5h-125q30 46 45 71.5t31.5 68t24.5 87.5l-360 571v-548h-109v706h145l337 -542v542z" />
    <glyph glyph-name="eng" unicode="&#x14b;" horiz-adv-x="577" 
d="M413 304q-1 64 -33 98.5t-93 34.5t-93 -35t-32 -100v-302h-111v320q0 104 64 158.5t172 54.5q109 0 173 -54.5t64 -158.5v-168q0 -79 -13 -146t-34.5 -109.5t-33 -60t-22.5 -30.5h-122q39 37 76.5 123.5t37.5 214.5v160z" />
    <glyph glyph-name="Omacron" unicode="&#x14c;" horiz-adv-x="832" 
d="M37 353q1 172 105 268.5t274 96.5q171 0 275.5 -96.5t104.5 -268.5t-104.5 -268.5t-275.5 -96.5q-170 0 -275 96.5t-104 268.5zM170 353q0 -114 65.5 -185.5t180.5 -71.5q116 0 181.5 71.5t65.5 185.5t-65.5 185.5t-181.5 71.5q-115 0 -180.5 -71.5t-65.5 -185.5z
M264 813v77h300v-77h-300z" />
    <glyph glyph-name="omacron" unicode="&#x14d;" horiz-adv-x="629" 
d="M28 262q0 125 83.5 199t203.5 73q124 -1 204.5 -73.5t81.5 -198.5t-80 -198.5t-206 -72.5t-206 72.5t-81 198.5zM144 262q0 -79 48 -126.5t123 -47.5t122.5 47.5t46.5 126.5q0 79 -47.5 127t-121.5 48q-72 1 -121.5 -47.5t-49.5 -127.5zM161 638v77h300v-77h-300z" />
    <glyph glyph-name="Obreve" unicode="&#x14e;" horiz-adv-x="832" 
d="M37 353q1 172 105 268.5t274 96.5q171 0 275.5 -96.5t104.5 -268.5t-104.5 -268.5t-275.5 -96.5q-170 0 -275 96.5t-104 268.5zM170 353q0 -114 65.5 -185.5t180.5 -71.5q116 0 181.5 71.5t65.5 185.5t-65.5 185.5t-181.5 71.5q-115 0 -180.5 -71.5t-65.5 -185.5z
M418 857q30 0 48.5 18.5t21.5 51.5h86q-8 -74 -52 -107t-104 -33t-104 33t-52 107h86q3 -33 21.5 -51.5t48.5 -18.5z" />
    <glyph glyph-name="obreve" unicode="&#x14f;" horiz-adv-x="629" 
d="M28 262q0 125 83.5 199t203.5 73q124 -1 204.5 -73.5t81.5 -198.5t-80 -198.5t-206 -72.5t-206 72.5t-81 198.5zM144 262q0 -79 48 -126.5t123 -47.5t122.5 47.5t46.5 126.5q0 79 -47.5 127t-121.5 48q-72 1 -121.5 -47.5t-49.5 -127.5zM315 682q30 0 48.5 18.5
t21.5 51.5h86q-8 -74 -52 -107t-104 -33t-104 33t-52 107h86q3 -33 21.5 -51.5t48.5 -18.5z" />
    <glyph glyph-name="Ohungarumlaut" unicode="&#x150;" horiz-adv-x="832" 
d="M37 353q1 172 105 268.5t274 96.5q171 0 275.5 -96.5t104.5 -268.5t-104.5 -268.5t-275.5 -96.5q-170 0 -275 96.5t-104 268.5zM170 353q0 -114 65.5 -185.5t180.5 -71.5q116 0 181.5 71.5t65.5 185.5t-65.5 185.5t-181.5 71.5q-115 0 -180.5 -71.5t-65.5 -185.5z
M467 926l-96 -149h-87l64 149h119zM656 926l-126 -149h-46h-47l94 149h125z" />
    <glyph glyph-name="ohungarumlaut" unicode="&#x151;" horiz-adv-x="629" 
d="M28 262q0 125 83.5 199t203.5 73q124 -1 204.5 -73.5t81.5 -198.5t-80 -198.5t-206 -72.5t-206 72.5t-81 198.5zM144 262q0 -79 48 -126.5t123 -47.5t122.5 47.5t46.5 126.5q0 79 -47.5 127t-121.5 48q-72 1 -121.5 -47.5t-49.5 -127.5zM364 751l-96 -149h-87l64 149h119
zM553 751l-126 -149h-46h-47l94 149h125z" />
    <glyph glyph-name="OE" unicode="&#x152;" horiz-adv-x="1193" 
d="M1136 0h-298q-58 0 -96.5 25t-50.5 72q-99 -109 -275 -109q-171 0 -275.5 96.5t-103.5 268.5q1 173 105 269t274 96q162 0 258 -96v84h486l-18 -100h-355v-205h319l-17 -96h-302v-126q0 -79 77 -79h290zM170 353q0 -114 65.5 -185.5t180.5 -71.5q116 0 181.5 71.5
t65.5 185.5t-65.5 185.5t-181.5 71.5q-115 0 -180.5 -71.5t-65.5 -185.5z" />
    <glyph glyph-name="oe" unicode="&#x153;" horiz-adv-x="1048" 
d="M908 109l-8 -94q-53 -24 -130 -24q-151 0 -227 107q-73 -107 -228 -107q-125 0 -206 72.5t-81 198.5q0 125 83.5 199t203.5 73q152 -2 227 -108q73 108 216 108q129 0 199 -80.5t68 -214.5h-420q6 -79 58.5 -119t127.5 -40q66 0 117 29zM144 262q0 -79 48 -126.5
t123 -47.5t122.5 47.5t46.5 126.5q0 79 -47.5 127t-121.5 48q-72 1 -121.5 -47.5t-49.5 -127.5zM761 449q-61 0 -102 -34.5t-54 -93.5h301q-8 61 -46.5 94.5t-98.5 33.5z" />
    <glyph glyph-name="Racute" unicode="&#x154;" horiz-adv-x="701" 
d="M69 706h372q108 0 164.5 -63t56.5 -150q0 -85 -52.5 -142.5t-126.5 -59.5q26 -5 46.5 -17t33 -24.5t24.5 -34t18 -36.5t16 -41.5t16 -40.5q31 -68 54 -97h-142q-19 19 -40 74q-5 12 -13.5 37.5t-13 37t-13.5 31.5t-16.5 29t-20 22t-26 19t-32 10.5t-41.5 4.5h-63
q-15 0 -27.5 2.5t-19 4.5t-13 8.5t-8.5 9t-7 11.5t-6 11v-312h-120v706zM189 607v-177q0 -68 83 -68h136q60 0 92 33t32 88q0 124 -128 124h-215zM518 914l-132 -149h-96l89 149h139z" />
    <glyph glyph-name="racute" unicode="&#x155;" horiz-adv-x="333" 
d="M348 519l-25 -95q-30 12 -60 12q-57 0 -79 -33t-22 -101v-302h-111v322q0 212 209 212q20 0 88 -15zM406 751l-132 -149h-96l89 149h139z" />
    <glyph glyph-name="Rcommaaccent" unicode="&#x156;" horiz-adv-x="701" 
d="M69 706h372q108 0 164.5 -63t56.5 -150q0 -85 -52.5 -142.5t-126.5 -59.5q26 -5 46.5 -17t33 -24.5t24.5 -34t18 -36.5t16 -41.5t16 -40.5q31 -68 54 -97h-142q-19 19 -40 74q-5 12 -13.5 37.5t-13 37t-13.5 31.5t-16.5 29t-20 22t-26 19t-32 10.5t-41.5 4.5h-63
q-15 0 -27.5 2.5t-19 4.5t-13 8.5t-8.5 9t-7 11.5t-6 11v-312h-120v706zM189 607v-177q0 -68 83 -68h136q60 0 92 33t32 88q0 124 -128 124h-215zM344 -251l-57 51q20 14 27 28.5t7 41.5v70h88v-70q0 -41 -13.5 -68.5t-51.5 -52.5z" />
    <glyph glyph-name="rcommaaccent" unicode="&#x157;" horiz-adv-x="333" 
d="M348 519l-25 -95q-30 12 -60 12q-57 0 -79 -33t-22 -101v-302h-111v322q0 212 209 212q20 0 88 -15zM87 -251l-57 51q20 14 27 28.5t7 41.5v70h88v-70q0 -41 -13.5 -68.5t-51.5 -52.5z" />
    <glyph glyph-name="Rcaron" unicode="&#x158;" horiz-adv-x="701" 
d="M69 706h372q108 0 164.5 -63t56.5 -150q0 -85 -52.5 -142.5t-126.5 -59.5q26 -5 46.5 -17t33 -24.5t24.5 -34t18 -36.5t16 -41.5t16 -40.5q31 -68 54 -97h-142q-19 19 -40 74q-5 12 -13.5 37.5t-13 37t-13.5 31.5t-16.5 29t-20 22t-26 19t-32 10.5t-41.5 4.5h-63
q-15 0 -27.5 2.5t-19 4.5t-13 8.5t-8.5 9t-7 11.5t-6 11v-312h-120v706zM189 607v-177q0 -68 83 -68h136q60 0 92 33t32 88q0 124 -128 124h-215zM251 914l81 -91l82 91h91l-112 -149h-121l-111 149h90z" />
    <glyph glyph-name="rcaron" unicode="&#x159;" horiz-adv-x="333" 
d="M348 519l-25 -95q-30 12 -60 12q-57 0 -79 -33t-22 -101v-302h-111v322q0 212 209 212q20 0 88 -15zM140 751l81 -91l82 91h91l-112 -149h-121l-111 149h90z" />
    <glyph glyph-name="Sacute" unicode="&#x15a;" horiz-adv-x="558" 
d="M27 41l44 101q99 -54 193 -54q126 0 126 99q0 42 -30 69.5t-86 53.5l-83 39q-80 37 -121 79t-41 108q0 90 72 136t179 46q115 0 221 -50l-42 -99q-76 50 -173 50q-127 0 -127 -81q0 -23 18 -42.5t32 -27.5t52 -25q2 -2 3.5 -2.5t4 -1.5t4.5 -2l82 -39q85 -40 125.5 -86.5
t40.5 -122.5q0 -98 -72.5 -149.5t-183.5 -51.5q-126 0 -238 53zM466 926l-132 -149h-96l89 149h139z" />
    <glyph glyph-name="sacute" unicode="&#x15b;" horiz-adv-x="427" 
d="M21 31l36 90q78 -42 148 -42q82 0 82 64q0 29 -22 47.5t-69 39.5l-43 20q-31 14 -51 25.5t-40.5 29t-30.5 40t-10 51.5q0 70 54.5 104t137.5 34q94 0 177 -40l-37 -88q-64 41 -135 41q-81 0 -81 -50q0 -6 1.5 -11t5 -9.5t6.5 -8t9.5 -8t10.5 -7.5t12.5 -7t13 -6t15 -7
t14.5 -7l43 -20q67 -31 101 -66.5t34 -95.5q0 -75 -56 -114t-141 -39q-98 0 -185 40zM404 751l-132 -149h-96l89 149h139z" />
    <glyph glyph-name="Scircumflex" unicode="&#x15c;" horiz-adv-x="558" 
d="M27 41l44 101q99 -54 193 -54q126 0 126 99q0 42 -30 69.5t-86 53.5l-83 39q-80 37 -121 79t-41 108q0 90 72 136t179 46q115 0 221 -50l-42 -99q-76 50 -173 50q-127 0 -127 -81q0 -23 18 -42.5t32 -27.5t52 -25q2 -2 3.5 -2.5t4 -1.5t4.5 -2l82 -39q85 -40 125.5 -86.5
t40.5 -122.5q0 -98 -72.5 -149.5t-183.5 -51.5q-126 0 -238 53zM280 867l-81 -90h-90l111 149h121l112 -149h-91z" />
    <glyph glyph-name="scircumflex" unicode="&#x15d;" horiz-adv-x="427" 
d="M21 31l36 90q78 -42 148 -42q82 0 82 64q0 29 -22 47.5t-69 39.5l-43 20q-31 14 -51 25.5t-40.5 29t-30.5 40t-10 51.5q0 70 54.5 104t137.5 34q94 0 177 -40l-37 -88q-64 41 -135 41q-81 0 -81 -50q0 -6 1.5 -11t5 -9.5t6.5 -8t9.5 -8t10.5 -7.5t12.5 -7t13 -6t15 -7
t14.5 -7l43 -20q67 -31 101 -66.5t34 -95.5q0 -75 -56 -114t-141 -39q-98 0 -185 40zM217 692l-81 -90h-90l111 149h121l112 -149h-91z" />
    <glyph glyph-name="Scedilla" unicode="&#x15e;" horiz-adv-x="558" 
d="M30 41l44 101q99 -54 193 -54q126 0 126 99q0 42 -30 69.5t-86 53.5l-83 39q-80 37 -121 79t-41 108q0 90 72 136t179 46q115 0 221 -50l-42 -99q-76 50 -173 50q-127 0 -127 -81q0 -23 18 -42.5t32 -27.5t52 -25q2 -2 3.5 -2.5t4 -1.5t4.5 -2l82 -39q85 -40 125.5 -86.5
t40.5 -122.5q0 -92 -64 -143t-166 -57l-10 -50q13 -1 27.5 -6t31.5 -15t27.5 -29.5t10.5 -46.5q0 -38 -22.5 -68t-56.5 -46.5t-56.5 -24.5t-39.5 -11l-20 57q100 37 100 85q0 28 -24.5 41.5t-58.5 12.5l20 102q-103 8 -193 51z" />
    <glyph glyph-name="scedilla" unicode="&#x15f;" horiz-adv-x="427" 
d="M21 31l36 90q78 -42 148 -42q82 0 82 64q0 29 -22 47.5t-69 39.5l-43 20q-31 14 -51 25.5t-40.5 29t-30.5 40t-10 51.5q0 70 54.5 104t137.5 34q94 0 177 -40l-37 -88q-64 41 -135 41q-81 0 -81 -50q0 -6 1.5 -11t5 -9.5t6.5 -8t9.5 -8t10.5 -7.5t12.5 -7t13 -6t15 -7
t14.5 -7l43 -20q67 -31 101 -66.5t34 -95.5q0 -69 -48 -107.5t-125 -43.5l-9 -47q13 -1 27.5 -6t31.5 -15t27.5 -29.5t10.5 -46.5q0 -38 -22 -68t-57.5 -47.5t-55.5 -24t-40 -11.5l-20 58q100 37 100 85q0 28 -24.5 41t-58.5 13l19 99q-70 6 -138 37z" />
    <glyph glyph-name="Scaron" unicode="&#x160;" horiz-adv-x="558" 
d="M27 41l44 101q99 -54 193 -54q126 0 126 99q0 42 -30 69.5t-86 53.5l-83 39q-80 37 -121 79t-41 108q0 90 72 136t179 46q115 0 221 -50l-42 -99q-76 50 -173 50q-127 0 -127 -81q0 -23 18 -42.5t32 -27.5t52 -25q2 -2 3.5 -2.5t4 -1.5t4.5 -2l82 -39q85 -40 125.5 -86.5
t40.5 -122.5q0 -98 -72.5 -149.5t-183.5 -51.5q-126 0 -238 53zM200 926l81 -91l82 91h91l-112 -149h-121l-111 149h90z" />
    <glyph glyph-name="scaron" unicode="&#x161;" horiz-adv-x="427" 
d="M21 31l36 90q78 -42 148 -42q82 0 82 64q0 29 -22 47.5t-69 39.5l-43 20q-31 14 -51 25.5t-40.5 29t-30.5 40t-10 51.5q0 70 54.5 104t137.5 34q94 0 177 -40l-37 -88q-64 41 -135 41q-81 0 -81 -50q0 -6 1.5 -11t5 -9.5t6.5 -8t9.5 -8t10.5 -7.5t12.5 -7t13 -6t15 -7
t14.5 -7l43 -20q67 -31 101 -66.5t34 -95.5q0 -75 -56 -114t-141 -39q-98 0 -185 40zM137 751l81 -91l82 91h91l-112 -149h-121l-111 149h90z" />
    <glyph glyph-name="Tcommaaccent" unicode="&#x162;" horiz-adv-x="577" 
d="M228 0v604h-227v102h575l-14 -102h-214v-604h-120zM270 -251l-57 51q20 14 27 28.5t7 41.5v70h88v-70q0 -41 -13.5 -68.5t-51.5 -52.5z" />
    <glyph glyph-name="tcommaaccent" unicode="&#x163;" horiz-adv-x="273" 
d="M48 268v393l112 44v-178h108l-17 -89h-91v-172q0 -123 97 -257l6 -9h-124l-11 16q-11 17 -14.5 23t-14.5 25t-16 31.5t-13 34.5t-12 41.5t-7 45t-3 51.5zM147 -251l-57 51q20 14 27 28.5t7 41.5v70h88v-70q0 -41 -13.5 -68.5t-51.5 -52.5z" />
    <glyph glyph-name="Tcaron" unicode="&#x164;" horiz-adv-x="577" 
d="M228 0v604h-227v102h575l-14 -102h-214v-604h-120zM208 909l81 -91l82 91h91l-112 -149h-121l-111 149h90z" />
    <glyph glyph-name="tcaron" unicode="&#x165;" horiz-adv-x="348" 
d="M48 268v393l112 44v-178h108l-17 -89h-91v-172q0 -123 97 -257l6 -9h-124l-11 16q-11 17 -14.5 23t-14.5 25t-16 31.5t-13 34.5t-12 41.5t-7 45t-3 51.5zM269 573l-57 50q20 15 27 29.5t7 41.5v70h88v-70q0 -41 -13.5 -68.5t-51.5 -52.5z" />
    <glyph glyph-name="Tbar" unicode="&#x166;" horiz-adv-x="577" 
d="M136 363v76h92v165h-227v102h575l-14 -102h-214v-165h93v-76h-93v-363h-120v363h-92z" />
    <glyph glyph-name="tbar" unicode="&#x167;" horiz-adv-x="273" 
d="M1 277v70h47v314l112 44v-178h108l-17 -89h-91v-91h95v-70h-95v-29q0 -52 19.5 -105t35.5 -77t42 -58q4 -5 6 -8h-124q-1 2 -11.5 16.5t-16.5 24.5t-17 28.5t-17.5 36t-14 40.5t-11 48.5t-3.5 52.5v30h-47z" />
    <glyph glyph-name="Utilde" unicode="&#x168;" horiz-adv-x="718" 
d="M64 238v468h120v-453q0 -81 51 -120t128 -39q78 0 128 39t50 120v453h113v-468q0 -123 -82.5 -186.5t-208.5 -63.5q-58 0 -109 13.5t-95 41.5t-69.5 78t-25.5 117zM259 776h-65q2 15 6 31t14.5 40.5t32 40t50.5 15.5q26 0 69.5 -21.5t60.5 -21.5q10 0 18 4.5t12 11.5
t6 13.5t3 13t1 7.5h65q-2 -15 -6 -31.5t-14.5 -41t-31 -40.5t-47.5 -16q-28 0 -71 23.5t-60 23.5q-11 0 -19 -4.5t-12 -12t-6.5 -14t-3.5 -14.5z" />
    <glyph glyph-name="utilde" unicode="&#x169;" 
d="M413 223v304h111v-322q0 -104 -64 -159t-173 -55q-108 0 -172 55t-64 159v322h111v-304q0 -65 32 -100t93 -35q62 0 94 35t32 100zM188 604h-65q2 15 6 31t14.5 40.5t32 40t50.5 15.5q26 0 69.5 -21.5t60.5 -21.5q10 0 18 4.5t12 11.5t6 13.5t3 13t1 7.5h65
q-2 -15 -6 -31.5t-14.5 -41t-31 -40.5t-47.5 -16q-28 0 -71 23.5t-60 23.5q-11 0 -19 -4.5t-12 -12t-6.5 -14t-3.5 -13.5z" />
    <glyph glyph-name="Umacron" unicode="&#x16a;" horiz-adv-x="718" 
d="M64 238v468h120v-453q0 -81 51 -120t128 -39q78 0 128 39t50 120v453h113v-468q0 -123 -82.5 -186.5t-208.5 -63.5q-58 0 -109 13.5t-95 41.5t-69.5 78t-25.5 117zM209 801v77h300v-77h-300z" />
    <glyph glyph-name="umacron" unicode="&#x16b;" 
d="M413 223v304h111v-322q0 -104 -64 -159t-173 -55q-108 0 -172 55t-64 159v322h111v-304q0 -65 32 -100t93 -35q62 0 94 35t32 100zM138 629v77h300v-77h-300z" />
    <glyph glyph-name="Ubreve" unicode="&#x16c;" horiz-adv-x="718" 
d="M64 238v468h120v-453q0 -81 51 -120t128 -39q78 0 128 39t50 120v453h113v-468q0 -123 -82.5 -186.5t-208.5 -63.5q-58 0 -109 13.5t-95 41.5t-69.5 78t-25.5 117zM362 845q30 0 48.5 18.5t21.5 51.5h86q-8 -74 -52 -107t-104 -33t-104 33t-52 107h86q3 -33 21.5 -51.5
t48.5 -18.5z" />
    <glyph glyph-name="ubreve" unicode="&#x16d;" 
d="M413 223v304h111v-322q0 -104 -64 -159t-173 -55q-108 0 -172 55t-64 159v322h111v-304q0 -65 32 -100t93 -35q62 0 94 35t32 100zM291 673q30 0 48.5 18.5t21.5 51.5h86q-8 -74 -52 -107t-104 -33t-104 33t-52 107h86q3 -33 21.5 -51.5t48.5 -18.5z" />
    <glyph glyph-name="Uring" unicode="&#x16e;" horiz-adv-x="718" 
d="M64 238v468h120v-453q0 -81 51 -120t128 -39q78 0 128 39t50 120v453h113v-468q0 -123 -82.5 -186.5t-208.5 -63.5q-58 0 -109 13.5t-95 41.5t-69.5 78t-25.5 117zM230 887q0 55 38.5 93.5t93.5 38.5t94 -38.5t39 -93.5t-38.5 -93.5t-94.5 -38.5t-94 38t-38 94zM295 887
q0 -28 19.5 -47.5t47.5 -19.5t47.5 19.5t19.5 47.5t-19.5 47.5t-47.5 19.5t-47.5 -19.5t-19.5 -47.5z" />
    <glyph glyph-name="uring" unicode="&#x16f;" 
d="M413 223v304h111v-322q0 -104 -64 -159t-173 -55q-108 0 -172 55t-64 159v322h111v-304q0 -65 32 -100t93 -35q62 0 94 35t32 100zM159 715q0 55 38.5 93.5t93.5 38.5t94 -38.5t39 -93.5t-38.5 -93.5t-94.5 -38.5q-55 0 -93.5 38.5t-38.5 93.5zM224 715q0 -29 19 -48
t48 -19t48 19t19 48t-19 48t-48 19t-48 -19t-19 -48z" />
    <glyph glyph-name="Uhungarumlaut" unicode="&#x170;" horiz-adv-x="718" 
d="M64 238v468h120v-453q0 -81 51 -120t128 -39q78 0 128 39t50 120v453h113v-468q0 -123 -82.5 -186.5t-208.5 -63.5q-58 0 -109 13.5t-95 41.5t-69.5 78t-25.5 117zM412 914l-96 -149h-87l64 149h119zM601 914l-126 -149h-46h-47l94 149h125z" />
    <glyph glyph-name="uhungarumlaut" unicode="&#x171;" 
d="M413 223v304h111v-322q0 -104 -64 -159t-173 -55q-108 0 -172 55t-64 159v322h111v-304q0 -65 32 -100t93 -35q62 0 94 35t32 100zM341 742l-96 -149h-87l64 149h119zM530 742l-126 -149h-46h-47l94 149h125z" />
    <glyph glyph-name="Uogonek" unicode="&#x172;" horiz-adv-x="718" 
d="M64 238v468h120v-453q0 -81 51 -120t128 -39q78 0 128 39t50 120v453h113v-468q0 -109 -66 -171.5t-172 -74.5q-78 -47 -78 -104q0 -29 18 -44.5t43 -15.5q34 0 70 13l-7 -71q-40 -11 -90 -11q-46 0 -84.5 26t-38.5 85q0 69 75 120q-112 9 -186 69.5t-74 178.5z" />
    <glyph glyph-name="uogonek" unicode="&#x173;" 
d="M413 223v304h111v-322q0 -94 -52 -148t-143 -63q-64 -46 -64 -95q0 -29 18 -44.5t43 -15.5q34 0 70 13l-7 -71q-40 -11 -90 -11q-46 0 -84.5 26t-38.5 85q0 63 65 113q-89 11 -139.5 64.5t-50.5 146.5v322h111v-304q0 -65 32 -100t93 -35q62 0 94 35t32 100z" />
    <glyph glyph-name="Wcircumflex" unicode="&#x174;" horiz-adv-x="967" 
d="M220 0l-217 706h129l154 -543l146 543h116l149 -543l146 543h115l-207 -706h-122l-144 525l-145 -525h-120zM477 855l-81 -90h-90l111 149h121l112 -149h-91z" />
    <glyph glyph-name="wcircumflex" unicode="&#x175;" horiz-adv-x="886" 
d="M446 97h-4q-20 -52 -70 -79t-112 -27q-97 0 -153 53.5t-56 152.5v330h111v-309q0 -62 28 -96t84 -34q114 0 114 130v309h110v-309q0 -130 114 -130q56 0 84 34.5t28 95.5v309h111v-330q0 -99 -56 -152.5t-153 -53.5q-61 0 -110 27t-70 79zM442 683l-81 -90h-90l111 149
h121l112 -149h-91z" />
    <glyph glyph-name="Ycircumflex" unicode="&#x176;" horiz-adv-x="580" 
d="M42 467v239h120v-222q0 -60 34.5 -90.5t96.5 -30.5q63 0 96 30.5t33 89.5v223h114v-245q0 -85 -47 -134.5t-134 -59.5v-267h-121v266q-93 9 -142.5 59.5t-49.5 141.5zM291 855l-81 -90h-90l111 149h121l112 -149h-91z" />
    <glyph glyph-name="ycircumflex" unicode="&#x177;" horiz-adv-x="577" 
d="M428 -184h-133q5 4 12.5 11.5t27 33t35 52.5t29 68t14.5 82q-52 -72 -155 -72q-98 0 -152.5 52t-54.5 160v324h111v-299q0 -140 118 -140q70 0 101.5 39.5t31.5 98.5v301h111v-455q0 -68 -24 -132t-48 -94zM284 683l-81 -90h-90l111 149h121l112 -149h-91z" />
    <glyph glyph-name="Ydieresis" unicode="&#x178;" horiz-adv-x="580" 
d="M42 467v239h120v-222q0 -60 34.5 -90.5t96.5 -30.5q63 0 96 30.5t33 89.5v223h114v-245q0 -85 -47 -134.5t-134 -59.5v-267h-121v266q-93 9 -142.5 59.5t-49.5 141.5zM135 788v105h104v-105h-50h-54zM347 788v105h105v-105h-105z" />
    <glyph glyph-name="Zacute" unicode="&#x179;" horiz-adv-x="613" 
d="M570 0h-550q0 124 46 207t167 183q5 4 34 27.5t36.5 30t31 27t33.5 31.5t26 29t26 34.5t18 34.5h-383v102h538q-1 -60 -18.5 -111t-53.5 -96.5t-75.5 -81.5t-101.5 -82q-79 -61 -123.5 -112t-55.5 -120h405v-103zM508 914l-132 -149h-96l89 149h139z" />
    <glyph glyph-name="zacute" unicode="&#x17a;" horiz-adv-x="470" 
d="M314 439h-279v88h414q0 -86 -37.5 -145t-114.5 -120q-63 -50 -97.5 -90t-42.5 -84h284v-88h-424q1 56 14 101t39.5 82.5t53.5 63.5t70 61q100 79 120 131zM433 742l-132 -149h-96l89 149h139z" />
    <glyph glyph-name="Zdotaccent" unicode="&#x17b;" horiz-adv-x="613" 
d="M570 0h-550q0 124 46 207t167 183q5 4 34 27.5t36.5 30t31 27t33.5 31.5t26 29t26 34.5t18 34.5h-383v102h538q-1 -60 -18.5 -111t-53.5 -96.5t-75.5 -81.5t-101.5 -82q-79 -61 -123.5 -112t-55.5 -120h405v-103zM273 792v104h104v-104h-104z" />
    <glyph glyph-name="zdotaccent" unicode="&#x17c;" horiz-adv-x="470" 
d="M314 439h-279v88h414q0 -86 -37.5 -145t-114.5 -120q-63 -50 -97.5 -90t-42.5 -84h284v-88h-424q1 56 14 101t39.5 82.5t53.5 63.5t70 61q100 79 120 131zM197 620v104h104v-104h-104z" />
    <glyph glyph-name="Zcaron" unicode="&#x17d;" horiz-adv-x="613" 
d="M570 0h-550q0 124 46 207t167 183q5 4 34 27.5t36.5 30t31 27t33.5 31.5t26 29t26 34.5t18 34.5h-383v102h538q-1 -60 -18.5 -111t-53.5 -96.5t-75.5 -81.5t-101.5 -82q-79 -61 -123.5 -112t-55.5 -120h405v-103zM242 914l81 -91l82 91h91l-112 -149h-121l-111 149h90z
" />
    <glyph glyph-name="zcaron" unicode="&#x17e;" horiz-adv-x="470" 
d="M314 439h-279v88h414q0 -86 -37.5 -145t-114.5 -120q-63 -50 -97.5 -90t-42.5 -84h284v-88h-424q1 56 14 101t39.5 82.5t53.5 63.5t70 61q100 79 120 131zM166 742l81 -91l82 91h91l-112 -149h-121l-111 149h90z" />
    <glyph glyph-name="florin" unicode="&#x192;" horiz-adv-x="514" 
d="M103 0l110 389h-92l22 78h93l37 133q20 69 58.5 93.5t98.5 24.5q58 0 99 -26l-34 -89q-23 15 -54 15q-28 0 -43 -12.5t-25 -47.5l-26 -91h96l-20 -78h-99l-126 -443q-35 -118 -162 -118q-28 0 -54 7t-38 14l-12 7l34 89q2 -2 9 -5.5t20.5 -7.5t27.5 -4q29 0 48.5 14.5
t31.5 57.5z" />
    <glyph glyph-name="AEacute" unicode="&#x1fc;" horiz-adv-x="929" 
d="M872 0h-299q-74 0 -117.5 38.5t-43.5 107.5v33h-234l-69 -179h-116l273 706h630l-18 -100h-347v-205h311l-17 -96h-294v-125q0 -80 76 -80h283zM340 606l-127 -330h198v330h-71zM749 915l-132 -149h-96l89 149h139z" />
    <glyph glyph-name="aeacute" unicode="&#x1fd;" horiz-adv-x="1048" 
d="M908 109l-8 -94q-51 -24 -127 -24q-116 0 -188 70v-61h-92v84q-33 -43 -85 -67.5t-113 -24.5q-115 0 -191 74t-76 194t78 197t199 77q160 0 235 -116q34 54 92 85t131 31q126 0 195 -80.5t67 -214.5h-420q7 -81 60 -120t126 -39q66 0 117 29zM485 262q0 78 -47.5 126.5
t-124.5 48.5q-76 0 -123 -50.5t-47 -124.5q0 -76 46.5 -125t123.5 -49t124.5 48.5t47.5 125.5zM761 449q-61 0 -102 -34.5t-54 -93.5h301q-8 61 -46.5 94.5t-98.5 33.5zM696 751l-132 -149h-96l89 149h139z" />
    <glyph glyph-name="Oslashacute" unicode="&#x1fe;" horiz-adv-x="832" 
d="M36 33l79 78q-79 95 -78 242q1 173 105.5 269t273.5 96q144 0 243 -70l80 79l57 -54l-79 -79q79 -95 79 -241q0 -173 -105 -269t-275 -96q-146 0 -243 69l-79 -78zM663 353q0 86 -40 149l-362 -358q60 -48 155 -48q117 0 182 71.5t65 185.5zM170 353q0 -88 38 -150
l363 358q-63 49 -155 49q-116 0 -181 -71.5t-65 -185.5zM601 926l-132 -149h-96l89 149h139z" />
    <glyph glyph-name="oslashacute" unicode="&#x1ff;" horiz-adv-x="632" 
d="M29 262q0 125 83.5 199t203.5 73q108 -2 181 -54l61 59l46 -46l-60 -57q58 -73 58 -174q1 -126 -80 -198.5t-206 -72.5q-105 0 -180 52l-62 -60l-46 47l60 57q-59 72 -59 175zM146 262q0 -56 24 -96l248 239q-45 32 -102 32q-72 1 -121 -47.5t-49 -127.5zM486 262
q-2 55 -24 94l-248 -238q42 -30 102 -30q75 0 122.5 47.5t47.5 126.5zM500 751l-132 -149h-96l89 149h139z" />
    <glyph glyph-name="dotlessj" unicode="&#x237;" horiz-adv-x="223" 
d="M58 527h112v-331q0 -68 -10.5 -132t-26 -107t-30.5 -76.5t-25 -48.5l-11 -16h-123q5 6 12.5 18t27 50t34.5 79.5t27.5 104t12.5 125.5v334z" />
    <glyph glyph-name="circumflex" unicode="&#x2c6;" horiz-adv-x="500" 
d="M249 692l-81 -90h-90l111 149h121l112 -149h-91z" />
    <glyph glyph-name="caron" unicode="&#x2c7;" horiz-adv-x="500" 
d="M168 751l81 -91l82 91h91l-112 -149h-121l-111 149h90z" />
    <glyph glyph-name="breve" unicode="&#x2d8;" horiz-adv-x="500" 
d="M250 682q30 0 48.5 18.5t21.5 51.5h86q-8 -74 -52 -107t-104 -33t-104 33t-52 107h86q3 -33 21.5 -51.5t48.5 -18.5z" />
    <glyph glyph-name="dotaccent" unicode="&#x2d9;" horiz-adv-x="500" 
d="M198 629v104h104v-104h-104z" />
    <glyph glyph-name="ring" unicode="&#x2da;" horiz-adv-x="500" 
d="M118 724q0 55 38.5 93.5t93.5 38.5t94 -38.5t39 -93.5t-38.5 -93.5t-94.5 -38.5t-94 38t-38 94zM183 724q0 -28 19.5 -47.5t47.5 -19.5t47.5 19.5t19.5 47.5t-19.5 47.5t-47.5 19.5t-47.5 -19.5t-19.5 -47.5z" />
    <glyph glyph-name="ogonek" unicode="&#x2db;" horiz-adv-x="500" 
d="M237 0h92q-48 -24 -73 -55t-25 -60t18 -44t43 -15q34 0 70 13l-7 -71q-39 -12 -90 -12q-46 0 -84.5 26.5t-38.5 84.5q0 42 28.5 77t66.5 56z" />
    <glyph glyph-name="tilde" unicode="&#x2dc;" horiz-adv-x="500" 
d="M146 613h-65q2 15 6 31t14.5 40.5t32 40t50.5 15.5q26 0 69.5 -21.5t60.5 -21.5q10 0 18 4.5t12 11.5t6 13.5t3 13t1 7.5h65q-2 -15 -6 -31.5t-14.5 -41t-31 -40.5t-47.5 -16q-28 0 -71 23.5t-60 23.5q-11 0 -19 -4.5t-12 -12t-6.5 -14t-3.5 -14.5z" />
    <glyph glyph-name="hungarumlaut" unicode="&#x2dd;" horiz-adv-x="500" 
d="M300 751l-96 -149h-87l64 149h119zM489 751l-126 -149h-46h-47l94 149h125z" />
    <glyph glyph-name="uni0312" unicode="&#x312;" horiz-adv-x="500" 
d="M271 813l57 -51q-20 -14 -27 -28.5t-7 -41.5v-70h-88v70q0 41 13.5 68.5t51.5 52.5z" />
    <glyph glyph-name="uni0315" unicode="&#x315;" horiz-adv-x="122" 
d="M57 573l-57 50q20 15 27 29.5t7 41.5v70h88v-70q0 -41 -13.5 -68.5t-51.5 -52.5z" />
    <glyph glyph-name="uni0326" unicode="&#x326;" horiz-adv-x="500" 
d="M229 -248l-57 51q20 14 27 28.5t7 41.5v70h88v-70q0 -41 -13.5 -68.5t-51.5 -52.5z" />
    <glyph glyph-name="tonos" unicode="&#x384;" horiz-adv-x="500" 
d="M315 751l-86 -149h-77l44 149h119z" />
    <glyph glyph-name="dieresistonos" unicode="&#x385;" horiz-adv-x="500" 
d="M78 605v104h98v-104h-50h-48zM324 605v104h98v-104h-98zM352 814l-95 -149h-72l53 149h53h61z" />
    <glyph glyph-name="Alphatonos" unicode="&#x386;" horiz-adv-x="648" 
d="M532 0l-62 179h-278l-61 -179h-115l248 706h146l246 -706h-124zM331 596l-107 -320h214zM198 706l-86 -149h-77l44 149h119z" />
    <glyph glyph-name="Epsilontonos" unicode="&#x388;" horiz-adv-x="723" 
d="M165 706l-86 -149h-77l44 149h119zM667 0h-289q-79 0 -125.5 41.5t-46.5 118.5v546h485l-18 -100h-347v-205h311l-17 -96h-294v-125q0 -80 76 -80h283z" />
    <glyph glyph-name="Etatonos" unicode="&#x389;" horiz-adv-x="848" 
d="M205 0v706h121v-300h333v300h120v-706h-120v307h-334v-307h-120zM165 706l-86 -149h-77l44 149h119z" />
    <glyph glyph-name="Iotatonos" unicode="&#x38a;" horiz-adv-x="395" 
d="M206 0v706h120v-706h-120zM165 706l-86 -149h-77l44 149h119z" />
    <glyph glyph-name="Omicrontonos" unicode="&#x38c;" horiz-adv-x="890" 
d="M165 706l-86 -149h-77l44 149h119zM95 353q1 172 105 268.5t274 96.5q171 0 275.5 -96.5t104.5 -268.5t-104.5 -268.5t-275.5 -96.5q-170 0 -275 96.5t-104 268.5zM228 353q0 -114 65.5 -185.5t180.5 -71.5q116 0 181.5 71.5t65.5 185.5t-65.5 185.5t-181.5 71.5
q-115 0 -180.5 -71.5t-65.5 -185.5z" />
    <glyph glyph-name="Upsilontonos" unicode="&#x38e;" horiz-adv-x="759" 
d="M165 706l-86 -149h-77l44 149h119zM206 465v241h120v-223q0 -59 36 -89.5t103 -30.5q139 0 139 120v223h120v-241q0 -86 -52.5 -138t-146.5 -60v-267h-120v266q-95 9 -147 60t-52 139z" />
    <glyph glyph-name="Omegatonos" unicode="&#x38f;" horiz-adv-x="894" 
d="M165 706l-86 -149h-77l44 149h119zM472 610q-108 0 -174 -64.5t-66 -178.5q0 -186 177 -270v-97h-319l13 100h142q-145 97 -145 280q0 151 103 244.5t270 93.5t269.5 -93.5t102.5 -244.5q0 -84 -35.5 -157.5t-108.5 -122.5h154l-13 -100h-306v97q177 84 177 270
q0 114 -66.5 178.5t-174.5 64.5z" />
    <glyph glyph-name="iotadieresistonos" unicode="&#x390;" horiz-adv-x="222" 
d="M55 527h112v-527h-112v527zM-57 605v104h98v-104h-50h-48zM189 605v104h98v-104h-98zM217 814l-95 -149h-72l53 149h53h61z" />
    <glyph glyph-name="Alpha" unicode="&#x391;" horiz-adv-x="625" 
d="M509 0l-62 179h-278l-61 -179h-115l248 706h146l246 -706h-124zM308 596l-107 -320h214z" />
    <glyph glyph-name="Beta" unicode="&#x392;" horiz-adv-x="658" 
d="M68 706h310q209 0 209 -182q0 -58 -25 -98.5t-75 -48.5q72 -10 107 -57t35 -120q0 -200 -230 -200h-158q-84 0 -128.5 43.5t-44.5 120.5v542zM188 364v-191q0 -73 79 -73h113q118 0 118 111q0 58 -28 82t-86 24h-118q-33 0 -50 11.5t-28 35.5zM188 606v-132q0 -31 18 -50
t53 -19h82q117 0 117 102q0 59 -29 79t-84 20h-157z" />
    <glyph glyph-name="Gamma" unicode="&#x393;" horiz-adv-x="512" 
d="M240 706h276l-18 -102h-234q-76 0 -76 -80v-524h-120v546q0 77 46.5 118.5t125.5 41.5z" />
    <glyph glyph-name="uni0394" unicode="&#x394;" horiz-adv-x="651" 
d="M-7 0l270 706h123l272 -706h-665zM322 567l-169 -464h338z" />
    <glyph glyph-name="Epsilon" unicode="&#x395;" horiz-adv-x="586" 
d="M529 0h-289q-79 0 -125.5 41.5t-46.5 118.5v546h485l-18 -100h-347v-205h311l-17 -96h-294v-125q0 -80 76 -80h283z" />
    <glyph glyph-name="Zeta" unicode="&#x396;" horiz-adv-x="613" 
d="M570 0h-550q0 124 46 207t167 183q5 4 34 27.5t36.5 30t31 27t33.5 31.5t26 29t26 34.5t18 34.5h-383v102h538q-1 -60 -18.5 -111t-53.5 -96.5t-75.5 -81.5t-101.5 -82q-79 -61 -123.5 -112t-55.5 -120h405v-103z" />
    <glyph glyph-name="Eta" unicode="&#x397;" horiz-adv-x="712" 
d="M69 0v706h121v-300h333v300h120v-706h-120v307h-334v-307h-120z" />
    <glyph glyph-name="Theta" unicode="&#x398;" horiz-adv-x="832" 
d="M37 353q1 172 105 268.5t274 96.5q171 0 275.5 -96.5t104.5 -268.5t-104.5 -268.5t-275.5 -96.5q-170 0 -275 96.5t-104 268.5zM170 353q0 -114 65.5 -185.5t180.5 -71.5q116 0 181.5 71.5t65.5 185.5t-65.5 185.5t-181.5 71.5q-115 0 -180.5 -71.5t-65.5 -185.5z
M264 399h314l-10 -89h-314z" />
    <glyph glyph-name="Iota" unicode="&#x399;" horiz-adv-x="259" 
d="M69 0v706h120v-706h-120z" />
    <glyph glyph-name="Kappa" unicode="&#x39a;" horiz-adv-x="633" 
d="M69 706h120v-304h27l246 304h134l-262 -315h30q65 0 97.5 -28.5t62.5 -102.5l44 -109q15 -36 34.5 -72t33 -56t17.5 -23h-143q-8 9 -26.5 43t-31.5 68l-36 93q-24 62 -36 75q-22 22 -77 22h-114v-301h-120v706z" />
    <glyph glyph-name="Lambda" unicode="&#x39b;" horiz-adv-x="637" 
d="M514 0l-199 561l-198 -561h-124l263 706h123l265 -706h-130z" />
    <glyph glyph-name="Mu" unicode="&#x39c;" horiz-adv-x="866" 
d="M179 0h-110v706h196l163 -512h2l173 512h194v-706h-120l1 614h-2l-206 -614h-96l-194 614h-2z" />
    <glyph glyph-name="Nu" unicode="&#x39d;" horiz-adv-x="729" 
d="M660 0h-139l-343 548v-548h-109v706h145l337 -542v542h109v-706z" />
    <glyph glyph-name="Xi" unicode="&#x39e;" horiz-adv-x="631" 
d="M113 402h417l-11 -95h-417zM53 98h536l-11 -98h-536zM67 706h508l-11 -98h-508z" />
    <glyph glyph-name="Omicron" unicode="&#x39f;" horiz-adv-x="832" 
d="M37 353q1 172 105 268.5t274 96.5q171 0 275.5 -96.5t104.5 -268.5t-104.5 -268.5t-275.5 -96.5q-170 0 -275 96.5t-104 268.5zM170 353q0 -114 65.5 -185.5t180.5 -71.5q116 0 181.5 71.5t65.5 185.5t-65.5 185.5t-181.5 71.5q-115 0 -180.5 -71.5t-65.5 -185.5z" />
    <glyph glyph-name="Pi" unicode="&#x3a0;" horiz-adv-x="696" 
d="M240 706h216q79 0 125.5 -41.5t46.5 -118.5v-546h-120v524q0 80 -76 80h-168q-76 0 -76 -80v-524h-120v546q0 77 46.5 118.5t125.5 41.5z" />
    <glyph glyph-name="Rho" unicode="&#x3a1;" horiz-adv-x="669" 
d="M69 706h369q105 0 160 -63t55 -157q0 -96 -58 -157.5t-170 -61.5h-151q-25 0 -43 8.5t-24.5 16t-17.5 22.5v-314h-120v706zM189 607v-171q0 -68 83 -68h127q61 0 92.5 32t31.5 87q0 120 -118 120h-216z" />
    <glyph glyph-name="Sigma" unicode="&#x3a3;" horiz-adv-x="577" 
d="M253 389l-217 214v103h515l-17 -102h-351l224 -221l-214 -176q-39 -33 -39 -58q0 -46 62 -46h338l-17 -103h-344q-69 0 -114.5 35.5t-45.5 100.5q0 72 74 130z" />
    <glyph glyph-name="Tau" unicode="&#x3a4;" horiz-adv-x="577" 
d="M228 604h-227v102h575l-14 -102h-214v-604h-120v604z" />
    <glyph glyph-name="Upsilon" unicode="&#x3a5;" horiz-adv-x="589" 
d="M35 465v241h120v-223q0 -59 36 -89.5t103 -30.5q139 0 139 120v223h120v-241q0 -86 -52.5 -138t-146.5 -60v-267h-120v266q-95 9 -147 60t-52 139z" />
    <glyph glyph-name="Phi" unicode="&#x3a6;" horiz-adv-x="845" 
d="M364 -27v83q-152 10 -240 88.5t-87 210.5t88.5 210t238.5 88v80h119v-80q150 -10 238 -88t88 -210q0 -131 -88 -209.5t-238 -89.5v-83h-119zM162 355q0 -82 52 -136.5t152 -65.5v403q-100 -11 -152 -65.5t-52 -135.5zM684 355q0 80 -52.5 135t-151.5 66v-403
q100 11 152 65.5t52 136.5z" />
    <glyph glyph-name="Chi" unicode="&#x3a7;" horiz-adv-x="617" 
d="M374 361l236 -361h-132l-170 264l-169 -264h-132l235 360l-226 346h134l159 -249l160 249h130z" />
    <glyph glyph-name="Psi" unicode="&#x3a8;" horiz-adv-x="831" 
d="M356 706h120v-368q189 18 189 182v186h120v-208q0 -114 -82.5 -186t-226.5 -85v-227h-120v227q-145 13 -227 84.5t-82 186.5v208h120v-186q0 -164 189 -182v368z" />
    <glyph glyph-name="uni03A9" unicode="&#x3a9;" horiz-adv-x="843" 
d="M421 610q-108 0 -174 -64.5t-66 -178.5q0 -186 177 -270v-97h-319l13 100h142q-145 97 -145 280q0 151 103 244.5t270 93.5t269.5 -93.5t102.5 -244.5q0 -84 -35.5 -157.5t-108.5 -122.5h154l-13 -100h-306v97q177 84 177 270q0 114 -66.5 178.5t-174.5 64.5z" />
    <glyph glyph-name="Iotadieresis" unicode="&#x3aa;" horiz-adv-x="259" 
d="M69 0v706h120v-706h-120zM-29 788v105h104v-105h-50h-54zM183 788v105h105v-105h-105z" />
    <glyph glyph-name="Upsilondieresis" unicode="&#x3ab;" horiz-adv-x="589" 
d="M35 465v241h120v-223q0 -59 36 -89.5t103 -30.5q139 0 139 120v223h120v-241q0 -86 -52.5 -138t-146.5 -60v-267h-120v266q-95 9 -147 60t-52 139zM135 788v105h104v-105h-50h-54zM347 788v105h105v-105h-105z" />
    <glyph glyph-name="alphatonos" unicode="&#x3ac;" horiz-adv-x="659" 
d="M143 261q0 -73 43.5 -124t112.5 -51q71 0 114.5 48.5t43.5 126.5t-43.5 127t-114.5 49q-70 0 -113 -51t-43 -125zM566 262q11 -105 60 -263h-109q-18 53 -29 105q-76 -113 -205 -113q-110 0 -182.5 75t-72.5 193q0 120 72.5 197.5t182.5 77.5q72 0 120 -29t85 -82
q12 53 29 104h109q-48 -154 -60 -265zM438 751l-86 -149h-77l44 149h119z" />
    <glyph glyph-name="epsilontonos" unicode="&#x3ad;" horiz-adv-x="492" 
d="M151 156q0 -41 37 -60t90 -19q73 0 153 32l30 -90q-88 -28 -199 -28q-96 0 -162 40t-66 119q0 61 33.5 95.5t84.5 42.5q-43 10 -70 40.5t-27 68.5q0 37 19 65t51.5 43t68 22t74.5 7q104 0 187 -30l-28 -85q-77 30 -142 29q-46 -1 -80 -16t-34 -48q0 -27 27 -45t76 -18h88
l4 -86h-95q-120 0 -120 -79zM396 751l-86 -149h-77l44 149h119z" />
    <glyph glyph-name="etatonos" unicode="&#x3ae;" 
d="M413 -181v483q0 65 -32 100t-94 35q-61 0 -93 -35t-32 -100v-302h-111v320q0 104 64 158.5t172 54.5q109 0 173 -54.5t64 -158.5v-501h-111zM415 751l-86 -149h-77l44 149h119z" />
    <glyph glyph-name="iotatonos" unicode="&#x3af;" horiz-adv-x="222" 
d="M55 527h112v-527h-112v527zM237 751l-86 -149h-77l44 149h119z" />
    <glyph glyph-name="upsilondieresistonos" unicode="&#x3b0;" 
d="M413 223v304h111v-322q0 -104 -64 -159t-173 -55q-108 0 -172 55t-64 159v322h111v-304q0 -65 32 -100t93 -35q62 0 94 35t32 100zM115 605v104h97v-104h-49h-48zM361 605v104h97v-104h-97zM389 814l-96 -149h-72l53 149h54h61z" />
    <glyph glyph-name="alpha" unicode="&#x3b1;" horiz-adv-x="659" 
d="M143 261q0 -73 43.5 -124t112.5 -51q71 0 114.5 48.5t43.5 126.5t-43.5 127t-114.5 49q-70 0 -113 -51t-43 -125zM566 262q11 -105 60 -263h-109q-18 53 -29 105q-76 -113 -205 -113q-110 0 -182.5 75t-72.5 193q0 120 72.5 197.5t182.5 77.5q72 0 120 -29t85 -82
q12 53 29 104h109q-48 -154 -60 -265z" />
    <glyph glyph-name="beta" unicode="&#x3b2;" horiz-adv-x="582" 
d="M320 -8q-101 0 -156 67v-239h-109v698q0 47 15.5 82.5t38.5 56t55.5 33.5t62 17t61.5 4q39 0 74.5 -8.5t69.5 -28t54.5 -57t20.5 -89.5q0 -43 -26.5 -82.5t-79.5 -52.5q70 -20 108 -69.5t38 -122.5q0 -93 -61.5 -151t-165.5 -58zM164 504v-279q0 -65 40 -103.5t98 -38.5
q57 0 93.5 33t36.5 91q0 59 -36.5 94.5t-98.5 35.5h-69l19 91h39q43 0 75 24t32 71q0 40 -25 68.5t-82 28.5q-67 0 -94.5 -30t-27.5 -86z" />
    <glyph glyph-name="gamma" unicode="&#x3b3;" horiz-adv-x="476" 
d="M181 7l-188 520h120l130 -405l127 405h113l-189 -520v-188h-113v188z" />
    <glyph glyph-name="delta" unicode="&#x3b4;" horiz-adv-x="629" 
d="M144 249q0 -74 48 -117.5t123 -43.5t122.5 43.5t46.5 117.5q0 74 -47.5 118t-121.5 44q-72 1 -121.5 -44t-49.5 -118zM257 497q-58 34 -180 125v84h473l-19 -89h-296q41 -28 194 -119q87 -51 129.5 -106.5t42.5 -143.5q1 -119 -80 -188t-206 -69t-206 69t-81 188
q0 105 67.5 172.5t161.5 76.5z" />
    <glyph glyph-name="epsilon" unicode="&#x3b5;" horiz-adv-x="492" 
d="M151 156q0 -41 37 -60t90 -19q73 0 153 32l30 -90q-88 -28 -199 -28q-96 0 -162 40t-66 119q0 61 33.5 95.5t84.5 42.5q-43 10 -70 40.5t-27 68.5q0 37 19 65t51.5 43t68 22t74.5 7q104 0 187 -30l-28 -85q-77 30 -142 29q-46 -1 -80 -16t-34 -48q0 -27 27 -45t76 -18h88
l4 -86h-95q-120 0 -120 -79z" />
    <glyph glyph-name="zeta" unicode="&#x3b6;" horiz-adv-x="481" 
d="M117 617v89h367l-15 -77q-128 -80 -221 -190.5t-93 -212.5q0 -62 33.5 -93t98.5 -41q86 -14 131.5 -43.5t45.5 -94.5q0 -54 -35 -88t-83.5 -45.5t-110.5 -11.5l19 91q105 0 105 51q0 26 -24 38t-76 16q-117 13 -169 68t-52 149q0 108 80.5 214t189.5 181h-191z" />
    <glyph glyph-name="eta" unicode="&#x3b7;" 
d="M413 -181v483q0 65 -32 100t-94 35q-61 0 -93 -35t-32 -100v-302h-111v320q0 104 64 158.5t172 54.5q109 0 173 -54.5t64 -158.5v-501h-111z" />
    <glyph glyph-name="theta" unicode="&#x3b8;" horiz-adv-x="621" 
d="M33 351q0 176 76 268t201 92q126 0 202 -92t76 -268q0 -175 -76.5 -267.5t-201.5 -92.5t-201 92.5t-76 267.5zM310 88q70 0 112 58.5t48 161.5h-320q7 -103 48.5 -161.5t111.5 -58.5zM310 614q-69 0 -110.5 -57t-48.5 -157h319q-8 100 -49.5 157t-110.5 57z" />
    <glyph glyph-name="iota" unicode="&#x3b9;" horiz-adv-x="222" 
d="M55 527h112v-527h-112v527z" />
    <glyph glyph-name="kappa" unicode="&#x3ba;" horiz-adv-x="498" 
d="M55 527h112v-220h19l174 220h124l-183 -224h15q48 0 70 -20t39 -70l29 -88q26 -79 57 -125h-124q-19 42 -33 83l-28 83q-11 35 -24.5 48.5t-44.5 13.5h-90v-228h-112v527z" />
    <glyph glyph-name="lambda" unicode="&#x3bb;" horiz-adv-x="504" 
d="M118 706h124l255 -706h-120l-131 389l-126 -389h-113l183 515z" />
    <glyph glyph-name="uni03BC" unicode="&#x3bc;" horiz-adv-x="578" 
d="M54 -181v708h111v-304q0 -65 32 -100t94 -35q61 0 93 35t32 100v304h111v-322q0 -103 -62.5 -158.5t-159.5 -55.5q-91 0 -140 49v-221h-111z" />
    <glyph glyph-name="nu" unicode="&#x3bd;" horiz-adv-x="464" 
d="M175 0l-188 527h120l130 -403l127 403h113l-188 -527h-114z" />
    <glyph glyph-name="xi" unicode="&#x3be;" horiz-adv-x="482" 
d="M451 694l-19 -90q-45 12 -97 12q-78 0 -113.5 -18.5t-35.5 -56.5q0 -71 143 -71h90l-20 -92q-100 0 -169.5 -44t-69.5 -117q0 -58 38.5 -82.5t104.5 -33.5q83 -18 127 -48.5t44 -95.5q0 -73 -69 -110.5t-178 -37.5l20 90q58 0 90.5 15t32.5 40q0 26 -21 39.5t-67 18.5
q-117 15 -178 62.5t-61 137.5q0 74 46.5 129t130.5 81q-70 10 -110.5 44t-40.5 85q0 44 22.5 76t59.5 49t76 24.5t82 7.5q75 0 142 -14z" />
    <glyph glyph-name="omicron" unicode="&#x3bf;" horiz-adv-x="629" 
d="M28 262q0 125 83.5 199t203.5 73q124 -1 204.5 -73.5t81.5 -198.5t-80 -198.5t-206 -72.5t-206 72.5t-81 198.5zM144 262q0 -79 48 -126.5t123 -47.5t122.5 47.5t46.5 126.5q0 79 -47.5 127t-121.5 48q-72 1 -121.5 -47.5t-49.5 -127.5z" />
    <glyph glyph-name="pi" unicode="&#x3c0;" horiz-adv-x="640" 
d="M622 431h-84v-431h-113v431h-215v-431h-113v431h-93v96h638z" />
    <glyph glyph-name="rho" unicode="&#x3c1;" horiz-adv-x="642" 
d="M44 -181v444q0 120 77.5 195.5t207.5 75.5q124 0 204.5 -76.5t80.5 -196.5q0 -119 -74.5 -194.5t-189.5 -75.5q-130 0 -195 88v-260h-111zM157 262q0 -77 47.5 -125.5t124.5 -48.5t123 49t46 125q0 74 -47 124.5t-122 50.5q-77 0 -124.5 -48.5t-47.5 -126.5z" />
    <glyph glyph-name="sigma1" unicode="&#x3c2;" horiz-adv-x="491" 
d="M470 504l-23 -103q-64 36 -118 36q-78 0 -131.5 -50.5t-53.5 -121.5q0 -66 37 -97t107 -51q36 -11 61.5 -22t51.5 -28t39.5 -42.5t13.5 -57.5q0 -75 -59 -116.5t-146 -41.5q-31 0 -84 6l21 92q34 -8 63 -8q43 0 69 17.5t26 45.5q0 45 -92 67q-224 54 -224 231
q0 124 83 199t212 75q76 0 147 -30z" />
    <glyph glyph-name="sigma" unicode="&#x3c3;" horiz-adv-x="696" 
d="M28 262q0 125 83.5 199t203.5 73q30 0 70 -7h291l-14 -95h-122q60 -66 61 -170q1 -126 -80 -198.5t-206 -72.5t-206 72.5t-81 198.5zM144 262q0 -79 48 -126.5t123 -47.5t122.5 47.5t46.5 126.5q0 79 -47.5 127t-121.5 48q-72 1 -121.5 -47.5t-49.5 -127.5z" />
    <glyph glyph-name="tau" unicode="&#x3c4;" horiz-adv-x="465" 
d="M177 432h-173v95h456l-12 -95h-160v-432h-111v432z" />
    <glyph glyph-name="upsilon" unicode="&#x3c5;" 
d="M413 223v304h111v-322q0 -104 -64 -159t-173 -55q-108 0 -172 55t-64 159v322h111v-304q0 -65 32 -100t93 -35q62 0 94 35t32 100z" />
    <glyph glyph-name="phi" unicode="&#x3c6;" horiz-adv-x="718" 
d="M254 535l-17 -100q-48 -22 -73 -66.5t-25 -99.5q0 -76 43 -124.5t117 -56.5v271q0 86 45 130.5t121 44.5q100 0 161.5 -65.5t62.5 -185.5t-76.5 -197.5t-202.5 -89.5v-177h-111v176q-124 11 -197.5 84t-73.5 191q0 94 60.5 172.5t165.5 92.5zM410 344v-257q76 9 122 59.5
t45 132.5q-1 78 -29 119t-76 41q-62 0 -62 -95z" />
    <glyph glyph-name="chi" unicode="&#x3c7;" horiz-adv-x="504" 
d="M192 179l-185 348h119l126 -248l126 248h118l-186 -347l194 -361h-119l-134 261l-133 -261h-118z" />
    <glyph glyph-name="psi" unicode="&#x3c8;" horiz-adv-x="716" 
d="M302 527h113v-436q139 17 139 135v301h111v-312q0 -98 -65.5 -154.5t-184.5 -66.5v-175h-113v175q-120 9 -185.5 65.5t-65.5 155.5v312h111v-301q0 -118 140 -135v436z" />
    <glyph glyph-name="omega" unicode="&#x3c9;" horiz-adv-x="846" 
d="M425 98h-4q-20 -49 -63.5 -78t-101.5 -29q-100 0 -156.5 71.5t-56.5 185.5q0 63 14.5 125.5t24.5 86t31 67.5h115q-73 -149 -73 -276q0 -79 27 -121t78 -42q48 0 78 39t30 104v189h110v-189q0 -65 30 -104t78 -39q105 0 105 163q0 127 -73 276h115q20 -41 31 -67
t25.5 -87.5t14.5 -124.5q0 -114 -56.5 -185.5t-156.5 -71.5q-59 0 -102.5 29t-63.5 78z" />
    <glyph glyph-name="iotadieresis" unicode="&#x3ca;" horiz-adv-x="222" 
d="M55 527h112v-527h-112v527zM-22 625v105h104v-105h-50h-54zM140 625v105h105v-105h-105z" />
    <glyph glyph-name="upsilondieresis" unicode="&#x3cb;" 
d="M413 223v304h111v-322q0 -104 -64 -159t-173 -55q-108 0 -172 55t-64 159v322h111v-304q0 -65 32 -100t93 -35q62 0 94 35t32 100zM129 625v105h104v-105h-50h-54zM341 625v105h105v-105h-105z" />
    <glyph glyph-name="omicrontonos" unicode="&#x3cc;" horiz-adv-x="629" 
d="M28 262q0 125 83.5 199t203.5 73q124 -1 204.5 -73.5t81.5 -198.5t-80 -198.5t-206 -72.5t-206 72.5t-81 198.5zM144 262q0 -79 48 -126.5t123 -47.5t122.5 47.5t46.5 126.5q0 79 -47.5 127t-121.5 48q-72 1 -121.5 -47.5t-49.5 -127.5zM443 751l-86 -149h-77l44 149h119
z" />
    <glyph glyph-name="upsilontonos" unicode="&#x3cd;" 
d="M413 223v304h111v-322q0 -104 -64 -159t-173 -55q-108 0 -172 55t-64 159v322h111v-304q0 -65 32 -100t93 -35q62 0 94 35t32 100zM415 751l-86 -149h-77l44 149h119z" />
    <glyph glyph-name="omegatonos" unicode="&#x3ce;" horiz-adv-x="846" 
d="M425 98h-4q-20 -49 -63.5 -78t-101.5 -29q-100 0 -156.5 71.5t-56.5 185.5q0 63 14.5 125.5t24.5 86t31 67.5h115q-73 -149 -73 -276q0 -79 27 -121t78 -42q48 0 78 39t30 104v189h110v-189q0 -65 30 -104t78 -39q105 0 105 163q0 127 -73 276h115q20 -41 31 -67
t25.5 -87.5t14.5 -124.5q0 -114 -56.5 -185.5t-156.5 -71.5q-59 0 -102.5 29t-63.5 78zM550 751l-86 -149h-77l44 149h119z" />
    <glyph glyph-name="afii10023" unicode="&#x401;" horiz-adv-x="586" 
d="M529 0h-289q-79 0 -125.5 41.5t-46.5 118.5v546h485l-18 -100h-347v-205h311l-17 -96h-294v-125q0 -80 76 -80h283zM148 788v105h104v-105h-50h-54zM360 788v105h105v-105h-105z" />
    <glyph glyph-name="afii10051" unicode="&#x402;" horiz-adv-x="830" 
d="M668 224q0 140 -144 140q-55 0 -107 -19t-83 -52v-293h-120v604h-214v102h565l-14 -102h-217v-196q91 56 205 56q120 0 187.5 -64.5t67.5 -178.5q0 -116 -72 -173.5t-192 -57.5q-38 0 -75 5l15 98q33 -5 48 -5q67 0 108.5 33t41.5 103z" />
    <glyph glyph-name="afii10052" unicode="&#x403;" horiz-adv-x="512" 
d="M240 706h276l-18 -102h-234q-76 0 -76 -80v-524h-120v546q0 77 46.5 118.5t125.5 41.5zM473 914l-132 -149h-96l89 149h139z" />
    <glyph glyph-name="afii10053" unicode="&#x404;" horiz-adv-x="631" 
d="M436 615q-113 0 -180.5 -58t-80.5 -156h334l-21 -95h-312q15 -98 83.5 -156.5t176.5 -58.5q79 0 159 38l-9 -112q-76 -29 -171 -29q-171 0 -275 98.5t-103 267.5q1 168 106 266t274 98q93 0 169 -29l9 -112q-82 38 -159 38z" />
    <glyph glyph-name="afii10054" unicode="&#x405;" horiz-adv-x="558" 
d="M504 668l-42 -99q-76 50 -173 50q-127 0 -127 -81q0 -23 18 -42.5t32 -27.5t52 -25q2 -2 3.5 -2.5t4 -1.5t4.5 -2l82 -39q85 -40 125.5 -86.5t40.5 -122.5q0 -98 -72.5 -149.5t-183.5 -51.5q-126 0 -238 53l44 101q99 -54 193 -54q126 0 126 99q0 42 -30 69.5t-86 53.5
l-83 39q-80 37 -121 79t-41 108q0 90 72 136t179 46q115 0 221 -50z" />
    <glyph glyph-name="afii10055" unicode="&#x406;" horiz-adv-x="259" 
d="M69 0v706h120v-706h-120z" />
    <glyph glyph-name="afii10056" unicode="&#x407;" horiz-adv-x="259" 
d="M69 0v706h120v-706h-120zM-29 788v105h104v-105h-50h-54zM183 788v105h105v-105h-105z" />
    <glyph glyph-name="afii10057" unicode="&#x408;" horiz-adv-x="276" 
d="M95 706h120v-340q0 -181 -97 -366h-131q36 64 54 101.5t36 112t18 158.5v334z" />
    <glyph glyph-name="afii10058" unicode="&#x409;" horiz-adv-x="1056" 
d="M226 524v-344q0 -180 -191 -180h-18v102h15q74 0 74 79v365q0 76 47 118t126 42h313v-276h206q229 0 229 -212q0 -218 -230 -218h-152q-83 0 -128 43.5t-45 120.5v440h-169q-77 0 -77 -80zM782 330h-190v-157q0 -73 79 -73h107q118 0 118 118q0 62 -27.5 87t-86.5 25z
" />
    <glyph glyph-name="afii10059" unicode="&#x40a;" horiz-adv-x="1056" 
d="M592 706v-276h206q229 0 229 -212q0 -218 -230 -218h-152q-83 0 -128 43.5t-45 120.5v166h-263v-330h-120v706h121v-276h262v276h120zM782 330h-190v-157q0 -73 79 -73h107q118 0 118 118q0 62 -27.5 87t-86.5 25z" />
    <glyph glyph-name="afii10060" unicode="&#x40b;" horiz-adv-x="827" 
d="M214 0v604h-214v102h565l-14 -102h-217v-197q56 57 172 57q122 0 193 -54.5t71 -159.5v-250h-120v222q0 140 -150 140q-67 0 -110.5 -25.5t-55.5 -70.5v-266h-120z" />
    <glyph glyph-name="afii10061" unicode="&#x40c;" horiz-adv-x="633" 
d="M226 401l146 199q42 61 80.5 83.5t100.5 22.5h70l-8 -100h-33q-36 0 -59 -12.5t-44 -40.5l-127 -164h23q56 0 87.5 -27t58.5 -94l47 -117q14 -36 34 -72t33.5 -56t17.5 -23h-143q-8 9 -26.5 43t-31.5 68l-37 96q-24 62 -35 75q-20 23 -77 23h-114v-305h-120v706h120v-305
h37zM468 924l-131 -149h-97l90 149h138z" />
    <glyph glyph-name="afii10062" unicode="&#x40e;" horiz-adv-x="700" 
d="M340 775q-52 0 -92.5 26t-56.5 78l78 33q12 -65 71 -65t71 65l77 -33q-16 -52 -56 -78t-92 -26zM56 472v234h119v-216q0 -72 42 -110.5t126 -38.5q88 0 129 41.5t41 105.5v218h119v-401q0 -87 -27.5 -151.5t-74 -99t-98 -50.5t-109.5 -16q-108 0 -203 23l26 105
q83 -25 158 -24q27 0 52 4.5t55 18t51.5 35t36 61t14.5 91.5q-69 -67 -190 -67q-124 0 -195.5 58t-71.5 179z" />
    <glyph glyph-name="afii10145" unicode="&#x40f;" horiz-adv-x="696" 
d="M628 706v-546q0 -77 -46.5 -118.5t-125.5 -41.5h-55v-167h-106v167h-55q-79 0 -125.5 41.5t-46.5 118.5v546h120v-524q0 -80 76 -80h168q76 0 76 80v524h120z" />
    <glyph glyph-name="afii10017" unicode="&#x410;" horiz-adv-x="625" 
d="M509 0l-62 179h-278l-61 -179h-115l248 706h146l246 -706h-124zM308 596l-107 -320h214z" />
    <glyph glyph-name="afii10018" unicode="&#x411;" horiz-adv-x="648" 
d="M68 706h478l-22 -100h-336v-177h202q229 0 229 -212q0 -217 -230 -217h-148q-84 0 -128.5 43.5t-44.5 120.5v542zM374 331h-186v-158q0 -73 79 -73h103q118 0 118 118q0 62 -27.5 87.5t-86.5 25.5z" />
    <glyph glyph-name="afii10019" unicode="&#x412;" horiz-adv-x="658" 
d="M68 706h310q209 0 209 -182q0 -58 -25 -98.5t-75 -48.5q72 -10 107 -57t35 -120q0 -200 -230 -200h-158q-84 0 -128.5 43.5t-44.5 120.5v542zM188 364v-191q0 -73 79 -73h113q118 0 118 111q0 58 -28 82t-86 24h-118q-33 0 -50 11.5t-28 35.5zM188 606v-132q0 -31 18 -50
t53 -19h82q117 0 117 102q0 59 -29 79t-84 20h-157z" />
    <glyph glyph-name="afii10020" unicode="&#x413;" horiz-adv-x="512" 
d="M240 706h276l-18 -102h-234q-76 0 -76 -80v-524h-120v546q0 77 46.5 118.5t125.5 41.5z" />
    <glyph glyph-name="afii10021" unicode="&#x414;" horiz-adv-x="741" 
d="M296 527q0 -148 -21 -241.5t-62 -183.5h309v502h-153q-38 0 -55.5 -18.5t-17.5 -58.5zM68 102h18q43 85 67 185.5t24 261.5q0 76 42.5 116.5t122.5 40.5h300v-604h12q28 0 43.5 -16.5t15.5 -44.5v-195h-106v119q0 35 -33 35h-427q-33 0 -33 -35v-119h-106v195
q0 28 16 44.5t44 16.5z" />
    <glyph glyph-name="afii10022" unicode="&#x415;" horiz-adv-x="586" 
d="M529 0h-289q-79 0 -125.5 41.5t-46.5 118.5v546h485l-18 -100h-347v-205h311l-17 -96h-294v-125q0 -80 76 -80h283z" />
    <glyph glyph-name="afii10024" unicode="&#x416;" horiz-adv-x="934" 
d="M537 401l133 199q41 62 80 84t106 22h65l-8 -100h-33q-68 0 -104 -53l-113 -164h10q55 0 87 -27t59 -94l47 -117q14 -36 34 -72.5t33 -56t17 -22.5h-142q-9 9 -27 43t-31 68l-38 96q-23 62 -34 75q-20 23 -78 23h-73v-305h-120v305h-73q-53 0 -70.5 -15.5t-36.5 -68.5
q-3 -9 -5 -14l-38 -96q-13 -34 -31 -68t-27 -43h-142q4 3 17 22.5t33 56t34 72.5l47 117q27 67 59 94t87 27h10l-113 164q-36 53 -104 53h-33l-8 100h64q67 0 107 -21.5t80 -84.5l133 -199h10v305h120v-305h10z" />
    <glyph glyph-name="afii10025" unicode="&#x417;" horiz-adv-x="605" 
d="M440 207q0 57 -41 88.5t-119 31.5h-118l13 95h100q67 0 104 27.5t37 70.5q0 35 -26 58t-58.5 31t-70.5 9q-90 1 -188 -35l-34 95q109 40 231 40q50 0 95 -9.5t86.5 -29.5t66 -57.5t24.5 -87.5q0 -52 -36 -94t-94 -53q68 -10 114 -57t46 -129q0 -72 -44.5 -121.5
t-108.5 -70.5t-141 -21q-134 0 -247 38l34 99q113 -38 206 -37q69 1 119 29.5t50 89.5z" />
    <glyph glyph-name="afii10026" unicode="&#x418;" horiz-adv-x="729" 
d="M201 0h-132v706h116v-542l337 542h138v-706h-116v548z" />
    <glyph glyph-name="afii10027" unicode="&#x419;" horiz-adv-x="729" 
d="M368 775q-52 0 -92.5 26t-56.5 78l78 33q12 -65 71 -65t71 65l77 -33q-16 -52 -56 -78t-92 -26zM201 0h-132v706h116v-542l337 542h138v-706h-116v548z" />
    <glyph glyph-name="afii10028" unicode="&#x41a;" horiz-adv-x="636" 
d="M226 401l146 199q42 61 80.5 83.5t100.5 22.5h70l-8 -100h-33q-36 0 -59 -12.5t-44 -40.5l-127 -164h23q56 0 87.5 -27t58.5 -94l47 -117q14 -36 34 -72t33.5 -56t17.5 -23h-143q-8 9 -26.5 43t-31.5 68l-37 96q-24 62 -35 75q-20 23 -77 23h-114v-305h-120v706h120v-305
h37z" />
    <glyph glyph-name="afii10029" unicode="&#x41b;" horiz-adv-x="662" 
d="M226 524v-344q0 -180 -189 -180h-20v102h16q73 0 73 79v365q0 76 47 118t126 42h313v-706h-120v604h-169q-77 0 -77 -80z" />
    <glyph glyph-name="afii10030" unicode="&#x41c;" horiz-adv-x="866" 
d="M179 0h-110v706h196l163 -512h2l173 512h194v-706h-120l1 614h-2l-206 -614h-96l-194 614h-2z" />
    <glyph glyph-name="afii10031" unicode="&#x41d;" horiz-adv-x="712" 
d="M69 0v706h121v-300h333v300h120v-706h-120v307h-334v-307h-120z" />
    <glyph glyph-name="afii10032" unicode="&#x41e;" horiz-adv-x="832" 
d="M37 353q1 172 105 268.5t274 96.5q171 0 275.5 -96.5t104.5 -268.5t-104.5 -268.5t-275.5 -96.5q-170 0 -275 96.5t-104 268.5zM170 353q0 -114 65.5 -185.5t180.5 -71.5q116 0 181.5 71.5t65.5 185.5t-65.5 185.5t-181.5 71.5q-115 0 -180.5 -71.5t-65.5 -185.5z" />
    <glyph glyph-name="afii10033" unicode="&#x41f;" horiz-adv-x="696" 
d="M240 706h216q79 0 125.5 -41.5t46.5 -118.5v-546h-120v524q0 80 -76 80h-168q-76 0 -76 -80v-524h-120v546q0 77 46.5 118.5t125.5 41.5z" />
    <glyph glyph-name="afii10034" unicode="&#x420;" horiz-adv-x="669" 
d="M69 706h369q105 0 160 -63t55 -157q0 -96 -58 -157.5t-170 -61.5h-151q-25 0 -43 8.5t-24.5 16t-17.5 22.5v-314h-120v706zM189 607v-171q0 -68 83 -68h127q61 0 92.5 32t31.5 87q0 120 -118 120h-216z" />
    <glyph glyph-name="afii10035" unicode="&#x421;" horiz-adv-x="615" 
d="M37 354q1 168 104.5 266t267.5 98q110 0 196 -46l-49 -94q-63 34 -136 34q-115 0 -182.5 -71.5t-67.5 -186.5q0 -118 71 -189.5t189 -71.5q75 0 147 38l-11 -112q-70 -31 -157 -31q-165 0 -269 98.5t-103 267.5z" />
    <glyph glyph-name="afii10036" unicode="&#x422;" horiz-adv-x="577" 
d="M228 604h-227v102h575l-14 -102h-214v-604h-120v604z" />
    <glyph glyph-name="afii10037" unicode="&#x423;" horiz-adv-x="700" 
d="M56 472v234h119v-216q0 -72 42 -110.5t126 -38.5q88 0 129 41.5t41 105.5v218h119v-401q0 -87 -27.5 -151.5t-74 -99t-98 -50.5t-109.5 -16q-108 0 -203 23l26 105q83 -25 158 -24q27 0 52 4.5t55 18t51.5 35t36 61t14.5 91.5q-69 -67 -190 -67q-124 0 -195.5 58
t-71.5 179z" />
    <glyph glyph-name="afii10038" unicode="&#x424;" horiz-adv-x="818" 
d="M350 0v82q-146 12 -230 83.5t-83 191.5t84.5 191.5t228.5 83.5v74h119v-74q145 -12 229 -83.5t84 -191.5t-84 -191.5t-229 -83.5v-82h-119zM657 357q0 71 -49 118.5t-141 58.5v-354q92 11 141 58.5t49 118.5zM162 357q0 -71 49.5 -118.5t141.5 -58.5v354
q-92 -11 -141.5 -58.5t-49.5 -118.5z" />
    <glyph glyph-name="afii10039" unicode="&#x425;" horiz-adv-x="617" 
d="M308 264l-169 -264h-132l235 360l-226 346h134l159 -249l160 249h130l-225 -345q15 -23 102.5 -156.5t133.5 -204.5h-132z" />
    <glyph glyph-name="afii10040" unicode="&#x426;" horiz-adv-x="728" 
d="M600 -171v136q0 35 -35 35h-325q-79 0 -125.5 41.5t-46.5 118.5v546h120v-524q0 -80 76 -80h247v604h120v-604h15q28 0 44 -16.5t16 -45.5v-211h-106z" />
    <glyph glyph-name="afii10041" unicode="&#x427;" horiz-adv-x="636" 
d="M567 706v-706h-120v291q-77 -46 -170 -46q-110 0 -169 54.5t-59 159.5v247h120v-226q0 -65 28.5 -99t98.5 -34q98 0 151 57v302h120z" />
    <glyph glyph-name="afii10042" unicode="&#x428;" horiz-adv-x="913" 
d="M846 706v-546q0 -76 -47 -118t-126 -42h-433q-79 0 -125.5 41.5t-46.5 118.5v546h120v-524q0 -80 76 -80h133v604h120v-604h132q77 0 77 80v524h120z" />
    <glyph glyph-name="afii10043" unicode="&#x429;" horiz-adv-x="937" 
d="M814 -171v136q0 35 -35 35h-539q-79 0 -125.5 41.5t-46.5 118.5v546h120v-524q0 -80 76 -80h133v604h120v-604h209v604h120v-604h14q28 0 44 -16.5t16 -45.5v-211h-106z" />
    <glyph glyph-name="afii10044" unicode="&#x42a;" horiz-adv-x="752" 
d="M0 606l21 100h267v-276h206q229 0 229 -212q0 -218 -230 -218h-152q-83 0 -128 43.5t-45 120.5v442h-168zM478 330h-190v-157q0 -73 79 -73h107q118 0 118 118q0 62 -27.5 87t-86.5 25z" />
    <glyph glyph-name="afii10045" unicode="&#x42b;" horiz-adv-x="891" 
d="M188 706v-276h205q229 0 229 -212q0 -218 -229 -218h-152q-84 0 -128.5 43.5t-44.5 120.5v542h120zM378 330h-190v-157q0 -73 79 -73h106q119 0 119 118q0 61 -28 86.5t-86 25.5zM702 0v706h120v-706h-120z" />
    <glyph glyph-name="afii10046" unicode="&#x42c;" horiz-adv-x="652" 
d="M188 706v-276h205q229 0 229 -212q0 -218 -229 -218h-152q-84 0 -128.5 43.5t-44.5 120.5v542h120zM378 330h-190v-157q0 -73 79 -73h106q119 0 119 118q0 61 -28 86.5t-86 25.5z" />
    <glyph glyph-name="afii10047" unicode="&#x42d;" horiz-adv-x="631" 
d="M195 615q-77 0 -159 -38l9 112q76 29 169 29q169 0 274 -98t106 -266q1 -169 -103 -267.5t-275 -98.5q-101 0 -171 29l-9 112q80 -38 159 -38q108 0 176 58t83 157h-332l21 95h313q-14 98 -81.5 156t-179.5 58z" />
    <glyph glyph-name="afii10048" unicode="&#x42e;" horiz-adv-x="1125" 
d="M710 -12q-159 0 -261.5 83.5t-116.5 235.5h-143v-307h-120v706h121v-300h144q17 148 118.5 230t257.5 82q170 0 274.5 -96.5t104.5 -268.5t-104.5 -268.5t-274.5 -96.5zM463 353q0 -114 65.5 -185.5t181.5 -71.5q115 0 180.5 71.5t65.5 185.5t-65.5 185.5t-180.5 71.5
q-116 0 -181.5 -71.5t-65.5 -185.5z" />
    <glyph glyph-name="afii10049" unicode="&#x42f;" horiz-adv-x="701" 
d="M260 706h372v-706h-120v312q-2 -3 -6 -11t-6.5 -11t-8.5 -9t-13 -9t-19 -5t-27 -2h-64q-23 0 -41.5 -4.5t-32 -10.5t-26 -19t-20 -22t-16.5 -29t-13.5 -31.5t-13 -37t-13.5 -37.5q-19 -53 -40 -74h-142q21 25 54 97q6 13 19 47.5t21 51t24 39.5t38 36.5t52 19.5
q-74 2 -126.5 59.5t-52.5 142.5q0 87 56.5 150t164.5 63zM512 430v177h-215q-128 0 -128 -124q0 -55 32 -88t93 -33h136q82 0 82 68z" />
    <glyph glyph-name="afii10065" unicode="&#x430;" horiz-adv-x="649" 
d="M602 255v-255h-109v84q-33 -43 -85 -67.5t-113 -24.5q-115 0 -191 74t-76 194t80.5 197t205.5 77q132 0 210 -76t78 -203zM485 262q0 78 -47.5 126.5t-124.5 48.5q-76 0 -123 -50.5t-47 -124.5q0 -76 46.5 -125t123.5 -49t124.5 48.5t47.5 125.5z" />
    <glyph glyph-name="afii10066" unicode="&#x431;" horiz-adv-x="633" 
d="M148 257q0 -75 47.5 -122t123.5 -47q75 0 122.5 49t47.5 120q0 74 -46.5 121.5t-123.5 47.5q-76 0 -123.5 -47t-47.5 -122zM31 288v53q0 196 77 275q74 77 219 80q3 0 13.5 0.5t16 1t16 1t16.5 1.5l15 2.5t15 3.5t12 4.5t9.5 5.5t4.5 7h105q-14 -111 -178 -114
q-103 0 -162 -36t-65 -129q65 78 194 78q114 0 190.5 -71.5t76.5 -194.5q0 -117 -82.5 -191t-201.5 -74q-140 0 -215.5 82.5t-75.5 214.5z" />
    <glyph glyph-name="afii10067" unicode="&#x432;" horiz-adv-x="562" 
d="M53 527h272q168 0 168 -136q0 -44 -22 -74t-67 -36q64 -7 95.5 -42.5t31.5 -89.5q0 -149 -177 -149h-152q-73 0 -111 35t-38 94v398zM164 259v-119q0 -57 67 -57h98q85 0 85 74q0 38 -20 54t-63 16h-96q-32 0 -46 6.5t-25 25.5zM164 444v-87q0 -21 15 -35.5t46 -14.5h73
q80 0 80 70q0 40 -22 53.5t-64 13.5h-128z" />
    <glyph glyph-name="afii10068" unicode="&#x433;" horiz-adv-x="414" 
d="M53 0v408q0 57 38.5 88t98.5 31h225l-18 -95h-176q-56 0 -56 -59v-373h-112z" />
    <glyph glyph-name="afii10069" unicode="&#x434;" horiz-adv-x="600" 
d="M521 527v-432h5q26 0 41.5 -16.5t15.5 -45.5v-167h-98v99q0 35 -36 35h-317q-32 0 -32 -35v-99h-99v167q0 29 16 45.5t43 16.5h5q67 136 69 316q1 56 37.5 86t95.5 30h254zM184 95h226v337h-112q-29 0 -41.5 -13t-13.5 -42q-1 -154 -59 -282z" />
    <glyph glyph-name="afii10070" unicode="&#x435;" horiz-adv-x="590" 
d="M451 109l-8 -94q-53 -24 -131 -24q-127 0 -205.5 75.5t-78.5 200.5q0 117 76.5 192t196.5 75q129 0 199 -80.5t68 -214.5h-421q7 -79 59.5 -119t126.5 -40q66 0 118 29zM303 449q-60 0 -101 -34.5t-54 -93.5h300q-8 61 -46.5 94.5t-98.5 33.5z" />
    <glyph glyph-name="afii10072" unicode="&#x436;" horiz-adv-x="736" 
d="M722 527l-11 -92h-22q-48 0 -73 -35l-78 -107h11q44 0 65.5 -20t39.5 -69l30 -79q30 -81 62 -125h-125q-15 23 -37 83l-29 78q-12 35 -26 48.5t-44 13.5h-62v-223h-111v223h-61q-30 0 -44 -13.5t-27 -48.5l-28 -78q-19 -51 -37 -83h-125q32 44 62 125l29 79
q18 48 40 68.5t66 20.5h11l-78 107q-25 35 -74 35h-21l-11 92h43q52 0 87.5 -19t65.5 -62l99 -142h3v223h111v-223h3l99 142q31 43 66 62t88 19h43z" />
    <glyph glyph-name="afii10073" unicode="&#x437;" horiz-adv-x="492" 
d="M341 156q0 79 -119 79h-96l5 86h87q50 0 77 17.5t27 45.5q0 33 -34 48t-81 16q-63 1 -142 -29l-28 85q84 30 188 30q39 0 74.5 -7t67.5 -22t51 -43t19 -65q0 -38 -27 -68.5t-70 -40.5q51 -8 85 -42.5t34 -95.5q0 -79 -66 -119t-163 -40q-111 0 -199 28l30 90
q82 -32 153 -32q53 0 90 19t37 60z" />
    <glyph glyph-name="afii10074" unicode="&#x438;" horiz-adv-x="579" 
d="M175 0h-121v527h109v-383l237 383h125v-527h-108v389z" />
    <glyph glyph-name="afii10075" unicode="&#x439;" horiz-adv-x="579" 
d="M175 0h-121v527h109v-383l237 383h125v-527h-108v389zM294 603q-52 0 -92 26t-56 78l77 33q12 -65 71 -65t71 65l78 -33q-16 -52 -56.5 -78t-92.5 -26z" />
    <glyph glyph-name="afii10076" unicode="&#x43a;" horiz-adv-x="504" 
d="M488 527l-11 -92h-22q-46 0 -71 -35l-85 -107h18q45 0 66.5 -20t39.5 -69l29 -79q35 -88 62 -125h-125q-18 32 -37 83l-28 78q-13 35 -27 48.5t-44 13.5h-88v-223h-111v527h111v-223h21l105 142q31 43 66 62t88 19h43z" />
    <glyph glyph-name="afii10077" unicode="&#x43b;" horiz-adv-x="550" 
d="M191 373v-239q0 -63 -38.5 -98.5t-112.5 -35.5h-27v95h12q55 0 55 59v254q0 56 39 87.5t99 31.5h278v-527h-110v432h-138q-57 0 -57 -59z" />
    <glyph glyph-name="afii10078" unicode="&#x43c;" horiz-adv-x="715" 
d="M157 0h-103v527h170l134 -373h2l134 373h168v-527h-111v437h-2l-153 -437h-84l-154 437h-2z" />
    <glyph glyph-name="afii10079" unicode="&#x43d;" horiz-adv-x="582" 
d="M54 0v527h111v-213h253v213h110v-527h-110v219h-253v-219h-111z" />
    <glyph glyph-name="afii10080" unicode="&#x43e;" horiz-adv-x="629" 
d="M28 262q0 125 83.5 199t203.5 73q124 -1 204.5 -73.5t81.5 -198.5t-80 -198.5t-206 -72.5t-206 72.5t-81 198.5zM144 262q0 -79 48 -126.5t123 -47.5t122.5 47.5t46.5 126.5q0 79 -47.5 127t-121.5 48q-72 1 -121.5 -47.5t-49.5 -127.5z" />
    <glyph glyph-name="afii10081" unicode="&#x43f;" horiz-adv-x="574" 
d="M190 527h194q60 0 98.5 -31t38.5 -88v-408h-111v373q0 59 -57 59h-132q-57 0 -57 -59v-373h-111v408q0 57 38.5 88t98.5 31z" />
    <glyph glyph-name="afii10082" unicode="&#x440;" horiz-adv-x="644" 
d="M46 -181v444q0 120 77.5 195.5t207.5 75.5q124 0 204.5 -76.5t80.5 -196.5q0 -119 -74.5 -194.5t-189.5 -75.5q-130 0 -195 88v-260h-111zM159 262q0 -77 47.5 -125.5t124.5 -48.5t123 49t46 125q0 74 -47 124.5t-122 50.5q-77 0 -124.5 -48.5t-47.5 -126.5z" />
    <glyph glyph-name="afii10083" unicode="&#x441;" horiz-adv-x="453" 
d="M28 263q0 122 74.5 196.5t197.5 74.5q79 0 149 -35l-38 -88q-47 29 -99 29q-74 0 -121 -48t-47 -129q0 -79 46 -129t129 -49q57 1 103 28l-9 -99q-49 -23 -116 -23q-122 0 -195.5 74t-73.5 198z" />
    <glyph glyph-name="afii10084" unicode="&#x442;" horiz-adv-x="474" 
d="M180 432h-177v95h465l-13 -95h-164v-432h-111v432z" />
    <glyph glyph-name="afii10085" unicode="&#x443;" horiz-adv-x="577" 
d="M428 -184h-133q5 4 12.5 11.5t27 33t35 52.5t29 68t14.5 82q-52 -72 -155 -72q-98 0 -152.5 52t-54.5 160v324h111v-299q0 -140 118 -140q70 0 101.5 39.5t31.5 98.5v301h111v-455q0 -68 -24 -132t-48 -94z" />
    <glyph glyph-name="afii10086" unicode="&#x444;" horiz-adv-x="986" 
d="M437 -181v257q-58 -85 -171 -85q-103 0 -169.5 75.5t-66.5 194.5q0 121 72.5 197t185.5 76q66 0 119.5 -29.5t85.5 -80.5q71 110 205 110q114 0 186.5 -76.5t72.5 -196.5q0 -119 -66.5 -194.5t-169.5 -75.5q-116 0 -173 88v-260h-111zM549 262q0 -77 40.5 -125.5
t106.5 -48.5t105.5 49t39.5 125q0 74 -40 124.5t-105 50.5t-106 -48t-41 -127zM437 262q0 79 -41 127t-106 48t-105 -50.5t-40 -124.5q0 -76 39.5 -125t105.5 -49q65 0 106 48t41 126z" />
    <glyph glyph-name="afii10087" unicode="&#x445;" horiz-adv-x="497" 
d="M118 0h-121l190 268l-184 259h123l123 -178l122 178h122l-184 -258l192 -269h-123l-130 187z" />
    <glyph glyph-name="afii10088" unicode="&#x446;" horiz-adv-x="607" 
d="M458 0h-268q-60 0 -98.5 31t-38.5 88v408h111v-373q0 -59 57 -59h189v432h111v-432h10q28 0 44 -16.5t16 -45.5v-167h-99v99q0 35 -34 35z" />
    <glyph glyph-name="afii10089" unicode="&#x447;" horiz-adv-x="546" 
d="M492 527v-527h-111v227q-73 -41 -152 -41q-97 0 -149 54.5t-52 159.5v127h111v-118q0 -64 25.5 -97t85.5 -33q81 0 131 46v202h111z" />
    <glyph glyph-name="afii10090" unicode="&#x448;" horiz-adv-x="804" 
d="M53 119v408h111v-373q0 -59 57 -59h125v432h111v-432h126q57 0 57 59v373h111v-408q0 -57 -38.5 -88t-99.5 -31h-423q-60 0 -98.5 31t-38.5 88z" />
    <glyph glyph-name="afii10091" unicode="&#x449;" horiz-adv-x="837" 
d="M687 0h-497q-60 0 -98.5 31t-38.5 88v408h111v-373q0 -59 57 -59h125v432h111v-432h183v432h111v-432h10q28 0 44 -16.5t16 -45.5v-167h-99v99q0 35 -35 35z" />
    <glyph glyph-name="afii10092" unicode="&#x44a;" horiz-adv-x="655" 
d="M13 439l19 88h229v-198h184q91 0 137 -45t46 -119q0 -165 -183 -165h-146q-73 0 -111 35t-38 94v310h-137zM426 241h-165v-96q0 -57 67 -57h95q41 0 64.5 20t23.5 58q0 41 -21 58t-64 17z" />
    <glyph glyph-name="afii10093" unicode="&#x44b;" horiz-adv-x="771" 
d="M164 527v-198h184q91 0 137 -45t46 -119q0 -165 -183 -165h-146q-73 0 -111 35t-38 94v398h111zM329 241h-165v-96q0 -57 67 -57h95q41 0 64.5 20t23.5 58q0 41 -21 58t-64 17zM604 527h112v-527h-112v527z" />
    <glyph glyph-name="afii10094" unicode="&#x44c;" horiz-adv-x="558" 
d="M164 527v-198h184q91 0 137 -45t46 -119q0 -165 -183 -165h-146q-73 0 -111 35t-38 94v398h111zM329 241h-165v-96q0 -57 67 -57h95q41 0 64.5 20t23.5 58q0 41 -21 58t-64 17z" />
    <glyph glyph-name="afii10095" unicode="&#x44d;" horiz-adv-x="468" 
d="M146 444q-72 0 -121 -28l7 94q56 24 131 24q120 0 198.5 -74.5t78.5 -194.5q0 -123 -78 -198.5t-207 -75.5q-73 0 -124 22l-10 96q51 -27 119 -27q72 0 121 35.5t60 105.5h-237l14 84h222q-12 65 -61 101t-113 36z" />
    <glyph glyph-name="afii10096" unicode="&#x44e;" horiz-adv-x="871" 
d="M556 -9q-113 0 -191 60.5t-92 167.5h-108v-219h-111v527h111v-213h109q18 102 97 161.5t185 58.5q125 -1 205.5 -73.5t80.5 -198.5q1 -126 -80 -198.5t-206 -72.5zM386 262q0 -79 47.5 -126.5t122.5 -47.5t122.5 47.5t47.5 126.5q-1 79 -48.5 127t-121.5 48
q-72 1 -121 -47.5t-49 -127.5z" />
    <glyph glyph-name="afii10097" unicode="&#x44f;" horiz-adv-x="572" 
d="M205 527h314v-527h-111v218l-3.5 -7t-4 -7l-4.5 -6t-7 -6t-9.5 -4.5t-13.5 -3.5t-18 -1h-48q-19 0 -34.5 -3t-27.5 -11.5t-19.5 -14t-16 -22t-11.5 -23t-11.5 -29t-11.5 -29.5q-14 -37 -30 -51h-127q16 20 41 70q3 7 12.5 32.5t15.5 37t18.5 29.5t29 27.5t39.5 14.5
q-57 3 -95.5 46t-38.5 108q0 66 44 114t128 48zM408 320v115h-163q-96 0 -96 -82q0 -37 24 -59t69 -22h105q61 0 61 48z" />
    <glyph glyph-name="afii10071" unicode="&#x451;" horiz-adv-x="590" 
d="M451 109l-8 -94q-53 -24 -131 -24q-127 0 -205.5 75.5t-78.5 200.5q0 117 76.5 192t196.5 75q129 0 199 -80.5t68 -214.5h-421q7 -79 59.5 -119t126.5 -40q66 0 118 29zM303 449q-60 0 -101 -34.5t-54 -93.5h300q-8 61 -46.5 94.5t-98.5 33.5zM143 625v105h104v-105h-50
h-54zM355 625v105h105v-105h-105z" />
    <glyph glyph-name="afii10099" unicode="&#x452;" horiz-adv-x="579" 
d="M415 306q0 135 -118 135q-59 0 -95.5 -33.5t-36.5 -96.5v-311h-111v578h-73v69h73v59h111v-59h140v-69h-140v-111q51 67 153 67q100 0 154 -54.5t54 -159.5v-106q0 -71 -11.5 -138t-27.5 -112.5t-32 -80t-27 -51.5l-12 -16h-119q5 6 13 16.5t28 48t35.5 80t28.5 110.5
t13 141v94z" />
    <glyph glyph-name="afii10100" unicode="&#x453;" horiz-adv-x="414" 
d="M53 0v408q0 57 38.5 88t98.5 31h225l-18 -95h-176q-56 0 -56 -59v-373h-112zM408 747l-132 -149h-96l89 149h139z" />
    <glyph glyph-name="afii10101" unicode="&#x454;" horiz-adv-x="468" 
d="M322 444q-64 0 -113.5 -36t-61.5 -101h237l-14 -84h-224q11 -70 60.5 -105.5t121.5 -35.5q69 0 118 27l-9 -96q-51 -22 -124 -22q-129 0 -207 75.5t-78 198.5q0 120 78 194.5t198 74.5q77 0 131 -24l8 -94q-49 28 -121 28z" />
    <glyph glyph-name="afii10102" unicode="&#x455;" horiz-adv-x="427" 
d="M21 31l36 90q78 -42 148 -42q82 0 82 64q0 29 -22 47.5t-69 39.5l-43 20q-31 14 -51 25.5t-40.5 29t-30.5 40t-10 51.5q0 70 54.5 104t137.5 34q94 0 177 -40l-37 -88q-64 41 -135 41q-81 0 -81 -50q0 -6 1.5 -11t5 -9.5t6.5 -8t9.5 -8t10.5 -7.5t12.5 -7t13 -6t15 -7
t14.5 -7l43 -20q67 -31 101 -66.5t34 -95.5q0 -75 -56 -114t-141 -39q-98 0 -185 40z" />
    <glyph glyph-name="afii10103" unicode="&#x456;" horiz-adv-x="222" 
d="M55 527h112v-527h-112v527zM55 706h112v-96h-112v96z" />
    <glyph glyph-name="afii10104" unicode="&#x457;" horiz-adv-x="222" 
d="M55 527h112v-527h-112v527zM-22 625v105h104v-105h-50h-54zM140 625v105h105v-105h-105z" />
    <glyph glyph-name="afii10105" unicode="&#x458;" horiz-adv-x="223" 
d="M58 527h112v-331q0 -68 -10.5 -132t-26 -107t-30.5 -76.5t-25 -48.5l-11 -16h-123q5 6 12.5 18t27 50t34.5 79.5t27.5 104t12.5 125.5v334zM58 706h112v-96h-112v96z" />
    <glyph glyph-name="afii10106" unicode="&#x459;" horiz-adv-x="887" 
d="M493 527v-198h184q91 0 137 -45t46 -119q0 -165 -183 -165h-146q-73 0 -111 35t-38 94v303h-134q-57 0 -57 -59v-239q0 -63 -38.5 -98.5t-112.5 -35.5h-27v95h13q54 0 54 59v254q0 56 39 87.5t99 31.5h275zM658 241h-165v-96q0 -57 67 -57h95q41 0 64.5 20t23.5 58
q0 41 -21 58t-64 17z" />
    <glyph glyph-name="afii10107" unicode="&#x45a;" horiz-adv-x="863" 
d="M165 527v-198h192v198h111v-198h185q90 0 136 -45t46 -119q0 -165 -183 -165h-145q-73 0 -111.5 38t-38.5 98v100h-192v-236h-111v527h111zM633 241h-165v-96q0 -57 67 -57h96q41 0 64.5 20t23.5 58q0 41 -21.5 58t-64.5 17z" />
    <glyph glyph-name="afii10108" unicode="&#x45b;" horiz-adv-x="579" 
d="M54 706h111v-59h140v-69h-140v-111q51 67 153 67q100 0 154 -54.5t54 -159.5v-320h-111v306q0 135 -118 135q-59 0 -95.5 -33.5t-36.5 -96.5v-311h-111v578h-73v69h73v59z" />
    <glyph glyph-name="afii10109" unicode="&#x45c;" horiz-adv-x="501" 
d="M488 527l-11 -92h-22q-46 0 -71 -35l-85 -107h18q45 0 66.5 -20t39.5 -69l29 -79q35 -88 62 -125h-125q-18 32 -37 83l-28 78q-13 35 -27 48.5t-44 13.5h-88v-223h-111v527h111v-223h21l105 142q31 43 66 62t88 19h43zM401 747l-132 -149h-96l89 149h139z" />
    <glyph glyph-name="afii10110" unicode="&#x45e;" horiz-adv-x="579" 
d="M430 -184h-133q5 4 12.5 11.5t27 33t35 52.5t29 68t14.5 82q-52 -72 -155 -72q-98 0 -152.5 52t-54.5 160v323h111v-298q0 -140 118 -140q70 0 101.5 39.5t31.5 98.5v300h111v-454q0 -68 -24 -132t-48 -94zM288 603q-52 0 -92 26t-56 78l77 33q12 -65 71 -65t71 65
l78 -33q-16 -52 -56.5 -78t-92.5 -26z" />
    <glyph glyph-name="afii10193" unicode="&#x45f;" horiz-adv-x="574" 
d="M384 0h-48v-134h-98v134h-48q-60 0 -98.5 31t-38.5 88v408h111v-373q0 -59 57 -59h132q57 0 57 59v373h111v-408q0 -57 -38.5 -88t-98.5 -31z" />
    <glyph glyph-name="afii10050" unicode="&#x490;" horiz-adv-x="507" 
d="M240 706h170v118h106v-220h-252q-76 0 -76 -80v-524h-120v546q0 77 46.5 118.5t125.5 41.5z" />
    <glyph glyph-name="afii10098" unicode="&#x491;" horiz-adv-x="410" 
d="M316 629h99v-197h-194q-56 0 -56 -59v-373h-112v408q0 57 38.5 88t98.5 31h126v102z" />
    <glyph glyph-name="Wgrave" unicode="&#x1e80;" horiz-adv-x="967" 
d="M220 0l-217 706h129l154 -543l146 543h116l149 -543l146 543h115l-207 -706h-122l-144 525l-145 -525h-120zM437 765l-134 151h138l92 -151h-96z" />
    <glyph glyph-name="wgrave" unicode="&#x1e81;" horiz-adv-x="886" 
d="M446 97h-4q-20 -52 -70 -79t-112 -27q-97 0 -153 53.5t-56 152.5v330h111v-309q0 -62 28 -96t84 -34q114 0 114 130v309h110v-309q0 -130 114 -130q56 0 84 34.5t28 95.5v309h111v-330q0 -99 -56 -152.5t-153 -53.5q-61 0 -110 27t-70 79zM403 593l-134 151h138l92 -151
h-96z" />
    <glyph glyph-name="Wacute" unicode="&#x1e82;" horiz-adv-x="967" 
d="M220 0l-217 706h129l154 -543l146 543h116l149 -543l146 543h115l-207 -706h-122l-144 525l-145 -525h-120zM663 914l-132 -149h-96l89 149h139z" />
    <glyph glyph-name="wacute" unicode="&#x1e83;" horiz-adv-x="886" 
d="M446 97h-4q-20 -52 -70 -79t-112 -27q-97 0 -153 53.5t-56 152.5v330h111v-309q0 -62 28 -96t84 -34q114 0 114 130v309h110v-309q0 -130 114 -130q56 0 84 34.5t28 95.5v309h111v-330q0 -99 -56 -152.5t-153 -53.5q-61 0 -110 27t-70 79zM629 742l-132 -149h-96l89 149
h139z" />
    <glyph glyph-name="Wdieresis" unicode="&#x1e84;" horiz-adv-x="967" 
d="M220 0l-217 706h129l154 -543l146 543h116l149 -543l146 543h115l-207 -706h-122l-144 525l-145 -525h-120zM321 788v105h104v-105h-50h-54zM533 788v105h105v-105h-105z" />
    <glyph glyph-name="wdieresis" unicode="&#x1e85;" horiz-adv-x="886" 
d="M446 97h-4q-20 -52 -70 -79t-112 -27q-97 0 -153 53.5t-56 152.5v330h111v-309q0 -62 28 -96t84 -34q114 0 114 130v309h110v-309q0 -130 114 -130q56 0 84 34.5t28 95.5v309h111v-330q0 -99 -56 -152.5t-153 -53.5q-61 0 -110 27t-70 79zM286 616v105h104v-105h-50h-54z
M498 616v105h105v-105h-105z" />
    <glyph glyph-name="Ygrave" unicode="&#x1ef2;" horiz-adv-x="580" 
d="M42 467v239h120v-222q0 -60 34.5 -90.5t96.5 -30.5q63 0 96 30.5t33 89.5v223h114v-245q0 -85 -47 -134.5t-134 -59.5v-267h-121v266q-93 9 -142.5 59.5t-49.5 141.5zM251 765l-134 151h138l92 -151h-96z" />
    <glyph glyph-name="ygrave" unicode="&#x1ef3;" horiz-adv-x="577" 
d="M428 -184h-133q5 4 12.5 11.5t27 33t35 52.5t29 68t14.5 82q-52 -72 -155 -72q-98 0 -152.5 52t-54.5 160v324h111v-299q0 -140 118 -140q70 0 101.5 39.5t31.5 98.5v301h111v-455q0 -68 -24 -132t-48 -94zM245 593l-134 151h138l92 -151h-96z" />
    <glyph glyph-name="endash" unicode="&#x2013;" horiz-adv-x="500" 
d="M0 226v99h500v-99h-500z" />
    <glyph glyph-name="emdash" unicode="&#x2014;" horiz-adv-x="1000" 
d="M0 226v99h1000v-99h-1000z" />
    <glyph glyph-name="afii00208" unicode="&#x2015;" horiz-adv-x="1000" 
d="M41 226v99h918v-99h-918z" />
    <glyph glyph-name="quoteleft" unicode="&#x2018;" horiz-adv-x="227" 
d="M196 500l-65 -57q-50 44 -64 76t-14 88v99h111v-115q0 -57 32 -91z" />
    <glyph glyph-name="quoteright" unicode="&#x2019;" horiz-adv-x="227" 
d="M97 443l-66 57q31 33 31 91v115h112v-99q0 -57 -13.5 -89t-63.5 -75z" />
    <glyph glyph-name="quotesinglbase" unicode="&#x201a;" horiz-adv-x="237" 
d="M94 -133l-69 57q35 38 35 91v118h115v-102q0 -55 -15 -87.5t-66 -76.5z" />
    <glyph glyph-name="quotedblleft" unicode="&#x201c;" horiz-adv-x="418" 
d="M196 500l-65 -57q-50 44 -64 76t-14 88v99h111v-115q0 -57 32 -91zM388 500l-66 -57q-50 44 -63.5 76t-13.5 88v99h67h44v-115q0 -58 32 -91z" />
    <glyph glyph-name="quotedblright" unicode="&#x201d;" horiz-adv-x="432" 
d="M97 443l-66 57q31 33 31 91v115h112v-99q0 -57 -13.5 -89t-63.5 -75zM288 443l-66 57q32 33 32 91v115h57h54v-99q0 -57 -13.5 -89t-63.5 -75z" />
    <glyph glyph-name="quotedblbase" unicode="&#x201e;" horiz-adv-x="438" 
d="M97 -133l-70 57q35 36 35 91v118h115v-102q0 -55 -15 -87.5t-65 -76.5zM292 -133l-70 57q35 36 35 91v118h59h56v-102q0 -55 -15 -87.5t-65 -76.5z" />
    <glyph glyph-name="dagger" unicode="&#x2020;" horiz-adv-x="600" 
d="M80 399v90h171v217h98v-217h171v-90h-171v-550h-98v550h-171z" />
    <glyph glyph-name="daggerdbl" unicode="&#x2021;" horiz-adv-x="600" 
d="M80 415v90h171v201h98v-201h171v-90h-171v-275h171v-90h-171v-201h-98v201h-171v90h171v275h-171z" />
    <glyph glyph-name="bullet" unicode="&#x2022;" horiz-adv-x="425" 
d="M74 353q0 57 40.5 97.5t97.5 40.5q58 0 98 -40.5t40 -97.5q0 -58 -40 -98t-98 -40q-57 0 -97.5 40t-40.5 98z" />
    <glyph glyph-name="ellipsis" unicode="&#x2026;" horiz-adv-x="755" 
d="M59 135h134v-135h-134v135zM311 135h66h68v-135h-134v135zM561 135h135v-135h-135v135z" />
    <glyph glyph-name="perthousand" unicode="&#x2030;" horiz-adv-x="1309" 
d="M31 528q1 86 52.5 137.5t131.5 51.5q79 0 132 -51.5t53 -137.5t-53 -138t-132 -52q-80 0 -132.5 52t-51.5 138zM120 528q0 -53 23 -87.5t72 -34.5t72 34.5t23 87.5q0 51 -23.5 85.5t-71.5 34.5q-49 0 -72 -34t-23 -86zM316 -12l-70 35l326 694l72 -30zM487 173
q1 87 52.5 138.5t131.5 51.5q79 0 132 -52t53 -138t-53 -138t-132 -52q-80 0 -132.5 52t-51.5 138zM576 173q0 -53 23 -87.5t72 -34.5t72 34.5t23 87.5q0 52 -23.5 86.5t-71.5 34.5q-49 0 -72 -34.5t-23 -86.5zM910 173q0 87 52 138.5t131 51.5q80 0 132.5 -51.5
t52.5 -138.5t-52.5 -138.5t-132.5 -51.5q-79 0 -131.5 52t-51.5 138zM999 173q0 -53 23 -87.5t71 -34.5q49 0 72.5 34.5t23.5 87.5q0 52 -23.5 86.5t-72.5 34.5q-48 0 -71 -34.5t-23 -86.5z" />
    <glyph glyph-name="guilsinglleft" unicode="&#x2039;" horiz-adv-x="362" 
d="M319 393l-177 -128l177 -128v-117l-279 201v88l279 201v-117z" />
    <glyph glyph-name="guilsinglright" unicode="&#x203a;" horiz-adv-x="362" 
d="M219 265l-176 128v117l279 -201v-88l-279 -201v117z" />
    <glyph glyph-name="fraction" unicode="&#x2044;" horiz-adv-x="133" 
d="M-63 -12l-70 35l327 694l72 -30z" />
    <glyph glyph-name="Euro" unicode="&#x20ac;" horiz-adv-x="643" 
d="M20 380l12 68h61q26 127 116.5 198.5t220.5 71.5q102 0 183 -46l-46 -94q-57 34 -126 34q-82 0 -138 -44t-78 -120h290l-11 -68h-295v-25v-27h287l-11 -68h-259q24 -78 82.5 -123t142.5 -45q65 0 137 38l-12 -112q-71 -30 -146 -30q-130 0 -221 72t-117 200h-77l11 68h58
q-1 8 -1 27q0 4 0.5 13t0.5 12h-64z" />
    <glyph glyph-name="afii61352" unicode="&#x2116;" horiz-adv-x="1134" 
d="M643 0h-132l-326 548v-548h-116v706h138l320 -542v542h116v-706zM708 393q0 92 55.5 146t139.5 54q85 0 140.5 -54t55.5 -146t-55.5 -146.5t-140.5 -54.5q-84 0 -139.5 54.5t-55.5 146.5zM809 393q0 -54 26.5 -87.5t67.5 -33.5t67.5 33.5t26.5 87.5t-26.5 87t-67.5 33
t-67.5 -33t-26.5 -87zM731 52v87h345v-87h-345z" />
    <glyph glyph-name="trademark" unicode="&#x2122;" horiz-adv-x="830" 
d="M680 340l1 295l-98 -282h-54l-91 282l1 -295h-73v366h122l73 -238l81 238h115v-366h-77zM129 642h-112v64h303l-9 -64h-105v-301h-77v301z" />
    <glyph glyph-name="minus" unicode="&#x2212;" horiz-adv-x="833" 
d="M696 301h-558v105h558v-105z" />
    <glyph glyph-name="approxequal" unicode="&#x2248;" horiz-adv-x="833" 
d="M669 535l43 -88q-86 -62 -171 -62q-43 0 -123 30t-126 30q-36 0 -62 -9.5t-67 -39.5l-42 87q89 65 174 65q45 0 127.5 -30t119.5 -30t62 9t65 38zM669 312l43 -88q-87 -63 -171 -63q-43 0 -123 30t-126 30q-36 0 -62.5 -9t-66.5 -39l-22 45l-20 41q90 66 174 66
q45 0 127.5 -30t119.5 -30t62 9t65 38z" />
    <glyph glyph-name="notequal" unicode="&#x2260;" horiz-adv-x="833" 
d="M696 180h-295l-67 -189l-83 27l57 162h-170v106h207l48 135h-255v106h292l68 193l84 -27l-59 -166h173v-106h-210l-47 -135h257v-106z" />
    <glyph glyph-name="lessequal" unicode="&#x2264;" horiz-adv-x="833" 
d="M651 126l-475 210v102l475 205v-114l-352 -141l352 -147v-115zM670 -15h-504v106h504v-106z" />
    <glyph glyph-name="greaterequal" unicode="&#x2265;" horiz-adv-x="833" 
d="M661 336l-475 -210v115l352 147l-352 141v114l475 -205v-102zM670 -15h-504v106h504v-106z" />
    <glyph glyph-name="B.alt" horiz-adv-x="668" 
d="M67 706h314q35 0 61.5 -4.5t54.5 -17t43 -40t15 -68.5q0 -40 -18.5 -71t-54.5 -43q63 -20 105 -77t42 -143q0 -118 -79.5 -186t-200.5 -68q-125 0 -203.5 67.5t-78.5 182.5v468zM187 244q0 -67 46.5 -109.5t111.5 -42.5t110.5 42.5t45.5 109.5q0 68 -45 110.5t-111 42.5
q-64 0 -111 -43t-47 -110zM186 612v-202q55 73 155 73q43 1 65.5 14.5t22.5 50.5q0 26 -17.5 45t-56.5 19h-169z" />
    <glyph glyph-name="D.alt" horiz-adv-x="789" 
d="M68 253v453h366q151 0 237 -102t86 -254q0 -162 -110 -261.5t-270 -99.5q-138 0 -223.5 65t-85.5 199zM188 606v-353q0 -73 55 -115.5t134 -41.5q112 0 179.5 73t67.5 182q0 105 -59 180t-164 75h-213z" />
    <glyph glyph-name="S.alt" horiz-adv-x="536" 
d="M369 0h-220q46 11 94 35.5t85.5 65.5t37.5 84q0 45 -28 69t-88 50l-68 30q-158 69 -158 192q0 92 78 142t181 50q117 0 210 -49l-45 -95q-73 45 -158 45q-52 0 -92.5 -21.5t-40.5 -67.5q0 -37 26.5 -59t84.5 -46l68 -29q80 -35 121.5 -83.5t41.5 -119.5q0 -53 -36.5 -107
t-93.5 -86z" />
    <glyph glyph-name="X.alt" horiz-adv-x="601" 
d="M-5 0l95 262q25 66 45.5 93t58.5 32l-164 319h131l143 -299q33 68 59.5 123.5t41.5 86.5t25 52t14 29l4 8h123l-167 -319q37 -5 57.5 -33.5t44.5 -91.5l101 -262h-131l-69 197q-2 4 -8 20.5t-7.5 20t-7 16t-7.5 15.5t-8 12.5t-10 11.5t-10.5 7.5t-13.5 7t-16 3t-19 1.5
q-17 0 -30 -2.5t-23.5 -12t-16.5 -15t-14.5 -24.5t-11.5 -26.5t-13 -34.5l-67 -197h-129z" />
    <glyph glyph-name="a.alt" horiz-adv-x="536" 
d="M80 510q77 24 148 24q132 0 205 -72.5t73 -198.5q0 -121 -65 -198t-189 -77q-107 0 -167.5 59t-60.5 138q0 86 59 136t145 50q43 0 78.5 -17.5t51 -36t29.5 -41.5t15 -24h2q-1 106 -56.5 155.5t-135.5 49.5q-74 0 -132 -31v84zM257 289q-51 0 -84 -28.5t-33 -79.5
q0 -52 34 -81t83 -29q45 0 78.5 30.5t33.5 79.5q0 48 -33.5 78t-78.5 30z" />
    <glyph glyph-name="g.alt" horiz-adv-x="553" 
d="M278 594l78 -3l-17 -66q90 -14 137.5 -70t47.5 -128q0 -83 -65.5 -142t-181.5 -59q-43 0 -78 9q-35 -19 -35 -41q0 -23 37.5 -31t90.5 -9.5t106 -8t90.5 -34.5t37.5 -80q0 -31 -12 -54t-28.5 -34t-33.5 -17.5t-29 -7.5l-12 -2l-66 43q18 2 24.5 3t20.5 5.5t20 13.5t6 23
q0 25 -35.5 35t-86 12t-101.5 8t-86.5 30.5t-35.5 71.5q0 58 70 91q-57 26 -87 72t-30 104q0 88 66.5 143t176.5 58zM276 209q70 0 102.5 36t32.5 84q0 39 -25 70.5t-69 41.5l-15 -58h-60l11 62q-51 -6 -80.5 -40t-29.5 -76q0 -49 34.5 -84.5t98.5 -35.5z" />
    <glyph glyph-name="s.alt" horiz-adv-x="336" 
d="M227 0h-158q38 18 74.5 50.5t37.5 68.5q1 32 -32 70l-61 70q-66 74 -66 131q0 69 54 106.5t130 37.5q61 0 111 -21l-31 -90q-31 18 -69 18q-33 0 -54.5 -14t-21.5 -43q0 -27 47 -80l58 -67q29 -32 41.5 -57t12.5 -59q0 -33 -20.5 -66.5t-52.5 -54.5z" />
    <glyph glyph-name="x.alt" horiz-adv-x="502" 
d="M392 0l-65 166q-22 55 -75 55q-56 0 -77 -55l-65 -166h-118l79 199q17 44 34 63.5t46 25.5l-127 239h123l105 -227l105 227h118l-128 -239q29 -6 46.5 -25.5t34.5 -63.5l82 -199h-118z" />
    <glyph glyph-name="germandbls.alt" horiz-adv-x="648" 
d="M54 0v487q0 112 66 169t182 57q226 0 226 -157q0 -81 -77 -104q75 -15 121 -74.5t46 -140.5q0 -113 -68.5 -178.5t-182.5 -65.5q-87 0 -145 31v113q62 -54 133 -54q62 0 103.5 43.5t41.5 109.5q0 67 -46.5 109.5t-114.5 42.5q-71 0 -119 -50v91q33 33 99 45
q50 8 71.5 21.5t21.5 49.5q0 82 -112 82q-135 0 -135 -147v-480h-111z" />
    <glyph glyph-name="agrave.alt" horiz-adv-x="536" 
d="M80 510q77 24 148 24q132 0 205 -72.5t73 -198.5q0 -121 -65 -198t-189 -77q-107 0 -167.5 59t-60.5 138q0 86 59 136t145 50q43 0 78.5 -17.5t51 -36t29.5 -41.5t15 -24h2q-1 106 -56.5 155.5t-135.5 49.5q-74 0 -132 -31v84zM257 289q-51 0 -84 -28.5t-33 -79.5
q0 -52 34 -81t83 -29q45 0 78.5 30.5t33.5 79.5q0 48 -33.5 78t-78.5 30zM207 602l-134 151h138l92 -151h-96z" />
    <glyph glyph-name="aacute.alt" horiz-adv-x="536" 
d="M80 510q77 24 148 24q132 0 205 -72.5t73 -198.5q0 -121 -65 -198t-189 -77q-107 0 -167.5 59t-60.5 138q0 86 59 136t145 50q43 0 78.5 -17.5t51 -36t29.5 -41.5t15 -24h2q-1 106 -56.5 155.5t-135.5 49.5q-74 0 -132 -31v84zM257 289q-51 0 -84 -28.5t-33 -79.5
q0 -52 34 -81t83 -29q45 0 78.5 30.5t33.5 79.5q0 48 -33.5 78t-78.5 30zM433 751l-132 -149h-96l89 149h139z" />
    <glyph glyph-name="acircumflex.alt" horiz-adv-x="536" 
d="M80 510q77 24 148 24q132 0 205 -72.5t73 -198.5q0 -121 -65 -198t-189 -77q-107 0 -167.5 59t-60.5 138q0 86 59 136t145 50q43 0 78.5 -17.5t51 -36t29.5 -41.5t15 -24h2q-1 106 -56.5 155.5t-135.5 49.5q-74 0 -132 -31v84zM257 289q-51 0 -84 -28.5t-33 -79.5
q0 -52 34 -81t83 -29q45 0 78.5 30.5t33.5 79.5q0 48 -33.5 78t-78.5 30zM246 692l-81 -90h-90l111 149h121l112 -149h-91z" />
    <glyph glyph-name="atilde.alt" horiz-adv-x="536" 
d="M80 510q77 24 148 24q132 0 205 -72.5t73 -198.5q0 -121 -65 -198t-189 -77q-107 0 -167.5 59t-60.5 138q0 86 59 136t145 50q43 0 78.5 -17.5t51 -36t29.5 -41.5t15 -24h2q-1 106 -56.5 155.5t-135.5 49.5q-74 0 -132 -31v84zM257 289q-51 0 -84 -28.5t-33 -79.5
q0 -52 34 -81t83 -29q45 0 78.5 30.5t33.5 79.5q0 48 -33.5 78t-78.5 30zM145 613h-65q2 15 6 31t14.5 40.5t32 40t50.5 15.5q26 0 69.5 -21.5t60.5 -21.5q10 0 18 4.5t12 11.5t6 13.5t3 13t1 7.5h65q-2 -15 -6 -31.5t-14.5 -41t-31 -40.5t-47.5 -16q-28 0 -71 23.5
t-60 23.5q-11 0 -19 -4.5t-12 -12t-6.5 -14t-4.5 -14.5z" />
    <glyph glyph-name="adieresis.alt" horiz-adv-x="536" 
d="M80 510q77 24 148 24q132 0 205 -72.5t73 -198.5q0 -121 -65 -198t-189 -77q-107 0 -167.5 59t-60.5 138q0 86 59 136t145 50q43 0 78.5 -17.5t51 -36t29.5 -41.5t15 -24h2q-1 106 -56.5 155.5t-135.5 49.5q-74 0 -132 -31v84zM257 289q-51 0 -84 -28.5t-33 -79.5
q0 -52 34 -81t83 -29q45 0 78.5 30.5t33.5 79.5q0 48 -33.5 78t-78.5 30zM90 625v105h104v-105h-50h-54zM302 625v105h105v-105h-105z" />
    <glyph glyph-name="aring.alt" horiz-adv-x="536" 
d="M80 510q77 24 148 24q132 0 205 -72.5t73 -198.5q0 -121 -65 -198t-189 -77q-107 0 -167.5 59t-60.5 138q0 86 59 136t145 50q43 0 78.5 -17.5t51 -36t29.5 -41.5t15 -24h2q-1 106 -56.5 155.5t-135.5 49.5q-74 0 -132 -31v84zM257 289q-51 0 -84 -28.5t-33 -79.5
q0 -52 34 -81t83 -29q45 0 78.5 30.5t33.5 79.5q0 48 -33.5 78t-78.5 30zM116 724q0 55 38.5 93.5t93.5 38.5t94 -38.5t39 -93.5t-38.5 -93.5t-94.5 -38.5t-94 38t-38 94zM181 724q0 -28 19.5 -47.5t47.5 -19.5t47.5 19.5t19.5 47.5t-19.5 47.5t-47.5 19.5t-47.5 -19.5
t-19.5 -47.5z" />
    <glyph glyph-name="amacron.alt" horiz-adv-x="536" 
d="M80 510q77 24 148 24q132 0 205 -72.5t73 -198.5q0 -121 -65 -198t-189 -77q-107 0 -167.5 59t-60.5 138q0 86 59 136t145 50q43 0 78.5 -17.5t51 -36t29.5 -41.5t15 -24h2q-1 106 -56.5 155.5t-135.5 49.5q-74 0 -132 -31v84zM257 289q-51 0 -84 -28.5t-33 -79.5
q0 -52 34 -81t83 -29q45 0 78.5 30.5t33.5 79.5q0 48 -33.5 78t-78.5 30zM95 638v77h300v-77h-300z" />
    <glyph glyph-name="abreve.alt" horiz-adv-x="536" 
d="M80 510q77 24 148 24q132 0 205 -72.5t73 -198.5q0 -121 -65 -198t-189 -77q-107 0 -167.5 59t-60.5 138q0 86 59 136t145 50q43 0 78.5 -17.5t51 -36t29.5 -41.5t15 -24h2q-1 106 -56.5 155.5t-135.5 49.5q-74 0 -132 -31v84zM257 289q-51 0 -84 -28.5t-33 -79.5
q0 -52 34 -81t83 -29q45 0 78.5 30.5t33.5 79.5q0 48 -33.5 78t-78.5 30zM248 682q30 0 48.5 18.5t21.5 51.5h86q-8 -74 -52 -107t-104 -33t-104 33t-52 107h86q3 -33 21.5 -51.5t48.5 -18.5z" />
    <glyph glyph-name="aogonek.alt" horiz-adv-x="536" 
d="M80 510q77 24 148 24q132 0 205 -72.5t73 -198.5q0 -168 -122 -242q-31 -19 -48.5 -32.5t-33.5 -36t-16 -46.5q0 -29 18 -44.5t43 -15.5q34 0 70 13l-7 -70q-38 -12 -90 -12q-45 0 -84 26.5t-39 84.5q0 54 51 100q-105 1 -164.5 60t-59.5 137q0 86 59 136t145 50
q43 0 78.5 -17.5t51 -36t29.5 -41.5t15 -24h2q-1 106 -56.5 155.5t-135.5 49.5q-74 0 -132 -31v84zM257 289q-51 0 -84 -28.5t-33 -79.5q0 -52 34 -81t83 -29q45 0 78.5 30.5t33.5 79.5q0 48 -33.5 78t-78.5 30z" />
    <glyph glyph-name="Dcaron.alt" horiz-adv-x="789" 
d="M68 253v453h366q151 0 237 -102t86 -254q0 -162 -110 -261.5t-270 -99.5q-138 0 -223.5 65t-85.5 199zM188 606v-353q0 -73 55 -115.5t134 -41.5q112 0 179.5 73t67.5 182q0 105 -59 180t-164 75h-213zM293 914l81 -91l82 91h91l-112 -149h-121l-111 149h90z" />
    <glyph glyph-name="Eth.alt" horiz-adv-x="800" 
d="M-3 334v88h81v284l366 1q151 0 237 -102.5t86 -254.5q0 -162 -110 -261.5t-270 -99.5q-138 0 -223.5 65t-85.5 199v81h-81zM198 606v-184h154v-88h-154v-82q0 -73 55 -115t134 -41q112 0 179.5 73t67.5 182q0 105 -59 180.5t-164 75.5z" />
    <glyph glyph-name="Dcroat.alt" horiz-adv-x="800" 
d="M-3 334v88h81v284l366 1q151 0 237 -102.5t86 -254.5q0 -162 -110 -261.5t-270 -99.5q-138 0 -223.5 65t-85.5 199v81h-81zM198 606v-184h154v-88h-154v-82q0 -73 55 -115t134 -41q112 0 179.5 73t67.5 182q0 105 -59 180.5t-164 75.5z" />
    <glyph glyph-name="gcircumflex.alt" horiz-adv-x="553" 
d="M278 594l78 -3l-17 -66q90 -14 137.5 -70t47.5 -128q0 -83 -65.5 -142t-181.5 -59q-43 0 -78 9q-35 -19 -35 -41q0 -23 37.5 -31t90.5 -9.5t106 -8t90.5 -34.5t37.5 -80q0 -31 -12 -54t-28.5 -34t-33.5 -17.5t-29 -7.5l-12 -2l-66 43q18 2 24.5 3t20.5 5.5t20 13.5t6 23
q0 25 -35.5 35t-86 12t-101.5 8t-86.5 30.5t-35.5 71.5q0 58 70 91q-57 26 -87 72t-30 104q0 88 66.5 143t176.5 58zM276 209q70 0 102.5 36t32.5 84q0 39 -25 70.5t-69 41.5l-15 -58h-60l11 62q-51 -6 -80.5 -40t-29.5 -76q0 -49 34.5 -84.5t98.5 -35.5zM279 734l-81 -90
h-90l111 149h121l112 -149h-91z" />
    <glyph glyph-name="gbreve.alt" horiz-adv-x="553" 
d="M278 594l78 -3l-17 -66q90 -14 137.5 -70t47.5 -128q0 -83 -65.5 -142t-181.5 -59q-43 0 -78 9q-35 -19 -35 -41q0 -23 37.5 -31t90.5 -9.5t106 -8t90.5 -34.5t37.5 -80q0 -31 -12 -54t-28.5 -34t-33.5 -17.5t-29 -7.5l-12 -2l-66 43q18 2 24.5 3t20.5 5.5t20 13.5t6 23
q0 25 -35.5 35t-86 12t-101.5 8t-86.5 30.5t-35.5 71.5q0 58 70 91q-57 26 -87 72t-30 104q0 88 66.5 143t176.5 58zM276 209q70 0 102.5 36t32.5 84q0 39 -25 70.5t-69 41.5l-15 -58h-60l11 62q-51 -6 -80.5 -40t-29.5 -76q0 -49 34.5 -84.5t98.5 -35.5zM281 724
q30 0 48.5 18.5t21.5 51.5h86q-8 -74 -52 -107t-104 -33t-104 33t-52 107h86q3 -33 21.5 -51.5t48.5 -18.5z" />
    <glyph glyph-name="gdotaccent.alt" horiz-adv-x="553" 
d="M278 594l78 -3l-17 -66q90 -14 137.5 -70t47.5 -128q0 -83 -65.5 -142t-181.5 -59q-43 0 -78 9q-35 -19 -35 -41q0 -23 37.5 -31t90.5 -9.5t106 -8t90.5 -34.5t37.5 -80q0 -31 -12 -54t-28.5 -34t-33.5 -17.5t-29 -7.5l-12 -2l-66 43q18 2 24.5 3t20.5 5.5t20 13.5t6 23
q0 25 -35.5 35t-86 12t-101.5 8t-86.5 30.5t-35.5 71.5q0 58 70 91q-57 26 -87 72t-30 104q0 88 66.5 143t176.5 58zM276 209q70 0 102.5 36t32.5 84q0 39 -25 70.5t-69 41.5l-15 -58h-60l11 62q-51 -6 -80.5 -40t-29.5 -76q0 -49 34.5 -84.5t98.5 -35.5zM230 671v104h104
v-104h-104z" />
    <glyph glyph-name="gcommaaccent.alt" horiz-adv-x="553" 
d="M278 594l78 -3l-17 -66q90 -14 137.5 -70t47.5 -128q0 -83 -65.5 -142t-181.5 -59q-43 0 -78 9q-35 -19 -35 -41q0 -23 37.5 -31t90.5 -9.5t106 -8t90.5 -34.5t37.5 -80q0 -31 -12 -54t-28.5 -34t-33.5 -17.5t-29 -7.5l-12 -2l-66 43q18 2 24.5 3t20.5 5.5t20 13.5t6 23
q0 25 -35.5 35t-86 12t-101.5 8t-86.5 30.5t-35.5 71.5q0 58 70 91q-57 26 -87 72t-30 104q0 88 66.5 143t176.5 58zM276 209q70 0 102.5 36t32.5 84q0 39 -25 70.5t-69 41.5l-15 -58h-60l11 62q-51 -6 -80.5 -40t-29.5 -76q0 -49 34.5 -84.5t98.5 -35.5zM303 856l57 -51
q-20 -14 -27 -28.5t-7 -41.5v-70h-88v70q0 41 13.5 68.5t51.5 52.5z" />
    <glyph glyph-name="Sacute.alt" horiz-adv-x="536" 
d="M369 0h-220q46 11 94 35.5t85.5 65.5t37.5 84q0 45 -28 69t-88 50l-68 30q-158 69 -158 192q0 92 78 142t181 50q117 0 210 -49l-45 -95q-73 45 -158 45q-52 0 -92.5 -21.5t-40.5 -67.5q0 -37 26.5 -59t84.5 -46l68 -29q80 -35 121.5 -83.5t41.5 -119.5q0 -53 -36.5 -107
t-93.5 -86zM472 926l-132 -149h-96l89 149h139z" />
    <glyph glyph-name="sacute.alt" horiz-adv-x="336" 
d="M227 0h-158q38 18 74.5 50.5t37.5 68.5q1 32 -32 70l-61 70q-66 74 -66 131q0 69 54 106.5t130 37.5q61 0 111 -21l-31 -90q-31 18 -69 18q-33 0 -54.5 -14t-21.5 -43q0 -27 47 -80l58 -67q29 -32 41.5 -57t12.5 -59q0 -33 -20.5 -66.5t-52.5 -54.5zM373 751l-132 -149
h-96l89 149h139z" />
    <glyph glyph-name="Scircumflex.alt" horiz-adv-x="536" 
d="M369 0h-220q46 11 94 35.5t85.5 65.5t37.5 84q0 45 -28 69t-88 50l-68 30q-158 69 -158 192q0 92 78 142t181 50q117 0 210 -49l-45 -95q-73 45 -158 45q-52 0 -92.5 -21.5t-40.5 -67.5q0 -37 26.5 -59t84.5 -46l68 -29q80 -35 121.5 -83.5t41.5 -119.5q0 -53 -36.5 -107
t-93.5 -86zM286 867l-81 -90h-90l111 149h121l112 -149h-91z" />
    <glyph glyph-name="scircumflex.alt" horiz-adv-x="336" 
d="M227 0h-158q38 18 74.5 50.5t37.5 68.5q1 32 -32 70l-61 70q-66 74 -66 131q0 69 54 106.5t130 37.5q61 0 111 -21l-31 -90q-31 18 -69 18q-33 0 -54.5 -14t-21.5 -43q0 -27 47 -80l58 -67q29 -32 41.5 -57t12.5 -59q0 -33 -20.5 -66.5t-52.5 -54.5zM187 692l-81 -90h-90
l111 149h121l112 -149h-91z" />
    <glyph glyph-name="Scedilla.alt" horiz-adv-x="536" 
d="M369 0h-94l-12 -61q19 -2 38 -9t38.5 -30t19.5 -58q0 -38 -22.5 -68t-56 -46.5t-56.5 -24.5t-40 -11l-20 57q100 37 100 85q0 28 -24.5 41.5t-58.5 12.5q3 16 23 112h-55q46 11 94 35.5t85.5 65.5t37.5 84q0 45 -28 69t-88 50l-68 30q-158 69 -158 192q0 92 78 142
t181 50q117 0 210 -49l-45 -95q-73 45 -158 45q-52 0 -92.5 -21.5t-40.5 -67.5q0 -37 26.5 -59t84.5 -46l68 -29q80 -35 121.5 -83.5t41.5 -119.5q0 -53 -36.5 -107t-93.5 -86z" />
    <glyph glyph-name="scedilla.alt" horiz-adv-x="336" 
d="M227 0h-48l-12 -61q13 -1 27.5 -6t31.5 -15t27.5 -29.5t10.5 -46.5q0 -38 -22.5 -68t-56.5 -46.5t-56.5 -24.5t-39.5 -11l-20 57q100 37 100 85q0 28 -24.5 41.5t-58.5 12.5q8 43 22 112h-39q38 18 74.5 50.5t37.5 68.5q1 32 -32 70l-61 70q-66 74 -66 131q0 69 54 106.5
t130 37.5q61 0 111 -21l-31 -90q-31 18 -69 18q-33 0 -54.5 -14t-21.5 -43q0 -27 47 -80l58 -67q29 -32 41.5 -57t12.5 -59q0 -33 -20.5 -66.5t-52.5 -54.5z" />
    <glyph glyph-name="Scaron.alt" horiz-adv-x="536" 
d="M369 0h-220q46 11 94 35.5t85.5 65.5t37.5 84q0 45 -28 69t-88 50l-68 30q-158 69 -158 192q0 92 78 142t181 50q117 0 210 -49l-45 -95q-73 45 -158 45q-52 0 -92.5 -21.5t-40.5 -67.5q0 -37 26.5 -59t84.5 -46l68 -29q80 -35 121.5 -83.5t41.5 -119.5q0 -53 -36.5 -107
t-93.5 -86zM206 926l81 -91l82 91h91l-112 -149h-121l-111 149h90z" />
    <glyph glyph-name="scaron.alt" horiz-adv-x="336" 
d="M227 0h-158q38 18 74.5 50.5t37.5 68.5q1 32 -32 70l-61 70q-66 74 -66 131q0 69 54 106.5t130 37.5q61 0 111 -21l-31 -90q-31 18 -69 18q-33 0 -54.5 -14t-21.5 -43q0 -27 47 -80l58 -67q29 -32 41.5 -57t12.5 -59q0 -33 -20.5 -66.5t-52.5 -54.5zM107 751l81 -91
l82 91h91l-112 -149h-121l-111 149h90z" />
    <glyph glyph-name="ampersand.alt" horiz-adv-x="740" 
d="M28 225q0 73 41.5 129.5t122.5 71.5q-56 4 -88 41t-32 90q0 73 47.5 111t129.5 38h240l-11 -86h-184q-99 0 -99 -72q0 -74 88 -74h131v-88h-44q-59 0 -105.5 -13.5t-79 -50t-32.5 -92.5q0 -69 47 -107t121 -38q81 0 133 53t55 130q0 28 -4 48h232l-10 -83h-112
q-9 -112 -93.5 -179t-205.5 -67q-132 0 -210 63t-78 175z" />
    <glyph glyph-name="zero.altab" horiz-adv-x="700" 
d="M39 349q0 168 88 266.5t223 98.5q134 0 222 -98.5t88 -266.5t-88 -266.5t-222 -98.5t-222.5 99t-88.5 266zM170 349q0 -115 47.5 -187t132.5 -72t132.5 72t47.5 187q0 114 -47.5 186.5t-132.5 72.5t-132.5 -72t-47.5 -187z" />
    <glyph glyph-name="one.altab" horiz-adv-x="700" 
d="M156 0l11 104h153v479q-54 -49 -147 -100l-56 88q48 26 98 60t76 55l26 20h121v-602h160l-11 -104h-431z" />
    <glyph glyph-name="two.altab" horiz-adv-x="700" 
d="M573 0h-490q0 132 47.5 206t169.5 150q11 7 39 24.5t40 25.5t32 23.5t29 27t16.5 27t7.5 31.5q0 51 -40.5 76t-97.5 25q-110 0 -191 -50l-42 91q103 61 238 61q54 0 99 -10.5t83.5 -32.5t60.5 -62.5t22 -95.5q0 -68 -34.5 -113t-101.5 -80q-18 -10 -55 -29t-57.5 -30
t-49 -30t-44 -36t-28.5 -42t-16 -53h381z" />
    <glyph glyph-name="three.altab" horiz-adv-x="700" 
d="M480 204q0 58 -41.5 89t-118.5 31h-131v92h117q62 0 96.5 28.5t34.5 72.5q0 52 -44.5 75.5t-102.5 24.5q-82 1 -174 -30l-33 90q99 38 218 38q48 0 91.5 -9.5t83 -29.5t63.5 -57t24 -87q0 -52 -32 -93.5t-84 -52.5q69 -10 117 -57t48 -128q0 -72 -44.5 -122t-108.5 -70.5
t-141 -20.5q-134 0 -247 38l33 94q119 -35 205 -34q70 1 120.5 29t50.5 89z" />
    <glyph glyph-name="four.altab" horiz-adv-x="700" 
d="M400 208h-307l-43 98l309 400h159v-397h110l-6 -101h-104v-208h-118v208zM169 309h231v295z" />
    <glyph glyph-name="five.altab" horiz-adv-x="700" 
d="M618 252q0 -124 -83 -194t-202 -70q-54 0 -103.5 9t-77 18.5t-74.5 27.5l31 100q40 -19 60.5 -28t61.5 -18.5t83 -8.5q75 1 123 44t48 124q0 65 -38.5 97t-95.5 32q-48 0 -84 -20.5t-50 -42.5h-106l17 384h431l5 -101h-340l-7 -190q69 62 169 63q106 0 169 -61t63 -165z
" />
    <glyph glyph-name="six.altab" horiz-adv-x="700" 
d="M69 283q0 126 68.5 239t189.5 184h202q-136 -58 -214.5 -136.5t-102.5 -166.5q74 69 171 69q115 0 184.5 -65.5t69.5 -172.5q0 -110 -78.5 -178t-201.5 -68q-130 0 -209 80t-79 215zM211 233q0 -67 40.5 -105.5t108.5 -38.5q69 0 110.5 39t41.5 105q0 65 -40.5 103
t-106.5 38q-68 0 -111 -38.5t-43 -102.5z" />
    <glyph glyph-name="seven.altab" horiz-adv-x="700" 
d="M480 602h-362l6 104h507q-102 -337 -302 -706h-143q86 133 165.5 300t128.5 302z" />
    <glyph glyph-name="eight.altab" horiz-adv-x="700" 
d="M350 -12q-122 0 -205 55.5t-83 163.5q0 69 42 118t109 62q-50 13 -81.5 54t-31.5 96q0 93 73.5 137t176.5 44q65 0 118.5 -16t92 -58.5t38.5 -106.5q0 -55 -31 -95.5t-81 -54.5q67 -14 109 -63.5t42 -117.5q0 -74 -42 -124.5t-105 -72t-141 -21.5zM350 343
q-67 0 -112.5 -32t-45.5 -95q0 -61 45.5 -95.5t112.5 -34.5q66 0 112 34.5t46 95.5q0 63 -46 95t-112 32zM350 629q-53 0 -89 -24.5t-36 -76.5q0 -53 37 -78t88 -25q52 0 89 25t37 78q0 52 -36 76.5t-90 24.5z" />
    <glyph glyph-name="nine.altab" horiz-adv-x="700" 
d="M624 419q0 -123 -66 -235t-187 -184h-196q261 119 312 306q-79 -72 -179 -72q-113 0 -182 65.5t-69 172.5q0 112 79 179t197 67q133 0 212 -80.5t79 -218.5zM482 473q0 67 -39.5 105.5t-107.5 38.5q-69 0 -110 -38.5t-41 -105.5q0 -64 40.5 -102t105.5 -38q68 0 110 38
t42 102z" />
    <glyph glyph-name="zero.alt" horiz-adv-x="729" 
d="M36 349q0 168 93 266.5t235 98.5t235.5 -98.5t93.5 -266.5t-93.5 -266.5t-235.5 -98.5t-235 98.5t-93 266.5zM166 349q0 -115 52 -187t146 -72t146 72t52 187q0 114 -52.5 186.5t-145.5 72.5q-94 0 -146 -72t-52 -187z" />
    <glyph glyph-name="one.alt" horiz-adv-x="393" 
d="M177 0v553q-37 -64 -88 -105l-54 72q91 87 139 186h119v-706h-116z" />
    <glyph glyph-name="two.alt" horiz-adv-x="584" 
d="M516 0h-490q0 101 27 176t102 128q21 16 94.5 55t114 76t40.5 82q0 51 -41 75t-98 24q-103 0 -186 -52l-42 93q102 61 234 61q53 0 98 -10.5t84 -32.5t61 -62.5t22 -95.5q0 -47 -19 -84.5t-54 -65t-69.5 -47.5t-81 -44t-72.5 -42q-73 -53 -87 -130h381z" />
    <glyph glyph-name="three.alt" horiz-adv-x="522" 
d="M275 0h-225q51 20 97.5 43t95.5 55t78 70t29 77q0 92 -137 92h-105v92h85q54 0 84 26.5t30 68.5q0 48 -37.5 70t-85.5 23q-70 1 -145 -30l-34 90q89 38 195 38q42 0 81 -9t74.5 -28t56.5 -55t21 -84q0 -50 -32 -90t-84 -51q70 -3 117.5 -43.5t47.5 -108.5
q0 -129 -207 -246z" />
    <glyph glyph-name="four.alt" horiz-adv-x="612" 
d="M363 211h-295l-44 95l297 400h159v-397h86l-6 -98h-80v-211h-117v211zM363 609l-223 -300h223v300z" />
    <glyph glyph-name="five.alt" horiz-adv-x="564" 
d="M308 0h-209q53 25 100 52.5t93.5 63.5t74 78.5t27.5 84.5q0 49 -33 77.5t-83 28.5q-44 0 -80 -21.5t-48 -41.5h-107l16 384h407l10 -101h-319l-8 -190q66 61 169 63q96 0 152 -52.5t56 -141.5q0 -86 -63 -160.5t-155 -123.5z" />
    <glyph glyph-name="six.alt" horiz-adv-x="639" 
d="M35 299q0 118 69 226t191 181h197q-148 -71 -238.5 -169t-97.5 -209q20 67 77 105.5t129 38.5q111 0 180.5 -65.5t69.5 -172.5q0 -112 -78 -179t-196 -67q-140 0 -221.5 85.5t-81.5 225.5zM191 233q0 -67 39 -105.5t106 -38.5q68 0 108.5 39t40.5 105q0 64 -39.5 102
t-104.5 38q-66 0 -108 -38t-42 -102z" />
    <glyph glyph-name="seven.alt" horiz-adv-x="513" 
d="M205 0h-149q40 38 76 89t59.5 93.5t51 110t40 103t36.5 110t32 96.5h-336l6 104h480q-2 -7 -40 -133t-65 -205t-81 -191t-110 -177z" />
    <glyph glyph-name="eight.alt" horiz-adv-x="641" 
d="M31 207q0 70 43.5 119.5t114.5 60.5q-52 14 -85.5 56.5t-33.5 96.5q0 62 37 103.5t91.5 58t122.5 16.5q111 0 181 -42.5t70 -135.5q0 -54 -33.5 -96t-86.5 -57q71 -12 114.5 -61.5t43.5 -118.5q0 -74 -42 -124.5t-105.5 -72.5t-141.5 -22t-142 22t-106 73t-42 124z
M161 215q0 -61 45.5 -95t114.5 -34q67 0 113 34t46 95t-47 94.5t-112 33.5q-68 0 -114 -32.5t-46 -95.5zM195 528q0 -53 37 -78t89 -25q57 0 92.5 24.5t35.5 78.5q0 52 -37 76.5t-91 24.5t-90 -24.5t-36 -76.5z" />
    <glyph glyph-name="nine.alt" horiz-adv-x="639" 
d="M353 0h-190q149 78 233 179t84 190q0 33 -5 52q-12 -81 -71 -128.5t-136 -47.5q-110 0 -177.5 64t-67.5 172q0 109 77 173t193 64q139 0 225 -87.5t86 -227.5q0 -227 -251 -403zM437 481q0 64 -40.5 100t-99.5 36q-65 0 -105 -36.5t-40 -99.5q0 -64 39.5 -101t103.5 -37
q59 0 100.5 39.5t41.5 98.5z" />
    </font>
</defs>
</svg>
