<?xml version="1.0" standalone="no"?>
<!DOCTYPE svg PUBLIC "-//W3C//DTD SVG 1.1//EN" "http://www.w3.org/Graphics/SVG/1.1/DTD/svg11.dtd" >
<svg xmlns="http://www.w3.org/2000/svg" xmlns:xlink="http://www.w3.org/1999/xlink" version="1.1">
<metadata>
Created by FontForge 20170731 at Thu Jun  8 12:22:51 2017
 By Aleksey,,,
Copyright (c) Joseph Churchward and BluHead Studio, 2017. All rights reserved.
</metadata>
<defs>
<font id="EdenredBold-Regular" horiz-adv-x="605" >
  <font-face 
    font-family="Edenred Bold"
    font-weight="700"
    font-stretch="normal"
    units-per-em="1000"
    panose-1="2 11 8 3 4 5 2 2 2 7"
    ascent="800"
    descent="-200"
    x-height="527"
    cap-height="706"
    bbox="-148 -312 1256 1036"
    underline-thickness="50"
    underline-position="-200"
    unicode-range="U+0020-FB04"
  />
<missing-glyph horiz-adv-x="250" 
 />
    <glyph glyph-name="ff" unicode="ff" horiz-adv-x="648" 
d="M203 0h-153v497q0 214 214 214q57 0 107 -13l-21 -109q-31 9 -61 9q-37 0 -58.5 -17t-21.5 -50v-17h130l-20 -117h-116v-397zM527 0h-153v497q0 214 214 214q57 0 107 -13l-21 -109q-31 9 -61 9q-37 0 -58.5 -17t-21.5 -50v-17h130l-20 -117h-116v-397z" />
    <glyph glyph-name="fi" unicode="fi" horiz-adv-x="580" 
d="M203 0h-153v497q0 214 214 214q57 0 107 -13l-21 -109q-31 9 -61 9q-37 0 -58.5 -17t-21.5 -50v-17h130l-20 -117h-116v-397zM374 527h156v-527h-156v527zM374 706h156v-115h-156v115z" />
    <glyph glyph-name="fl" unicode="fl" horiz-adv-x="580" 
d="M203 0h-153v497q0 214 214 214q57 0 107 -13l-21 -109q-31 9 -61 9q-37 0 -58.5 -17t-21.5 -50v-17h130l-20 -117h-116v-397zM374 706h156v-706h-156v706z" />
    <glyph glyph-name="ffi" unicode="ffi" horiz-adv-x="904" 
d="M203 0h-153v497q0 214 214 214q57 0 107 -13l-21 -109q-31 9 -61 9q-37 0 -58.5 -17t-21.5 -50v-17h130l-20 -117h-116v-397zM527 0h-153v497q0 214 214 214q57 0 107 -13l-21 -109q-31 9 -61 9q-37 0 -58.5 -17t-21.5 -50v-17h130l-20 -117h-116v-397zM698 527h156v-527
h-156v527zM698 706h156v-115h-156v115z" />
    <glyph glyph-name="ffl" unicode="ffl" horiz-adv-x="904" 
d="M203 0h-153v497q0 214 214 214q57 0 107 -13l-21 -109q-31 9 -61 9q-37 0 -58.5 -17t-21.5 -50v-17h130l-20 -117h-116v-397zM527 0h-153v497q0 214 214 214q57 0 107 -13l-21 -109q-31 9 -61 9q-37 0 -58.5 -17t-21.5 -50v-17h130l-20 -117h-116v-397zM698 706h156v-706
h-156v706z" />
    <glyph glyph-name=".notdef" horiz-adv-x="250" 
 />
    <glyph glyph-name=".null" horiz-adv-x="0" 
 />
    <glyph glyph-name="nonmarkingreturn" horiz-adv-x="333" 
 />
    <glyph glyph-name="space" unicode=" " horiz-adv-x="333" 
 />
    <glyph glyph-name="exclam" unicode="!" horiz-adv-x="288" 
d="M74 258l-14 448h168l-14 -448h-140zM58 186h89h84v-186h-173v186z" />
    <glyph glyph-name="quotedbl" unicode="&#x22;" horiz-adv-x="552" 
d="M75 404v302h152v-302h-152zM325 404v302h152v-302h-73h-79z" />
    <glyph glyph-name="numbersign" unicode="#" horiz-adv-x="785" 
d="M426 295l41 116h-105l-41 -116h105zM349 708h117l-71 -203h105l71 203h117l-71 -203h127l-32 -94h-128l-40 -116h136l-33 -93h-137l-72 -205h-117l72 205h-104l-73 -205h-117l72 205h-129l33 93h130l41 116h-139l31 94h140z" />
    <glyph glyph-name="dollar" unicode="$" horiz-adv-x="584" 
d="M257 -85v85q-99 6 -217 53l51 125q24 -15 72 -30.5t94 -18.5v172l-75 33q-73 32 -111.5 74.5t-38.5 105.5q0 91 62.5 139.5t162.5 58.5v69h69v-67q120 -5 211 -51l-53 -124q-82 41 -158 45v-152l80 -33q75 -32 110.5 -79t35.5 -119q0 -93 -62 -142.5t-164 -57.5v-86h-69z
M383 201q0 24 -13.5 39.5t-43.5 30.5v-134q26 9 41.5 26t15.5 38zM200 521q0 -33 57 -59v115q-57 -14 -57 -56z" />
    <glyph glyph-name="percent" unicode="%" horiz-adv-x="861" 
d="M22 535q0 82 52.5 132t132.5 50q81 0 133.5 -50t52.5 -132q0 -83 -52.5 -133t-133.5 -50q-80 0 -132.5 50.5t-52.5 132.5zM130 534q0 -42 19.5 -69t57.5 -27q39 0 59 27t20 69q0 41 -20 68.5t-59 27.5q-38 0 -57.5 -27t-19.5 -69zM567 717l88 -42l-358 -686l-87 45z
M468 163q0 81 52.5 131t132.5 50q81 0 133.5 -50t52.5 -131q0 -83 -52.5 -133t-133.5 -50q-80 0 -132.5 50.5t-52.5 132.5zM576 162q0 -42 19.5 -69t57.5 -27q39 0 59 27t20 69q0 41 -20 68t-59 27q-38 0 -57.5 -27t-19.5 -68z" />
    <glyph glyph-name="ampersand" unicode="&#x26;" horiz-adv-x="772" 
d="M537 0q-29 29 -61 76q-109 -87 -224 -87q-117 0 -184.5 57.5t-67.5 147.5q0 76 43.5 122.5t96.5 59.5q-53 23 -79 62t-26 86q0 85 65.5 135.5t168.5 50.5q101 0 167.5 -50.5t66.5 -136.5q0 -53 -32 -92.5t-89 -56.5q43 -5 71 -26t59 -67q50 53 94 82t97 30v-125
q-26 -3 -53.5 -25t-71.5 -68q67 -106 142 -175h-183zM147 215q0 -49 34.5 -76t86.5 -27q73 0 147 67q-40 75 -71 106.5t-82 31.5q-52 0 -83.5 -27.5t-31.5 -74.5zM186 519q0 -32 20.5 -59t62.5 -27q38 0 60.5 26t22.5 60q0 36 -24.5 59t-58.5 23q-33 0 -58 -22.5t-25 -59.5z
" />
    <glyph glyph-name="quotesingle" unicode="'" horiz-adv-x="302" 
d="M75 404v302h152v-302h-152z" />
    <glyph glyph-name="parenleft" unicode="(" horiz-adv-x="340" 
d="M334 -184h-149q-63 125 -96 227.5t-32 217.5q0 115 32.5 218t94.5 227h149q-51 -92 -80 -208.5t-29 -236.5q0 -119 29.5 -236t80.5 -209z" />
    <glyph glyph-name="parenright" unicode=")" horiz-adv-x="340" 
d="M154 -184h-148q50 93 80 209.5t30 235.5t-29.5 235.5t-79.5 209.5h148q63 -123 95.5 -226.5t32.5 -218.5t-33 -217.5t-96 -227.5z" />
    <glyph glyph-name="asterisk" unicode="*" horiz-adv-x="500" 
d="M322 289l-72 135l-72 -134l-110 73l111 114l-148 20l41 124l131 -57l-17 142h128l-17 -142l130 57l42 -124l-149 -20l112 -113z" />
    <glyph glyph-name="plus" unicode="+" horiz-adv-x="867" 
d="M723 283h-216v-218h-147v218h-217v141h217v216h147v-216h216v-141z" />
    <glyph glyph-name="comma" unicode="," horiz-adv-x="274" 
d="M116 -160l-96 76q42 47 42 109v148h162v-125q0 -67 -21.5 -108.5t-86.5 -99.5z" />
    <glyph glyph-name="hyphen" unicode="-" horiz-adv-x="438" 
d="M38 198v154h361v-154h-361z" />
    <glyph glyph-name="period" unicode="." horiz-adv-x="282" 
d="M54 173h174v-173h-174v173z" />
    <glyph glyph-name="slash" unicode="/" horiz-adv-x="380" 
d="M144 -11l-135 42l236 688l136 -40z" />
    <glyph glyph-name="zero" unicode="0" horiz-adv-x="715" 
d="M31 351q0 165 92.5 265t233.5 100q142 0 235 -100t93 -265t-93 -265t-235 -100q-141 0 -233.5 100t-92.5 265zM209 351q0 -97 39 -157.5t109 -60.5t109.5 60.5t39.5 157.5q0 95 -39.5 156.5t-109.5 61.5q-69 0 -108.5 -61t-39.5 -157z" />
    <glyph glyph-name="one" unicode="1" horiz-adv-x="583" 
d="M71 0l12 141h156v395q-52 -51 -139 -99l-74 118q48 28 101.5 65.5t82.5 61.5l30 24h164v-565h162l-12 -141h-483z" />
    <glyph glyph-name="two" unicode="2" horiz-adv-x="619" 
d="M544 0h-526q0 118 40.5 197.5t138.5 144.5q24 16 65.5 40.5t65.5 39t43.5 35.5t19.5 42q0 42 -33 61.5t-80 19.5q-100 0 -196 -48l-53 122q112 64 261 64q58 0 107 -10.5t91 -34t66 -66t24 -101.5q0 -72 -37 -118.5t-111 -82.5q-21 -11 -63.5 -30t-63 -30t-46.5 -28
t-38.5 -35.5t-15.5 -40.5h365z" />
    <glyph glyph-name="three" unicode="3" horiz-adv-x="624" 
d="M404 210q0 45 -35.5 68.5t-96.5 23.5h-145v120h124q54 0 84.5 22t30.5 58q0 40 -37 58.5t-88 19.5q-81 1 -168 -27l-46 121q108 39 231 39q50 0 96 -8.5t89.5 -27.5t70 -56t26.5 -88q0 -57 -37 -98.5t-96 -50.5q77 -7 129 -55.5t52 -130.5q0 -102 -92.5 -156t-223.5 -54
q-140 0 -261 39l46 122q104 -29 200 -28q147 2 147 89z" />
    <glyph glyph-name="four" unicode="4" horiz-adv-x="669" 
d="M368 191h-288l-58 133l291 382h220v-381h115l-9 -134h-106v-191h-165v191zM173 325h195v249z" />
    <glyph glyph-name="five" unicode="5" horiz-adv-x="652" 
d="M609 245q0 -117 -86.5 -187t-210.5 -70q-80 0 -139.5 11.5t-135.5 36.5l39 130q5 -2 23 -9t25.5 -9.5t24.5 -8t28.5 -8t28 -5.5t33.5 -4t36 -1q68 2 108.5 35t40.5 93q0 50 -30 75t-75 25q-69 0 -106 -46h-145l21 403h469l3 -135h-339l-7 -149q70 49 161 49
q107 0 170 -60.5t63 -165.5z" />
    <glyph glyph-name="six" unicode="6" horiz-adv-x="676" 
d="M33 295q0 119 63.5 229t176.5 182h261q-246 -124 -300 -269q73 49 150 49q117 0 189.5 -66.5t72.5 -176.5q0 -113 -84.5 -184t-219.5 -71q-141 0 -225 83t-84 224zM226 241q0 -53 33.5 -84t88.5 -31q58 0 91.5 30.5t33.5 84.5q0 53 -33.5 83t-88.5 30q-56 0 -90.5 -31
t-34.5 -82z" />
    <glyph glyph-name="seven" unicode="7" horiz-adv-x="567" 
d="M351 565h-343l3 141h546q-49 -170 -135 -367.5t-165 -338.5h-193q80 118 158.5 277.5t128.5 287.5z" />
    <glyph glyph-name="eight" unicode="8" horiz-adv-x="692" 
d="M31 211q0 69 42.5 115.5t113.5 59.5q-54 13 -86 54t-32 98q0 48 25 84.5t66.5 56.5t88.5 29.5t98 9.5t97.5 -9t88 -29t66 -56.5t24.5 -85.5q0 -56 -32 -97t-86 -55q71 -16 113.5 -63t42.5 -116q0 -58 -26.5 -102t-72 -68.5t-99.5 -36.5t-117 -12q-62 0 -116.5 12.5
t-100 37.5t-72 69.5t-26.5 103.5zM215 228q0 -50 38.5 -79t92.5 -29t92.5 29t38.5 79q0 51 -38 77.5t-93 26.5t-93 -26.5t-38 -77.5zM247 520q0 -42 29 -62.5t71 -20.5t71.5 20.5t29.5 62.5t-28.5 62t-72.5 20q-43 0 -71.5 -20.5t-28.5 -61.5z" />
    <glyph glyph-name="nine" unicode="9" horiz-adv-x="674" 
d="M640 403q0 -114 -59 -221.5t-170 -181.5h-250q133 75 200 141t90 134q-77 -55 -165 -55q-113 0 -184.5 67t-71.5 177q0 116 85 185t210 69q147 0 231 -84t84 -231zM449 466q0 53 -33 84t-87 31q-56 0 -89 -30.5t-33 -84.5q0 -53 32.5 -83.5t86.5 -30.5q55 0 89 31t34 83z
" />
    <glyph glyph-name="colon" unicode=":" horiz-adv-x="282" 
d="M54 173h90h84v-173h-174v173zM54 520h174v-173h-174v173z" />
    <glyph glyph-name="semicolon" unicode=";" horiz-adv-x="282" 
d="M54 347v173h174v-173h-174zM117 -174l-100 76q42 46 42 109v162h166v-139q0 -65 -23 -109t-85 -99z" />
    <glyph glyph-name="less" unicode="&#x3c;" horiz-adv-x="867" 
d="M668 78l-483 206v139l483 202v-151l-325 -119l325 -126v-151z" />
    <glyph glyph-name="equal" unicode="=" horiz-adv-x="867" 
d="M723 413h-580v64v78h580v-142zM723 152h-580v142h580v-142z" />
    <glyph glyph-name="greater" unicode="&#x3e;" horiz-adv-x="867" 
d="M682 284l-484 -206v151l325 126l-325 119v151l484 -202v-139z" />
    <glyph glyph-name="question" unicode="?" horiz-adv-x="557" 
d="M126 197v159q60 -6 78 -6q63 0 108 29t45 83q0 53 -37.5 82.5t-93.5 29.5q-86 0 -168 -49l-57 118q114 75 250 75q124 0 205 -65t81 -182q0 -102 -69 -162.5t-177 -68.5v-43h-165zM122 142h173v-142h-173v142z" />
    <glyph glyph-name="at" unicode="@" horiz-adv-x="870" 
d="M566 148v59q-18 -27 -55.5 -46t-81.5 -19q-85 0 -144 58.5t-59 150.5q0 91 58 148.5t153 57.5q97 0 156.5 -55.5t59.5 -163.5v-93q68 7 68 134q0 112 -73.5 183.5t-206.5 71.5t-213 -87t-80 -196q0 -132 82 -207t210 -75q94 0 159 46l46 -83q-10 -6 -28 -16t-74 -26
t-113 -16q-162 0 -271 102t-109 275q0 96 44.5 181t135.5 140.5t211 55.5q172 0 275.5 -97t103.5 -257q0 -103 -60.5 -164.5t-193.5 -61.5zM554 351q0 53 -33 83t-82 30q-52 0 -83 -32t-31 -81q0 -50 30.5 -83t83.5 -33q51 0 83 31.5t32 84.5z" />
    <glyph glyph-name="A" unicode="A" horiz-adv-x="653" 
d="M489 0l-51 161h-241l-52 -161h-153l233 706h209l229 -706h-174zM318 570l-81 -278h161z" />
    <glyph glyph-name="B" unicode="B" horiz-adv-x="685" 
d="M61 706h337q219 0 219 -178q0 -61 -30.5 -102.5t-84.5 -47.5q79 -7 118 -55.5t39 -124.5q0 -198 -239 -198h-171q-91 0 -139.5 50t-48.5 131v525zM227 354v-156q0 -62 74 -62h88q91 0 91 84q0 82 -91 82h-85q-35 0 -51.5 11.5t-25.5 40.5zM227 570v-96q0 -59 58 -59h65
q90 0 90 79q0 43 -23.5 59.5t-67.5 16.5h-122z" />
    <glyph glyph-name="C" unicode="C" horiz-adv-x="631" 
d="M33 354q1 164 106.5 264t267.5 100q118 0 216 -50l-63 -130q-59 32 -129 32q-96 0 -155 -59.5t-59 -156.5q0 -101 66 -161t166 -60q72 0 144 33l-18 -146q-83 -32 -167 -32q-165 0 -270 101t-105 265z" />
    <glyph glyph-name="D" unicode="D" horiz-adv-x="808" 
d="M444 0h-195q-91 0 -139.5 50t-48.5 131v525h383q156 0 244 -97.5t88 -255.5t-88 -255.5t-244 -97.5zM301 135h98q90 0 141.5 63t51.5 155t-51.5 155t-141.5 63h-172v-374q0 -62 74 -62z" />
    <glyph glyph-name="E" unicode="E" horiz-adv-x="596" 
d="M540 0h-292q-82 0 -134.5 46t-52.5 126v534h504l-21 -136h-317v-151h287l-22 -131h-265v-77q0 -75 69 -75h266z" />
    <glyph glyph-name="F" unicode="F" horiz-adv-x="558" 
d="M61 0v532q0 80 50 127t132 47h299l-20 -136h-212q-50 1 -66.5 -20.5t-16.5 -70.5v-75h280l-20 -135h-260v-269h-166z" />
    <glyph glyph-name="G" unicode="G" horiz-adv-x="810" 
d="M592 63q-36 -37 -91.5 -56t-114.5 -19q-154 0 -253.5 101t-99.5 258q0 172 107 271.5t286 99.5q165 0 271 -83l-72 -119q-76 62 -188 62q-97 0 -157 -61t-60 -164q0 -98 56.5 -158.5t151.5 -60.5q63 0 108.5 27t46.5 82v54h-229l19 133h376v-320q0 -65 35 -110h-171
q-17 26 -21 63z" />
    <glyph glyph-name="H" unicode="H" horiz-adv-x="748" 
d="M65 0v706h167v-281h285v281h166v-706h-166v290h-286v-290h-166z" />
    <glyph glyph-name="I" unicode="I" horiz-adv-x="295" 
d="M65 0v706h166v-706h-166z" />
    <glyph glyph-name="J" unicode="J" horiz-adv-x="317" 
d="M93 706h166v-339q0 -207 -97 -367h-179q28 45 42 70.5t33 72t27 102t8 126.5v335z" />
    <glyph glyph-name="K" unicode="K" horiz-adv-x="673" 
d="M65 706h166v-288h23l207 288h179l-237 -312h16q34 0 59 -10.5t44 -36t30 -48t29 -65.5l30 -74q16 -39 36.5 -78t33.5 -60t15 -22h-194q-6 5 -23 38t-31 73l-24 62q-24 63 -38 79q-23 26 -75 26h-80v-278h-166v706z" />
    <glyph glyph-name="L" unicode="L" horiz-adv-x="565" 
d="M542 0h-294q-82 0 -134.5 46t-52.5 126v534h166v-491q0 -75 69 -75h268z" />
    <glyph glyph-name="M" unicode="M" horiz-adv-x="912" 
d="M209 0h-144v706h264l124 -421h2l128 421h264v-706h-166l2 574h-4l-173 -574h-126l-169 574h-4z" />
    <glyph glyph-name="N" unicode="N" horiz-adv-x="750" 
d="M685 0h-180l-296 477v-477h-144v706h192l284 -468v468h144v-706z" />
    <glyph glyph-name="O" unicode="O" horiz-adv-x="844" 
d="M33 353q1 173 107.5 269t282.5 96q175 0 281.5 -96t106.5 -269t-106.5 -269t-281.5 -96q-176 0 -283 96t-107 269zM217 353q0 -95 55.5 -155t150.5 -60q94 0 149 60t55 155t-55 155t-149 60q-95 0 -150.5 -60t-55.5 -155z" />
    <glyph glyph-name="P" unicode="P" horiz-adv-x="707" 
d="M65 706h401q108 0 165.5 -66.5t57.5 -165.5q0 -97 -62.5 -164.5t-175.5 -66.5h-131q-29 0 -48 9.5t-25.5 18t-15.5 25.5v-296h-166v706zM231 571v-132q0 -60 80 -60h96q53 0 78 26.5t25 69.5q0 53 -25 74.5t-75 21.5h-179z" />
    <glyph glyph-name="Q" unicode="Q" horiz-adv-x="844" 
d="M811 353q0 -154 -86 -249t-234 -111v-20q0 -57 30 -97h-143q-25 48 -25 95v22q-147 16 -233.5 112t-86.5 248q1 174 108 269.5t282 95.5t281.5 -95.5t106.5 -269.5zM217 353q0 -73 35 -126.5t101 -73.5v84h138v-83q66 18 101 72t35 127q0 94 -54.5 154.5t-149.5 60.5
t-150.5 -60.5t-55.5 -154.5z" />
    <glyph glyph-name="R" unicode="R" horiz-adv-x="731" 
d="M65 706h403q108 0 166.5 -64t58.5 -149q0 -83 -50.5 -141t-121.5 -63q25 -7 44 -18.5t31 -21.5t24 -30.5t17 -31t16.5 -39t16.5 -40.5q29 -69 60 -108h-193q-29 27 -49 88q-3 7 -11.5 32t-11 31.5t-11 25.5t-13.5 24.5t-15 17.5t-19.5 15.5t-23 7.5t-29.5 4l-42 1
q-13 0 -23.5 1.5t-18.5 5t-13 6.5t-9.5 9.5t-6.5 9.5t-5.5 11t-4.5 10v-300h-166v706zM231 571v-135q0 -60 80 -60h100q53 0 78 27t25 71q0 53 -26 75t-78 22h-179z" />
    <glyph glyph-name="S" unicode="S" horiz-adv-x="582" 
d="M20 42l59 138q103 -57 194 -57q101 0 101 70q0 17 -9 31.5t-29 27.5t-32 20t-37 18l-86 38q-76 33 -114 78.5t-38 114.5q0 95 77 146t193 51q117 0 241 -53l-57 -136q-77 55 -171 55q-104 0 -104 -59q0 -11 5 -20.5t11.5 -16.5t19.5 -15t20.5 -12t24.5 -12t22 -10l81 -37
q81 -38 120.5 -84.5t39.5 -121.5q0 -105 -77.5 -156.5t-199.5 -51.5q-138 0 -255 54z" />
    <glyph glyph-name="T" unicode="T" 
d="M220 0v566h-220v140h608l-19 -140h-203v-566h-166z" />
    <glyph glyph-name="U" unicode="U" horiz-adv-x="750" 
d="M60 258v448h166v-424q0 -75 44 -111.5t112 -36.5q73 0 114.5 36.5t41.5 111.5v424h152v-448q0 -134 -85 -201.5t-223 -67.5q-62 0 -117.5 15t-102.5 46t-74.5 84.5t-27.5 123.5z" />
    <glyph glyph-name="V" unicode="V" horiz-adv-x="688" 
d="M259 0l-272 706h180l188 -522l182 522h162l-263 -706h-177z" />
    <glyph glyph-name="W" unicode="W" horiz-adv-x="1045" 
d="M218 0l-218 706h179l137 -499l138 499h166l138 -499l128 499h153l-204 -706h-174l-132 466l-141 -466h-170z" />
    <glyph glyph-name="X" unicode="X" horiz-adv-x="659" 
d="M328 232l-149 -232h-181l240 360l-231 346h184l138 -216l139 216h181l-229 -344q106 -161 241 -362h-184z" />
    <glyph glyph-name="Y" unicode="Y" horiz-adv-x="610" 
d="M35 479v227h166v-203q0 -53 30.5 -79.5t80.5 -26.5q51 0 78.5 28t27.5 77v204h156v-238q0 -179 -177 -202v-266h-167v266q-95 8 -145 62.5t-50 150.5z" />
    <glyph glyph-name="Z" unicode="Z" horiz-adv-x="661" 
d="M622 0h-599q0 109 35.5 192.5t138.5 176.5q26 24 72.5 61.5t81 69.5t59.5 66h-348v140h575q-6 -118 -56 -196t-162 -164q-48 -37 -63.5 -50t-47.5 -42.5t-49 -55.5t-29 -58h392v-140z" />
    <glyph glyph-name="bracketleft" unicode="[" horiz-adv-x="375" 
d="M80 -184v890h300v-111h-146v-668h146v-111h-300z" />
    <glyph glyph-name="backslash" unicode="\" horiz-adv-x="380" 
d="M372 32l-136 -43l-239 689l138 41z" />
    <glyph glyph-name="bracketright" unicode="]" horiz-adv-x="365" 
d="M301 706v-890h-299v112h145v666h-145v112h299z" />
    <glyph glyph-name="asciicircum" unicode="^" horiz-adv-x="800" 
d="M463 706l244 -238h-178l-129 128l-129 -128h-178l245 238h125z" />
    <glyph glyph-name="underscore" unicode="_" horiz-adv-x="500" 
d="M0 -111h500v-114h-500v114z" />
    <glyph glyph-name="grave" unicode="`" horiz-adv-x="500" 
d="M258 603l-142 158h173l90 -158h-121z" />
    <glyph glyph-name="a" unicode="a" horiz-adv-x="670" 
d="M626 247v-247h-150v65q-67 -73 -180 -73q-118 0 -194.5 73t-76.5 193q0 121 82.5 198.5t217.5 77.5q140 0 220.5 -78t80.5 -209zM461 262q0 62 -38 101t-100 39q-61 0 -99 -40t-38 -100q0 -62 37.5 -101t99.5 -39t100 39t38 101z" />
    <glyph glyph-name="b" unicode="b" horiz-adv-x="653" 
d="M37 291v415h153v-234q60 62 171 62q122 0 194 -75.5t72 -199.5q0 -117 -82 -193t-208 -76q-141 0 -220.5 79.5t-79.5 221.5zM191 262q0 -62 38.5 -101t100.5 -39q61 0 99 40t38 100q0 62 -37.5 101t-99.5 39t-100.5 -39t-38.5 -101z" />
    <glyph glyph-name="c" unicode="c" horiz-adv-x="464" 
d="M434 140l-13 -127q-49 -24 -116 -24q-125 0 -202.5 75t-77.5 199q0 123 76.5 197t201.5 74q83 0 156 -34l-43 -118q-41 25 -89 25q-64 0 -101.5 -38.5t-37.5 -105.5q0 -66 40.5 -106.5t108.5 -39.5q51 0 97 23z" />
    <glyph glyph-name="d" unicode="d" horiz-adv-x="653" 
d="M616 706v-413q0 -143 -79.5 -223t-220.5 -80q-129 0 -210 77t-81 195q0 122 76.5 197t200.5 75q53 0 95.5 -17.5t65.5 -42.5v232h153zM461 262q0 62 -38 101t-100 39t-99.5 -39t-37.5 -101q0 -61 38 -100.5t99 -39.5q62 0 100 39t38 101z" />
    <glyph glyph-name="e" unicode="e" horiz-adv-x="611" 
d="M486 133l-10 -118q-61 -25 -150 -25q-134 0 -217.5 74.5t-83.5 203.5q0 116 77.5 191t204.5 75q141 0 213.5 -83t70.5 -227h-396q10 -60 59 -89.5t109 -29.5q64 0 123 28zM312 426q-48 0 -80 -27.5t-42 -72.5h236q-6 47 -36.5 73.5t-77.5 26.5z" />
    <glyph glyph-name="f" unicode="f" horiz-adv-x="324" 
d="M203 0h-153v497q0 214 214 214q57 0 107 -13l-21 -109q-31 9 -61 9q-37 0 -58.5 -17t-21.5 -50v-17h130l-20 -117h-116v-397z" />
    <glyph glyph-name="g" unicode="g" horiz-adv-x="669" 
d="M626 239v-118q0 -99 -18 -161t-84 -144h-180q114 94 135 255q-27 -40 -76.5 -59.5t-106.5 -19.5q-120 0 -195.5 74t-75.5 194q0 124 85.5 199t207.5 75q143 0 225.5 -77.5t82.5 -217.5zM461 262q0 62 -38 101t-100 39q-61 0 -99 -39.5t-38 -100.5q0 -62 37.5 -101
t99.5 -39t100 39t38 101z" />
    <glyph glyph-name="h" unicode="h" horiz-adv-x="608" 
d="M50 706h153v-233q56 61 150 61q99 0 153.5 -54t54.5 -164v-316h-153v292q0 117 -98 117q-45 0 -76 -27t-31 -81v-301h-153v706z" />
    <glyph glyph-name="i" unicode="i" horiz-adv-x="256" 
d="M50 527h156v-527h-156v527zM50 706h156v-115h-156v115z" />
    <glyph glyph-name="j" unicode="j" horiz-adv-x="254" 
d="M50 527h156v-350q0 -65 -10 -126t-24 -101.5t-28 -72t-24 -46.5l-10 -15h-164q4 6 11 17t25 47.5t32 75.5t25 98.5t11 118.5v354zM50 706h156v-115h-156v115z" />
    <glyph glyph-name="k" unicode="k" horiz-adv-x="545" 
d="M50 706h153v-389h17l148 210h170l-174 -219h10q47 0 68 -22.5t37 -71.5l28 -97q21 -70 48 -117h-166q-17 39 -30 81l-22 77q-10 32 -25 45t-43 13h-66v-216h-153v706z" />
    <glyph glyph-name="l" unicode="l" horiz-adv-x="256" 
d="M50 706h156v-706h-156v706z" />
    <glyph glyph-name="m" unicode="m" horiz-adv-x="935" 
d="M465 417h2q20 59 76 88t122 29q104 0 163 -55.5t59 -158.5v-320h-153v281q0 120 -96 120t-96 -117v-284h-149v284q0 117 -97 117q-95 0 -95 -120v-281h-153v320q0 103 59 158.5t163 55.5q65 0 120 -29t75 -88z" />
    <glyph glyph-name="n" unicode="n" 
d="M405 0v278q0 123 -102 123q-103 0 -103 -123v-278h-153v316q0 109 70.5 163.5t185.5 54.5t185 -54.5t70 -163.5v-316h-153z" />
    <glyph glyph-name="o" unicode="o" horiz-adv-x="651" 
d="M25 262q0 128 87 200t213 72q129 0 214.5 -72t85.5 -200t-85.5 -200t-214.5 -72q-128 0 -214 72t-86 200zM188 262q0 -64 38 -102t99 -38t99.5 38t38.5 102q-1 63 -39 101t-99 39q-59 0 -98 -38.5t-39 -101.5z" />
    <glyph glyph-name="p" unicode="p" horiz-adv-x="659" 
d="M44 -183v445q0 119 78 195.5t215 76.5q132 0 214.5 -76.5t82.5 -198.5q0 -116 -73.5 -192.5t-190.5 -76.5q-115 0 -173 66v-239h-153zM198 262q0 -62 38 -101t100 -39t100 39t38 101q0 60 -38.5 100t-99.5 40q-62 0 -100 -39t-38 -101z" />
    <glyph glyph-name="q" unicode="q" horiz-adv-x="663" 
d="M616 260v-443h-153v239q-58 -66 -173 -66q-117 0 -191 76.5t-74 192.5q0 122 82 198.5t215 76.5q137 0 215.5 -77.5t78.5 -196.5zM461 262q0 62 -38 101t-100 39q-61 0 -99 -40t-38 -100q0 -62 37.5 -101t99.5 -39t100 39t38 101z" />
    <glyph glyph-name="r" unicode="r" horiz-adv-x="365" 
d="M382 523l-28 -134q-26 12 -61 12q-52 0 -72.5 -31t-20.5 -92v-278h-153v314q0 114 65.5 167t177.5 53q4 0 92 -11z" />
    <glyph glyph-name="s" unicode="s" horiz-adv-x="460" 
d="M15 29l43 120q79 -46 156 -46q64 0 64 44q0 7 -2 13t-8 12t-11 10t-15.5 9.5t-17 8.5t-20.5 9l-21 9l-25 12q-31 14 -51 25t-42 29.5t-33 43t-11 55.5q0 77 58.5 114t150.5 37q105 0 200 -41l-46 -118q-67 47 -142 47q-62 0 -62 -37q0 -5 2.5 -10t7.5 -10t10.5 -8.5
t15 -8t16.5 -7.5t19.5 -8.5t19.5 -8.5l25 -12q67 -30 105 -66.5t38 -97.5q0 -80 -63 -119t-159 -39q-116 0 -202 39z" />
    <glyph glyph-name="t" unicode="t" horiz-adv-x="308" 
d="M46 283v356l154 63v-175h106l-20 -116h-86v-134q0 -140 99 -277h-166q-2 3 -15.5 26t-19.5 35.5t-18 40.5t-18 51.5t-11 58.5t-5 71z" />
    <glyph glyph-name="u" unicode="u" 
d="M405 245v282h153v-320q0 -108 -70 -162.5t-185 -54.5q-116 0 -186 54.5t-70 162.5v320h153v-282q0 -123 103 -123q102 0 102 123z" />
    <glyph glyph-name="v" unicode="v" horiz-adv-x="512" 
d="M173 0q-188 523 -188 527h166l114 -386l116 386h146l-189 -527h-165z" />
    <glyph glyph-name="w" unicode="w" horiz-adv-x="933" 
d="M469 107h-2q-20 -60 -76 -88.5t-122 -28.5q-104 0 -163 55t-59 159v323h153v-285q0 -119 96 -119t96 117v287h149v-287q0 -117 97 -117q95 0 95 119v285h153v-323q0 -104 -59 -159t-163 -55q-66 0 -120.5 28.5t-74.5 88.5z" />
    <glyph glyph-name="x" unicode="x" horiz-adv-x="543" 
d="M156 0h-168l198 269l-189 258h170l104 -149l105 149h167l-188 -257l199 -270h-170l-114 161z" />
    <glyph glyph-name="y" unicode="y" horiz-adv-x="606" 
d="M465 -184h-179q5 4 12.5 11.5t27 32t34.5 51t28.5 66t14.5 79.5q-50 -66 -149 -66q-207 0 -207 211v326h153v-279q0 -62 21 -94t75 -32q109 0 109 125v280h153v-448q0 -45 -9.5 -89t-23 -74t-27.5 -53.5t-24 -34.5z" />
    <glyph glyph-name="z" unicode="z" horiz-adv-x="502" 
d="M286 411h-249v116h441q0 -87 -29 -147t-99 -119q-47 -39 -64 -54t-39.5 -41.5t-29.5 -49.5h257v-116h-459q1 95 37.5 158t112.5 124q49 40 77 68.5t44 60.5z" />
    <glyph glyph-name="braceleft" unicode="{" horiz-adv-x="371" 
d="M105 -24v150q0 34 -18.5 56.5t-58.5 22.5v114q40 0 58.5 22.5t18.5 56.5v152q0 80 40 118t140 38h100v-112h-52q-34 0 -54.5 -17.5t-20.5 -67.5v-141q0 -83 -86 -106q49 -13 67.5 -39t18.5 -68v-136q0 -50 22.5 -70.5t54.5 -20.5h50v-112h-100q-98 0 -139 40t-41 120z
" />
    <glyph glyph-name="bar" unicode="|" horiz-adv-x="500" 
d="M190 764h120v-1000h-120v1000z" />
    <glyph glyph-name="braceright" unicode="}" horiz-adv-x="371" 
d="M266 126v-150q0 -80 -41 -120t-139 -40h-99v112h50q32 0 54 20.5t22 70.5v136q0 42 18.5 68t67.5 39q-86 23 -86 106v141q0 50 -20.5 67.5t-54.5 17.5h-51v112h100q99 0 139 -38.5t40 -117.5v-152q0 -34 19 -56.5t58 -22.5v-114q-39 0 -58 -22.5t-19 -56.5z" />
    <glyph glyph-name="asciitilde" unicode="~" horiz-adv-x="836" 
d="M683 439l45 -122q-88 -61 -180 -61q-46 0 -133 31q-79 29 -129 29q-60 0 -133 -47l-45 121q90 63 181 63q49 0 140 -31q87 -29 121 -29q60 0 133 46z" />
    <glyph glyph-name="nbspace" unicode="&#xa0;" horiz-adv-x="333" 
 />
    <glyph glyph-name="exclamdown" unicode="&#xa1;" horiz-adv-x="288" 
d="M74 265h140l14 -448h-168zM58 337v187h173v-187h-84h-89z" />
    <glyph glyph-name="cent" unicode="&#xa2;" horiz-adv-x="496" 
d="M263 -29v91q-106 15 -170 86.5t-64 181.5q0 113 63 184.5t171 84.5v76h89v-75q71 -8 124 -33l-44 -118q-35 22 -80 25v-289h1q54 0 92 25l-15 -130q-32 -15 -78 -20v-89h-89zM191 330q0 -85 72 -124v254q-72 -34 -72 -130z" />
    <glyph glyph-name="sterling" unicode="&#xa3;" horiz-adv-x="598" 
d="M32 0v134q116 0 165 17.5t50 66.5q0 40 -59 99h-156v76h88q-55 60 -55 133q0 49 23.5 87t61.5 59.5t81 32.5t87 11q131 0 224 -53l-55 -117q-76 40 -143 40q-45 0 -72.5 -19t-27.5 -50q0 -9 2.5 -18.5t8.5 -20l10 -17.5t14.5 -18.5t15 -16t17 -17.5t15.5 -16h206l-9 -76
h-140q26 -40 26 -68q1 -75 -80 -114h247l-22 -135h-523z" />
    <glyph glyph-name="currency" unicode="&#xa4;" horiz-adv-x="596" 
d="M180 352q0 -49 35 -83.5t84 -34.5t83 34.5t34 83.5q0 50 -34 84.5t-83 34.5t-84 -34.5t-35 -84.5zM60 352q0 68 33 119l-67 71l87 78l61 -67q58 37 125 37q65 0 123 -37l62 67l86 -79l-66 -71q32 -56 32 -118q0 -65 -32 -118l66 -72l-86 -80l-62 68q-57 -35 -123 -35
q-67 0 -124 35l-62 -66l-87 78l67 71q-33 53 -33 119z" />
    <glyph glyph-name="yen" unicode="&#xa5;" horiz-adv-x="607" 
d="M105 135h124v36h-124v68h124v27q-93 6 -144 61.5t-51 151.5v227h164v-203q0 -53 30.5 -79.5t81.5 -26.5q52 0 80.5 28t28.5 77v204h154v-238q0 -90 -45.5 -141.5t-131.5 -60.5v-27h124v-68h-124v-36h124v-69h-124v-66h-167v66h-124v69z" />
    <glyph glyph-name="brokenbar" unicode="&#xa6;" horiz-adv-x="500" 
d="M190 699h120v-370h-120v370zM190 199h120v-370h-53h-67v370z" />
    <glyph glyph-name="section" unicode="&#xa7;" horiz-adv-x="600" 
d="M533 213q0 -87 -82 -141q54 -45 54 -122q0 -92 -58 -134t-142 -42q-103 0 -216 61l49 106q88 -59 167 -59q34 0 57 15t23 47q0 31 -18.5 48.5t-57.5 36.5l-106 51q-76 37 -106 84t-30 109q0 46 25 84.5t60 58.5q-54 49 -54 125q0 86 57.5 131.5t153.5 45.5q92 0 188 -54
l-47 -104q-78 50 -142 50q-37 0 -63.5 -16t-26.5 -50q0 -16 4 -27t16 -21.5t18 -14t28 -15.5q4 -3 7 -4l106 -54q76 -38 106 -85.5t30 -109.5zM333 312l-109 58q-36 -31 -36 -87q0 -37 18 -61t62 -46l108 -56q36 33 36 86q0 67 -79 106z" />
    <glyph glyph-name="dieresis" unicode="&#xa8;" horiz-adv-x="500" 
d="M76 620v120h121v-120h-58h-63zM304 620v120h120v-120h-120z" />
    <glyph glyph-name="copyright" unicode="&#xa9;" horiz-adv-x="725" 
d="M52 353q0 128 91.5 219.5t219.5 91.5t219.5 -91.5t91.5 -219.5t-91.5 -219.5t-219.5 -91.5t-219.5 91.5t-91.5 219.5zM128 353q0 -97 69 -165.5t166 -68.5t165.5 68.5t68.5 165.5t-68.5 165.5t-165.5 68.5t-166 -68.5t-69 -165.5zM463 269l-6 -79q-38 -16 -82 -16
q-80 0 -131 49.5t-51 128.5t51.5 128t130.5 49q60 0 107 -26l-35 -71q-25 16 -61 16q-41 0 -68.5 -26t-27.5 -70q0 -47 31 -73t75 -26q35 0 67 16z" />
    <glyph glyph-name="ordfeminine" unicode="&#xaa;" horiz-adv-x="431" 
d="M398 535v-153h-96v40q-37 -46 -107 -46q-75 0 -124 45.5t-49 120.5q0 76 51.5 123t136.5 47q87 0 137.5 -48t50.5 -129zM291 544q0 38 -22.5 60.5t-59.5 22.5t-59.5 -22.5t-22.5 -60.5t22.5 -60.5t59.5 -22.5t59.5 22.5t22.5 60.5z" />
    <glyph glyph-name="guillemotleft" unicode="&#xab;" horiz-adv-x="675" 
d="M325 367l-151 -102l151 -102v-143l-289 191v108l289 191v-143zM629 367l-152 -102l152 -102v-72v-71l-289 191v108l289 191v-143z" />
    <glyph glyph-name="logicalnot" unicode="&#xac;" horiz-adv-x="867" 
d="M723 424v-344h-140v203h-440v141h580z" />
    <glyph glyph-name="uni00AD" unicode="&#xad;" horiz-adv-x="438" 
d="M38 198v154h361v-154h-361z" />
    <glyph glyph-name="registered" unicode="&#xae;" horiz-adv-x="675" 
d="M223 585h149q45 0 69 -27t24 -62q0 -34 -21.5 -57t-50.5 -25q13 -2 22.5 -10t13.5 -15.5t13 -30t14 -34.5q14 -29 18 -33h-84q-10 10 -17 36q-1 4 -4 13t-4 12.5t-3.5 11t-4.5 10.5t-5.5 8t-7 7t-8 3.5t-9.5 1.5h-10q-15 0 -21 11v-114h-73v294zM296 525v-51
q0 -13 7.5 -18.5t28.5 -5.5h15q42 0 42 38q0 22 -11.5 29.5t-37.5 7.5h-44zM52 436q0 118 83.5 202t201.5 84t202 -84t84 -202t-84 -202t-202 -84t-201.5 84t-83.5 202zM127 436q0 -87 61.5 -148.5t148.5 -61.5t149 61.5t62 148.5t-62 148.5t-149 61.5t-148.5 -61.5
t-61.5 -148.5z" />
    <glyph glyph-name="macron" unicode="&#xaf;" horiz-adv-x="500" 
d="M91 634v91h318v-91h-318z" />
    <glyph glyph-name="degree" unicode="&#xb0;" horiz-adv-x="413" 
d="M20 532q0 77 54.5 131.5t131.5 54.5t131.5 -54.5t54.5 -131.5t-54.5 -131.5t-131.5 -54.5t-131.5 54.5t-54.5 131.5zM116 532q0 -38 26 -64t64 -26t64.5 26.5t26.5 63.5t-26.5 63.5t-64.5 26.5t-64 -26t-26 -64z" />
    <glyph glyph-name="plusminus" unicode="&#xb1;" horiz-adv-x="867" 
d="M706 349h-197v-198h-147v198h-196v141h196v196h147v-196h197v-141zM706 -37h-540v141h540v-141z" />
    <glyph glyph-name="twosuperior" unicode="&#xb2;" horiz-adv-x="407" 
d="M356 251h-338q0 109 55 153q14 31 44.5 55.5t58.5 37t49.5 32.5t21.5 44q0 45 -68 45q-54 0 -115 -34l-36 87q70 41 163 41q79 0 131.5 -32t52.5 -104q0 -48 -32 -83.5t-71 -53t-78 -42t-50 -50.5h226z" />
    <glyph glyph-name="threesuperior" unicode="&#xb3;" horiz-adv-x="420" 
d="M263 390q0 53 -76 53h-96v87h84q30 0 47.5 13t17.5 34q0 42 -72 44q-49 1 -110 -20l-31 86q73 27 151 27q45 0 83 -9t68.5 -37t30.5 -72q0 -33 -18.5 -58t-50.5 -35q43 -11 71 -42.5t28 -77.5q0 -67 -59 -102.5t-145 -35.5q-89 0 -169 27l31 86q69 -20 131 -20
q84 2 84 52z" />
    <glyph glyph-name="acute" unicode="&#xb4;" horiz-adv-x="500" 
d="M379 755l-137 -152h-121l86 152h172z" />
    <glyph glyph-name="mu" unicode="&#xb5;" horiz-adv-x="628" 
d="M413 249v278h153v-527h-153v45q-34 -51 -99 -51q-62 0 -100 45v-223h-153v711h153v-278q0 -60 26.5 -93.5t73.5 -33.5t73 33.5t26 93.5z" />
    <glyph glyph-name="paragraph" unicode="&#xb6;" horiz-adv-x="692" 
d="M643 706v-93h-64v-759h-109v759h-71v-759h-109v404q-101 3 -168 64t-67 161q0 114 68 168.5t188 54.5h332z" />
    <glyph glyph-name="periodcentered" unicode="&#xb7;" horiz-adv-x="282" 
d="M54 426h174v-173h-174v173z" />
    <glyph glyph-name="cedilla" unicode="&#xb8;" horiz-adv-x="500" 
d="M202 5h82l-13 -62q42 -5 73 -28.5t31 -72.5q0 -29 -15.5 -54.5t-37 -41.5t-50.5 -29t-50 -19t-41 -10l-21 63q20 7 31.5 12.5t31 16t29 24.5t9.5 30q0 28 -24.5 41t-58.5 13z" />
    <glyph glyph-name="onesuperior" unicode="&#xb9;" horiz-adv-x="318" 
d="M148 253v327l-68 -60l-58 72l126 114h112v-453h-112z" />
    <glyph glyph-name="ordmasculine" unicode="&#xba;" horiz-adv-x="418" 
d="M22 545q0 79 53.5 123t133.5 44q81 0 134.5 -44t53.5 -123q0 -80 -53.5 -124t-134.5 -44t-134 44t-53 124zM128 545q0 -38 22.5 -61t58.5 -23t58.5 23t22.5 61q0 37 -22.5 60t-58.5 23t-58.5 -23t-22.5 -60z" />
    <glyph glyph-name="guillemotright" unicode="&#xbb;" horiz-adv-x="672" 
d="M195 265l-152 102v143l289 -191v-108l-289 -191v143zM498 265l-152 102v143l289 -191v-108l-289 -191v78v65z" />
    <glyph glyph-name="onequarter" unicode="&#xbc;" horiz-adv-x="886" 
d="M283 -11l-87 45l357 683l88 -42zM148 253v327l-68 -60l-58 72l126 114h112v-453h-112zM686 122h-171l-38 89l174 243h148v-241h54l-10 -91h-44v-122h-113v122zM686 365l-109 -152h109v152z" />
    <glyph glyph-name="onehalf" unicode="&#xbd;" horiz-adv-x="930" 
d="M283 -11l-87 45l357 683l88 -42zM877 0h-341v21q0 62 23.5 107.5t57.5 70t68 42.5t57.5 37.5t23.5 43.5q0 45 -68 45q-56 0 -115 -34l-36 87q69 41 163 41q79 0 131.5 -32t52.5 -104q0 -39 -20.5 -69t-52 -49t-63.5 -34.5t-59.5 -35t-36.5 -41.5h230zM148 253v327
l-68 -60l-58 72l126 114h112v-453h-112z" />
    <glyph glyph-name="threequarters" unicode="&#xbe;" horiz-adv-x="974" 
d="M365 -11l-87 45l356 683l88 -42zM768 122h-172l-37 89l173 243h148v-242h55l-10 -90h-45v-122h-112v122zM768 365l-109 -153h109v153zM263 390q0 53 -76 53h-96v87h84q30 0 47.5 13t17.5 34q0 42 -72 44q-49 1 -110 -20l-31 86q73 27 151 27q45 0 83 -9t68.5 -37
t30.5 -72q0 -33 -18.5 -58t-50.5 -35q43 -11 71 -42.5t28 -77.5q0 -67 -59 -102.5t-145 -35.5q-89 0 -169 27l31 86q69 -20 131 -20q84 2 84 52z" />
    <glyph glyph-name="questiondown" unicode="&#xbf;" horiz-adv-x="557" 
d="M451 326v-159q-60 6 -78 6q-63 0 -108 -29t-45 -83q0 -53 37 -82.5t94 -29.5q85 0 167 49l57 -118q-113 -75 -249 -75q-125 0 -205.5 65t-80.5 182q0 102 69 162.5t177 68.5v43h165zM454 381h-173v143h173v-143z" />
    <glyph glyph-name="Agrave" unicode="&#xc0;" horiz-adv-x="653" 
d="M489 0l-51 161h-241l-52 -161h-153l233 706h209l229 -706h-174zM318 570l-81 -278h161zM268 769l-142 158h173l90 -158h-121z" />
    <glyph glyph-name="Aacute" unicode="&#xc1;" horiz-adv-x="653" 
d="M489 0l-51 161h-241l-52 -161h-153l233 706h209l229 -706h-174zM318 570l-81 -278h161zM530 921l-137 -152h-121l86 152h172z" />
    <glyph glyph-name="Acircumflex" unicode="&#xc2;" horiz-adv-x="653" 
d="M489 0l-51 161h-241l-52 -161h-153l233 706h209l229 -706h-174zM318 570l-81 -278h161zM332 854l-77 -85h-112l121 152h136l120 -152h-111z" />
    <glyph glyph-name="Atilde" unicode="&#xc3;" horiz-adv-x="653" 
d="M489 0l-51 161h-241l-52 -161h-153l233 706h209l229 -706h-174zM318 570l-81 -278h161zM230 780h-74q3 22 9.5 42t18.5 43t33 37t49 14q24 0 67.5 -18.5t61.5 -18.5q6 0 11 1.5t9 4t7 6t5 6.5t3.5 8t2.5 7.5t2 6.5t1 5h74q-20 -138 -106 -138q-25 0 -70 20t-63 20
q-7 0 -12.5 -2t-9.5 -5.5t-7 -7t-5 -9t-3 -8t-3 -8.5z" />
    <glyph glyph-name="Adieresis" unicode="&#xc4;" horiz-adv-x="653" 
d="M489 0l-51 161h-241l-52 -161h-153l233 706h209l229 -706h-174zM318 570l-81 -278h161zM158 786v120h121v-120h-58h-63zM386 786v120h120v-120h-120z" />
    <glyph glyph-name="Aring" unicode="&#xc5;" horiz-adv-x="653" 
d="M489 0l-51 161h-241l-52 -161h-153l233 706h209l229 -706h-174zM318 570l-81 -278h161zM194 897q0 58 40 98.5t98 40.5t98 -40.5t40 -98.5t-40 -98t-98 -40t-98 40t-40 98zM270 897q0 -27 17.5 -44.5t44.5 -17.5t45 17.5t18 44.5t-18 45t-45 18t-44.5 -18t-17.5 -45z" />
    <glyph glyph-name="AE" unicode="&#xc6;" horiz-adv-x="948" 
d="M892 0h-313q-72 0 -117.5 38.5t-45.5 104.5v18h-210l-58 -161h-156l260 706h665l-21 -136h-317v-151h287l-22 -131h-265v-77q0 -75 69 -75h266zM350 570l-101 -278h164v278h-63z" />
    <glyph glyph-name="Ccedilla" unicode="&#xc7;" horiz-adv-x="631" 
d="M33 354q1 164 106.5 264t267.5 100q118 0 216 -50l-63 -130q-59 32 -129 32q-96 0 -155 -59.5t-59 -156.5q0 -101 66 -161t166 -60q72 0 144 33l-18 -146q-77 -30 -158 -31l-9 -46q42 -5 73 -28.5t31 -72.5q0 -29 -15.5 -54.5t-37 -41.5t-50.5 -29t-50 -19t-41 -10
l-22 63q20 8 31.5 13t31 15.5t29.5 24.5t10 30q0 28 -24.5 41t-58.5 13l21 106q-137 21 -220 118t-83 242z" />
    <glyph glyph-name="Egrave" unicode="&#xc8;" horiz-adv-x="596" 
d="M540 0h-292q-82 0 -134.5 46t-52.5 126v534h504l-21 -136h-317v-151h287l-22 -131h-265v-77q0 -75 69 -75h266zM247 764l-142 158h173l90 -158h-121z" />
    <glyph glyph-name="Eacute" unicode="&#xc9;" horiz-adv-x="596" 
d="M540 0h-292q-82 0 -134.5 46t-52.5 126v534h504l-21 -136h-317v-151h287l-22 -131h-265v-77q0 -75 69 -75h266zM509 916l-137 -152h-121l86 152h172z" />
    <glyph glyph-name="Ecircumflex" unicode="&#xca;" horiz-adv-x="596" 
d="M540 0h-292q-82 0 -134.5 46t-52.5 126v534h504l-21 -136h-317v-151h287l-22 -131h-265v-77q0 -75 69 -75h266zM307 849l-77 -85h-112l121 152h136l120 -152h-111z" />
    <glyph glyph-name="Edieresis" unicode="&#xcb;" horiz-adv-x="596" 
d="M540 0h-292q-82 0 -134.5 46t-52.5 126v534h504l-21 -136h-317v-151h287l-22 -131h-265v-77q0 -75 69 -75h266zM134 781v120h121v-120h-58h-63zM362 781v120h120v-120h-120z" />
    <glyph glyph-name="Igrave" unicode="&#xcc;" horiz-adv-x="295" 
d="M65 0v706h166v-706h-166zM87 766l-142 158h173l90 -158h-121z" />
    <glyph glyph-name="Iacute" unicode="&#xcd;" horiz-adv-x="295" 
d="M65 0v706h166v-706h-166zM349 918l-137 -152h-121l86 152h172z" />
    <glyph glyph-name="Icircumflex" unicode="&#xce;" horiz-adv-x="295" 
d="M65 0v706h166v-706h-166zM147 851l-77 -85h-112l121 152h136l120 -152h-111z" />
    <glyph glyph-name="Idieresis" unicode="&#xcf;" horiz-adv-x="295" 
d="M65 0v706h166v-706h-166zM-26 783v120h121v-120h-58h-63zM202 783v120h120v-120h-120z" />
    <glyph glyph-name="Eth" unicode="&#xd0;" horiz-adv-x="809" 
d="M445 0h-194q-91 0 -139.5 50t-48.5 131v123h-79v115h79v287h382q157 0 245 -97.5t88 -255.5t-88 -255.5t-245 -97.5zM303 135h98q90 0 141.5 63t51.5 155t-51.5 155t-141.5 63h-172v-152h142v-115h-142v-107q0 -62 74 -62z" />
    <glyph glyph-name="Ntilde" unicode="&#xd1;" horiz-adv-x="750" 
d="M685 0h-180l-296 477v-477h-144v706h192l284 -468v468h144v-706zM273 776h-74q3 22 9.5 42t18.5 43t33 37t49 14q24 0 67.5 -18.5t61.5 -18.5q6 0 11 1.5t9 4t7 6t5 6.5t3.5 8t2.5 7.5t2 6.5t1 5h74q-20 -138 -106 -138q-25 0 -70 20t-63 20q-7 0 -12.5 -2t-9.5 -5.5
t-7 -7t-5 -9t-3 -8t-3 -8.5z" />
    <glyph glyph-name="Ograve" unicode="&#xd2;" horiz-adv-x="844" 
d="M33 353q1 173 107.5 269t282.5 96q175 0 281.5 -96t106.5 -269t-106.5 -269t-281.5 -96q-176 0 -283 96t-107 269zM217 353q0 -95 55.5 -155t150.5 -60q94 0 149 60t55 155t-55 155t-149 60q-95 0 -150.5 -60t-55.5 -155zM363 777l-142 158h173l90 -158h-121z" />
    <glyph glyph-name="Oacute" unicode="&#xd3;" horiz-adv-x="844" 
d="M33 353q1 173 107.5 269t282.5 96q175 0 281.5 -96t106.5 -269t-106.5 -269t-281.5 -96q-176 0 -283 96t-107 269zM217 353q0 -95 55.5 -155t150.5 -60q94 0 149 60t55 155t-55 155t-149 60q-95 0 -150.5 -60t-55.5 -155zM625 929l-137 -152h-121l86 152h172z" />
    <glyph glyph-name="Ocircumflex" unicode="&#xd4;" horiz-adv-x="844" 
d="M33 353q1 173 107.5 269t282.5 96q175 0 281.5 -96t106.5 -269t-106.5 -269t-281.5 -96q-176 0 -283 96t-107 269zM217 353q0 -95 55.5 -155t150.5 -60q94 0 149 60t55 155t-55 155t-149 60q-95 0 -150.5 -60t-55.5 -155zM422 862l-77 -85h-112l121 152h136l120 -152
h-111z" />
    <glyph glyph-name="Otilde" unicode="&#xd5;" horiz-adv-x="844" 
d="M33 353q1 173 107.5 269t282.5 96q175 0 281.5 -96t106.5 -269t-106.5 -269t-281.5 -96q-176 0 -283 96t-107 269zM217 353q0 -95 55.5 -155t150.5 -60q94 0 149 60t55 155t-55 155t-149 60q-95 0 -150.5 -60t-55.5 -155zM321 788h-74q3 22 9.5 42t18.5 43t33 37t49 14
q24 0 67.5 -18.5t61.5 -18.5q6 0 11 1.5t9 4t7 6t5 6.5t3.5 8t2.5 7.5t2 6.5t1 5h74q-20 -138 -106 -138q-25 0 -70 20t-63 20q-7 0 -12.5 -2t-9.5 -5.5t-7 -7t-5 -9t-3 -8t-3 -8.5z" />
    <glyph glyph-name="Odieresis" unicode="&#xd6;" horiz-adv-x="844" 
d="M33 353q1 173 107.5 269t282.5 96q175 0 281.5 -96t106.5 -269t-106.5 -269t-281.5 -96q-176 0 -283 96t-107 269zM217 353q0 -95 55.5 -155t150.5 -60q94 0 149 60t55 155t-55 155t-149 60q-95 0 -150.5 -60t-55.5 -155zM249 794v120h121v-120h-58h-63zM477 794v120h120
v-120h-120z" />
    <glyph glyph-name="multiply" unicode="&#xd7;" horiz-adv-x="867" 
d="M725 548l-191 -191l189 -192l-103 -103l-190 191l-190 -191l-98 99l189 191l-189 190l103 104l190 -190l191 191z" />
    <glyph glyph-name="Oslash" unicode="&#xd8;" horiz-adv-x="844" 
d="M33 36l78 77q-78 92 -78 240q1 174 108 269.5t282 95.5q141 0 240 -64l82 81l67 -65l-80 -78q79 -93 79 -239q0 -174 -106.5 -269.5t-281.5 -95.5q-143 0 -242 64l-82 -81zM627 353q0 61 -26 110l-298 -292q50 -33 120 -33q96 0 150 60t54 155zM217 353q0 -65 25 -112
l297 292q-49 35 -116 35q-95 0 -150.5 -60.5t-55.5 -154.5z" />
    <glyph glyph-name="Ugrave" unicode="&#xd9;" horiz-adv-x="750" 
d="M60 258v448h166v-424q0 -75 44 -111.5t112 -36.5q73 0 114.5 36.5t41.5 111.5v424h152v-448q0 -134 -85 -201.5t-223 -67.5q-62 0 -117.5 15t-102.5 46t-74.5 84.5t-27.5 123.5zM321 765l-142 158h173l90 -158h-121z" />
    <glyph glyph-name="Uacute" unicode="&#xda;" horiz-adv-x="750" 
d="M60 258v448h166v-424q0 -75 44 -111.5t112 -36.5q73 0 114.5 36.5t41.5 111.5v424h152v-448q0 -134 -85 -201.5t-223 -67.5q-62 0 -117.5 15t-102.5 46t-74.5 84.5t-27.5 123.5zM583 917l-137 -152h-121l86 152h172z" />
    <glyph glyph-name="Ucircumflex" unicode="&#xdb;" horiz-adv-x="750" 
d="M60 258v448h166v-424q0 -75 44 -111.5t112 -36.5q73 0 114.5 36.5t41.5 111.5v424h152v-448q0 -134 -85 -201.5t-223 -67.5q-62 0 -117.5 15t-102.5 46t-74.5 84.5t-27.5 123.5zM381 850l-77 -85h-112l121 152h136l120 -152h-111z" />
    <glyph glyph-name="Udieresis" unicode="&#xdc;" horiz-adv-x="750" 
d="M60 258v448h166v-424q0 -75 44 -111.5t112 -36.5q73 0 114.5 36.5t41.5 111.5v424h152v-448q0 -134 -85 -201.5t-223 -67.5q-62 0 -117.5 15t-102.5 46t-74.5 84.5t-27.5 123.5zM208 782v120h121v-120h-58h-63zM436 782v120h120v-120h-120z" />
    <glyph glyph-name="Yacute" unicode="&#xdd;" horiz-adv-x="610" 
d="M35 479v227h166v-203q0 -53 30.5 -79.5t80.5 -26.5q51 0 78.5 28t27.5 77v204h156v-238q0 -179 -177 -202v-266h-167v266q-95 8 -145 62.5t-50 150.5zM512 917l-137 -152h-121l86 152h172z" />
    <glyph glyph-name="Thorn" unicode="&#xde;" horiz-adv-x="707" 
d="M231 706v-109h235q108 0 165.5 -66.5t57.5 -165.5q0 -97 -62.5 -164.5t-175.5 -66.5h-131q-29 0 -48 9.5t-25.5 18t-15.5 25.5v-187h-166v706h166zM410 462h-179v-132q0 -60 80 -60h96q53 0 78 26.5t25 69.5q0 53 -25 74.5t-75 21.5z" />
    <glyph glyph-name="germandbls" unicode="&#xdf;" horiz-adv-x="674" 
d="M53 0v470q0 132 72 189t202 57q107 0 180.5 -43.5t73.5 -132.5q0 -99 -90 -128q75 -12 116 -65t41 -132q0 -110 -65 -166t-180 -56q-87 0 -148 29v137q59 -48 123 -48q48 0 77.5 28t29.5 77q0 114 -138 114h-90v117h67q98 0 98 77q0 34 -26 56.5t-73 22.5
q-118 0 -118 -114v-489h-152z" />
    <glyph glyph-name="agrave" unicode="&#xe0;" horiz-adv-x="670" 
d="M626 247v-247h-150v65q-67 -73 -180 -73q-118 0 -194.5 73t-76.5 193q0 121 82.5 198.5t217.5 77.5q140 0 220.5 -78t80.5 -209zM461 262q0 62 -38 101t-100 39q-61 0 -99 -40t-38 -100q0 -62 37.5 -101t99.5 -39t100 39t38 101zM266 603l-142 158h173l90 -158h-121z" />
    <glyph glyph-name="aacute" unicode="&#xe1;" horiz-adv-x="670" 
d="M626 247v-247h-150v65q-67 -73 -180 -73q-118 0 -194.5 73t-76.5 193q0 121 82.5 198.5t217.5 77.5q140 0 220.5 -78t80.5 -209zM461 262q0 62 -38 101t-100 39q-61 0 -99 -40t-38 -100q0 -62 37.5 -101t99.5 -39t100 39t38 101zM528 755l-137 -152h-121l86 152h172z" />
    <glyph glyph-name="acircumflex" unicode="&#xe2;" horiz-adv-x="670" 
d="M626 247v-247h-150v65q-67 -73 -180 -73q-118 0 -194.5 73t-76.5 193q0 121 82.5 198.5t217.5 77.5q140 0 220.5 -78t80.5 -209zM461 262q0 62 -38 101t-100 39q-61 0 -99 -40t-38 -100q0 -62 37.5 -101t99.5 -39t100 39t38 101zM326 688l-77 -85h-112l121 152h136
l120 -152h-111z" />
    <glyph glyph-name="atilde" unicode="&#xe3;" horiz-adv-x="670" 
d="M626 247v-247h-150v65q-67 -73 -180 -73q-118 0 -194.5 73t-76.5 193q0 121 82.5 198.5t217.5 77.5q140 0 220.5 -78t80.5 -209zM461 262q0 62 -38 101t-100 39q-61 0 -99 -40t-38 -100q0 -62 37.5 -101t99.5 -39t100 39t38 101zM224 614h-74q3 22 9.5 42t18.5 43t33 37
t49 14q24 0 67.5 -18.5t61.5 -18.5q6 0 11 1.5t9 4t7 6t5 6.5t3.5 8t2.5 7.5t2 6.5t1 5h74q-20 -138 -106 -138q-25 0 -70 20t-63 20q-7 0 -12.5 -2t-9.5 -5.5t-7 -7t-5 -9t-3 -8t-2 -8.5z" />
    <glyph glyph-name="adieresis" unicode="&#xe4;" horiz-adv-x="670" 
d="M626 247v-247h-150v65q-67 -73 -180 -73q-118 0 -194.5 73t-76.5 193q0 121 82.5 198.5t217.5 77.5q140 0 220.5 -78t80.5 -209zM461 262q0 62 -38 101t-100 39q-61 0 -99 -40t-38 -100q0 -62 37.5 -101t99.5 -39t100 39t38 101zM153 620v120h121v-120h-58h-63zM381 620
v120h120v-120h-120z" />
    <glyph glyph-name="aring" unicode="&#xe5;" horiz-adv-x="670" 
d="M626 247v-247h-150v65q-67 -73 -180 -73q-118 0 -194.5 73t-76.5 193q0 121 82.5 198.5t217.5 77.5q140 0 220.5 -78t80.5 -209zM461 262q0 62 -38 101t-100 39q-61 0 -99 -40t-38 -100q0 -62 37.5 -101t99.5 -39t100 39t38 101zM189 731q0 58 40 98.5t98 40.5t98 -40.5
t40 -98.5t-40 -98t-98 -40t-98 40t-40 98zM265 731q0 -27 17.5 -44.5t44.5 -17.5t45 17.5t18 44.5t-18 45t-45 18t-44.5 -18t-17.5 -45z" />
    <glyph glyph-name="ae" unicode="&#xe6;" horiz-adv-x="1047" 
d="M923 133l-10 -118q-58 -25 -145 -25q-106 0 -177 60v-50h-115v65q-67 -73 -180 -73q-118 0 -194.5 73t-76.5 193q0 121 78 198.5t205 77.5q153 0 227 -104q73 104 217 104q137 0 207.5 -83t68.5 -227h-396q10 -61 58.5 -90t108.5 -29q63 0 124 28zM461 262q0 62 -38 101
t-100 39q-61 0 -99 -40t-38 -100q0 -62 37.5 -101t99.5 -39t100 39t38 101zM748 426q-48 0 -79.5 -27.5t-41.5 -72.5h235q-6 47 -36.5 73.5t-77.5 26.5z" />
    <glyph glyph-name="ccedilla" unicode="&#xe7;" horiz-adv-x="464" 
d="M25 263q0 123 76.5 197t201.5 74q83 0 156 -34l-43 -118q-41 25 -89 25q-64 0 -101.5 -38.5t-37.5 -105.5q0 -66 40.5 -106.5t108.5 -39.5q51 0 97 23l-13 -127q-46 -22 -113 -24l-9 -44q43 -5 73.5 -28t30.5 -72q0 -29 -15.5 -54.5t-37 -41.5t-50.5 -29t-50 -19t-41 -10
l-22 62q102 38 102 84q0 28 -24.5 41t-58.5 13q3 16 22 107q-94 21 -148.5 91.5t-54.5 173.5z" />
    <glyph glyph-name="egrave" unicode="&#xe8;" horiz-adv-x="611" 
d="M486 133l-10 -118q-61 -25 -150 -25q-134 0 -217.5 74.5t-83.5 203.5q0 116 77.5 191t204.5 75q141 0 213.5 -83t70.5 -227h-396q10 -60 59 -89.5t109 -29.5q64 0 123 28zM312 426q-48 0 -80 -27.5t-42 -72.5h236q-6 47 -36.5 73.5t-77.5 26.5zM248 603l-142 158h173
l90 -158h-121z" />
    <glyph glyph-name="eacute" unicode="&#xe9;" horiz-adv-x="611" 
d="M486 133l-10 -118q-61 -25 -150 -25q-134 0 -217.5 74.5t-83.5 203.5q0 116 77.5 191t204.5 75q141 0 213.5 -83t70.5 -227h-396q10 -60 59 -89.5t109 -29.5q64 0 123 28zM312 426q-48 0 -80 -27.5t-42 -72.5h236q-6 47 -36.5 73.5t-77.5 26.5zM511 755l-137 -152h-121
l86 152h172z" />
    <glyph glyph-name="ecircumflex" unicode="&#xea;" horiz-adv-x="611" 
d="M486 133l-10 -118q-61 -25 -150 -25q-134 0 -217.5 74.5t-83.5 203.5q0 116 77.5 191t204.5 75q141 0 213.5 -83t70.5 -227h-396q10 -60 59 -89.5t109 -29.5q64 0 123 28zM312 426q-48 0 -80 -27.5t-42 -72.5h236q-6 47 -36.5 73.5t-77.5 26.5zM308 688l-77 -85h-112
l121 152h136l120 -152h-111z" />
    <glyph glyph-name="edieresis" unicode="&#xeb;" horiz-adv-x="611" 
d="M486 133l-10 -118q-61 -25 -150 -25q-134 0 -217.5 74.5t-83.5 203.5q0 116 77.5 191t204.5 75q141 0 213.5 -83t70.5 -227h-396q10 -60 59 -89.5t109 -29.5q64 0 123 28zM312 426q-48 0 -80 -27.5t-42 -72.5h236q-6 47 -36.5 73.5t-77.5 26.5zM135 620v120h121v-120h-58
h-63zM363 620v120h120v-120h-120z" />
    <glyph glyph-name="igrave" unicode="&#xec;" horiz-adv-x="256" 
d="M50 527h156v-527h-156v527zM67 593l-142 158h173l90 -158h-121z" />
    <glyph glyph-name="iacute" unicode="&#xed;" horiz-adv-x="256" 
d="M50 527h156v-527h-156v527zM330 745l-137 -152h-121l86 152h172z" />
    <glyph glyph-name="icircumflex" unicode="&#xee;" horiz-adv-x="256" 
d="M50 527h156v-527h-156v527zM127 678l-77 -85h-112l121 152h136l120 -152h-111z" />
    <glyph glyph-name="idieresis" unicode="&#xef;" horiz-adv-x="256" 
d="M50 527h156v-527h-156v527zM-24 620v120h121v-120h-58h-63zM159 620v120h120v-120h-120z" />
    <glyph glyph-name="eth" unicode="&#xf0;" horiz-adv-x="648" 
d="M184 518l55 48q-43 16 -89 24l42 115q85 -17 153 -48l79 67l53 -53l-60 -53q106 -69 156.5 -168.5t50.5 -204.5q0 -123 -84 -190t-216 -66q-128 0 -214 62t-86 172q0 109 82 169.5t192 60.5q94 0 155 -37q-37 64 -136 117l-80 -69zM187 226q0 -52 39.5 -82t97.5 -30
q60 0 99 30t39 82t-40 82.5t-98 30.5t-97.5 -30.5t-39.5 -82.5z" />
    <glyph glyph-name="ntilde" unicode="&#xf1;" 
d="M405 0v278q0 123 -102 123q-103 0 -103 -123v-278h-153v316q0 109 70.5 163.5t185.5 54.5t185 -54.5t70 -163.5v-316h-153zM200 614h-74q3 22 9.5 42t18.5 43t33 37t49 14q24 0 67.5 -18.5t61.5 -18.5q6 0 11 1.5t9 4t7 6t5 6.5t3.5 8t2.5 7.5t2 6.5t1 5h74
q-20 -138 -106 -138q-25 0 -70 20t-63 20q-7 0 -12.5 -2t-9.5 -5.5t-7 -7t-5 -9t-3 -8t-2 -8.5z" />
    <glyph glyph-name="ograve" unicode="&#xf2;" horiz-adv-x="651" 
d="M25 262q0 128 87 200t213 72q129 0 214.5 -72t85.5 -200t-85.5 -200t-214.5 -72q-128 0 -214 72t-86 200zM188 262q0 -64 38 -102t99 -38t99.5 38t38.5 102q-1 63 -39 101t-99 39q-59 0 -98 -38.5t-39 -101.5zM265 603l-142 158h173l90 -158h-121z" />
    <glyph glyph-name="oacute" unicode="&#xf3;" horiz-adv-x="651" 
d="M25 262q0 128 87 200t213 72q129 0 214.5 -72t85.5 -200t-85.5 -200t-214.5 -72q-128 0 -214 72t-86 200zM188 262q0 -64 38 -102t99 -38t99.5 38t38.5 102q-1 63 -39 101t-99 39q-59 0 -98 -38.5t-39 -101.5zM527 755l-137 -152h-121l86 152h172z" />
    <glyph glyph-name="ocircumflex" unicode="&#xf4;" horiz-adv-x="651" 
d="M25 262q0 128 87 200t213 72q129 0 214.5 -72t85.5 -200t-85.5 -200t-214.5 -72q-128 0 -214 72t-86 200zM188 262q0 -64 38 -102t99 -38t99.5 38t38.5 102q-1 63 -39 101t-99 39q-59 0 -98 -38.5t-39 -101.5zM324 688l-77 -85h-112l121 152h136l120 -152h-111z" />
    <glyph glyph-name="otilde" unicode="&#xf5;" horiz-adv-x="651" 
d="M25 262q0 128 87 200t213 72q129 0 214.5 -72t85.5 -200t-85.5 -200t-214.5 -72q-128 0 -214 72t-86 200zM188 262q0 -64 38 -102t99 -38t99.5 38t38.5 102q-1 63 -39 101t-99 39q-59 0 -98 -38.5t-39 -101.5zM223 614h-74q3 22 9.5 42t18.5 43t33 37t49 14
q24 0 67.5 -18.5t61.5 -18.5q6 0 11 1.5t9 4t7 6t5 6.5t3.5 8t2.5 7.5t2 6.5t1 5h74q-20 -138 -106 -138q-25 0 -70 20t-63 20q-7 0 -12.5 -2t-9.5 -5.5t-7 -7t-5 -9t-3 -8t-3 -8.5z" />
    <glyph glyph-name="odieresis" unicode="&#xf6;" horiz-adv-x="651" 
d="M25 262q0 128 87 200t213 72q129 0 214.5 -72t85.5 -200t-85.5 -200t-214.5 -72q-128 0 -214 72t-86 200zM188 262q0 -64 38 -102t99 -38t99.5 38t38.5 102q-1 63 -39 101t-99 39q-59 0 -98 -38.5t-39 -101.5zM151 620v120h121v-120h-58h-63zM379 620v120h120v-120h-120z
" />
    <glyph glyph-name="divide" unicode="&#xf7;" horiz-adv-x="867" 
d="M723 283h-580v141h580v-141zM364 218h139v-140h-139v140zM364 628h139v-139h-139v72v67z" />
    <glyph glyph-name="oslash" unicode="&#xf8;" horiz-adv-x="652" 
d="M26 262q0 128 87 200t213 72q103 0 179 -47l66 63l55 -56l-61 -58q60 -69 61 -174q0 -128 -85.5 -200t-214.5 -72q-105 0 -179 46l-67 -64l-55 56l61 59q-60 69 -60 175zM188 262q0 -34 13 -65l196 187q-30 16 -71 18q-59 0 -98.5 -38.5t-39.5 -101.5zM463 262
q0 37 -13 64l-195 -187q31 -17 71 -17q61 0 99.5 38t37.5 102z" />
    <glyph glyph-name="ugrave" unicode="&#xf9;" 
d="M405 245v282h153v-320q0 -108 -70 -162.5t-185 -54.5q-116 0 -186 54.5t-70 162.5v320h153v-282q0 -123 103 -123q102 0 102 123zM243 593l-142 158h173l90 -158h-121z" />
    <glyph glyph-name="uacute" unicode="&#xfa;" 
d="M405 245v282h153v-320q0 -108 -70 -162.5t-185 -54.5q-116 0 -186 54.5t-70 162.5v320h153v-282q0 -123 103 -123q102 0 102 123zM505 745l-137 -152h-121l86 152h172z" />
    <glyph glyph-name="ucircumflex" unicode="&#xfb;" 
d="M405 245v282h153v-320q0 -108 -70 -162.5t-185 -54.5q-116 0 -186 54.5t-70 162.5v320h153v-282q0 -123 103 -123q102 0 102 123zM303 678l-77 -85h-112l121 152h136l120 -152h-111z" />
    <glyph glyph-name="udieresis" unicode="&#xfc;" 
d="M405 245v282h153v-320q0 -108 -70 -162.5t-185 -54.5q-116 0 -186 54.5t-70 162.5v320h153v-282q0 -123 103 -123q102 0 102 123zM130 610v120h121v-120h-58h-63zM358 610v120h120v-120h-120z" />
    <glyph glyph-name="yacute" unicode="&#xfd;" horiz-adv-x="606" 
d="M465 -184h-179q5 4 12.5 11.5t27 32t34.5 51t28.5 66t14.5 79.5q-50 -66 -149 -66q-207 0 -207 211v326h153v-279q0 -62 21 -94t75 -32q109 0 109 125v280h153v-448q0 -45 -9.5 -89t-23 -74t-27.5 -53.5t-24 -34.5zM504 745l-137 -152h-121l86 152h172z" />
    <glyph glyph-name="thorn" unicode="&#xfe;" horiz-adv-x="666" 
d="M50 -183v889h153v-236q66 64 170 64q118 0 192.5 -76.5t74.5 -198.5q0 -116 -73.5 -192.5t-190.5 -76.5q-116 0 -173 65v-238h-153zM204 262q0 -62 38.5 -101t100.5 -39t99.5 39t37.5 101q0 60 -38 100t-99 40q-62 0 -100.5 -39t-38.5 -101z" />
    <glyph glyph-name="ydieresis" unicode="&#xff;" horiz-adv-x="606" 
d="M465 -184h-179q5 4 12.5 11.5t27 32t34.5 51t28.5 66t14.5 79.5q-50 -66 -149 -66q-207 0 -207 211v326h153v-279q0 -62 21 -94t75 -32q109 0 109 125v280h153v-448q0 -45 -9.5 -89t-23 -74t-27.5 -53.5t-24 -34.5zM129 610v120h121v-120h-58h-63zM357 610v120h120v-120
h-120z" />
    <glyph glyph-name="Amacron" unicode="&#x100;" horiz-adv-x="653" 
d="M489 0l-51 161h-241l-52 -161h-153l233 706h209l229 -706h-174zM318 570l-81 -278h161zM174 800v91h318v-91h-318z" />
    <glyph glyph-name="amacron" unicode="&#x101;" horiz-adv-x="670" 
d="M626 247v-247h-150v65q-67 -73 -180 -73q-118 0 -194.5 73t-76.5 193q0 121 82.5 198.5t217.5 77.5q140 0 220.5 -78t80.5 -209zM461 262q0 62 -38 101t-100 39q-61 0 -99 -40t-38 -100q0 -62 37.5 -101t99.5 -39t100 39t38 101zM166 634v91h318v-91h-318z" />
    <glyph glyph-name="Abreve" unicode="&#x102;" horiz-adv-x="653" 
d="M489 0l-51 161h-241l-52 -161h-153l233 706h209l229 -706h-174zM318 570l-81 -278h161zM332 859q56 0 64 65h102q-8 -76 -55 -110.5t-111 -34.5t-111 34.5t-55 110.5h102q8 -65 64 -65z" />
    <glyph glyph-name="abreve" unicode="&#x103;" horiz-adv-x="670" 
d="M626 247v-247h-150v65q-67 -73 -180 -73q-118 0 -194.5 73t-76.5 193q0 121 82.5 198.5t217.5 77.5q140 0 220.5 -78t80.5 -209zM461 262q0 62 -38 101t-100 39q-61 0 -99 -40t-38 -100q0 -62 37.5 -101t99.5 -39t100 39t38 101zM327 693q56 0 64 65h102
q-8 -76 -55 -110.5t-111 -34.5t-111 34.5t-55 110.5h102q8 -65 64 -65z" />
    <glyph glyph-name="Aogonek" unicode="&#x104;" horiz-adv-x="653" 
d="M561 0h-72l-51 161h-241l-52 -161h-153l233 706h209l229 -706q-48 -24 -73 -54t-25 -58t18 -43.5t43 -15.5q34 0 70 13l-7 -78q-41 -13 -98 -13q-50 0 -92 26.5t-42 86.5q0 43 31 79t73 57zM237 292h161l-80 279z" />
    <glyph glyph-name="aogonek" unicode="&#x105;" horiz-adv-x="670" 
d="M526 0h-50v65q-67 -73 -180 -73q-118 0 -194.5 73t-76.5 193q0 121 82.5 198.5t217.5 77.5q140 0 220.5 -78t80.5 -209v-247q-48 -24 -73 -54t-25 -58t18 -43.5t43 -15.5q34 0 70 13l-7 -78q-41 -13 -98 -13q-50 0 -92 26.5t-42 86.5q0 43 31.5 79t74.5 57zM461 262
q0 62 -38 101t-100 39q-61 0 -99 -40t-38 -100q0 -62 37.5 -101t99.5 -39t100 39t38 101z" />
    <glyph glyph-name="Cacute" unicode="&#x106;" horiz-adv-x="631" 
d="M33 354q1 164 106.5 264t267.5 100q118 0 216 -50l-63 -130q-59 32 -129 32q-96 0 -155 -59.5t-59 -156.5q0 -101 66 -161t166 -60q72 0 144 33l-18 -146q-83 -32 -167 -32q-165 0 -270 101t-105 265zM605 930l-137 -152h-121l86 152h172z" />
    <glyph glyph-name="cacute" unicode="&#x107;" horiz-adv-x="464" 
d="M434 140l-13 -127q-49 -24 -116 -24q-125 0 -202.5 75t-77.5 199q0 123 76.5 197t201.5 74q83 0 156 -34l-43 -118q-41 25 -89 25q-64 0 -101.5 -38.5t-37.5 -105.5q0 -66 40.5 -106.5t108.5 -39.5q51 0 97 23zM492 755l-137 -152h-121l86 152h172z" />
    <glyph glyph-name="Ccircumflex" unicode="&#x108;" horiz-adv-x="631" 
d="M33 354q1 164 106.5 264t267.5 100q118 0 216 -50l-63 -130q-59 32 -129 32q-96 0 -155 -59.5t-59 -156.5q0 -101 66 -161t166 -60q72 0 144 33l-18 -146q-83 -32 -167 -32q-165 0 -270 101t-105 265zM402 863l-77 -85h-112l121 152h136l120 -152h-111z" />
    <glyph glyph-name="ccircumflex" unicode="&#x109;" horiz-adv-x="464" 
d="M434 140l-13 -127q-49 -24 -116 -24q-125 0 -202.5 75t-77.5 199q0 123 76.5 197t201.5 74q83 0 156 -34l-43 -118q-41 25 -89 25q-64 0 -101.5 -38.5t-37.5 -105.5q0 -66 40.5 -106.5t108.5 -39.5q51 0 97 23zM289 688l-77 -85h-112l121 152h136l120 -152h-111z" />
    <glyph glyph-name="Cdotaccent" unicode="&#x10a;" horiz-adv-x="631" 
d="M33 354q1 164 106.5 264t267.5 100q118 0 216 -50l-63 -130q-59 32 -129 32q-96 0 -155 -59.5t-59 -156.5q0 -101 66 -161t166 -60q72 0 144 33l-18 -146q-83 -32 -167 -32q-165 0 -270 101t-105 265zM343 802v121h121v-121h-121z" />
    <glyph glyph-name="cdotaccent" unicode="&#x10b;" horiz-adv-x="464" 
d="M434 140l-13 -127q-49 -24 -116 -24q-125 0 -202.5 75t-77.5 199q0 123 76.5 197t201.5 74q83 0 156 -34l-43 -118q-41 25 -89 25q-64 0 -101.5 -38.5t-37.5 -105.5q0 -66 40.5 -106.5t108.5 -39.5q51 0 97 23zM230 627v121h121v-121h-121z" />
    <glyph glyph-name="Ccaron" unicode="&#x10c;" horiz-adv-x="631" 
d="M33 354q1 164 106.5 264t267.5 100q118 0 216 -50l-63 -130q-59 32 -129 32q-96 0 -155 -59.5t-59 -156.5q0 -101 66 -161t166 -60q72 0 144 33l-18 -146q-83 -32 -167 -32q-165 0 -270 101t-105 265zM326 930l77 -84l77 84h111l-120 -152h-136l-121 152h112z" />
    <glyph glyph-name="ccaron" unicode="&#x10d;" horiz-adv-x="464" 
d="M434 140l-13 -127q-49 -24 -116 -24q-125 0 -202.5 75t-77.5 199q0 123 76.5 197t201.5 74q83 0 156 -34l-43 -118q-41 25 -89 25q-64 0 -101.5 -38.5t-37.5 -105.5q0 -66 40.5 -106.5t108.5 -39.5q51 0 97 23zM213 755l77 -84l77 84h111l-120 -152h-136l-121 152h112z
" />
    <glyph glyph-name="Dcaron" unicode="&#x10e;" horiz-adv-x="808" 
d="M444 0h-195q-91 0 -139.5 50t-48.5 131v525h383q156 0 244 -97.5t88 -255.5t-88 -255.5t-244 -97.5zM301 135h98q90 0 141.5 63t51.5 155t-51.5 155t-141.5 63h-172v-374q0 -62 74 -62zM290 917l77 -84l77 84h111l-120 -152h-136l-121 152h112z" />
    <glyph glyph-name="dcaron" unicode="&#x10f;" horiz-adv-x="777" 
d="M616 706v-413q0 -143 -79.5 -223t-220.5 -80q-129 0 -210 77t-81 195q0 122 76.5 197t200.5 75q53 0 95.5 -17.5t65.5 -42.5v232h153zM461 262q0 62 -38 101t-100 39t-99.5 -39t-37.5 -101q0 -61 38 -100.5t99 -39.5q62 0 100 39t38 101zM728 500l-70 60q33 22 33 66v80
h108v-80q0 -43 -16 -72t-55 -54z" />
    <glyph glyph-name="Dcroat" unicode="&#x110;" horiz-adv-x="809" 
d="M445 0h-194q-91 0 -139.5 50t-48.5 131v123h-79v115h79v287h382q157 0 245 -97.5t88 -255.5t-88 -255.5t-245 -97.5zM303 135h98q90 0 141.5 63t51.5 155t-51.5 155t-141.5 63h-172v-152h142v-115h-142v-107q0 -62 74 -62z" />
    <glyph glyph-name="dcroat" unicode="&#x111;" horiz-adv-x="660" 
d="M308 572v81h155v53h153v-53h62v-81h-62v-279q0 -143 -79.5 -223t-220.5 -80q-129 0 -210 77t-81 195q0 122 76.5 197t200.5 75q53 0 95.5 -17.5t65.5 -42.5v98h-155zM461 262q0 62 -38 101t-100 39t-99.5 -39t-37.5 -101q0 -61 38 -100.5t99 -39.5q62 0 100 39t38 101z
" />
    <glyph glyph-name="Emacron" unicode="&#x112;" horiz-adv-x="596" 
d="M540 0h-292q-82 0 -134.5 46t-52.5 126v534h504l-21 -136h-317v-151h287l-22 -131h-265v-77q0 -75 69 -75h266zM147 795v91h318v-91h-318z" />
    <glyph glyph-name="emacron" unicode="&#x113;" horiz-adv-x="611" 
d="M486 133l-10 -118q-61 -25 -150 -25q-134 0 -217.5 74.5t-83.5 203.5q0 116 77.5 191t204.5 75q141 0 213.5 -83t70.5 -227h-396q10 -60 59 -89.5t109 -29.5q64 0 123 28zM312 426q-48 0 -80 -27.5t-42 -72.5h236q-6 47 -36.5 73.5t-77.5 26.5zM148 634v91h318v-91h-318z
" />
    <glyph glyph-name="Ebreve" unicode="&#x114;" horiz-adv-x="596" 
d="M540 0h-292q-82 0 -134.5 46t-52.5 126v534h504l-21 -136h-317v-151h287l-22 -131h-265v-77q0 -75 69 -75h266zM308 854q56 0 64 65h102q-8 -76 -55 -110.5t-111 -34.5t-111 34.5t-55 110.5h102q8 -65 64 -65z" />
    <glyph glyph-name="ebreve" unicode="&#x115;" horiz-adv-x="611" 
d="M486 133l-10 -118q-61 -25 -150 -25q-134 0 -217.5 74.5t-83.5 203.5q0 116 77.5 191t204.5 75q141 0 213.5 -83t70.5 -227h-396q10 -60 59 -89.5t109 -29.5q64 0 123 28zM312 426q-48 0 -80 -27.5t-42 -72.5h236q-6 47 -36.5 73.5t-77.5 26.5zM309 693q56 0 64 65h102
q-8 -76 -55 -110.5t-111 -34.5t-111 34.5t-55 110.5h102q8 -65 64 -65z" />
    <glyph glyph-name="Edotaccent" unicode="&#x116;" horiz-adv-x="596" 
d="M540 0h-292q-82 0 -134.5 46t-52.5 126v534h504l-21 -136h-317v-151h287l-22 -131h-265v-77q0 -75 69 -75h266zM248 788v121h121v-121h-121z" />
    <glyph glyph-name="edotaccent" unicode="&#x117;" horiz-adv-x="611" 
d="M486 133l-10 -118q-61 -25 -150 -25q-134 0 -217.5 74.5t-83.5 203.5q0 116 77.5 191t204.5 75q141 0 213.5 -83t70.5 -227h-396q10 -60 59 -89.5t109 -29.5q64 0 123 28zM312 426q-48 0 -80 -27.5t-42 -72.5h236q-6 47 -36.5 73.5t-77.5 26.5zM249 627v121h121v-121
h-121z" />
    <glyph glyph-name="Eogonek" unicode="&#x118;" horiz-adv-x="596" 
d="M435 0h-187q-82 0 -134.5 46t-52.5 126v534h504l-21 -136h-317v-151h287l-22 -131h-265v-77q0 -75 69 -75h266l-22 -136q-50 -22 -76 -53t-26 -59t18 -43.5t43 -15.5q34 0 70 13l-7 -78q-41 -13 -98 -13q-50 0 -92 26.5t-42 86.5q0 44 31 79t74 57z" />
    <glyph glyph-name="eogonek" unicode="&#x119;" horiz-adv-x="611" 
d="M486 133l-10 -118q-43 -19 -70.5 -50.5t-27.5 -61.5q0 -28 18 -43t43 -15q34 0 70 13l-7 -79q-41 -13 -98 -13q-50 0 -92 26.5t-42 86.5q0 61 61 111h-5q-134 0 -217.5 74.5t-83.5 203.5q0 116 77.5 191t204.5 75q141 0 213.5 -83t70.5 -227h-396q10 -60 59 -89.5
t109 -29.5q64 0 123 28zM312 426q-48 0 -80 -27.5t-42 -72.5h236q-6 47 -36.5 73.5t-77.5 26.5z" />
    <glyph glyph-name="Ecaron" unicode="&#x11a;" horiz-adv-x="596" 
d="M540 0h-292q-82 0 -134.5 46t-52.5 126v534h504l-21 -136h-317v-151h287l-22 -131h-265v-77q0 -75 69 -75h266zM231 916l77 -84l77 84h111l-120 -152h-136l-121 152h112z" />
    <glyph glyph-name="ecaron" unicode="&#x11b;" horiz-adv-x="611" 
d="M486 133l-10 -118q-61 -25 -150 -25q-134 0 -217.5 74.5t-83.5 203.5q0 116 77.5 191t204.5 75q141 0 213.5 -83t70.5 -227h-396q10 -60 59 -89.5t109 -29.5q64 0 123 28zM312 426q-48 0 -80 -27.5t-42 -72.5h236q-6 47 -36.5 73.5t-77.5 26.5zM232 755l77 -84l77 84h111
l-120 -152h-136l-121 152h112z" />
    <glyph glyph-name="Gcircumflex" unicode="&#x11c;" horiz-adv-x="810" 
d="M592 63q-36 -37 -91.5 -56t-114.5 -19q-154 0 -253.5 101t-99.5 258q0 172 107 271.5t286 99.5q165 0 271 -83l-72 -119q-76 62 -188 62q-97 0 -157 -61t-60 -164q0 -98 56.5 -158.5t151.5 -60.5q63 0 108.5 27t46.5 82v54h-229l19 133h376v-320q0 -65 35 -110h-171
q-17 26 -21 63zM427 862l-77 -85h-112l121 152h136l120 -152h-111z" />
    <glyph glyph-name="gcircumflex" unicode="&#x11d;" horiz-adv-x="669" 
d="M626 239v-118q0 -99 -18 -161t-84 -144h-180q114 94 135 255q-27 -40 -76.5 -59.5t-106.5 -19.5q-120 0 -195.5 74t-75.5 194q0 124 85.5 199t207.5 75q143 0 225.5 -77.5t82.5 -217.5zM461 262q0 62 -38 101t-100 39q-61 0 -99 -39.5t-38 -100.5q0 -62 37.5 -101
t99.5 -39t100 39t38 101zM323 688l-77 -85h-112l121 152h136l120 -152h-111z" />
    <glyph glyph-name="Gbreve" unicode="&#x11e;" horiz-adv-x="810" 
d="M592 63q-36 -37 -91.5 -56t-114.5 -19q-154 0 -253.5 101t-99.5 258q0 172 107 271.5t286 99.5q165 0 271 -83l-72 -119q-76 62 -188 62q-97 0 -157 -61t-60 -164q0 -98 56.5 -158.5t151.5 -60.5q63 0 108.5 27t46.5 82v54h-229l19 133h376v-320q0 -65 35 -110h-171
q-17 26 -21 63zM428 867q56 0 64 65h102q-8 -76 -55 -110.5t-111 -34.5t-111 34.5t-55 110.5h102q8 -65 64 -65z" />
    <glyph glyph-name="gbreve" unicode="&#x11f;" horiz-adv-x="669" 
d="M626 239v-118q0 -99 -18 -161t-84 -144h-180q114 94 135 255q-27 -40 -76.5 -59.5t-106.5 -19.5q-120 0 -195.5 74t-75.5 194q0 124 85.5 199t207.5 75q143 0 225.5 -77.5t82.5 -217.5zM461 262q0 62 -38 101t-100 39q-61 0 -99 -39.5t-38 -100.5q0 -62 37.5 -101
t99.5 -39t100 39t38 101zM324 693q56 0 64 65h102q-8 -76 -55 -110.5t-111 -34.5t-111 34.5t-55 110.5h102q8 -65 64 -65z" />
    <glyph glyph-name="Gdotaccent" unicode="&#x120;" horiz-adv-x="810" 
d="M592 63q-36 -37 -91.5 -56t-114.5 -19q-154 0 -253.5 101t-99.5 258q0 172 107 271.5t286 99.5q165 0 271 -83l-72 -119q-76 62 -188 62q-97 0 -157 -61t-60 -164q0 -98 56.5 -158.5t151.5 -60.5q63 0 108.5 27t46.5 82v54h-229l19 133h376v-320q0 -65 35 -110h-171
q-17 26 -21 63zM368 801v121h121v-121h-121z" />
    <glyph glyph-name="gdotaccent" unicode="&#x121;" horiz-adv-x="669" 
d="M626 239v-118q0 -99 -18 -161t-84 -144h-180q114 94 135 255q-27 -40 -76.5 -59.5t-106.5 -19.5q-120 0 -195.5 74t-75.5 194q0 124 85.5 199t207.5 75q143 0 225.5 -77.5t82.5 -217.5zM461 262q0 62 -38 101t-100 39q-61 0 -99 -39.5t-38 -100.5q0 -62 37.5 -101
t99.5 -39t100 39t38 101zM264 620v121h121v-121h-121z" />
    <glyph glyph-name="Gcommaaccent" unicode="&#x122;" horiz-adv-x="810" 
d="M592 63q-36 -37 -91.5 -56t-114.5 -19q-154 0 -253.5 101t-99.5 258q0 172 107 271.5t286 99.5q165 0 271 -83l-72 -119q-76 62 -188 62q-97 0 -157 -61t-60 -164q0 -98 56.5 -158.5t151.5 -60.5q63 0 108.5 27t46.5 82v54h-229l19 133h376v-320q0 -65 35 -110h-171
q-17 26 -21 63zM404 -272l-70 59q33 23 33 67v80h108v-80q0 -43 -16 -72t-55 -54z" />
    <glyph glyph-name="gcommaaccent" unicode="&#x123;" horiz-adv-x="669" 
d="M626 239v-118q0 -99 -18 -161t-84 -144h-180q114 94 135 255q-27 -40 -76.5 -59.5t-106.5 -19.5q-120 0 -195.5 74t-75.5 194q0 124 85.5 199t207.5 75q143 0 225.5 -77.5t82.5 -217.5zM461 262q0 62 -38 101t-100 39q-61 0 -99 -39.5t-38 -100.5q0 -62 37.5 -101
t99.5 -39t100 39t38 101zM342 822l70 -59q-33 -23 -33 -67v-80h-108v80q0 43 16 72t55 54z" />
    <glyph glyph-name="Hcircumflex" unicode="&#x124;" horiz-adv-x="748" 
d="M65 0v706h167v-281h285v281h166v-706h-166v290h-286v-290h-166zM373 850l-77 -85h-112l121 152h136l120 -152h-111z" />
    <glyph glyph-name="hcircumflex" unicode="&#x125;" horiz-adv-x="608" 
d="M50 706h153v-233q56 61 150 61q99 0 153.5 -54t54.5 -164v-316h-153v292q0 117 -98 117q-45 0 -76 -27t-31 -81v-301h-153v706zM119 851l-77 -85h-112l121 152h136l120 -152h-111z" />
    <glyph glyph-name="Hbar" unicode="&#x126;" horiz-adv-x="754" 
d="M1 487v114h67v105h167v-105h285v105h166v-105h67v-114h-67v-487h-166v270h-286v-270h-166v487h-67zM235 405h285v82h-285v-82z" />
    <glyph glyph-name="hbar" unicode="&#x127;" horiz-adv-x="608" 
d="M50 706h153v-53h164v-81h-164v-99q56 61 150 61q99 0 153.5 -54t54.5 -164v-316h-153v292q0 117 -98 117q-45 0 -76 -27t-31 -81v-301h-153v572h-52v81h52v53z" />
    <glyph glyph-name="Itilde" unicode="&#x128;" horiz-adv-x="295" 
d="M65 0v706h166v-706h-166zM45 777h-74q3 22 9.5 42t18.5 43t33 37t49 14q24 0 67.5 -18.5t61.5 -18.5q6 0 11 1.5t9 4t7 6t5 6.5t3.5 8t2.5 7.5t2 6.5t1 5h74q-20 -138 -106 -138q-25 0 -70 20t-63 20q-7 0 -12.5 -2t-9.5 -5.5t-7 -7t-5 -9t-3 -8t-3 -8.5z" />
    <glyph glyph-name="itilde" unicode="&#x129;" horiz-adv-x="256" 
d="M50 527h156v-527h-156v527zM26 604h-74q3 22 9.5 42t18.5 43t33 37t49 14q24 0 67.5 -18.5t61.5 -18.5q6 0 11 1.5t9 4t7 6t5 6.5t3.5 8t2.5 7.5t2 6.5t1 5h74q-20 -138 -106 -138q-25 0 -70 20t-63 20q-7 0 -12.5 -2t-9.5 -5.5t-7 -7t-5 -9t-3 -8t-3 -8.5z" />
    <glyph glyph-name="Imacron" unicode="&#x12a;" horiz-adv-x="295" 
d="M65 0v706h166v-706h-166zM-13 797v91h318v-91h-318z" />
    <glyph glyph-name="imacron" unicode="&#x12b;" horiz-adv-x="256" 
d="M50 527h156v-527h-156v527zM-33 624v91h318v-91h-318z" />
    <glyph glyph-name="Ibreve" unicode="&#x12c;" horiz-adv-x="295" 
d="M65 0v706h166v-706h-166zM148 856q56 0 64 65h102q-8 -76 -55 -110.5t-111 -34.5t-111 34.5t-55 110.5h102q8 -65 64 -65z" />
    <glyph glyph-name="ibreve" unicode="&#x12d;" horiz-adv-x="256" 
d="M50 527h156v-527h-156v527zM128 683q56 0 64 65h102q-8 -76 -55 -110.5t-111 -34.5t-111 34.5t-55 110.5h102q8 -65 64 -65z" />
    <glyph glyph-name="Iogonek" unicode="&#x12e;" horiz-adv-x="295" 
d="M131 0h-66v706h166v-706q-89 -51 -89 -112q0 -28 17.5 -43.5t41.5 -15.5q34 0 68 13l-7 -78q-39 -13 -94 -13q-50 0 -92 26.5t-42 86.5q0 79 97 136z" />
    <glyph glyph-name="iogonek" unicode="&#x12f;" horiz-adv-x="256" 
d="M106 0h-56v527h156v-527q-89 -51 -89 -112q0 -28 17.5 -43.5t41.5 -15.5q34 0 68 13l-7 -78q-39 -13 -94 -13q-50 0 -92 26.5t-42 86.5q0 79 97 136zM50 706h156v-115h-156v115z" />
    <glyph glyph-name="Idotaccent" unicode="&#x130;" horiz-adv-x="295" 
d="M65 0v706h166v-706h-166zM88 790v121h121v-121h-121z" />
    <glyph glyph-name="dotlessi" unicode="&#x131;" horiz-adv-x="256" 
d="M50 527h156v-527h-156v527z" />
    <glyph glyph-name="IJ" unicode="&#x132;" horiz-adv-x="611" 
d="M65 0v706h166v-706h-166zM387 706h166v-339q0 -207 -97 -367h-179q28 45 42 70.5t33 72t27 102t8 126.5v335z" />
    <glyph glyph-name="ij" unicode="&#x133;" horiz-adv-x="506" 
d="M50 527h156v-527h-156v527zM50 706h156v-115h-156v115zM302 527h156v-350q0 -65 -10 -126t-24 -101.5t-28 -72t-24 -46.5l-10 -15h-164q4 6 11 17t25 47.5t32 75.5t25 98.5t11 118.5v354zM302 706h156v-115h-156v115z" />
    <glyph glyph-name="Jcircumflex" unicode="&#x134;" horiz-adv-x="317" 
d="M93 706h166v-339q0 -207 -97 -367h-179q28 45 42 70.5t33 72t27 102t8 126.5v335zM176 850l-77 -85h-112l121 152h136l120 -152h-111z" />
    <glyph glyph-name="jcircumflex" unicode="&#x135;" horiz-adv-x="254" 
d="M50 527h156v-350q0 -65 -10 -126t-24 -101.5t-28 -72t-24 -46.5l-10 -15h-164q4 6 11 17t25 47.5t32 75.5t25 98.5t11 118.5v354zM127 678l-77 -85h-112l121 152h136l120 -152h-111z" />
    <glyph glyph-name="Kcommaaccent" unicode="&#x136;" horiz-adv-x="673" 
d="M65 706h166v-288h23l207 288h179l-237 -312h16q34 0 59 -10.5t44 -36t30 -48t29 -65.5l30 -74q16 -39 36.5 -78t33.5 -60t15 -22h-194q-6 5 -23 38t-31 73l-24 62q-24 63 -38 79q-23 26 -75 26h-80v-278h-166v706zM342 -266l-70 59q33 23 33 67v80h108v-80q0 -43 -16 -72
t-55 -54z" />
    <glyph glyph-name="kcommaaccent" unicode="&#x137;" horiz-adv-x="545" 
d="M50 706h153v-389h17l148 210h170l-174 -219h10q47 0 68 -22.5t37 -71.5l28 -97q21 -70 48 -117h-166q-17 39 -30 81l-22 77q-10 32 -25 45t-43 13h-66v-216h-153v706zM275 -266l-70 59q33 23 33 67v80h108v-80q0 -43 -16 -72t-55 -54z" />
    <glyph glyph-name="kgreenlandic" unicode="&#x138;" horiz-adv-x="545" 
d="M50 527h153v-210h17l146 210h170l-172 -219h10q47 0 68 -22.5t37 -71.5l28 -97q21 -70 48 -117h-166q-17 39 -30 81l-22 77q-10 32 -25 45t-43 13h-66v-216h-153v527z" />
    <glyph glyph-name="Lacute" unicode="&#x139;" horiz-adv-x="565" 
d="M542 0h-294q-82 0 -134.5 46t-52.5 126v534h166v-491q0 -75 69 -75h268zM345 917l-137 -152h-121l86 152h172z" />
    <glyph glyph-name="lacute" unicode="&#x13a;" horiz-adv-x="256" 
d="M50 706h156v-706h-156v706zM330 917l-137 -152h-121l86 152h172z" />
    <glyph glyph-name="Lcommaaccent" unicode="&#x13b;" horiz-adv-x="565" 
d="M542 0h-294q-82 0 -134.5 46t-52.5 126v534h166v-491q0 -75 69 -75h268zM289 -266l-70 59q33 23 33 67v80h108v-80q0 -43 -16 -72t-55 -54z" />
    <glyph glyph-name="lcommaaccent" unicode="&#x13c;" horiz-adv-x="256" 
d="M50 706h156v-706h-156v706zM111 -266l-70 59q33 23 33 67v80h108v-80q0 -43 -16 -72t-55 -54z" />
    <glyph glyph-name="Lcaron" unicode="&#x13d;" horiz-adv-x="565" 
d="M542 0h-294q-82 0 -134.5 46t-52.5 126v534h166v-491q0 -75 69 -75h268zM420 500l-70 60q33 22 33 66v80h108v-80q0 -43 -16 -72t-55 -54z" />
    <glyph glyph-name="lcaron" unicode="&#x13e;" horiz-adv-x="406" 
d="M50 706h156v-706h-156v706zM317 500l-70 60q33 22 33 66v80h108v-80q0 -43 -16 -72t-55 -54z" />
    <glyph glyph-name="Ldot" unicode="&#x13f;" horiz-adv-x="572" 
d="M542 0h-294q-82 0 -134.5 46t-52.5 126v534h166v-491q0 -75 69 -75h268zM347 446h174v-173h-174v173z" />
    <glyph glyph-name="ldotaccent" unicode="&#x140;" horiz-adv-x="448" 
d="M50 706h156v-706h-156v706zM265 426h174v-173h-174v173z" />
    <glyph glyph-name="Lslash" unicode="&#x141;" horiz-adv-x="569" 
d="M-7 232v113l72 28v333h166v-268l111 44v-113l-111 -44v-107q0 -38 17.5 -58.5t49.5 -20.5h270l-22 -139h-300q-80 0 -130.5 48t-50.5 126v86z" />
    <glyph glyph-name="lslash" unicode="&#x142;" horiz-adv-x="263" 
d="M54 706h155v-275l60 24v-112l-60 -23v-320h-155v257l-60 -23v111l60 24v337z" />
    <glyph glyph-name="Nacute" unicode="&#x143;" horiz-adv-x="750" 
d="M685 0h-180l-296 477v-477h-144v706h192l284 -468v468h144v-706zM577 917l-137 -152h-121l86 152h172z" />
    <glyph glyph-name="nacute" unicode="&#x144;" 
d="M405 0v278q0 123 -102 123q-103 0 -103 -123v-278h-153v316q0 109 70.5 163.5t185.5 54.5t185 -54.5t70 -163.5v-316h-153zM504 755l-137 -152h-121l86 152h172z" />
    <glyph glyph-name="Ncommaaccent" unicode="&#x145;" horiz-adv-x="750" 
d="M685 0h-180l-296 477v-477h-144v706h192l284 -468v468h144v-706zM371 -266l-70 59q33 23 33 67v80h108v-80q0 -43 -16 -72t-55 -54z" />
    <glyph glyph-name="ncommaaccent" unicode="&#x146;" 
d="M405 0v278q0 123 -102 123q-103 0 -103 -123v-278h-153v316q0 109 70.5 163.5t185.5 54.5t185 -54.5t70 -163.5v-316h-153zM287 -266l-70 59q33 23 33 67v80h108v-80q0 -43 -16 -72t-55 -54z" />
    <glyph glyph-name="Ncaron" unicode="&#x147;" horiz-adv-x="750" 
d="M685 0h-180l-296 477v-477h-144v706h192l284 -468v468h144v-706zM299 917l77 -84l77 84h111l-120 -152h-136l-121 152h112z" />
    <glyph glyph-name="ncaron" unicode="&#x148;" 
d="M405 0v278q0 123 -102 123q-103 0 -103 -123v-278h-153v316q0 109 70.5 163.5t185.5 54.5t185 -54.5t70 -163.5v-316h-153zM225 755l77 -84l77 84h111l-120 -152h-136l-121 152h112z" />
    <glyph glyph-name="napostrophe" unicode="&#x149;" horiz-adv-x="717" 
d="M517 0v278q0 123 -102 123q-103 0 -103 -123v-278h-153v316q0 109 70.5 163.5t185.5 54.5t185 -54.5t70 -163.5v-316h-153zM70 500l-70 60q33 22 33 66v80h108v-80q0 -43 -16 -72t-55 -54z" />
    <glyph glyph-name="Eng" unicode="&#x14a;" horiz-adv-x="750" 
d="M541 706h144v-597q0 -210 -100 -359h-166q30 45 44.5 69t32.5 68.5t26 91.5l-313 498v-477h-144v706h192l284 -468v468z" />
    <glyph glyph-name="eng" unicode="&#x14b;" horiz-adv-x="606" 
d="M405 282q0 119 -102 119q-103 0 -103 -123v-278h-153v316q0 109 70.5 163.5t185.5 54.5t185 -54.5t70 -163.5v-175q0 -63 -9.5 -121t-22 -95t-28 -69t-23 -43.5t-12.5 -16.5h-162q14 14 34.5 48.5t45 115t24.5 167.5v155z" />
    <glyph glyph-name="Omacron" unicode="&#x14c;" horiz-adv-x="844" 
d="M33 353q1 173 107.5 269t282.5 96q175 0 281.5 -96t106.5 -269t-106.5 -269t-281.5 -96q-176 0 -283 96t-107 269zM217 353q0 -95 55.5 -155t150.5 -60q94 0 149 60t55 155t-55 155t-149 60q-95 0 -150.5 -60t-55.5 -155zM263 808v91h318v-91h-318z" />
    <glyph glyph-name="omacron" unicode="&#x14d;" horiz-adv-x="651" 
d="M25 262q0 128 87 200t213 72q129 0 214.5 -72t85.5 -200t-85.5 -200t-214.5 -72q-128 0 -214 72t-86 200zM188 262q0 -64 38 -102t99 -38t99.5 38t38.5 102q-1 63 -39 101t-99 39q-59 0 -98 -38.5t-39 -101.5zM165 634v91h318v-91h-318z" />
    <glyph glyph-name="Obreve" unicode="&#x14e;" horiz-adv-x="844" 
d="M33 353q1 173 107.5 269t282.5 96q175 0 281.5 -96t106.5 -269t-106.5 -269t-281.5 -96q-176 0 -283 96t-107 269zM217 353q0 -95 55.5 -155t150.5 -60q94 0 149 60t55 155t-55 155t-149 60q-95 0 -150.5 -60t-55.5 -155zM423 867q56 0 64 65h102q-8 -76 -55 -110.5
t-111 -34.5t-111 34.5t-55 110.5h102q8 -65 64 -65z" />
    <glyph glyph-name="obreve" unicode="&#x14f;" horiz-adv-x="651" 
d="M25 262q0 128 87 200t213 72q129 0 214.5 -72t85.5 -200t-85.5 -200t-214.5 -72q-128 0 -214 72t-86 200zM188 262q0 -64 38 -102t99 -38t99.5 38t38.5 102q-1 63 -39 101t-99 39q-59 0 -98 -38.5t-39 -101.5zM325 693q56 0 64 65h102q-8 -76 -55 -110.5t-111 -34.5
t-111 34.5t-55 110.5h102q8 -65 64 -65z" />
    <glyph glyph-name="Ohungarumlaut" unicode="&#x150;" horiz-adv-x="844" 
d="M33 353q1 173 107.5 269t282.5 96q175 0 281.5 -96t106.5 -269t-106.5 -269t-281.5 -96q-176 0 -283 96t-107 269zM217 353q0 -95 55.5 -155t150.5 -60q94 0 149 60t55 155t-55 155t-149 60q-95 0 -150.5 -60t-55.5 -155zM477 929l-97 -152h-105l63 152h139zM680 929
l-127 -152h-55h-59l95 152h146z" />
    <glyph glyph-name="ohungarumlaut" unicode="&#x151;" horiz-adv-x="651" 
d="M25 262q0 128 87 200t213 72q129 0 214.5 -72t85.5 -200t-85.5 -200t-214.5 -72q-128 0 -214 72t-86 200zM188 262q0 -64 38 -102t99 -38t99.5 38t38.5 102q-1 63 -39 101t-99 39q-59 0 -98 -38.5t-39 -101.5zM379 755l-97 -152h-105l63 152h139zM582 755l-127 -152h-55
h-59l95 152h146z" />
    <glyph glyph-name="OE" unicode="&#x152;" horiz-adv-x="1168" 
d="M1112 0h-296q-109 0 -142 76q-93 -88 -251 -88q-176 0 -283 96t-107 269q1 173 107.5 269t282.5 96q129 0 218 -63v51h496l-21 -136h-320v-151h290l-22 -131h-268v-77q0 -37 18 -56t50 -19h270zM217 353q0 -95 55.5 -155t150.5 -60q94 0 149 60t55 155t-55 155t-149 60
q-95 0 -150.5 -60t-55.5 -155z" />
    <glyph glyph-name="oe" unicode="&#x153;" horiz-adv-x="1049" 
d="M925 133l-10 -118q-61 -25 -151 -25q-140 0 -219 84q-81 -84 -220 -84q-128 0 -214 72t-86 200t87 200t213 72q136 0 216 -83q78 83 205 83q140 0 213 -83t71 -227h-397q7 -41 35 -69t61.5 -39t71.5 -11q63 0 124 28zM188 262q0 -64 38 -102t99 -38t99.5 38t38.5 102
q-1 63 -39 101t-99 39q-59 0 -98 -38.5t-39 -101.5zM750 426q-48 0 -79.5 -27.5t-41.5 -72.5h235q-6 47 -36.5 73.5t-77.5 26.5z" />
    <glyph glyph-name="Racute" unicode="&#x154;" horiz-adv-x="731" 
d="M65 706h403q108 0 166.5 -64t58.5 -149q0 -83 -50.5 -141t-121.5 -63q25 -7 44 -18.5t31 -21.5t24 -30.5t17 -31t16.5 -39t16.5 -40.5q29 -69 60 -108h-193q-29 27 -49 88q-3 7 -11.5 32t-11 31.5t-11 25.5t-13.5 24.5t-15 17.5t-19.5 15.5t-23 7.5t-29.5 4l-42 1
q-13 0 -23.5 1.5t-18.5 5t-13 6.5t-9.5 9.5t-6.5 9.5t-5.5 11t-4.5 10v-300h-166v706zM231 571v-135q0 -60 80 -60h100q53 0 78 27t25 71q0 53 -26 75t-78 22h-179zM544 916l-137 -152h-121l86 152h172z" />
    <glyph glyph-name="racute" unicode="&#x155;" horiz-adv-x="365" 
d="M382 523l-28 -134q-26 12 -61 12q-52 0 -72.5 -31t-20.5 -92v-278h-153v314q0 114 65.5 167t177.5 53q4 0 92 -11zM444 755l-137 -152h-121l86 152h172z" />
    <glyph glyph-name="Rcommaaccent" unicode="&#x156;" horiz-adv-x="731" 
d="M65 706h403q108 0 166.5 -64t58.5 -149q0 -83 -50.5 -141t-121.5 -63q25 -7 44 -18.5t31 -21.5t24 -30.5t17 -31t16.5 -39t16.5 -40.5q29 -69 60 -108h-193q-29 27 -49 88q-3 7 -11.5 32t-11 31.5t-11 25.5t-13.5 24.5t-15 17.5t-19.5 15.5t-23 7.5t-29.5 4l-42 1
q-13 0 -23.5 1.5t-18.5 5t-13 6.5t-9.5 9.5t-6.5 9.5t-5.5 11t-4.5 10v-300h-166v706zM231 571v-135q0 -60 80 -60h100q53 0 78 27t25 71q0 53 -26 75t-78 22h-179zM365 -266l-70 59q33 23 33 67v80h108v-80q0 -43 -16 -72t-55 -54z" />
    <glyph glyph-name="rcommaaccent" unicode="&#x157;" horiz-adv-x="365" 
d="M382 523l-28 -134q-26 12 -61 12q-52 0 -72.5 -31t-20.5 -92v-278h-153v314q0 114 65.5 167t177.5 53q4 0 92 -11zM108 -266l-70 59q33 23 33 67v80h108v-80q0 -43 -16 -72t-55 -54z" />
    <glyph glyph-name="Rcaron" unicode="&#x158;" horiz-adv-x="731" 
d="M65 706h403q108 0 166.5 -64t58.5 -149q0 -83 -50.5 -141t-121.5 -63q25 -7 44 -18.5t31 -21.5t24 -30.5t17 -31t16.5 -39t16.5 -40.5q29 -69 60 -108h-193q-29 27 -49 88q-3 7 -11.5 32t-11 31.5t-11 25.5t-13.5 24.5t-15 17.5t-19.5 15.5t-23 7.5t-29.5 4l-42 1
q-13 0 -23.5 1.5t-18.5 5t-13 6.5t-9.5 9.5t-6.5 9.5t-5.5 11t-4.5 10v-300h-166v706zM231 571v-135q0 -60 80 -60h100q53 0 78 27t25 71q0 53 -26 75t-78 22h-179zM266 916l77 -84l77 84h111l-120 -152h-136l-121 152h112z" />
    <glyph glyph-name="rcaron" unicode="&#x159;" horiz-adv-x="365" 
d="M382 523l-28 -134q-26 12 -61 12q-52 0 -72.5 -31t-20.5 -92v-278h-153v314q0 114 65.5 167t177.5 53q4 0 92 -11zM165 755l77 -84l77 84h111l-120 -152h-136l-121 152h112z" />
    <glyph glyph-name="Sacute" unicode="&#x15a;" horiz-adv-x="582" 
d="M18 42l59 138q103 -57 194 -57q101 0 101 70q0 17 -9 31.5t-29 27.5t-32 20t-37 18l-86 38q-76 33 -114 78.5t-38 114.5q0 95 77 146t193 51q117 0 241 -53l-57 -136q-77 55 -171 55q-104 0 -104 -59q0 -11 5 -20.5t11.5 -16.5t19.5 -15t20.5 -12t24.5 -12t22 -10l81 -37
q81 -38 120.5 -84.5t39.5 -121.5q0 -105 -77.5 -156.5t-199.5 -51.5q-138 0 -255 54zM501 929l-137 -152h-121l86 152h172z" />
    <glyph glyph-name="sacute" unicode="&#x15b;" horiz-adv-x="460" 
d="M15 29l43 120q79 -46 156 -46q64 0 64 44q0 7 -2 13t-8 12t-11 10t-15.5 9.5t-17 8.5t-20.5 9l-21 9l-25 12q-31 14 -51 25t-42 29.5t-33 43t-11 55.5q0 77 58.5 114t150.5 37q105 0 200 -41l-46 -118q-67 47 -142 47q-62 0 -62 -37q0 -5 2.5 -10t7.5 -10t10.5 -8.5
t15 -8t16.5 -7.5t19.5 -8.5t19.5 -8.5l25 -12q67 -30 105 -66.5t38 -97.5q0 -80 -63 -119t-159 -39q-116 0 -202 39zM438 755l-137 -152h-121l86 152h172z" />
    <glyph glyph-name="Scircumflex" unicode="&#x15c;" horiz-adv-x="582" 
d="M18 42l59 138q103 -57 194 -57q101 0 101 70q0 17 -9 31.5t-29 27.5t-32 20t-37 18l-86 38q-76 33 -114 78.5t-38 114.5q0 95 77 146t193 51q117 0 241 -53l-57 -136q-77 55 -171 55q-104 0 -104 -59q0 -11 5 -20.5t11.5 -16.5t19.5 -15t20.5 -12t24.5 -12t22 -10l81 -37
q81 -38 120.5 -84.5t39.5 -121.5q0 -105 -77.5 -156.5t-199.5 -51.5q-138 0 -255 54zM298 862l-77 -85h-112l121 152h136l120 -152h-111z" />
    <glyph glyph-name="scircumflex" unicode="&#x15d;" horiz-adv-x="460" 
d="M15 29l43 120q79 -46 156 -46q64 0 64 44q0 7 -2 13t-8 12t-11 10t-15.5 9.5t-17 8.5t-20.5 9l-21 9l-25 12q-31 14 -51 25t-42 29.5t-33 43t-11 55.5q0 77 58.5 114t150.5 37q105 0 200 -41l-46 -118q-67 47 -142 47q-62 0 -62 -37q0 -5 2.5 -10t7.5 -10t10.5 -8.5
t15 -8t16.5 -7.5t19.5 -8.5t19.5 -8.5l25 -12q67 -30 105 -66.5t38 -97.5q0 -80 -63 -119t-159 -39q-116 0 -202 39zM236 688l-77 -85h-112l121 152h136l120 -152h-111z" />
    <glyph glyph-name="Scedilla" unicode="&#x15e;" horiz-adv-x="582" 
d="M20 42l59 138q103 -57 194 -57q101 0 101 70q0 17 -9 31.5t-29 27.5t-32 20t-37 18l-86 38q-76 33 -114 78.5t-38 114.5q0 95 77 146t193 51q117 0 241 -53l-57 -136q-77 55 -171 55q-104 0 -104 -59q0 -11 5 -20.5t11.5 -16.5t19.5 -15t20.5 -12t24.5 -12t22 -10l81 -37
q81 -38 120.5 -84.5t39.5 -121.5q0 -97 -67 -148.5t-175 -57.5l-9 -47q42 -5 72.5 -28.5t30.5 -72.5q0 -29 -15.5 -54.5t-37 -41.5t-50.5 -29t-50 -19t-41 -10l-21 63q20 7 31.5 12.5t31 16t29 24.5t9.5 30q0 28 -24.5 41t-58.5 13l21 102q-113 8 -208 52z" />
    <glyph glyph-name="scedilla" unicode="&#x15f;" horiz-adv-x="460" 
d="M15 29l43 120q79 -46 156 -46q64 0 64 44q0 7 -2 13t-8 12t-11 10t-15.5 9.5t-17 8.5t-20.5 9l-21 9l-25 12q-31 14 -51 25t-42 29.5t-33 43t-11 55.5q0 77 58.5 114t150.5 37q105 0 200 -41l-46 -118q-67 47 -142 47q-62 0 -62 -37q0 -5 2.5 -10t7.5 -10t10.5 -8.5
t15 -8t16.5 -7.5t19.5 -8.5t19.5 -8.5l25 -12q67 -30 105 -66.5t38 -97.5q0 -74 -53 -112.5t-136 -44.5l-9 -45q42 -5 72.5 -28.5t30.5 -72.5q0 -36 -22 -65t-56 -46.5t-62 -27t-54 -14.5l-21 62q20 7 31.5 12.5t31 16t29 24.5t9.5 30q0 28 -24.5 41.5t-58.5 12.5l21 101
q-87 7 -153 37z" />
    <glyph glyph-name="Scaron" unicode="&#x160;" horiz-adv-x="582" 
d="M18 42l59 138q103 -57 194 -57q101 0 101 70q0 17 -9 31.5t-29 27.5t-32 20t-37 18l-86 38q-76 33 -114 78.5t-38 114.5q0 95 77 146t193 51q117 0 241 -53l-57 -136q-77 55 -171 55q-104 0 -104 -59q0 -11 5 -20.5t11.5 -16.5t19.5 -15t20.5 -12t24.5 -12t22 -10l81 -37
q81 -38 120.5 -84.5t39.5 -121.5q0 -105 -77.5 -156.5t-199.5 -51.5q-138 0 -255 54zM222 929l77 -84l77 84h111l-120 -152h-136l-121 152h112z" />
    <glyph glyph-name="scaron" unicode="&#x161;" horiz-adv-x="460" 
d="M15 29l43 120q79 -46 156 -46q64 0 64 44q0 7 -2 13t-8 12t-11 10t-15.5 9.5t-17 8.5t-20.5 9l-21 9l-25 12q-31 14 -51 25t-42 29.5t-33 43t-11 55.5q0 77 58.5 114t150.5 37q105 0 200 -41l-46 -118q-67 47 -142 47q-62 0 -62 -37q0 -5 2.5 -10t7.5 -10t10.5 -8.5
t15 -8t16.5 -7.5t19.5 -8.5t19.5 -8.5l25 -12q67 -30 105 -66.5t38 -97.5q0 -80 -63 -119t-159 -39q-116 0 -202 39zM160 755l77 -84l77 84h111l-120 -152h-136l-121 152h112z" />
    <glyph glyph-name="Tcommaaccent" unicode="&#x162;" 
d="M220 0v566h-220v140h608l-19 -140h-203v-566h-166zM290 -266l-70 59q33 23 33 67v80h108v-80q0 -43 -16 -72t-55 -54z" />
    <glyph glyph-name="tcommaaccent" unicode="&#x163;" horiz-adv-x="308" 
d="M46 283v356l154 63v-175h106l-20 -116h-86v-134q0 -140 99 -277h-166q-2 3 -15.5 26t-19.5 35.5t-18 40.5t-18 51.5t-11 58.5t-5 71zM166 -266l-70 59q33 23 33 67v80h108v-80q0 -43 -16 -72t-55 -54z" />
    <glyph glyph-name="Tcaron" unicode="&#x164;" 
d="M220 0v566h-220v140h608l-19 -140h-203v-566h-166zM228 907l77 -84l77 84h111l-120 -152h-136l-121 152h112z" />
    <glyph glyph-name="tcaron" unicode="&#x165;" horiz-adv-x="413" 
d="M46 283v356l154 63v-175h106l-20 -116h-86v-134q0 -140 99 -277h-166q-2 3 -15.5 26t-19.5 35.5t-18 40.5t-18 51.5t-11 58.5t-5 71zM324 558l-70 60q33 22 33 66v80h108v-80q0 -43 -16 -72t-55 -54z" />
    <glyph glyph-name="Tbar" unicode="&#x166;" 
d="M143 349v90h77v127h-220v140h608l-19 -140h-203v-127h78v-90h-78v-349h-166v349h-77z" />
    <glyph glyph-name="tbar" unicode="&#x167;" horiz-adv-x="308" 
d="M-1 257v80h47v302l154 63v-175h106l-20 -116h-86v-74h87v-80h-87v-15q0 -49 18 -98.5t34.5 -76t46.5 -67.5h-166q-1 1 -12 17t-16 24.5t-15.5 27.5t-16.5 35.5t-13.5 39t-10.5 47t-3 50.5v16h-47z" />
    <glyph glyph-name="Utilde" unicode="&#x168;" horiz-adv-x="750" 
d="M60 258v448h166v-424q0 -75 44 -111.5t112 -36.5q73 0 114.5 36.5t41.5 111.5v424h152v-448q0 -134 -85 -201.5t-223 -67.5q-62 0 -117.5 15t-102.5 46t-74.5 84.5t-27.5 123.5zM279 776h-74q3 22 9.5 42t18.5 43t33 37t49 14q24 0 67.5 -18.5t61.5 -18.5q6 0 11 1.5t9 4
t7 6t5 6.5t3.5 8t2.5 7.5t2 6.5t1 5h74q-20 -138 -106 -138q-25 0 -70 20t-63 20q-7 0 -12.5 -2t-9.5 -5.5t-7 -7t-5 -9t-3 -8t-3 -8.5z" />
    <glyph glyph-name="utilde" unicode="&#x169;" 
d="M405 245v282h153v-320q0 -108 -70 -162.5t-185 -54.5q-116 0 -186 54.5t-70 162.5v320h153v-282q0 -123 103 -123q102 0 102 123zM201 604h-74q3 22 9.5 42t18.5 43t33 37t49 14q24 0 67.5 -18.5t61.5 -18.5q6 0 11 1.5t9 4t7 6t5 6.5t3.5 8t2.5 7.5t2 6.5t1 5h74
q-20 -138 -106 -138q-25 0 -70 20t-63 20q-7 0 -12.5 -2t-9.5 -5.5t-7 -7t-5 -9t-3 -8t-3 -8.5z" />
    <glyph glyph-name="Umacron" unicode="&#x16a;" horiz-adv-x="750" 
d="M60 258v448h166v-424q0 -75 44 -111.5t112 -36.5q73 0 114.5 36.5t41.5 111.5v424h152v-448q0 -134 -85 -201.5t-223 -67.5q-62 0 -117.5 15t-102.5 46t-74.5 84.5t-27.5 123.5zM221 796v91h318v-91h-318z" />
    <glyph glyph-name="umacron" unicode="&#x16b;" 
d="M405 245v282h153v-320q0 -108 -70 -162.5t-185 -54.5q-116 0 -186 54.5t-70 162.5v320h153v-282q0 -123 103 -123q102 0 102 123zM143 624v91h318v-91h-318z" />
    <glyph glyph-name="Ubreve" unicode="&#x16c;" horiz-adv-x="750" 
d="M60 258v448h166v-424q0 -75 44 -111.5t112 -36.5q73 0 114.5 36.5t41.5 111.5v424h152v-448q0 -134 -85 -201.5t-223 -67.5q-62 0 -117.5 15t-102.5 46t-74.5 84.5t-27.5 123.5zM382 855q56 0 64 65h102q-8 -76 -55 -110.5t-111 -34.5t-111 34.5t-55 110.5h102
q8 -65 64 -65z" />
    <glyph glyph-name="ubreve" unicode="&#x16d;" 
d="M405 245v282h153v-320q0 -108 -70 -162.5t-185 -54.5q-116 0 -186 54.5t-70 162.5v320h153v-282q0 -123 103 -123q102 0 102 123zM304 683q56 0 64 65h102q-8 -76 -55 -110.5t-111 -34.5t-111 34.5t-55 110.5h102q8 -65 64 -65z" />
    <glyph glyph-name="Uring" unicode="&#x16e;" horiz-adv-x="750" 
d="M60 258v448h166v-424q0 -75 44 -111.5t112 -36.5q73 0 114.5 36.5t41.5 111.5v424h152v-448q0 -134 -85 -201.5t-223 -67.5q-62 0 -117.5 15t-102.5 46t-74.5 84.5t-27.5 123.5zM244 893q0 58 40 98.5t98 40.5t98 -40.5t40 -98.5t-40 -98t-98 -40t-98 40t-40 98zM320 893
q0 -27 17.5 -44.5t44.5 -17.5t45 17.5t18 44.5t-18 45t-45 18t-44.5 -18t-17.5 -45z" />
    <glyph glyph-name="uring" unicode="&#x16f;" 
d="M405 245v282h153v-320q0 -108 -70 -162.5t-185 -54.5q-116 0 -186 54.5t-70 162.5v320h153v-282q0 -123 103 -123q102 0 102 123zM166 721q0 58 40 98.5t98 40.5t98 -40.5t40 -98.5t-40 -98t-98 -40t-98 40t-40 98zM242 721q0 -27 17.5 -44.5t44.5 -17.5t45 17.5t18 44.5
t-18 45t-45 18t-44.5 -18t-17.5 -45z" />
    <glyph glyph-name="Uhungarumlaut" unicode="&#x170;" horiz-adv-x="750" 
d="M60 258v448h166v-424q0 -75 44 -111.5t112 -36.5q73 0 114.5 36.5t41.5 111.5v424h152v-448q0 -134 -85 -201.5t-223 -67.5q-62 0 -117.5 15t-102.5 46t-74.5 84.5t-27.5 123.5zM435 917l-97 -152h-105l63 152h139zM638 917l-127 -152h-55h-59l95 152h146z" />
    <glyph glyph-name="uhungarumlaut" unicode="&#x171;" 
d="M405 245v282h153v-320q0 -108 -70 -162.5t-185 -54.5q-116 0 -186 54.5t-70 162.5v320h153v-282q0 -123 103 -123q102 0 102 123zM357 745l-97 -152h-105l63 152h139zM560 745l-127 -152h-55h-59l95 152h146z" />
    <glyph glyph-name="Uogonek" unicode="&#x172;" horiz-adv-x="750" 
d="M60 258v448h166v-424q0 -75 44 -111.5t112 -36.5q73 0 114.5 36.5t41.5 111.5v424h152v-448q0 -120 -68.5 -187t-184.5 -79q-73 -45 -73 -100q0 -28 18 -43t43 -15q34 0 70 13l-7 -78q-39 -14 -98 -14q-30 0 -58.5 9t-52 36t-23.5 68q0 73 78 124q-118 12 -196 77.5
t-78 188.5z" />
    <glyph glyph-name="uogonek" unicode="&#x173;" 
d="M405 245v282h153v-320q0 -97 -57 -151t-153 -64q-57 -41 -57 -88q0 -28 18 -43t43 -15q34 0 70 13l-7 -78q-39 -14 -98 -14q-30 0 -58.5 9t-52 36t-23.5 68q0 65 64 114q-92 11 -146 64.5t-54 148.5v320h153v-282q0 -123 103 -123q102 0 102 123z" />
    <glyph glyph-name="Wcircumflex" unicode="&#x174;" horiz-adv-x="1045" 
d="M218 0l-218 706h179l137 -499l138 499h166l138 -499l128 499h153l-204 -706h-174l-132 466l-141 -466h-170zM530 850l-77 -85h-112l121 152h136l120 -152h-111z" />
    <glyph glyph-name="wcircumflex" unicode="&#x175;" horiz-adv-x="933" 
d="M469 107h-2q-20 -60 -76 -88.5t-122 -28.5q-104 0 -163 55t-59 159v323h153v-285q0 -119 96 -119t96 117v287h149v-287q0 -117 97 -117q95 0 95 119v285h153v-323q0 -104 -59 -159t-163 -55q-66 0 -120.5 28.5t-74.5 88.5zM468 678l-77 -85h-112l121 152h136l120 -152
h-111z" />
    <glyph glyph-name="Ycircumflex" unicode="&#x176;" horiz-adv-x="610" 
d="M35 479v227h166v-203q0 -53 30.5 -79.5t80.5 -26.5q51 0 78.5 28t27.5 77v204h156v-238q0 -179 -177 -202v-266h-167v266q-95 8 -145 62.5t-50 150.5zM309 850l-77 -85h-112l121 152h136l120 -152h-111z" />
    <glyph glyph-name="ycircumflex" unicode="&#x177;" horiz-adv-x="606" 
d="M465 -184h-179q5 4 12.5 11.5t27 32t34.5 51t28.5 66t14.5 79.5q-50 -66 -149 -66q-207 0 -207 211v326h153v-279q0 -62 21 -94t75 -32q109 0 109 125v280h153v-448q0 -45 -9.5 -89t-23 -74t-27.5 -53.5t-24 -34.5zM302 678l-77 -85h-112l121 152h136l120 -152h-111z" />
    <glyph glyph-name="Ydieresis" unicode="&#x178;" horiz-adv-x="610" 
d="M35 479v227h166v-203q0 -53 30.5 -79.5t80.5 -26.5q51 0 78.5 28t27.5 77v204h156v-238q0 -179 -177 -202v-266h-167v266q-95 8 -145 62.5t-50 150.5zM136 782v120h121v-120h-58h-63zM364 782v120h120v-120h-120z" />
    <glyph glyph-name="Zacute" unicode="&#x179;" horiz-adv-x="661" 
d="M622 0h-599q0 109 35.5 192.5t138.5 176.5q26 24 72.5 61.5t81 69.5t59.5 66h-348v140h575q-6 -118 -56 -196t-162 -164q-48 -37 -63.5 -50t-47.5 -42.5t-49 -55.5t-29 -58h392v-140zM548 917l-137 -152h-121l86 152h172z" />
    <glyph glyph-name="zacute" unicode="&#x17a;" horiz-adv-x="502" 
d="M286 411h-249v116h441q0 -87 -29 -147t-99 -119q-47 -39 -64 -54t-39.5 -41.5t-29.5 -49.5h257v-116h-459q1 95 37.5 158t112.5 124q49 40 77 68.5t44 60.5zM460 744l-137 -152h-121l86 152h172z" />
    <glyph glyph-name="Zdotaccent" unicode="&#x17b;" horiz-adv-x="661" 
d="M622 0h-599q0 109 35.5 192.5t138.5 176.5q26 24 72.5 61.5t81 69.5t59.5 66h-348v140h575q-6 -118 -56 -196t-162 -164q-48 -37 -63.5 -50t-47.5 -42.5t-49 -55.5t-29 -58h392v-140zM286 789v121h121v-121h-121z" />
    <glyph glyph-name="zdotaccent" unicode="&#x17c;" horiz-adv-x="502" 
d="M286 411h-249v116h441q0 -87 -29 -147t-99 -119q-47 -39 -64 -54t-39.5 -41.5t-29.5 -49.5h257v-116h-459q1 95 37.5 158t112.5 124q49 40 77 68.5t44 60.5zM199 616v121h121v-121h-121z" />
    <glyph glyph-name="Zcaron" unicode="&#x17d;" horiz-adv-x="661" 
d="M622 0h-599q0 109 35.5 192.5t138.5 176.5q26 24 72.5 61.5t81 69.5t59.5 66h-348v140h575q-6 -118 -56 -196t-162 -164q-48 -37 -63.5 -50t-47.5 -42.5t-49 -55.5t-29 -58h392v-140zM269 917l77 -84l77 84h111l-120 -152h-136l-121 152h112z" />
    <glyph glyph-name="zcaron" unicode="&#x17e;" horiz-adv-x="502" 
d="M286 411h-249v116h441q0 -87 -29 -147t-99 -119q-47 -39 -64 -54t-39.5 -41.5t-29.5 -49.5h257v-116h-459q1 95 37.5 158t112.5 124q49 40 77 68.5t44 60.5zM182 744l77 -84l77 84h111l-120 -152h-136l-121 152h112z" />
    <glyph glyph-name="florin" unicode="&#x192;" horiz-adv-x="552" 
d="M105 24l99 349h-81l26 94h82l35 119q22 76 65 104t110 28q34 0 69.5 -11.5t54.5 -24.5l-45 -120q-30 20 -59 20q-23 0 -36.5 -10.5t-20.5 -37.5l-20 -67h87l-24 -94h-90l-119 -413q-37 -132 -174 -132q-34 0 -67.5 10t-50.5 20l-16 10l45 121q29 -25 65 -25q24 0 39.5 12
t25.5 48z" />
    <glyph glyph-name="AEacute" unicode="&#x1fc;" horiz-adv-x="948" 
d="M892 0h-313q-72 0 -117.5 38.5t-45.5 104.5v18h-210l-58 -161h-156l260 706h665l-21 -136h-317v-151h287l-22 -131h-265v-77q0 -75 69 -75h266zM350 570l-101 -278h164v278h-63zM758 918l-137 -152h-121l86 152h172z" />
    <glyph glyph-name="aeacute" unicode="&#x1fd;" horiz-adv-x="1047" 
d="M923 133l-10 -118q-58 -25 -145 -25q-106 0 -177 60v-50h-115v65q-67 -73 -180 -73q-118 0 -194.5 73t-76.5 193q0 121 78 198.5t205 77.5q153 0 227 -104q73 104 217 104q137 0 207.5 -83t68.5 -227h-396q10 -61 58.5 -90t108.5 -29q63 0 124 28zM461 262q0 62 -38 101
t-100 39q-61 0 -99 -40t-38 -100q0 -62 37.5 -101t99.5 -39t100 39t38 101zM748 426q-48 0 -79.5 -27.5t-41.5 -72.5h235q-6 47 -36.5 73.5t-77.5 26.5zM723 755l-137 -152h-121l86 152h172z" />
    <glyph glyph-name="Oslashacute" unicode="&#x1fe;" horiz-adv-x="844" 
d="M33 36l78 77q-78 92 -78 240q1 174 108 269.5t282 95.5q141 0 240 -64l82 81l67 -65l-80 -78q79 -93 79 -239q0 -174 -106.5 -269.5t-281.5 -95.5q-143 0 -242 64l-82 -81zM627 353q0 61 -26 110l-298 -292q50 -33 120 -33q96 0 150 60t54 155zM217 353q0 -65 25 -112
l297 292q-49 35 -116 35q-95 0 -150.5 -60.5t-55.5 -154.5zM625 929l-137 -152h-121l86 152h172z" />
    <glyph glyph-name="oslashacute" unicode="&#x1ff;" horiz-adv-x="652" 
d="M26 262q0 128 87 200t213 72q103 0 179 -47l66 63l55 -56l-61 -58q60 -69 61 -174q0 -128 -85.5 -200t-214.5 -72q-105 0 -179 46l-67 -64l-55 56l61 59q-60 69 -60 175zM188 262q0 -34 13 -65l196 187q-30 16 -71 18q-59 0 -98.5 -38.5t-39.5 -101.5zM463 262
q0 37 -13 64l-195 -187q31 -17 71 -17q61 0 99.5 38t37.5 102zM528 755l-137 -152h-121l86 152h172z" />
    <glyph glyph-name="dotlessj" unicode="&#x237;" horiz-adv-x="254" 
d="M50 527h156v-350q0 -65 -10 -126t-24 -101.5t-28 -72t-24 -46.5l-10 -15h-164q4 6 11 17t25 47.5t32 75.5t25 98.5t11 118.5v354z" />
    <glyph glyph-name="circumflex" unicode="&#x2c6;" horiz-adv-x="500" 
d="M250 688l-77 -85h-112l121 152h136l120 -152h-111z" />
    <glyph glyph-name="caron" unicode="&#x2c7;" horiz-adv-x="500" 
d="M173 755l77 -84l77 84h111l-120 -152h-136l-121 152h112z" />
    <glyph glyph-name="breve" unicode="&#x2d8;" horiz-adv-x="500" 
d="M250 693q56 0 64 65h102q-8 -76 -55 -110.5t-111 -34.5t-111 34.5t-55 110.5h102q8 -65 64 -65z" />
    <glyph glyph-name="dotaccent" unicode="&#x2d9;" horiz-adv-x="500" 
d="M189 627v121h121v-121h-121z" />
    <glyph glyph-name="ring" unicode="&#x2da;" horiz-adv-x="500" 
d="M112 731q0 58 40 98.5t98 40.5t98 -40.5t40 -98.5t-40 -98t-98 -40t-98 40t-40 98zM188 731q0 -27 17.5 -44.5t44.5 -17.5t45 17.5t18 44.5t-18 45t-45 18t-44.5 -18t-17.5 -45z" />
    <glyph glyph-name="ogonek" unicode="&#x2db;" horiz-adv-x="500" 
d="M234 0h103q-48 -24 -73 -54t-25 -58t18 -43.5t43 -15.5q34 0 70 13l-7 -78q-39 -13 -98 -13q-50 0 -92 26.5t-42 86.5q0 43 30.5 79.5t72.5 56.5z" />
    <glyph glyph-name="tilde" unicode="&#x2dc;" horiz-adv-x="500" 
d="M147 614h-74q3 22 9.5 42t18.5 43t33 37t49 14q24 0 67.5 -18.5t61.5 -18.5q6 0 11 1.5t9 4t7 6t5 6.5t3.5 8t2.5 7.5t2 6.5t1 5h74q-20 -138 -106 -138q-25 0 -70 20t-63 20q-7 0 -12.5 -2t-9.5 -5.5t-7 -7t-5 -9t-3 -8t-3 -8.5z" />
    <glyph glyph-name="hungarumlaut" unicode="&#x2dd;" horiz-adv-x="500" 
d="M292 755l-97 -152h-105l63 152h139zM495 755l-127 -152h-55h-59l95 152h146z" />
    <glyph glyph-name="uni0312" unicode="&#x312;" horiz-adv-x="500" 
d="M267 829l70 -59q-33 -23 -33 -67v-80h-108v80q0 43 16 72t55 54z" />
    <glyph glyph-name="uni0315" unicode="&#x315;" horiz-adv-x="141" 
d="M70 558l-70 60q33 22 33 66v80h108v-80q0 -43 -16 -72t-55 -54z" />
    <glyph glyph-name="uni0326" unicode="&#x326;" horiz-adv-x="500" 
d="M233 -259l-70 59q33 23 33 67v80h108v-80q0 -43 -16 -72t-55 -54z" />
    <glyph glyph-name="tonos" unicode="&#x384;" horiz-adv-x="500" 
d="M325 755l-91 -152h-95l39 152h147z" />
    <glyph glyph-name="dieresistonos" unicode="&#x385;" horiz-adv-x="500" 
d="M70 609v121h117v-121h-58h-59zM314 609v121h117v-121h-117zM366 881l-95 -152h-93l43 152h69h76z" />
    <glyph glyph-name="Alphatonos" unicode="&#x386;" horiz-adv-x="693" 
d="M529 0l-51 161h-241l-52 -161h-153l233 706h209l229 -706h-174zM358 570l-81 -278h161zM203 706l-91 -152h-95l39 152h147z" />
    <glyph glyph-name="Epsilontonos" unicode="&#x388;" horiz-adv-x="754" 
d="M189 706l-91 -152h-95l39 152h147zM697 0h-292q-82 0 -134.5 46t-52.5 126v534h504l-21 -136h-317v-151h287l-22 -131h-265v-77q0 -75 69 -75h266z" />
    <glyph glyph-name="Etatonos" unicode="&#x389;" horiz-adv-x="902" 
d="M219 0v706h167v-281h285v281h166v-706h-166v290h-286v-290h-166zM189 706l-91 -152h-95l39 152h147z" />
    <glyph glyph-name="Iotatonos" unicode="&#x38a;" horiz-adv-x="450" 
d="M219 0v706h166v-706h-166zM189 706l-91 -152h-95l39 152h147z" />
    <glyph glyph-name="Omicrontonos" unicode="&#x38c;" horiz-adv-x="922" 
d="M189 706l-91 -152h-95l39 152h147zM111 353q1 173 107.5 269t282.5 96q175 0 281.5 -96t106.5 -269t-106.5 -269t-281.5 -96q-176 0 -283 96t-107 269zM295 353q0 -95 55.5 -155t150.5 -60q94 0 149 60t55 155t-55 155t-149 60q-95 0 -150.5 -60t-55.5 -155z" />
    <glyph glyph-name="Upsilontonos" unicode="&#x38e;" horiz-adv-x="815" 
d="M189 706l-91 -152h-95l39 152h147zM219 474v232h166v-204q0 -51 31 -78t85 -27t84.5 27t30.5 78v204h167v-232q0 -89 -52 -144t-147 -64v-266h-166v266q-96 8 -147.5 63t-51.5 145z" />
    <glyph glyph-name="Omegatonos" unicode="&#x38f;" horiz-adv-x="931" 
d="M189 706l-91 -152h-95l39 152h147zM501 568q-93 0 -147 -56t-54 -151q0 -160 147 -227v-134h-335l13 136h120q-64 41 -96 106.5t-32 140.5q0 158 108.5 246.5t275.5 88.5q109 0 195 -38t138 -115t52 -182q0 -75 -32.5 -140.5t-96.5 -106.5h134l-13 -136h-322v134
q147 67 147 227q0 95 -54.5 151t-147.5 56z" />
    <glyph glyph-name="iotadieresistonos" unicode="&#x390;" horiz-adv-x="256" 
d="M50 527h156v-527h-156v527zM-50 609v121h117v-121h-58h-59zM194 609v121h117v-121h-117zM246 881l-95 -152h-93l43 152h69h76z" />
    <glyph glyph-name="Alpha" unicode="&#x391;" horiz-adv-x="653" 
d="M489 0l-51 161h-241l-52 -161h-153l233 706h209l229 -706h-174zM318 570l-81 -278h161z" />
    <glyph glyph-name="Beta" unicode="&#x392;" horiz-adv-x="685" 
d="M61 706h337q219 0 219 -178q0 -61 -30.5 -102.5t-84.5 -47.5q79 -7 118 -55.5t39 -124.5q0 -198 -239 -198h-171q-91 0 -139.5 50t-48.5 131v525zM227 354v-156q0 -62 74 -62h88q91 0 91 84q0 82 -91 82h-85q-35 0 -51.5 11.5t-25.5 40.5zM227 570v-96q0 -59 58 -59h65
q90 0 90 79q0 43 -23.5 59.5t-67.5 16.5h-122z" />
    <glyph glyph-name="Gamma" unicode="&#x393;" horiz-adv-x="552" 
d="M248 706h303l-22 -140h-233q-69 0 -69 -75v-491h-166v534q0 80 52.5 126t134.5 46z" />
    <glyph glyph-name="uni0394" unicode="&#x394;" horiz-adv-x="704" 
d="M-1 0l268 706h169l269 -706h-706zM347 516l-133 -376h264z" />
    <glyph glyph-name="Epsilon" unicode="&#x395;" horiz-adv-x="596" 
d="M540 0h-292q-82 0 -134.5 46t-52.5 126v534h504l-21 -136h-317v-151h287l-22 -131h-265v-77q0 -75 69 -75h266z" />
    <glyph glyph-name="Zeta" unicode="&#x396;" horiz-adv-x="661" 
d="M622 0h-599q0 109 35.5 192.5t138.5 176.5q26 24 72.5 61.5t81 69.5t59.5 66h-348v140h575q-6 -118 -56 -196t-162 -164q-48 -37 -63.5 -50t-47.5 -42.5t-49 -55.5t-29 -58h392v-140z" />
    <glyph glyph-name="Eta" unicode="&#x397;" horiz-adv-x="748" 
d="M65 0v706h167v-281h285v281h166v-706h-166v290h-286v-290h-166z" />
    <glyph glyph-name="Theta" unicode="&#x398;" horiz-adv-x="844" 
d="M33 353q1 173 107.5 269t282.5 96q175 0 281.5 -96t106.5 -269t-106.5 -269t-281.5 -96q-176 0 -283 96t-107 269zM217 353q0 -95 55.5 -155t150.5 -60q94 0 149 60t55 155t-55 155t-149 60q-95 0 -150.5 -60t-55.5 -155zM294 411h267l-10 -112h-267z" />
    <glyph glyph-name="Iota" unicode="&#x399;" horiz-adv-x="295" 
d="M65 0v706h166v-706h-166z" />
    <glyph glyph-name="Kappa" unicode="&#x39a;" horiz-adv-x="673" 
d="M65 706h166v-288h23l207 288h179l-237 -312h16q34 0 59 -10.5t44 -36t30 -48t29 -65.5l30 -74q16 -39 36.5 -78t33.5 -60t15 -22h-194q-6 5 -23 38t-31 73l-24 62q-24 63 -38 79q-23 26 -75 26h-80v-278h-166v706z" />
    <glyph glyph-name="Lambda" unicode="&#x39b;" horiz-adv-x="692" 
d="M516 0l-175 508l-177 -508h-168l265 706h169l266 -706h-180z" />
    <glyph glyph-name="Mu" unicode="&#x39c;" horiz-adv-x="912" 
d="M209 0h-144v706h264l124 -421h2l128 421h264v-706h-166l2 574h-4l-173 -574h-126l-169 574h-4z" />
    <glyph glyph-name="Nu" unicode="&#x39d;" horiz-adv-x="750" 
d="M685 0h-180l-296 477v-477h-144v706h192l284 -468v468h144v-706z" />
    <glyph glyph-name="Xi" unicode="&#x39e;" horiz-adv-x="657" 
d="M114 417h443l-13 -125h-443zM54 132h562l-13 -132h-562zM68 706h534l-13 -132h-534z" />
    <glyph glyph-name="Omicron" unicode="&#x39f;" horiz-adv-x="844" 
d="M33 353q1 173 107.5 269t282.5 96q175 0 281.5 -96t106.5 -269t-106.5 -269t-281.5 -96q-176 0 -283 96t-107 269zM217 353q0 -95 55.5 -155t150.5 -60q94 0 149 60t55 155t-55 155t-149 60q-95 0 -150.5 -60t-55.5 -155z" />
    <glyph glyph-name="Pi" unicode="&#x3a0;" horiz-adv-x="724" 
d="M248 706h228q82 0 134.5 -46t52.5 -126v-534h-166v491q0 75 -69 75h-132q-69 0 -69 -75v-491h-166v534q0 80 52.5 126t134.5 46z" />
    <glyph glyph-name="Rho" unicode="&#x3a1;" horiz-adv-x="707" 
d="M65 706h401q108 0 165.5 -66.5t57.5 -165.5q0 -97 -62.5 -164.5t-175.5 -66.5h-131q-29 0 -48 9.5t-25.5 18t-15.5 25.5v-296h-166v706zM231 571v-132q0 -60 80 -60h96q53 0 78 26.5t25 69.5q0 53 -25 74.5t-75 21.5h-179z" />
    <glyph glyph-name="Sigma" unicode="&#x3a3;" horiz-adv-x="617" 
d="M230 388l-194 179v139h552l-20 -140h-327l204 -188l-210 -156q-37 -28 -37 -46q0 -36 50 -36h344l-20 -140h-370q-74 0 -122 41t-48 110q0 89 85 148z" />
    <glyph glyph-name="Tau" unicode="&#x3a4;" 
d="M220 566h-220v140h608l-19 -140h-203v-566h-166v566z" />
    <glyph glyph-name="Upsilon" unicode="&#x3a5;" horiz-adv-x="627" 
d="M32 474v232h166v-204q0 -51 31 -78t85 -27t84.5 27t30.5 78v204h167v-232q0 -89 -52 -144t-147 -64v-266h-166v266q-96 8 -147.5 63t-51.5 145z" />
    <glyph glyph-name="Phi" unicode="&#x3a6;" horiz-adv-x="871" 
d="M354 -28v80q-151 12 -236 92t-85 212q1 133 85.5 213t235.5 92v73h164v-74q151 -12 235.5 -91.5t84.5 -211.5q0 -133 -84.5 -213t-235.5 -92v-80h-164zM203 357q0 -68 38.5 -114t117.5 -59v345q-79 -13 -117.5 -59t-38.5 -113zM668 357q0 64 -38.5 111.5t-115.5 60.5
v-345q78 13 116 59t38 114z" />
    <glyph glyph-name="Chi" unicode="&#x3a7;" horiz-adv-x="659" 
d="M420 362l241 -362h-184l-149 232l-149 -232h-181l240 360l-231 346h184l138 -216l139 216h181z" />
    <glyph glyph-name="Psi" unicode="&#x3a8;" horiz-adv-x="869" 
d="M351 706h166v-342q142 23 142 151v191h166v-225q0 -107 -79 -181.5t-229 -91.5v-208h-166v208q-150 17 -229 91.5t-79 181.5v225h166v-191q0 -59 30.5 -98.5t111.5 -52.5v342z" />
    <glyph glyph-name="uni03A9" unicode="&#x3a9;" horiz-adv-x="859" 
d="M429 568q-93 0 -147 -56t-54 -151q0 -160 147 -227v-134h-335l13 136h120q-64 41 -96 106.5t-32 140.5q0 158 108.5 246.5t275.5 88.5q109 0 195 -38t138 -115t52 -182q0 -75 -32.5 -140.5t-96.5 -106.5h134l-13 -136h-322v134q147 67 147 227q0 95 -54.5 151t-147.5 56z
" />
    <glyph glyph-name="Iotadieresis" unicode="&#x3aa;" horiz-adv-x="295" 
d="M65 0v706h166v-706h-166zM-26 783v120h121v-120h-58h-63zM202 783v120h120v-120h-120z" />
    <glyph glyph-name="Upsilondieresis" unicode="&#x3ab;" horiz-adv-x="627" 
d="M32 474v232h166v-204q0 -51 31 -78t85 -27t84.5 27t30.5 78v204h167v-232q0 -89 -52 -144t-147 -64v-266h-166v266q-96 8 -147.5 63t-51.5 145zM136 782v120h121v-120h-58h-63zM364 782v120h120v-120h-120z" />
    <glyph glyph-name="alphatonos" unicode="&#x3ac;" horiz-adv-x="677" 
d="M186 260q0 -61 35 -100.5t91 -39.5q58 0 93 39t35 101q0 63 -35.5 102t-92.5 39q-56 0 -91 -40.5t-35 -100.5zM588 262q7 -97 59 -262h-150q-6 18 -24 80q-76 -90 -187 -90q-113 0 -187 73.5t-74 192.5q0 120 74.5 199t186.5 79q111 0 187 -88q16 58 24 81h150
q-52 -168 -59 -265zM462 755l-91 -152h-95l39 152h147z" />
    <glyph glyph-name="epsilontonos" unicode="&#x3ad;" horiz-adv-x="517" 
d="M193 160q0 -59 105 -61q71 0 150 38l41 -118q-96 -29 -215 -29q-107 0 -175.5 40t-68.5 118q0 61 35.5 96.5t92.5 41.5q-48 11 -76.5 40.5t-28.5 71.5q0 39 20.5 67t55.5 42t71.5 20.5t77.5 6.5q106 0 205 -32l-37 -114q-78 36 -142 36q-92 0 -92 -47q0 -22 22 -35
t63 -13h81l9 -111h-100q-94 0 -94 -58zM419 755l-91 -152h-95l39 152h147z" />
    <glyph glyph-name="etatonos" unicode="&#x3ae;" 
d="M405 -183v461q0 123 -102 123q-103 0 -103 -123v-278h-153v316q0 109 70.5 163.5t185.5 54.5t185 -54.5t70 -163.5v-499h-153zM447 755l-91 -152h-95l39 152h147z" />
    <glyph glyph-name="iotatonos" unicode="&#x3af;" horiz-adv-x="256" 
d="M50 527h156v-527h-156v527zM267 755l-91 -152h-95l39 152h147z" />
    <glyph glyph-name="upsilondieresistonos" unicode="&#x3b0;" 
d="M405 245v282h153v-320q0 -108 -70 -162.5t-185 -54.5q-116 0 -186 54.5t-70 162.5v320h153v-282q0 -123 103 -123q102 0 102 123zM122 609v121h118v-121h-59h-59zM366 609v121h118v-121h-118zM418 881l-94 -152h-93l43 152h66h78z" />
    <glyph glyph-name="alpha" unicode="&#x3b1;" horiz-adv-x="677" 
d="M186 260q0 -61 35 -100.5t91 -39.5q58 0 93 39t35 101q0 63 -35.5 102t-92.5 39q-56 0 -91 -40.5t-35 -100.5zM588 262q7 -97 59 -262h-150q-6 18 -24 80q-76 -90 -187 -90q-113 0 -187 73.5t-74 192.5q0 120 74.5 199t186.5 79q111 0 187 -88q16 58 24 81h150
q-52 -168 -59 -265z" />
    <glyph glyph-name="beta" unicode="&#x3b2;" horiz-adv-x="616" 
d="M352 -10q-100 0 -149 57v-227h-153v698q0 58 24 98.5t64.5 59.5t80.5 27t85 8q43 0 82.5 -8.5t77 -28t60 -58t22.5 -91.5q0 -44 -28.5 -83.5t-84.5 -53.5q75 -19 114 -68t39 -122q0 -92 -62 -150t-172 -58zM203 489v-250q0 -60 32.5 -94.5t82.5 -34.5q48 0 78.5 27
t30.5 73q0 48 -30.5 75.5t-84.5 27.5h-64l23 121h31q34 0 60 19.5t26 57.5q0 33 -20.5 56.5t-65.5 23.5q-55 0 -77 -26.5t-22 -75.5z" />
    <glyph glyph-name="gamma" unicode="&#x3b3;" horiz-adv-x="524" 
d="M184 13l-193 514h166l113 -362l110 362h153l-194 -514v-196h-155v196z" />
    <glyph glyph-name="delta" unicode="&#x3b4;" horiz-adv-x="651" 
d="M188 251q0 -59 38 -94t99 -35t99.5 35t38.5 94q-1 58 -39 93t-99 36q-59 0 -98 -35.5t-39 -93.5zM229 491q-76 49 -157 109v106h504l-24 -117h-272q29 -17 91.5 -51.5t94.5 -52.5q81 -46 120 -100t39 -138q0 -122 -85.5 -189.5t-214.5 -67.5t-214.5 67.5t-85.5 189.5
q0 97 58 161.5t146 82.5z" />
    <glyph glyph-name="epsilon" unicode="&#x3b5;" horiz-adv-x="517" 
d="M193 160q0 -59 105 -61q71 0 150 38l41 -118q-96 -29 -215 -29q-107 0 -175.5 40t-68.5 118q0 61 35.5 96.5t92.5 41.5q-48 11 -76.5 40.5t-28.5 71.5q0 39 20.5 67t55.5 42t71.5 20.5t77.5 6.5q106 0 205 -32l-37 -114q-78 36 -142 36q-92 0 -92 -47q0 -22 22 -35
t63 -13h81l9 -111h-100q-94 0 -94 -58z" />
    <glyph glyph-name="zeta" unicode="&#x3b6;" horiz-adv-x="504" 
d="M105 589v117h404l-20 -101q-120 -78 -205.5 -178.5t-85.5 -180.5q0 -57 33 -84.5t94 -44.5q79 -20 120 -53.5t41 -95.5q0 -165 -262 -165l23 117q100 0 100 44q0 38 -79 46q-123 21 -178 76.5t-55 151.5q0 94 72.5 187t177.5 164h-180z" />
    <glyph glyph-name="eta" unicode="&#x3b7;" 
d="M405 -183v461q0 123 -102 123q-103 0 -103 -123v-278h-153v316q0 109 70.5 163.5t185.5 54.5t185 -54.5t70 -163.5v-499h-153z" />
    <glyph glyph-name="theta" unicode="&#x3b8;" horiz-adv-x="651" 
d="M30 350q0 176 81 268.5t214 92.5t214.5 -92.5t81.5 -268.5t-81 -268t-215 -92q-133 0 -214 92t-81 268zM325 123q55 0 89 42t43 125h-263q8 -83 42 -125t89 -42zM325 578q-54 0 -88 -42t-43 -124h263q-10 82 -44 124t-88 42z" />
    <glyph glyph-name="iota" unicode="&#x3b9;" horiz-adv-x="256" 
d="M50 527h156v-527h-156v527z" />
    <glyph glyph-name="kappa" unicode="&#x3ba;" horiz-adv-x="545" 
d="M50 527h153v-210h17l146 210h170l-172 -219h10q47 0 68 -22.5t37 -71.5l28 -97q21 -70 48 -117h-166q-17 39 -30 81l-22 77q-10 32 -25 45t-43 13h-66v-216h-153v527z" />
    <glyph glyph-name="lambda" unicode="&#x3bb;" horiz-adv-x="548" 
d="M112 706h176l257 -706h-166l-116 351l-107 -351h-153l183 517z" />
    <glyph glyph-name="uni03BC" unicode="&#x3bc;" horiz-adv-x="607" 
d="M49 -183v710h153v-282q0 -123 102 -123q103 0 103 123v282h153v-320q0 -106 -68 -161.5t-160 -55.5q-85 0 -130 37v-210h-153z" />
    <glyph glyph-name="nu" unicode="&#x3bd;" horiz-adv-x="512" 
d="M173 0l-188 527h166l114 -366l109 366h153l-189 -527h-165z" />
    <glyph glyph-name="xi" unicode="&#x3be;" horiz-adv-x="500" 
d="M478 693l-24 -119q-47 15 -103 15q-121 0 -121 -61q0 -58 116 -58h101l-25 -123q-89 0 -153.5 -36.5t-64.5 -92.5q0 -20 8 -36t18.5 -25t29.5 -16.5t32 -11t34 -7.5q42 -12 68.5 -22.5t52.5 -28.5t38.5 -45t12.5 -64q0 -79 -74 -119t-200 -40l26 116q108 0 108 43
q0 36 -72 46q-123 20 -183.5 65.5t-60.5 138.5q0 74 47 125.5t134 75.5q-73 11 -114 47.5t-41 86.5q0 46 23.5 79.5t62.5 50.5t80.5 24.5t87.5 7.5q82 0 156 -16z" />
    <glyph glyph-name="omicron" unicode="&#x3bf;" horiz-adv-x="651" 
d="M25 262q0 128 87 200t213 72q129 0 214.5 -72t85.5 -200t-85.5 -200t-214.5 -72q-128 0 -214 72t-86 200zM188 262q0 -64 38 -102t99 -38t99.5 38t38.5 102q-1 63 -39 101t-99 39q-59 0 -98 -38.5t-39 -101.5z" />
    <glyph glyph-name="pi" unicode="&#x3c0;" horiz-adv-x="687" 
d="M661 397h-80v-397h-155v397h-176v-397h-155v397h-91v130h684z" />
    <glyph glyph-name="rho" unicode="&#x3c1;" horiz-adv-x="659" 
d="M44 -183v445q0 119 78 195.5t215 76.5q132 0 214.5 -76.5t82.5 -198.5q0 -116 -73.5 -192.5t-190.5 -76.5q-115 0 -173 66v-239h-153zM198 262q0 -62 38 -101t100 -39t100 39t38 101q0 60 -38.5 100t-99.5 40q-62 0 -100 -39t-38 -101z" />
    <glyph glyph-name="sigma1" unicode="&#x3c2;" horiz-adv-x="511" 
d="M493 499l-25 -142q-65 44 -127 44q-67 0 -110 -40.5t-43 -95.5q0 -53 33 -80t93 -46q79 -27 124 -63.5t45 -99.5q0 -82 -61.5 -127.5t-163.5 -45.5q-47 0 -96 6l25 120q41 -10 67 -10q36 0 57.5 13.5t21.5 36.5q0 38 -82 59q-122 32 -174 90.5t-52 144.5q0 124 84 197.5
t217 73.5q88 0 167 -35z" />
    <glyph glyph-name="sigma" unicode="&#x3c3;" horiz-adv-x="734" 
d="M25 262q0 128 87 200t213 72q34 0 74 -7h316l-14 -129h-116q40 -58 40 -136q0 -128 -85.5 -200t-214.5 -72q-128 0 -214 72t-86 200zM188 262q0 -64 38 -102t99 -38t99.5 38t38.5 102q-1 63 -39 101t-99 39q-59 0 -98 -38.5t-39 -101.5z" />
    <glyph glyph-name="tau" unicode="&#x3c4;" horiz-adv-x="500" 
d="M173 398h-169v129h494l-17 -129h-155v-398h-153v398z" />
    <glyph glyph-name="upsilon" unicode="&#x3c5;" 
d="M405 245v282h153v-320q0 -108 -70 -162.5t-185 -54.5q-116 0 -186 54.5t-70 162.5v320h153v-282q0 -123 103 -123q102 0 102 123z" />
    <glyph glyph-name="phi" unicode="&#x3c6;" horiz-adv-x="781" 
d="M276 534l-20 -130q-80 -36 -80 -135q0 -61 36 -102t99 -48v233q0 88 52 135t140 47q113 0 182 -65.5t70 -185.5q1 -117 -79.5 -194.5t-213.5 -92.5v-179h-151v179q-133 11 -209.5 84.5t-76.5 189.5q0 42 13.5 83.5t41.5 81t78.5 66.5t117.5 33zM462 322v-205
q65 11 102.5 54t36.5 105q-1 61 -23 95t-59 34q-57 0 -57 -83z" />
    <glyph glyph-name="chi" unicode="&#x3c7;" horiz-adv-x="546" 
d="M190 179l-192 348h165l110 -216l110 216h162l-191 -346l202 -364h-165l-119 233l-120 -233h-162z" />
    <glyph glyph-name="psi" unicode="&#x3c8;" horiz-adv-x="789" 
d="M317 527h155v-399q61 10 89 40t28 84v275h153v-300q0 -101 -70.5 -160.5t-199.5 -72.5v-177h-155v176q-130 13 -200 72.5t-70 161.5v300h153v-275q0 -54 27.5 -84.5t89.5 -40.5v400z" />
    <glyph glyph-name="omega" unicode="&#x3c9;" horiz-adv-x="890" 
d="M446 99h-2q-19 -48 -64.5 -78.5t-107.5 -30.5q-109 0 -170.5 74.5t-61.5 189.5q0 61 14 120.5t25 85.5t31 67h155q-71 -151 -71 -267q0 -138 86 -138q40 0 64.5 33.5t24.5 91.5v173h152v-173q0 -58 24.5 -91.5t64.5 -33.5q86 0 86 138q0 116 -71 267h155q21 -44 31 -67.5
t24 -84t14 -121.5q0 -115 -61 -189.5t-171 -74.5q-63 0 -107.5 30t-63.5 79z" />
    <glyph glyph-name="iotadieresis" unicode="&#x3ca;" horiz-adv-x="256" 
d="M50 527h156v-527h-156v527zM-24 620v120h121v-120h-58h-63zM159 620v120h120v-120h-120z" />
    <glyph glyph-name="upsilondieresis" unicode="&#x3cb;" 
d="M405 245v282h153v-320q0 -108 -70 -162.5t-185 -54.5q-116 0 -186 54.5t-70 162.5v320h153v-282q0 -123 103 -123q102 0 102 123zM127 620v120h121v-120h-58h-63zM355 620v120h120v-120h-120z" />
    <glyph glyph-name="omicrontonos" unicode="&#x3cc;" horiz-adv-x="651" 
d="M25 262q0 128 87 200t213 72q129 0 214.5 -72t85.5 -200t-85.5 -200t-214.5 -72q-128 0 -214 72t-86 200zM188 262q0 -64 38 -102t99 -38t99.5 38t38.5 102q-1 63 -39 101t-99 39q-59 0 -98 -38.5t-39 -101.5zM470 755l-91 -152h-95l39 152h147z" />
    <glyph glyph-name="upsilontonos" unicode="&#x3cd;" 
d="M405 245v282h153v-320q0 -108 -70 -162.5t-185 -54.5q-116 0 -186 54.5t-70 162.5v320h153v-282q0 -123 103 -123q102 0 102 123zM446 755l-91 -152h-95l39 152h147z" />
    <glyph glyph-name="omegatonos" unicode="&#x3ce;" horiz-adv-x="890" 
d="M446 99h-2q-19 -48 -64.5 -78.5t-107.5 -30.5q-109 0 -170.5 74.5t-61.5 189.5q0 61 14 120.5t25 85.5t31 67h155q-71 -151 -71 -267q0 -138 86 -138q40 0 64.5 33.5t24.5 91.5v173h152v-173q0 -58 24.5 -91.5t64.5 -33.5q86 0 86 138q0 116 -71 267h155q21 -44 31 -67.5
t24 -84t14 -121.5q0 -115 -61 -189.5t-171 -74.5q-63 0 -107.5 30t-63.5 79zM587 755l-91 -152h-95l39 152h147z" />
    <glyph glyph-name="afii10023" unicode="&#x401;" horiz-adv-x="596" 
d="M540 0h-292q-82 0 -134.5 46t-52.5 126v534h504l-21 -136h-317v-151h287l-22 -131h-265v-77q0 -75 69 -75h266zM134 781v120h121v-120h-58h-63zM362 781v120h120v-120h-120z" />
    <glyph glyph-name="afii10051" unicode="&#x402;" horiz-adv-x="887" 
d="M678 223q0 104 -120 104q-118 0 -179 -58v-269h-166v566h-213v140h608l-19 -140h-210v-146q90 44 205 44q128 0 199 -66.5t71 -177.5q0 -115 -78.5 -174t-211.5 -59q-26 0 -76 6l18 130q20 -4 38 -4q58 0 96 25t38 79z" />
    <glyph glyph-name="afii10052" unicode="&#x403;" horiz-adv-x="552" 
d="M248 706h303l-22 -140h-233q-69 0 -69 -75v-491h-166v534q0 80 52.5 126t134.5 46zM500 918l-137 -152h-121l86 152h172z" />
    <glyph glyph-name="afii10053" unicode="&#x404;" horiz-adv-x="661" 
d="M462 576q-97 0 -157 -42.5t-77 -116.5h314l-28 -128h-284q20 -74 82 -116.5t151 -42.5q90 0 165 33l-11 -145q-82 -30 -196 -30q-176 0 -282 100t-106 266q1 165 109.5 264.5t281.5 99.5q110 0 192 -30l11 -145q-73 33 -165 33z" />
    <glyph glyph-name="afii10054" unicode="&#x405;" horiz-adv-x="582" 
d="M540 665l-57 -136q-77 55 -171 55q-104 0 -104 -59q0 -11 5 -20.5t11.5 -16.5t19.5 -15t20.5 -12t24.5 -12t22 -10l81 -37q81 -38 120.5 -84.5t39.5 -121.5q0 -105 -77.5 -156.5t-199.5 -51.5q-138 0 -255 54l59 138q103 -57 194 -57q101 0 101 70q0 17 -9 31.5t-29 27.5
t-32 20t-37 18l-86 38q-76 33 -114 78.5t-38 114.5q0 95 77 146t193 51q117 0 241 -53z" />
    <glyph glyph-name="afii10055" unicode="&#x406;" horiz-adv-x="295" 
d="M65 0v706h166v-706h-166z" />
    <glyph glyph-name="afii10056" unicode="&#x407;" horiz-adv-x="295" 
d="M65 0v706h166v-706h-166zM-26 783v120h121v-120h-58h-63zM202 783v120h120v-120h-120z" />
    <glyph glyph-name="afii10057" unicode="&#x408;" horiz-adv-x="317" 
d="M93 706h166v-339q0 -207 -97 -367h-179q28 45 42 70.5t33 72t27 102t8 126.5v335z" />
    <glyph glyph-name="afii10058" unicode="&#x409;" horiz-adv-x="1096" 
d="M275 491v-278q0 -213 -226 -213h-36v139h28q68 0 68 76v319q0 80 52 126t134 46h347v-261h189q239 0 239 -221q0 -119 -62 -171.5t-177 -52.5h-167q-91 0 -139.5 50t-48.5 131v385h-133q-68 0 -68 -75zM800 309h-158v-111q0 -62 74 -62h84q91 0 91 88q0 85 -91 85z" />
    <glyph glyph-name="afii10059" unicode="&#x40a;" horiz-adv-x="1096" 
d="M642 706v-261h189q239 0 239 -221q0 -119 -62 -171.5t-177 -52.5h-167q-91 0 -139.5 50t-48.5 131v128h-235v-309h-166v706h167v-261h234v261h166zM800 309h-158v-111q0 -62 74 -62h84q91 0 91 88q0 85 -91 85z" />
    <glyph glyph-name="afii10060" unicode="&#x40b;" horiz-adv-x="882" 
d="M213 0v566h-213v140h608l-19 -140h-210v-146q56 45 162 45q127 0 206 -55t79 -163v-247h-166v199q0 61 -31 93.5t-107 32.5q-112 0 -143 -69v-256h-166z" />
    <glyph glyph-name="afii10061" unicode="&#x40c;" horiz-adv-x="673" 
d="M262 414l116 183q37 62 79 85.5t110 23.5h96l-16 -135h-32q-36 0 -57.5 -13t-41.5 -43l-87 -123h13q45 0 75.5 -36t58.5 -107l35 -89q16 -39 36.5 -78.5t33.5 -60t15 -21.5h-194q-6 5 -23 38t-31 73l-27 69q-2 5 -7 19t-6.5 17.5t-6.5 14.5t-7.5 14.5t-7.5 11t-9.5 10
t-12 7t-15 6t-17 3t-21.5 1.5h-80v-284h-166v706h166v-292h31zM512 923l-138 -152h-120l85 152h173z" />
    <glyph glyph-name="afii10062" unicode="&#x40e;" horiz-adv-x="728" 
d="M353 776q-57 0 -99 27t-58 83l91 39q12 -66 66 -66t66 66l92 -39q-17 -56 -59 -83t-99 -27zM43 502v204h165v-178q0 -144 146 -144q148 0 148 143v179h165v-401q0 -87 -30 -151.5t-80 -99t-106 -50.5t-118 -16q-118 0 -228 25l32 143q84 -25 161 -24q204 3 204 163
q-64 -56 -176 -56q-283 0 -283 263z" />
    <glyph glyph-name="afii10145" unicode="&#x40f;" horiz-adv-x="724" 
d="M663 706v-534q0 -80 -52.5 -126t-134.5 -46h-45v-161h-138v161h-45q-82 0 -134.5 46t-52.5 126v534h166v-491q0 -75 69 -75h132q69 0 69 75v491h166z" />
    <glyph glyph-name="afii10017" unicode="&#x410;" horiz-adv-x="653" 
d="M489 0l-51 161h-241l-52 -161h-153l233 706h209l229 -706h-174zM318 570l-81 -278h161z" />
    <glyph glyph-name="afii10018" unicode="&#x411;" horiz-adv-x="675" 
d="M61 706h511l-30 -136h-315v-127h183q239 0 239 -220q0 -118 -62 -170.5t-177 -52.5h-161q-91 0 -139.5 50t-48.5 131v525zM379 311h-152v-113q0 -62 74 -62h78q91 0 91 89q0 47 -23 66.5t-68 19.5z" />
    <glyph glyph-name="afii10019" unicode="&#x412;" horiz-adv-x="685" 
d="M61 706h337q219 0 219 -178q0 -61 -30.5 -102.5t-84.5 -47.5q79 -7 118 -55.5t39 -124.5q0 -198 -239 -198h-171q-91 0 -139.5 50t-48.5 131v525zM227 354v-156q0 -62 74 -62h88q91 0 91 84q0 82 -91 82h-85q-35 0 -51.5 11.5t-25.5 40.5zM227 570v-96q0 -59 58 -59h65
q90 0 90 79q0 43 -23.5 59.5t-67.5 16.5h-122z" />
    <glyph glyph-name="afii10020" unicode="&#x413;" horiz-adv-x="552" 
d="M248 706h303l-22 -140h-233q-69 0 -69 -75v-491h-166v534q0 80 52.5 126t134.5 46z" />
    <glyph glyph-name="afii10021" unicode="&#x414;" horiz-adv-x="795" 
d="M337 498q0 -208 -67 -358h255v426h-126q-34 0 -48 -16.5t-14 -51.5zM76 140h21q74 153 74 401q0 79 45 122t129 43h346v-566h16q67 0 67 -69v-225h-138v113q0 41 -39 41h-411q-38 0 -38 -41v-113h-138v225q0 69 66 69z" />
    <glyph glyph-name="afii10022" unicode="&#x415;" horiz-adv-x="596" 
d="M540 0h-292q-82 0 -134.5 46t-52.5 126v534h504l-21 -136h-317v-151h287l-22 -131h-265v-77q0 -75 69 -75h266z" />
    <glyph glyph-name="afii10024" unicode="&#x416;" horiz-adv-x="1004" 
d="M593 414l109 183q36 63 78.5 86t113.5 23h93l-16 -135h-32q-37 0 -58.5 -13t-39.5 -43l-81 -123h5q44 0 75.5 -36t59.5 -107l35 -89q16 -39 36.5 -78.5t33.5 -60t16 -21.5h-195q-19 19 -54 111l-26 69q-2 5 -8 20.5t-7.5 19.5t-7 16t-8.5 15t-9.5 11t-12.5 10t-15 6
t-19 5t-23 1h-51v-284h-166v284h-51q-13 0 -23 -1t-19 -5t-15 -6t-12.5 -10t-9.5 -11t-8.5 -15t-7 -16t-7.5 -19.5t-8 -20.5l-26 -69q-35 -92 -54 -111h-195q3 1 16 21.5t33.5 60t36.5 78.5l35 89q28 70 59.5 106.5t75.5 36.5h5l-81 123q-18 30 -39.5 43t-58.5 13h-32
l-16 135h93q71 0 113.5 -23t78.5 -86l109 -183h8v292h166v-292h8z" />
    <glyph glyph-name="afii10025" unicode="&#x417;" horiz-adv-x="636" 
d="M421 215q0 45 -34.5 68.5t-97.5 23.5h-129l14 127h103q58 0 90.5 20.5t32.5 54.5q0 38 -39.5 55t-93.5 18q-82 1 -185 -38l-46 132q119 42 247 42q52 0 99 -8.5t92.5 -27.5t72.5 -56.5t27 -89.5q0 -58 -39 -99.5t-101 -50.5q76 -7 123.5 -55.5t47.5 -130.5
q0 -70 -46.5 -119.5t-116 -71t-153.5 -21.5q-141 0 -261 39l47 133q104 -37 202 -36q65 1 104.5 23.5t39.5 67.5z" />
    <glyph glyph-name="afii10026" unicode="&#x418;" horiz-adv-x="750" 
d="M232 0h-167v706h157v-468l284 468h179v-706h-157v477z" />
    <glyph glyph-name="afii10027" unicode="&#x419;" horiz-adv-x="750" 
d="M376 776q-57 0 -99 27t-58 83l91 39q12 -66 66 -66t66 66l92 -39q-17 -56 -59 -83t-99 -27zM232 0h-167v706h157v-468l284 468h179v-706h-157v477z" />
    <glyph glyph-name="afii10028" unicode="&#x41a;" horiz-adv-x="680" 
d="M262 414l116 183q37 62 79 85.5t110 23.5h96l-16 -135h-32q-36 0 -57.5 -13t-41.5 -43l-87 -123h13q45 0 75.5 -36t58.5 -107l35 -89q16 -39 36.5 -78.5t33.5 -60t15 -21.5h-194q-6 5 -23 38t-31 73l-27 69q-2 5 -7 19t-6.5 17.5t-6.5 14.5t-7.5 14.5t-7.5 11t-9.5 10
t-12 7t-15 6t-17 3t-21.5 1.5h-80v-284h-166v706h166v-292h31z" />
    <glyph glyph-name="afii10029" unicode="&#x41b;" horiz-adv-x="706" 
d="M275 491v-278q0 -101 -52.5 -157t-173.5 -56h-36v139h29q67 0 67 76v319q0 80 52 126t134 46h347v-706h-166v566h-133q-68 0 -68 -75z" />
    <glyph glyph-name="afii10030" unicode="&#x41c;" horiz-adv-x="912" 
d="M209 0h-144v706h264l124 -421h2l128 421h264v-706h-166l2 574h-4l-173 -574h-126l-169 574h-4z" />
    <glyph glyph-name="afii10031" unicode="&#x41d;" horiz-adv-x="748" 
d="M65 0v706h167v-281h285v281h166v-706h-166v290h-286v-290h-166z" />
    <glyph glyph-name="afii10032" unicode="&#x41e;" horiz-adv-x="844" 
d="M33 353q1 173 107.5 269t282.5 96q175 0 281.5 -96t106.5 -269t-106.5 -269t-281.5 -96q-176 0 -283 96t-107 269zM217 353q0 -95 55.5 -155t150.5 -60q94 0 149 60t55 155t-55 155t-149 60q-95 0 -150.5 -60t-55.5 -155z" />
    <glyph glyph-name="afii10033" unicode="&#x41f;" horiz-adv-x="724" 
d="M248 706h228q82 0 134.5 -46t52.5 -126v-534h-166v491q0 75 -69 75h-132q-69 0 -69 -75v-491h-166v534q0 80 52.5 126t134.5 46z" />
    <glyph glyph-name="afii10034" unicode="&#x420;" horiz-adv-x="707" 
d="M65 706h401q108 0 165.5 -66.5t57.5 -165.5q0 -97 -62.5 -164.5t-175.5 -66.5h-131q-29 0 -48 9.5t-25.5 18t-15.5 25.5v-296h-166v706zM231 571v-132q0 -60 80 -60h96q53 0 78 26.5t25 69.5q0 53 -25 74.5t-75 21.5h-179z" />
    <glyph glyph-name="afii10035" unicode="&#x421;" horiz-adv-x="631" 
d="M33 354q1 164 106.5 264t267.5 100q118 0 216 -50l-63 -130q-59 32 -129 32q-96 0 -155 -59.5t-59 -156.5q0 -101 66 -161t166 -60q72 0 144 33l-18 -146q-83 -32 -167 -32q-165 0 -270 101t-105 265z" />
    <glyph glyph-name="afii10036" unicode="&#x422;" 
d="M220 566h-220v140h608l-19 -140h-203v-566h-166v566z" />
    <glyph glyph-name="afii10037" unicode="&#x423;" horiz-adv-x="728" 
d="M43 502v204h165v-178q0 -144 146 -144q148 0 148 143v179h165v-401q0 -87 -30 -151.5t-80 -99t-106 -50.5t-118 -16q-118 0 -228 25l32 143q84 -25 161 -24q204 3 204 163q-64 -56 -176 -56q-283 0 -283 263z" />
    <glyph glyph-name="afii10038" unicode="&#x424;" horiz-adv-x="838" 
d="M338 0v81q-145 15 -225 87.5t-80 193.5q1 121 81 193t224 88v63h164v-64q144 -16 223.5 -87.5t79.5 -192.5t-79.5 -193t-223.5 -88v-81h-164zM635 362q0 56 -35 95.5t-103 52.5v-298q68 14 103 53t35 97zM203 362q0 -57 35.5 -96.5t103.5 -53.5v298q-68 -13 -103.5 -52.5
t-35.5 -95.5z" />
    <glyph glyph-name="afii10039" unicode="&#x425;" horiz-adv-x="659" 
d="M328 232l-149 -232h-181l240 360l-231 346h184l138 -216l139 216h181l-229 -344q106 -161 241 -362h-184z" />
    <glyph glyph-name="afii10040" unicode="&#x426;" horiz-adv-x="771" 
d="M616 -167v126q0 41 -41 41h-327q-82 0 -134.5 46t-52.5 126v534h166v-491q0 -75 69 -75h208v566h166v-567h18q66 0 66 -68v-238h-138z" />
    <glyph glyph-name="afii10041" unicode="&#x427;" horiz-adv-x="689" 
d="M624 706v-706h-166v270q-82 -41 -173 -41q-115 0 -178 54t-63 164v259h166v-222q0 -54 25.5 -84.5t91.5 -30.5q40 0 75.5 14.5t55.5 33.5v289h166z" />
    <glyph glyph-name="afii10042" unicode="&#x428;" horiz-adv-x="985" 
d="M923 706v-534q0 -80 -52 -126t-134 -46h-489q-82 0 -134.5 46t-52.5 126v534h166v-491q0 -75 69 -75h113v566h166v-566h114q68 0 68 75v491h166z" />
    <glyph glyph-name="afii10043" unicode="&#x429;" horiz-adv-x="1021" 
d="M870 -167v126q0 41 -41 41h-581q-82 0 -134.5 46t-52.5 126v534h166v-491q0 -75 69 -75h113v566h166v-566h182v566h166v-567h19q66 0 66 -68v-238h-138z" />
    <glyph glyph-name="afii10044" unicode="&#x42a;" horiz-adv-x="803" 
d="M0 570l27 136h322v-261h189q239 0 239 -221q0 -119 -62 -171.5t-177 -52.5h-167q-91 0 -139.5 50t-48.5 131v389h-183zM507 309h-158v-111q0 -62 74 -62h84q91 0 91 88q0 85 -91 85z" />
    <glyph glyph-name="afii10045" unicode="&#x42b;" horiz-adv-x="957" 
d="M227 706v-261h190q239 0 239 -221q0 -119 -62 -171.5t-178 -52.5h-167q-91 0 -139.5 50t-48.5 131v525h166zM385 309h-158v-111q0 -62 74 -62h85q90 0 90 88q0 46 -23 65.5t-68 19.5zM726 0v706h166v-706h-166z" />
    <glyph glyph-name="afii10046" unicode="&#x42c;" horiz-adv-x="681" 
d="M227 706v-261h190q239 0 239 -221q0 -119 -62 -171.5t-178 -52.5h-167q-91 0 -139.5 50t-48.5 131v525h166zM385 309h-158v-111q0 -62 74 -62h85q90 0 90 88q0 46 -23 65.5t-68 19.5z" />
    <glyph glyph-name="afii10047" unicode="&#x42d;" horiz-adv-x="661" 
d="M199 576q-92 0 -165 -33l11 145q82 30 192 30q173 0 281.5 -99.5t109.5 -264.5q0 -166 -106 -266t-282 -100q-115 0 -196 28l-11 147q75 -33 165 -33q88 0 150 42.5t83 116.5h-312l28 128h286q-17 74 -77 116.5t-157 42.5z" />
    <glyph glyph-name="afii10048" unicode="&#x42e;" horiz-adv-x="1161" 
d="M739 -12q-158 0 -262 79t-122 223h-124v-290h-166v706h167v-281h124q22 140 125 216.5t258 76.5q176 0 282.5 -96t106.5 -269t-106.5 -269t-282.5 -96zM534 353q0 -95 55.5 -155t149.5 -60q95 0 150 60t55 155t-55 155t-150 60q-94 0 -149.5 -60t-55.5 -155z" />
    <glyph glyph-name="afii10049" unicode="&#x42f;" horiz-adv-x="731" 
d="M263 706h403v-706h-166v300q-1 -2 -4 -9t-4.5 -9.5t-5.5 -8.5t-7.5 -8.5t-9.5 -6.5t-13 -6t-16.5 -3.5t-21.5 -1.5l-41 -1q-16 0 -29.5 -4t-23 -7.5t-19.5 -15.5t-15 -17.5t-13.5 -24.5t-11 -25.5t-11 -31.5t-11.5 -32q-22 -63 -49 -88h-193q33 44 60 108q4 11 16 40.5
t16.5 39t17 30.5t24 30.5t31 21.5t44.5 19q-71 5 -121.5 63t-50.5 141q0 85 58.5 149t166.5 64zM500 436v135h-179q-52 0 -78 -22t-26 -75q0 -44 25 -71t77 -27h100q81 0 81 60z" />
    <glyph glyph-name="afii10065" unicode="&#x430;" horiz-adv-x="670" 
d="M626 247v-247h-150v65q-67 -73 -180 -73q-118 0 -194.5 73t-76.5 193q0 121 82.5 198.5t217.5 77.5q140 0 220.5 -78t80.5 -209zM461 262q0 62 -38 101t-100 39q-61 0 -99 -40t-38 -100q0 -62 37.5 -101t99.5 -39t100 39t38 101z" />
    <glyph glyph-name="afii10066" unicode="&#x431;" horiz-adv-x="655" 
d="M191 254q0 -59 38.5 -95.5t100.5 -36.5q61 0 99 37.5t38 94.5q0 58 -37.5 95t-99.5 37t-100.5 -36.5t-38.5 -95.5zM29 291v42q0 193 75 275q75 81 228 89q32 2 43 3t30 4t27 7.5t11 12.5h133q-3 -65 -46.5 -102t-124.5 -38q-45 -1 -76.5 -5t-65 -15.5t-52.5 -36.5
t-22 -63q59 52 171 52q117 0 193 -68.5t76 -194.5q0 -119 -86 -191t-207 -72q-149 0 -228 82.5t-79 218.5z" />
    <glyph glyph-name="afii10067" unicode="&#x432;" horiz-adv-x="590" 
d="M48 527h308q169 0 169 -133q0 -45 -24.5 -76.5t-68.5 -35.5q65 -6 96.5 -42t31.5 -93q0 -147 -181 -147h-180q-73 0 -112 38.5t-39 99.5v389zM201 253v-98q0 -50 59 -50h72q67 0 67 56q0 55 -67 55h-63q-32 0 -45.5 7t-22.5 30zM201 422v-65q0 -41 47 -41h55q62 0 62 54
q0 52 -67 52h-97z" />
    <glyph glyph-name="afii10068" unicode="&#x433;" horiz-adv-x="449" 
d="M48 0v399q0 59 41.5 93.5t102.5 34.5h253l-22 -130h-171q-51 0 -51 -55v-342h-153z" />
    <glyph glyph-name="afii10069" unicode="&#x434;" horiz-adv-x="649" 
d="M570 527v-398h6q66 0 66 -67v-196h-130v93q0 41 -42 41h-302q-38 0 -38 -41v-93h-129v196q0 67 66 67h6q57 127 64 275q3 58 38.5 90.5t95.5 32.5h299zM235 129h182v269h-83q-26 0 -36 -11t-11 -37q-5 -119 -52 -221z" />
    <glyph glyph-name="afii10070" unicode="&#x435;" horiz-adv-x="611" 
d="M486 133l-10 -118q-61 -25 -150 -25q-134 0 -217.5 74.5t-83.5 203.5q0 116 77.5 191t204.5 75q141 0 213.5 -83t70.5 -227h-396q10 -60 59 -89.5t109 -29.5q64 0 123 28zM312 426q-48 0 -80 -27.5t-42 -72.5h236q-6 47 -36.5 73.5t-77.5 26.5z" />
    <glyph glyph-name="afii10072" unicode="&#x436;" horiz-adv-x="816" 
d="M797 527l-13 -128h-31q-45 0 -66 -32l-53 -77h6q39 0 60 -24t38 -70l30 -79q31 -78 57 -117h-167q-24 46 -37 81l-24 67q-12 31 -27 44.5t-43 13.5h-42v-206h-153v206h-43q-28 0 -43 -13.5t-26 -44.5l-25 -67q-17 -47 -37 -81h-167q26 39 57 117l30 79q17 45 38.5 69.5
t59.5 24.5h6l-53 77q-21 32 -65 32h-32l-13 128h72q58 0 94 -22t64 -65l80 -130h3v217h153v-217h3l80 130q54 87 157 87h72z" />
    <glyph glyph-name="afii10073" unicode="&#x437;" horiz-adv-x="517" 
d="M324 160q0 58 -95 58h-99l8 111h82q40 0 62 13t22 35q0 47 -91 47q-66 0 -142 -36l-37 114q97 32 204 32q41 0 78 -6.5t72 -20.5t55.5 -42t20.5 -67q0 -42 -28.5 -71.5t-76.5 -40.5q57 -6 92 -41t35 -97q0 -78 -68.5 -118t-174.5 -40q-119 0 -215 29l41 118
q78 -38 150 -38q105 2 105 61z" />
    <glyph glyph-name="afii10074" unicode="&#x438;" horiz-adv-x="607" 
d="M206 0h-157v527h149v-323l196 323h164v-527h-149v337z" />
    <glyph glyph-name="afii10075" unicode="&#x439;" horiz-adv-x="607" 
d="M206 0h-157v527h149v-323l196 323h164v-527h-149v337zM306 603q-57 0 -99 27t-59 83l92 39q12 -66 66 -66t66 66l91 -39q-16 -56 -58 -83t-99 -27z" />
    <glyph glyph-name="afii10076" unicode="&#x43a;" horiz-adv-x="553" 
d="M532 527l-12 -128h-32q-43 0 -65 -32l-56 -77h10q38 0 59 -24t39 -70l30 -79q25 -69 57 -117h-167q-20 34 -37 81l-25 67q-11 31 -26 44.5t-43 13.5h-61v-206h-153v527h153v-217h16l84 130q54 87 157 87h72z" />
    <glyph glyph-name="afii10077" unicode="&#x43b;" horiz-adv-x="593" 
d="M235 342v-183q0 -159 -173 -159h-50v129h21q50 0 50 56v214q0 59 41 93.5t102 34.5h318v-527h-153v398h-105q-51 0 -51 -56z" />
    <glyph glyph-name="afii10078" unicode="&#x43c;" horiz-adv-x="766" 
d="M186 0h-137v527h234l101 -315h2l102 315h228v-527h-153l2 413h-3l-130 -413h-113l-131 413h-3z" />
    <glyph glyph-name="afii10079" unicode="&#x43d;" horiz-adv-x="613" 
d="M49 0v527h153v-195h209v195h153v-527h-153v203h-209v-203h-153z" />
    <glyph glyph-name="afii10080" unicode="&#x43e;" horiz-adv-x="651" 
d="M25 262q0 128 87 200t213 72q129 0 214.5 -72t85.5 -200t-85.5 -200t-214.5 -72q-128 0 -214 72t-86 200zM188 262q0 -64 38 -102t99 -38t99.5 38t38.5 102q-1 63 -39 101t-99 39q-59 0 -98 -38.5t-39 -101.5z" />
    <glyph glyph-name="afii10081" unicode="&#x43f;" horiz-adv-x="598" 
d="M192 527h214q62 0 103 -34t41 -93v-400h-153v342q0 56 -51 56h-94q-51 0 -51 -56v-342h-153v400q0 59 41 93t103 34z" />
    <glyph glyph-name="afii10082" unicode="&#x440;" horiz-adv-x="660" 
d="M45 -183v445q0 119 78 195.5t215 76.5q132 0 214.5 -76.5t82.5 -198.5q0 -116 -73.5 -192.5t-190.5 -76.5q-115 0 -173 66v-239h-153zM199 262q0 -62 38 -101t100 -39t100 39t38 101q0 60 -38.5 100t-99.5 40q-62 0 -100 -39t-38 -101z" />
    <glyph glyph-name="afii10083" unicode="&#x441;" horiz-adv-x="464" 
d="M25 263q0 123 76.5 197t201.5 74q83 0 156 -34l-43 -118q-41 25 -89 25q-64 0 -101.5 -38.5t-37.5 -105.5q0 -66 40.5 -106.5t108.5 -39.5q51 0 97 23l-13 -127q-49 -24 -116 -24q-125 0 -202.5 75t-77.5 199z" />
    <glyph glyph-name="afii10084" unicode="&#x442;" horiz-adv-x="517" 
d="M180 398h-177v129h509l-16 -129h-163v-398h-153v398z" />
    <glyph glyph-name="afii10085" unicode="&#x443;" horiz-adv-x="606" 
d="M465 -184h-179q5 4 12.5 11.5t27 32t34.5 51t28.5 66t14.5 79.5q-50 -66 -149 -66q-207 0 -207 211v326h153v-279q0 -62 21 -94t75 -32q109 0 109 125v280h153v-448q0 -45 -9.5 -89t-23 -74t-27.5 -53.5t-24 -34.5z" />
    <glyph glyph-name="afii10086" unicode="&#x444;" horiz-adv-x="1000" 
d="M423 -183v238q-53 -65 -156 -65q-107 0 -174 76.5t-67 192.5q0 123 75.5 199t198.5 76q125 0 199 -89q77 89 201 89q123 0 198 -76t75 -199q0 -116 -67 -192.5t-174 -76.5q-104 0 -156 66v-239h-153zM577 262q0 -62 33 -101t86 -39t85 39t32 101q0 60 -32.5 100t-84.5 40
q-53 0 -86 -38.5t-33 -101.5zM423 262q0 63 -33 101.5t-86 38.5q-52 0 -84.5 -40t-32.5 -100q0 -62 32 -101t85 -39t86 38.5t33 101.5z" />
    <glyph glyph-name="afii10087" unicode="&#x445;" horiz-adv-x="543" 
d="M156 0h-168l198 269l-189 258h170l104 -149l105 149h167l-188 -257l199 -270h-170l-114 161z" />
    <glyph glyph-name="afii10088" unicode="&#x446;" horiz-adv-x="644" 
d="M460 0h-268q-62 0 -103 34t-41 93v400h153v-342q0 -56 51 -56h145v398h153v-398h15q66 0 66 -68v-195h-129v93q0 41 -42 41z" />
    <glyph glyph-name="afii10089" unicode="&#x447;" horiz-adv-x="574" 
d="M525 527v-527h-153v213q-72 -34 -146 -34q-96 0 -148.5 54t-52.5 164v130h153v-112q0 -53 20 -82t71 -29q63 0 103 36v187h153z" />
    <glyph glyph-name="afii10090" unicode="&#x448;" horiz-adv-x="852" 
d="M48 127v400h153v-342q0 -56 51 -56h98v398h153v-398h97q51 0 51 56v342h153v-400q0 -59 -41 -93t-102 -34h-469q-62 0 -103 34t-41 93z" />
    <glyph glyph-name="afii10091" unicode="&#x449;" horiz-adv-x="898" 
d="M715 0h-523q-62 0 -103 34t-41 93v400h153v-342q0 -56 51 -56h98v398h153v-398h148v398h153v-398h15q66 0 66 -68v-195h-129v93q0 41 -41 41z" />
    <glyph glyph-name="afii10092" unicode="&#x44a;" horiz-adv-x="698" 
d="M7 411l23 116h283v-177h165q93 0 143.5 -44t50.5 -130q0 -176 -195 -176h-166q-73 0 -112 38.5t-39 99.5v273h-153zM439 234h-126v-70q0 -48 59 -48h68q32 0 51.5 15.5t19.5 44.5q0 58 -72 58z" />
    <glyph glyph-name="afii10093" unicode="&#x44b;" horiz-adv-x="829" 
d="M201 527v-177h165q93 0 143.5 -44t50.5 -130q0 -176 -195 -176h-166q-73 0 -112 38.5t-39 99.5v389h153zM327 234h-126v-70q0 -48 59 -48h68q32 0 51.5 15.5t19.5 44.5q0 58 -72 58zM622 527h156v-527h-156v527z" />
    <glyph glyph-name="afii10094" unicode="&#x44c;" horiz-adv-x="586" 
d="M201 527v-177h165q93 0 143.5 -44t50.5 -130q0 -176 -195 -176h-166q-73 0 -112 38.5t-39 99.5v389h153zM327 234h-126v-70q0 -48 59 -48h68q32 0 51.5 15.5t19.5 44.5q0 58 -72 58z" />
    <glyph glyph-name="afii10095" unicode="&#x44d;" horiz-adv-x="485" 
d="M144 414q-71 0 -121 -24l10 117q63 27 147 27q124 0 202 -74t78 -196q0 -124 -80 -199t-214 -75q-85 0 -133 22l-13 121q51 -22 122 -22q57 0 97.5 25t54.5 75h-209l18 107h190q-15 46 -55 71t-94 25z" />
    <glyph glyph-name="afii10096" unicode="&#x44e;" horiz-adv-x="916" 
d="M591 -10q-112 0 -193 55.5t-101 157.5h-95v-203h-153v527h153v-195h98q23 96 103.5 149t187.5 53q128 0 213.5 -72t86.5 -200q0 -128 -85.5 -200t-214.5 -72zM453 262q0 -64 38.5 -102t99.5 -38t99.5 38t37.5 102q0 63 -38 101t-99 39q-59 0 -98.5 -38.5t-39.5 -101.5z
" />
    <glyph glyph-name="afii10097" unicode="&#x44f;" 
d="M215 527h340v-527h-152v198q-1 -2 -4.5 -8t-5.5 -9t-6.5 -7.5t-9.5 -6.5t-14 -4t-21 -2h-27q-11 0 -20 -1t-16.5 -5.5t-13 -6.5t-11.5 -10.5t-9 -11.5t-8.5 -15t-7 -16t-7.5 -19t-8 -19q-14 -36 -35 -57h-173q24 29 44 75q2 4 13 29.5t16 33.5t17 24.5t28 25.5t38 14
q-56 9 -92.5 51.5t-36.5 107.5q0 67 47 116.5t135 49.5zM403 318v84h-131q-39 0 -58 -14t-19 -48q0 -27 18.5 -43.5t57.5 -16.5h71q61 0 61 38z" />
    <glyph glyph-name="afii10071" unicode="&#x451;" horiz-adv-x="611" 
d="M486 133l-10 -118q-61 -25 -150 -25q-134 0 -217.5 74.5t-83.5 203.5q0 116 77.5 191t204.5 75q141 0 213.5 -83t70.5 -227h-396q10 -60 59 -89.5t109 -29.5q64 0 123 28zM312 426q-48 0 -80 -27.5t-42 -72.5h236q-6 47 -36.5 73.5t-77.5 26.5zM135 620v120h121v-120h-58
h-63zM363 620v120h120v-120h-120z" />
    <glyph glyph-name="afii10099" unicode="&#x452;" horiz-adv-x="609" 
d="M408 292q0 117 -99 117q-45 0 -76 -27t-31 -81v-301h-153v572h-72v81h72v53h153v-53h145v-81h-145v-99q56 61 150 61q100 0 154.5 -54t54.5 -164v-102q0 -71 -11.5 -138t-27.5 -112.5t-32 -80t-28 -51.5l-11 -16h-161q5 6 13 16.5t28 48t35.5 80t28.5 110.5t13 141v80z
" />
    <glyph glyph-name="afii10100" unicode="&#x453;" horiz-adv-x="449" 
d="M48 0v399q0 59 41.5 93.5t102.5 34.5h253l-22 -130h-171q-51 0 -51 -55v-342h-153zM430 747l-137 -152h-121l86 152h172z" />
    <glyph glyph-name="afii10101" unicode="&#x454;" horiz-adv-x="485" 
d="M341 414q-54 0 -94.5 -25t-53.5 -71h209l-18 -107h-192q13 -50 53.5 -75t97.5 -25q71 0 123 22l-14 -121q-48 -22 -133 -22q-134 0 -214 75t-80 199q0 122 78.5 196t202.5 74q82 0 147 -27l9 -117q-50 24 -121 24z" />
    <glyph glyph-name="afii10102" unicode="&#x455;" horiz-adv-x="460" 
d="M15 29l43 120q79 -46 156 -46q64 0 64 44q0 7 -2 13t-8 12t-11 10t-15.5 9.5t-17 8.5t-20.5 9l-21 9l-25 12q-31 14 -51 25t-42 29.5t-33 43t-11 55.5q0 77 58.5 114t150.5 37q105 0 200 -41l-46 -118q-67 47 -142 47q-62 0 -62 -37q0 -5 2.5 -10t7.5 -10t10.5 -8.5
t15 -8t16.5 -7.5t19.5 -8.5t19.5 -8.5l25 -12q67 -30 105 -66.5t38 -97.5q0 -80 -63 -119t-159 -39q-116 0 -202 39z" />
    <glyph glyph-name="afii10103" unicode="&#x456;" horiz-adv-x="256" 
d="M50 527h156v-527h-156v527zM50 706h156v-115h-156v115z" />
    <glyph glyph-name="afii10104" unicode="&#x457;" horiz-adv-x="256" 
d="M50 527h156v-527h-156v527zM-24 620v120h121v-120h-58h-63zM159 620v120h120v-120h-120z" />
    <glyph glyph-name="afii10105" unicode="&#x458;" horiz-adv-x="254" 
d="M50 526h156v-349q0 -65 -10 -126t-24 -101.5t-28 -72t-24 -46.5l-10 -15h-164q4 6 11 17t25 47.5t32 75.5t25 98.5t11 118.5v353zM50 706h156v-115h-156v115z" />
    <glyph glyph-name="afii10106" unicode="&#x459;" horiz-adv-x="922" 
d="M537 527v-177h165q93 0 143.5 -44t50.5 -130q0 -176 -195 -176h-166q-73 0 -112 38.5t-39 99.5v260h-98q-51 0 -51 -56v-183q0 -159 -172 -159h-51v129h21q50 0 50 56v214q0 59 41 93.5t102 34.5h311zM663 234h-126v-70q0 -48 59 -48h68q32 0 51.5 15.5t19.5 44.5
q0 58 -72 58z" />
    <glyph glyph-name="afii10107" unicode="&#x45a;" horiz-adv-x="891" 
d="M202 527v-177h152v177h153v-177h164q93 0 144 -44t51 -130q0 -176 -195 -176h-167q-72 0 -111 44t-39 107v72h-152v-223h-153v527h153zM633 234h-126v-70q0 -48 59 -48h67q32 0 51.5 15.5t19.5 44.5q0 58 -71 58z" />
    <glyph glyph-name="afii10108" unicode="&#x45b;" horiz-adv-x="609" 
d="M49 706h153v-53h145v-81h-145v-99q56 61 150 61q100 0 154.5 -54t54.5 -164v-316h-153v292q0 117 -99 117q-45 0 -76 -27t-31 -81v-301h-153v572h-72v81h72v53z" />
    <glyph glyph-name="afii10109" unicode="&#x45c;" horiz-adv-x="551" 
d="M532 527l-12 -128h-32q-43 0 -65 -32l-56 -77h10q38 0 59 -24t39 -70l30 -79q25 -69 57 -117h-167q-20 34 -37 81l-25 67q-11 31 -26 44.5t-43 13.5h-61v-206h-153v527h153v-217h16l84 130q54 87 157 87h72zM438 747l-137 -152h-121l86 152h172z" />
    <glyph glyph-name="afii10110" unicode="&#x45e;" horiz-adv-x="607" 
d="M466 -184h-179q5 4 12.5 11.5t27 32t34.5 51t28.5 66t14.5 79.5q-50 -66 -149 -66q-207 0 -207 211v325h153v-278q0 -62 21 -94t75 -32q109 0 109 125v279h153v-447q0 -72 -23.5 -137.5t-46.5 -95.5zM304 603q-57 0 -99 27t-59 83l92 39q12 -66 66 -66t66 66l91 -39
q-16 -56 -58 -83t-99 -27z" />
    <glyph glyph-name="afii10193" unicode="&#x45f;" horiz-adv-x="598" 
d="M406 0h-42v-134h-130v134h-42q-62 0 -103 34t-41 93v400h153v-342q0 -56 51 -56h94q51 0 51 56v342h153v-400q0 -59 -41 -93t-103 -34z" />
    <glyph glyph-name="afii10050" unicode="&#x490;" horiz-adv-x="543" 
d="M248 706h165v118h138v-258h-255q-69 0 -69 -75v-491h-166v534q0 80 52.5 126t134.5 46z" />
    <glyph glyph-name="afii10098" unicode="&#x491;" horiz-adv-x="442" 
d="M316 629h129v-232h-193q-51 0 -51 -55v-342h-153v399q0 59 41.5 93.5t102.5 34.5h124v102z" />
    <glyph glyph-name="Wgrave" unicode="&#x1e80;" horiz-adv-x="1045" 
d="M218 0l-218 706h179l137 -499l138 499h166l138 -499l128 499h153l-204 -706h-174l-132 466l-141 -466h-170zM471 765l-142 158h173l90 -158h-121z" />
    <glyph glyph-name="wgrave" unicode="&#x1e81;" horiz-adv-x="933" 
d="M469 107h-2q-20 -60 -76 -88.5t-122 -28.5q-104 0 -163 55t-59 159v323h153v-285q0 -119 96 -119t96 117v287h149v-287q0 -117 97 -117q95 0 95 119v285h153v-323q0 -104 -59 -159t-163 -55q-66 0 -120.5 28.5t-74.5 88.5zM408 593l-142 158h173l90 -158h-121z" />
    <glyph glyph-name="Wacute" unicode="&#x1e82;" horiz-adv-x="1045" 
d="M218 0l-218 706h179l137 -499l138 499h166l138 -499l128 499h153l-204 -706h-174l-132 466l-141 -466h-170zM733 917l-137 -152h-121l86 152h172z" />
    <glyph glyph-name="wacute" unicode="&#x1e83;" horiz-adv-x="933" 
d="M469 107h-2q-20 -60 -76 -88.5t-122 -28.5q-104 0 -163 55t-59 159v323h153v-285q0 -119 96 -119t96 117v287h149v-287q0 -117 97 -117q95 0 95 119v285h153v-323q0 -104 -59 -159t-163 -55q-66 0 -120.5 28.5t-74.5 88.5zM670 745l-137 -152h-121l86 152h172z" />
    <glyph glyph-name="Wdieresis" unicode="&#x1e84;" horiz-adv-x="1045" 
d="M218 0l-218 706h179l137 -499l138 499h166l138 -499l128 499h153l-204 -706h-174l-132 466l-141 -466h-170zM357 782v120h121v-120h-58h-63zM585 782v120h120v-120h-120z" />
    <glyph glyph-name="wdieresis" unicode="&#x1e85;" horiz-adv-x="933" 
d="M469 107h-2q-20 -60 -76 -88.5t-122 -28.5q-104 0 -163 55t-59 159v323h153v-285q0 -119 96 -119t96 117v287h149v-287q0 -117 97 -117q95 0 95 119v285h153v-323q0 -104 -59 -159t-163 -55q-66 0 -120.5 28.5t-74.5 88.5zM295 610v120h121v-120h-58h-63zM523 610v120
h120v-120h-120z" />
    <glyph glyph-name="Ygrave" unicode="&#x1ef2;" horiz-adv-x="610" 
d="M35 479v227h166v-203q0 -53 30.5 -79.5t80.5 -26.5q51 0 78.5 28t27.5 77v204h156v-238q0 -179 -177 -202v-266h-167v266q-95 8 -145 62.5t-50 150.5zM250 765l-142 158h173l90 -158h-121z" />
    <glyph glyph-name="ygrave" unicode="&#x1ef3;" horiz-adv-x="606" 
d="M465 -184h-179q5 4 12.5 11.5t27 32t34.5 51t28.5 66t14.5 79.5q-50 -66 -149 -66q-207 0 -207 211v326h153v-279q0 -62 21 -94t75 -32q109 0 109 125v280h153v-448q0 -45 -9.5 -89t-23 -74t-27.5 -53.5t-24 -34.5zM242 593l-142 158h173l90 -158h-121z" />
    <glyph glyph-name="endash" unicode="&#x2013;" horiz-adv-x="500" 
d="M0 209v133h500v-133h-500z" />
    <glyph glyph-name="emdash" unicode="&#x2014;" horiz-adv-x="1000" 
d="M0 209v133h1000v-133h-1000z" />
    <glyph glyph-name="afii00208" unicode="&#x2015;" horiz-adv-x="1000" 
d="M38 209v133h924v-133h-924z" />
    <glyph glyph-name="quoteleft" unicode="&#x2018;" horiz-adv-x="264" 
d="M238 456l-88 -74q-63 56 -81.5 96.5t-18.5 109.5v118h153v-141q0 -71 35 -109z" />
    <glyph glyph-name="quoteright" unicode="&#x2019;" horiz-adv-x="264" 
d="M114 381l-88 75q36 39 36 109v141h152v-118q0 -69 -18.5 -109.5t-81.5 -97.5z" />
    <glyph glyph-name="quotesinglbase" unicode="&#x201a;" horiz-adv-x="274" 
d="M110 -159l-95 75q42 46 42 109v148h159v-125q0 -67 -20.5 -108t-85.5 -99z" />
    <glyph glyph-name="quotedblleft" unicode="&#x201c;" horiz-adv-x="507" 
d="M238 456l-88 -74q-63 56 -81.5 96.5t-18.5 109.5v118h153v-141q0 -71 35 -109zM481 456l-87 -74q-64 56 -82.5 96.5t-18.5 109.5v118h94h59v-141q0 -71 35 -109z" />
    <glyph glyph-name="quotedblright" unicode="&#x201d;" horiz-adv-x="514" 
d="M114 381l-88 75q36 39 36 109v141h152v-118q0 -69 -18.5 -109.5t-81.5 -97.5zM358 381l-88 75q35 39 35 109v141h76h76v-118q0 -69 -18 -109.5t-81 -97.5z" />
    <glyph glyph-name="quotedblbase" unicode="&#x201e;" horiz-adv-x="527" 
d="M114 -159l-94 75q42 47 42 109v148h159v-125q0 -67 -21 -107.5t-86 -99.5zM364 -159l-94 75q42 47 42 109v148h81h78v-125q0 -67 -21 -107.5t-86 -99.5z" />
    <glyph glyph-name="dagger" unicode="&#x2020;" horiz-adv-x="600" 
d="M74 385v114h163v207h126v-207h163v-114h-163v-536h-126v536h-163z" />
    <glyph glyph-name="daggerdbl" unicode="&#x2021;" horiz-adv-x="600" 
d="M74 393v114h163v199h126v-199h163v-114h-163v-231h163v-114h-163v-199h-126v199h-163v114h163v231h-163z" />
    <glyph glyph-name="bullet" unicode="&#x2022;" horiz-adv-x="462" 
d="M74 353q0 65 46 111t111 46t111.5 -46t46.5 -111t-46.5 -111.5t-111.5 -46.5t-111 46.5t-46 111.5z" />
    <glyph glyph-name="ellipsis" unicode="&#x2026;" horiz-adv-x="845" 
d="M54 173h174v-173h-174v173zM336 173h85h89v-173h-174v173zM618 173h173v-173h-173v173z" />
    <glyph glyph-name="perthousand" unicode="&#x2030;" horiz-adv-x="1277" 
d="M22 535q0 82 52.5 132t132.5 50q81 0 133.5 -50t52.5 -132q0 -83 -52.5 -133t-133.5 -50q-80 0 -132.5 50.5t-52.5 132.5zM130 534q0 -42 19.5 -69t57.5 -27q39 0 59 27t20 69q0 41 -20 68.5t-59 27.5q-38 0 -57.5 -27t-19.5 -69zM297 -11l-87 45l357 683l88 -42z
M468 163q0 81 52.5 131t132.5 50q81 0 133.5 -50t52.5 -131q0 -83 -52.5 -133t-133.5 -50q-80 0 -132.5 50.5t-52.5 132.5zM576 162q0 -42 19.5 -69t57.5 -27q39 0 59 27t20 69q0 41 -20 68t-59 27q-38 0 -57.5 -27t-19.5 -68zM884 163q1 81 53 131t133 50q80 0 133 -50
t53 -131q0 -82 -53 -132.5t-133 -50.5q-81 0 -133.5 50.5t-52.5 132.5zM992 162q0 -42 20 -69t58 -27t58 27t20 69q0 41 -20 68t-58 27t-58 -27t-20 -68z" />
    <glyph glyph-name="guilsinglleft" unicode="&#x2039;" horiz-adv-x="368" 
d="M325 367l-151 -102l151 -102v-143l-289 191v108l289 191v-143z" />
    <glyph glyph-name="guilsinglright" unicode="&#x203a;" horiz-adv-x="368" 
d="M195 265l-152 102v143l289 -191v-108l-289 -191v143z" />
    <glyph glyph-name="fraction" unicode="&#x2044;" horiz-adv-x="148" 
d="M-61 -11l-87 45l356 683l88 -42z" />
    <glyph glyph-name="Euro" unicode="&#x20ac;" horiz-adv-x="665" 
d="M10 375l13 80h61q30 122 124 192.5t224 70.5q115 0 210 -50l-62 -130q-57 32 -124 32q-63 0 -109.5 -30.5t-69.5 -84.5h243l-14 -80h-254q-1 -6 -1 -20q0 -13 1 -20h249l-14 -80h-211q26 -58 78.5 -90t119.5 -32q74 0 138 33l-17 -146q-78 -32 -162 -32
q-133 0 -227.5 71.5t-122.5 195.5h-76l14 80h50v20v20h-61z" />
    <glyph glyph-name="afii61352" unicode="&#x2116;" horiz-adv-x="1190" 
d="M672 0h-167l-283 477v-477h-157v706h179l271 -468v468h157v-706zM731 396q0 98 61 153t152 55q93 0 154 -55t61 -153t-61 -153.5t-154 -55.5q-91 0 -152 55.5t-61 153.5zM865 396q0 -47 22 -76t57 -29q36 0 58 28.5t22 76.5q0 47 -22 75.5t-58 28.5q-35 0 -57 -28.5
t-22 -75.5zM758 32v108h374v-108h-374z" />
    <glyph glyph-name="trademark" unicode="&#x2122;" horiz-adv-x="859" 
d="M704 339l1 282l-87 -275h-73l-85 275l3 -282h-92v367h161l59 -200l62 200h149v-367h-98zM124 624h-111v82h323l-11 -82h-103v-284h-98v284z" />
    <glyph glyph-name="minus" unicode="&#x2212;" horiz-adv-x="867" 
d="M723 283h-580v141h580v-141z" />
    <glyph glyph-name="approxequal" unicode="&#x2248;" horiz-adv-x="867" 
d="M695 559l48 -119q-89 -62 -179 -62q-46 0 -130 30t-133 30q-34 0 -62 -9t-68 -35l-48 118q90 63 181 63q48 0 136 -30t126 -30q34 0 61.5 9t67.5 35zM695 312l48 -119q-88 -61 -179 -61q-46 0 -130 30t-133 30q-34 0 -61.5 -9.5t-68.5 -35.5l-24 59l-24 60q89 62 181 62
q48 0 136 -30t126 -30q34 0 61.5 9t67.5 35z" />
    <glyph glyph-name="notequal" unicode="&#x2260;" horiz-adv-x="867" 
d="M723 152h-303l-58 -166l-107 35l46 131h-158v142h207l42 119h-249v142h300l59 168l108 -35l-48 -133h161v-142h-210l-43 -119h253v-142z" />
    <glyph glyph-name="lessequal" unicode="&#x2264;" horiz-adv-x="867" 
d="M668 145l-483 206v138l483 203v-152l-325 -118l325 -126v-151zM696 -37h-523v141h523v-141z" />
    <glyph glyph-name="greaterequal" unicode="&#x2265;" horiz-adv-x="867" 
d="M683 351l-483 -206v151l325 126l-325 118v152l483 -203v-138zM696 -37h-523v141h523v-141z" />
    <glyph glyph-name="B.alt" horiz-adv-x="683" 
d="M60 706h356q37 0 65.5 -5t56 -18t42.5 -40.5t15 -67.5q0 -46 -24 -79t-67 -40q60 -18 104 -70t44 -143q0 -121 -85 -188t-210 -67q-135 0 -216 65.5t-81 181.5v471zM226 249q0 -53 35.5 -85t88.5 -32q52 0 86.5 32t34.5 85t-34 84.5t-87 31.5t-88.5 -31.5t-35.5 -84.5z
M225 583v-156q18 19 49 32.5t66 14.5q75 0 75 56q0 23 -15.5 38t-44.5 15h-130z" />
    <glyph glyph-name="D.alt" horiz-adv-x="808" 
d="M61 264v442h383q156 0 244 -98t88 -257q0 -166 -114.5 -264.5t-271.5 -98.5q-70 0 -128.5 16t-104 48t-71 86.5t-25.5 125.5zM227 571v-291q0 -68 44.5 -105.5t118.5 -37.5q92 0 147.5 63t54.5 153q0 92 -52.5 155t-141.5 63h-171z" />
    <glyph glyph-name="S.alt" horiz-adv-x="568" 
d="M416 0h-292q44 11 92 32.5t89.5 60.5t41.5 81q0 37 -25 57.5t-74 41.5l-70 30q-158 68 -158 202q0 70 43.5 120.5t104 71.5t129.5 21q127 0 241 -56l-60 -128q-80 51 -165 51q-44 0 -76.5 -18.5t-32.5 -54.5q0 -30 21 -47.5t74 -39.5l70 -28q162 -64 162 -208
q0 -49 -29.5 -100t-85.5 -89z" />
    <glyph glyph-name="X.alt" horiz-adv-x="666" 
d="M-9 0l109 286q19 51 39 74.5t52 29.5l-154 316h177l126 -285q29 65 53 118t37 82.5t22 49.5t12 27l3 8h167l-162 -316q31 -6 48.5 -29t38.5 -75l117 -286h-186l-71 205q-16 43 -34 62t-53 19t-53.5 -19.5t-33.5 -61.5l-73 -205h-181z" />
    <glyph glyph-name="a.alt" horiz-adv-x="570" 
d="M88 511q66 23 148 23q153 0 230 -74t77 -205q0 -114 -68 -190.5t-210 -76.5q-108 0 -176 56t-68 142q0 84 61 133t148 49q15 0 28.5 -2t26 -6.5t22.5 -8.5t20.5 -11.5t17.5 -12t16 -13.5l12.5 -12.5t11.5 -12.5t9 -10h2q-4 78 -55 118t-127 40q-70 0 -126 -30v104z
M274 265q-41 0 -67.5 -23t-26.5 -63t27 -63.5t67 -23.5q38 0 64.5 24t26.5 63t-26.5 62.5t-64.5 23.5z" />
    <glyph glyph-name="g.alt" horiz-adv-x="595" 
d="M300 596l91 -4l-17 -65q99 -16 147 -71.5t48 -131.5q0 -89 -72 -146t-198 -57q-36 0 -73 5q-27 -17 -27 -37q0 -19 38 -25.5t92 -9t108 -10.5t92 -37.5t38 -82.5q0 -24 -7.5 -44t-18.5 -31t-22 -19t-19 -11l-7 -3l-121 22q43 10 43 37q0 21 -35 29.5t-84.5 11t-99 9.5
t-84.5 35t-35 77q0 65 79 107q-65 25 -98.5 72t-33.5 108q0 92 70.5 148.5t194.5 59.5zM298 229q58 0 86 29t28 68q0 30 -17 54.5t-48 33.5l-13 -51h-71l9 58q-41 -7 -63 -34t-22 -61q0 -39 28 -68t83 -29z" />
    <glyph glyph-name="s.alt" horiz-adv-x="371" 
d="M269 0h-205q105 61 106 119q0 29 -27 60l-57 65q-63 73 -63 133q0 77 59 117t148 40q71 0 128 -22l-42 -118q-35 15 -66 15q-63 0 -63 -43q0 -18 41 -66l59 -69q50 -58 50 -111q0 -34 -18 -66.5t-50 -53.5z" />
    <glyph glyph-name="x.alt" horiz-adv-x="552" 
d="M397 0l-58 152q-18 47 -61 47q-44 0 -64 -47l-61 -152h-167l87 216q12 33 27.5 49t39.5 20l-122 242h170l90 -221l90 221h159l-122 -242q24 -4 39 -20t28 -49l94 -216h-169z" />
    <glyph glyph-name="germandbls.alt" horiz-adv-x="681" 
d="M49 0v467q0 126 71 187.5t202 61.5q251 0 251 -163q0 -87 -84 -112q74 -14 119.5 -70.5t45.5 -137.5q0 -116 -68 -178t-184 -62q-89 0 -151 29v140q64 -51 126 -51q49 0 82 33.5t33 85.5q0 58 -37 90.5t-96 32.5q-36 0 -66 -14t-42 -27v117q28 25 86 36q37 8 55.5 21.5
t18.5 43.5q0 73 -91 73q-65 0 -91.5 -36.5t-26.5 -110.5v-456h-153z" />
    <glyph glyph-name="agrave.alt" horiz-adv-x="570" 
d="M88 511q66 23 148 23q153 0 230 -74t77 -205q0 -114 -68 -190.5t-210 -76.5q-108 0 -176 56t-68 142q0 84 61 133t148 49q15 0 28.5 -2t26 -6.5t22.5 -8.5t20.5 -11.5t17.5 -12t16 -13.5l12.5 -12.5t11.5 -12.5t9 -10h2q-4 78 -55 118t-127 40q-70 0 -126 -30v104z
M274 265q-41 0 -67.5 -23t-26.5 -63t27 -63.5t67 -23.5q38 0 64.5 24t26.5 63t-26.5 62.5t-64.5 23.5zM207 603l-142 158h173l90 -158h-121z" />
    <glyph glyph-name="aacute.alt" horiz-adv-x="570" 
d="M88 511q66 23 148 23q153 0 230 -74t77 -205q0 -114 -68 -190.5t-210 -76.5q-108 0 -176 56t-68 142q0 84 61 133t148 49q15 0 28.5 -2t26 -6.5t22.5 -8.5t20.5 -11.5t17.5 -12t16 -13.5l12.5 -12.5t11.5 -12.5t9 -10h2q-4 78 -55 118t-127 40q-70 0 -126 -30v104z
M274 265q-41 0 -67.5 -23t-26.5 -63t27 -63.5t67 -23.5q38 0 64.5 24t26.5 63t-26.5 62.5t-64.5 23.5zM469 755l-137 -152h-121l86 152h172z" />
    <glyph glyph-name="acircumflex.alt" horiz-adv-x="570" 
d="M88 511q66 23 148 23q153 0 230 -74t77 -205q0 -114 -68 -190.5t-210 -76.5q-108 0 -176 56t-68 142q0 84 61 133t148 49q15 0 28.5 -2t26 -6.5t22.5 -8.5t20.5 -11.5t17.5 -12t16 -13.5l12.5 -12.5t11.5 -12.5t9 -10h2q-4 78 -55 118t-127 40q-70 0 -126 -30v104z
M274 265q-41 0 -67.5 -23t-26.5 -63t27 -63.5t67 -23.5q38 0 64.5 24t26.5 63t-26.5 62.5t-64.5 23.5zM267 688l-77 -85h-112l121 152h136l120 -152h-111z" />
    <glyph glyph-name="atilde.alt" horiz-adv-x="570" 
d="M88 511q66 23 148 23q153 0 230 -74t77 -205q0 -114 -68 -190.5t-210 -76.5q-108 0 -176 56t-68 142q0 84 61 133t148 49q15 0 28.5 -2t26 -6.5t22.5 -8.5t20.5 -11.5t17.5 -12t16 -13.5l12.5 -12.5t11.5 -12.5t9 -10h2q-4 78 -55 118t-127 40q-70 0 -126 -30v104z
M274 265q-41 0 -67.5 -23t-26.5 -63t27 -63.5t67 -23.5q38 0 64.5 24t26.5 63t-26.5 62.5t-64.5 23.5zM165 614h-74q3 22 9.5 42t18.5 43t33 37t49 14q24 0 67.5 -18.5t61.5 -18.5q6 0 11 1.5t9 4t7 6t5 6.5t3.5 8t2.5 7.5t2 6.5t1 5h74q-20 -138 -106 -138q-25 0 -70 20
t-63 20q-7 0 -12.5 -2t-9.5 -5.5t-7 -7t-5 -9t-3 -8t-3 -8.5z" />
    <glyph glyph-name="adieresis.alt" horiz-adv-x="570" 
d="M88 511q66 23 148 23q153 0 230 -74t77 -205q0 -114 -68 -190.5t-210 -76.5q-108 0 -176 56t-68 142q0 84 61 133t148 49q15 0 28.5 -2t26 -6.5t22.5 -8.5t20.5 -11.5t17.5 -12t16 -13.5l12.5 -12.5t11.5 -12.5t9 -10h2q-4 78 -55 118t-127 40q-70 0 -126 -30v104z
M274 265q-41 0 -67.5 -23t-26.5 -63t27 -63.5t67 -23.5q38 0 64.5 24t26.5 63t-26.5 62.5t-64.5 23.5zM94 620v120h121v-120h-58h-63zM322 620v120h120v-120h-120z" />
    <glyph glyph-name="aring.alt" horiz-adv-x="570" 
d="M88 511q66 23 148 23q153 0 230 -74t77 -205q0 -114 -68 -190.5t-210 -76.5q-108 0 -176 56t-68 142q0 84 61 133t148 49q15 0 28.5 -2t26 -6.5t22.5 -8.5t20.5 -11.5t17.5 -12t16 -13.5l12.5 -12.5t11.5 -12.5t9 -10h2q-4 78 -55 118t-127 40q-70 0 -126 -30v104z
M274 265q-41 0 -67.5 -23t-26.5 -63t27 -63.5t67 -23.5q38 0 64.5 24t26.5 63t-26.5 62.5t-64.5 23.5zM130 731q0 58 40 98.5t98 40.5t98 -40.5t40 -98.5t-40 -98t-98 -40t-98 40t-40 98zM206 731q0 -27 17.5 -44.5t44.5 -17.5t45 17.5t18 44.5t-18 45t-45 18t-44.5 -18
t-17.5 -45z" />
    <glyph glyph-name="amacron.alt" horiz-adv-x="570" 
d="M88 511q66 23 148 23q153 0 230 -74t77 -205q0 -114 -68 -190.5t-210 -76.5q-108 0 -176 56t-68 142q0 84 61 133t148 49q15 0 28.5 -2t26 -6.5t22.5 -8.5t20.5 -11.5t17.5 -12t16 -13.5l12.5 -12.5t11.5 -12.5t9 -10h2q-4 78 -55 118t-127 40q-70 0 -126 -30v104z
M274 265q-41 0 -67.5 -23t-26.5 -63t27 -63.5t67 -23.5q38 0 64.5 24t26.5 63t-26.5 62.5t-64.5 23.5zM107 634v91h318v-91h-318z" />
    <glyph glyph-name="abreve.alt" horiz-adv-x="570" 
d="M88 511q66 23 148 23q153 0 230 -74t77 -205q0 -114 -68 -190.5t-210 -76.5q-108 0 -176 56t-68 142q0 84 61 133t148 49q15 0 28.5 -2t26 -6.5t22.5 -8.5t20.5 -11.5t17.5 -12t16 -13.5l12.5 -12.5t11.5 -12.5t9 -10h2q-4 78 -55 118t-127 40q-70 0 -126 -30v104z
M274 265q-41 0 -67.5 -23t-26.5 -63t27 -63.5t67 -23.5q38 0 64.5 24t26.5 63t-26.5 62.5t-64.5 23.5zM268 693q56 0 64 65h102q-8 -76 -55 -110.5t-111 -34.5t-111 34.5t-55 110.5h102q8 -65 64 -65z" />
    <glyph glyph-name="aogonek.alt" horiz-adv-x="570" 
d="M88 511q66 23 148 23q153 0 230 -74t77 -205q0 -166 -138 -238q-98 -52 -98 -113q0 -28 18 -43t43 -15q34 0 70 13l-7 -79q-41 -13 -98 -13q-50 0 -92 26.5t-42 86.5t59 108q-106 1 -171.5 57.5t-65.5 140.5t61 133t148 49q15 0 28.5 -2t26 -6.5t22.5 -8.5t20.5 -11.5
t17.5 -12t16 -13.5l12.5 -12.5t11.5 -12.5t9 -10h2q-4 78 -55 118t-127 40q-70 0 -126 -30v104zM274 265q-41 0 -67.5 -23t-26.5 -63t27 -63.5t67 -23.5q38 0 64.5 24t26.5 63t-26.5 62.5t-64.5 23.5z" />
    <glyph glyph-name="Dcaron.alt" horiz-adv-x="808" 
d="M61 264v442h383q156 0 244 -98t88 -257q0 -166 -114.5 -264.5t-271.5 -98.5q-70 0 -128.5 16t-104 48t-71 86.5t-25.5 125.5zM227 571v-291q0 -68 44.5 -105.5t118.5 -37.5q92 0 147.5 63t54.5 153q0 92 -52.5 155t-141.5 63h-171zM293 917l77 -84l77 84h111l-120 -152
h-136l-121 152h112z" />
    <glyph glyph-name="Eth.alt" horiz-adv-x="824" 
d="M-2 320v114h78v272h383q156 0 244 -98t88 -257q0 -166 -114.5 -264.5t-271.5 -98.5q-70 0 -128.5 16t-104 48t-71 86.5t-25.5 125.5v56h-78zM242 571v-137h144v-114h-144v-44q0 -65 45 -102t118 -37q92 0 147.5 63t54.5 153q0 92 -52.5 155t-141.5 63h-171z" />
    <glyph glyph-name="Dcroat.alt" horiz-adv-x="824" 
d="M-2 320v114h78v272h383q156 0 244 -98t88 -257q0 -166 -114.5 -264.5t-271.5 -98.5q-70 0 -128.5 16t-104 48t-71 86.5t-25.5 125.5v56h-78zM242 571v-137h144v-114h-144v-44q0 -65 45 -102t118 -37q92 0 147.5 63t54.5 153q0 92 -52.5 155t-141.5 63h-171z" />
    <glyph glyph-name="gcircumflex.alt" horiz-adv-x="595" 
d="M300 596l91 -4l-17 -65q99 -16 147 -71.5t48 -131.5q0 -89 -72 -146t-198 -57q-36 0 -73 5q-27 -17 -27 -37q0 -19 38 -25.5t92 -9t108 -10.5t92 -37.5t38 -82.5q0 -24 -7.5 -44t-18.5 -31t-22 -19t-19 -11l-7 -3l-121 22q43 10 43 37q0 21 -35 29.5t-84.5 11t-99 9.5
t-84.5 35t-35 77q0 65 79 107q-65 25 -98.5 72t-33.5 108q0 92 70.5 148.5t194.5 59.5zM298 229q58 0 86 29t28 68q0 30 -17 54.5t-48 33.5l-13 -51h-71l9 58q-41 -7 -63 -34t-22 -61q0 -39 28 -68t83 -29zM302 728l-77 -85h-112l121 152h136l120 -152h-111z" />
    <glyph glyph-name="gbreve.alt" horiz-adv-x="595" 
d="M300 596l91 -4l-17 -65q99 -16 147 -71.5t48 -131.5q0 -89 -72 -146t-198 -57q-36 0 -73 5q-27 -17 -27 -37q0 -19 38 -25.5t92 -9t108 -10.5t92 -37.5t38 -82.5q0 -24 -7.5 -44t-18.5 -31t-22 -19t-19 -11l-7 -3l-121 22q43 10 43 37q0 21 -35 29.5t-84.5 11t-99 9.5
t-84.5 35t-35 77q0 65 79 107q-65 25 -98.5 72t-33.5 108q0 92 70.5 148.5t194.5 59.5zM298 229q58 0 86 29t28 68q0 30 -17 54.5t-48 33.5l-13 -51h-71l9 58q-41 -7 -63 -34t-22 -61q0 -39 28 -68t83 -29zM303 733q56 0 64 65h102q-8 -76 -55 -110.5t-111 -34.5t-111 34.5
t-55 110.5h102q8 -65 64 -65z" />
    <glyph glyph-name="gdotaccent.alt" horiz-adv-x="595" 
d="M300 596l91 -4l-17 -65q99 -16 147 -71.5t48 -131.5q0 -89 -72 -146t-198 -57q-36 0 -73 5q-27 -17 -27 -37q0 -19 38 -25.5t92 -9t108 -10.5t92 -37.5t38 -82.5q0 -24 -7.5 -44t-18.5 -31t-22 -19t-19 -11l-7 -3l-121 22q43 10 43 37q0 21 -35 29.5t-84.5 11t-99 9.5
t-84.5 35t-35 77q0 65 79 107q-65 25 -98.5 72t-33.5 108q0 92 70.5 148.5t194.5 59.5zM298 229q58 0 86 29t28 68q0 30 -17 54.5t-48 33.5l-13 -51h-71l9 58q-41 -7 -63 -34t-22 -61q0 -39 28 -68t83 -29zM243 667v121h121v-121h-121z" />
    <glyph glyph-name="gcommaaccent.alt" horiz-adv-x="595" 
d="M300 596l91 -4l-17 -65q99 -16 147 -71.5t48 -131.5q0 -89 -72 -146t-198 -57q-36 0 -73 5q-27 -17 -27 -37q0 -19 38 -25.5t92 -9t108 -10.5t92 -37.5t38 -82.5q0 -24 -7.5 -44t-18.5 -31t-22 -19t-19 -11l-7 -3l-121 22q43 10 43 37q0 21 -35 29.5t-84.5 11t-99 9.5
t-84.5 35t-35 77q0 65 79 107q-65 25 -98.5 72t-33.5 108q0 92 70.5 148.5t194.5 59.5zM298 229q58 0 86 29t28 68q0 30 -17 54.5t-48 33.5l-13 -51h-71l9 58q-41 -7 -63 -34t-22 -61q0 -39 28 -68t83 -29zM321 873l70 -59q-33 -23 -33 -67v-80h-108v80q0 43 16 72t55 54z
" />
    <glyph glyph-name="Sacute.alt" horiz-adv-x="568" 
d="M416 0h-292q44 11 92 32.5t89.5 60.5t41.5 81q0 37 -25 57.5t-74 41.5l-70 30q-158 68 -158 202q0 70 43.5 120.5t104 71.5t129.5 21q127 0 241 -56l-60 -128q-80 51 -165 51q-44 0 -76.5 -18.5t-32.5 -54.5q0 -30 21 -47.5t74 -39.5l70 -28q162 -64 162 -208
q0 -49 -29.5 -100t-85.5 -89zM505 929l-137 -152h-121l86 152h172z" />
    <glyph glyph-name="sacute.alt" horiz-adv-x="371" 
d="M269 0h-205q105 61 106 119q0 29 -27 60l-57 65q-63 73 -63 133q0 77 59 117t148 40q71 0 128 -22l-42 -118q-35 15 -66 15q-63 0 -63 -43q0 -18 41 -66l59 -69q50 -58 50 -111q0 -34 -18 -66.5t-50 -53.5zM415 755l-137 -152h-121l86 152h172z" />
    <glyph glyph-name="Scircumflex.alt" horiz-adv-x="568" 
d="M416 0h-292q44 11 92 32.5t89.5 60.5t41.5 81q0 37 -25 57.5t-74 41.5l-70 30q-158 68 -158 202q0 70 43.5 120.5t104 71.5t129.5 21q127 0 241 -56l-60 -128q-80 51 -165 51q-44 0 -76.5 -18.5t-32.5 -54.5q0 -30 21 -47.5t74 -39.5l70 -28q162 -64 162 -208
q0 -49 -29.5 -100t-85.5 -89zM302 862l-77 -85h-112l121 152h136l120 -152h-111z" />
    <glyph glyph-name="scircumflex.alt" horiz-adv-x="371" 
d="M269 0h-205q105 61 106 119q0 29 -27 60l-57 65q-63 73 -63 133q0 77 59 117t148 40q71 0 128 -22l-42 -118q-35 15 -66 15q-63 0 -63 -43q0 -18 41 -66l59 -69q50 -58 50 -111q0 -34 -18 -66.5t-50 -53.5zM212 688l-77 -85h-112l121 152h136l120 -152h-111z" />
    <glyph glyph-name="Scedilla.alt" horiz-adv-x="568" 
d="M416 0h-125l-12 -57q42 -5 73 -28.5t31 -72.5q0 -29 -15.5 -54.5t-37 -41.5t-50.5 -29t-50 -19t-41 -10l-21 63q20 7 31.5 12.5t31 16t29 24.5t9.5 30q0 28 -24.5 41t-58.5 13q3 16 23 112h-85q44 11 92 32.5t89.5 60.5t41.5 81q0 37 -25 57.5t-74 41.5l-70 30
q-158 68 -158 202q0 70 43.5 120.5t104 71.5t129.5 21q127 0 241 -56l-60 -128q-80 51 -165 51q-44 0 -76.5 -18.5t-32.5 -54.5q0 -30 21 -47.5t74 -39.5l70 -28q162 -64 162 -208q0 -49 -29.5 -100t-85.5 -89z" />
    <glyph glyph-name="scedilla.alt" horiz-adv-x="371" 
d="M269 0h-68l-12 -57q42 -5 72.5 -28.5t30.5 -72.5q0 -29 -15.5 -54.5t-37 -41.5t-50.5 -29t-50 -19t-41 -10l-21 63q20 7 31.5 12.5t31 16t29 24.5t9.5 30q0 28 -24.5 41t-58.5 13q2 10 7 33t10.5 48t6.5 31h-55q105 61 106 119q0 29 -27 60l-57 65q-63 73 -63 133
q0 77 59 117t148 40q71 0 128 -22l-42 -118q-35 15 -66 15q-63 0 -63 -43q0 -18 41 -66l59 -69q50 -58 50 -111q0 -34 -18 -66.5t-50 -53.5z" />
    <glyph glyph-name="Scaron.alt" horiz-adv-x="568" 
d="M416 0h-292q44 11 92 32.5t89.5 60.5t41.5 81q0 37 -25 57.5t-74 41.5l-70 30q-158 68 -158 202q0 70 43.5 120.5t104 71.5t129.5 21q127 0 241 -56l-60 -128q-80 51 -165 51q-44 0 -76.5 -18.5t-32.5 -54.5q0 -30 21 -47.5t74 -39.5l70 -28q162 -64 162 -208
q0 -49 -29.5 -100t-85.5 -89zM226 929l77 -84l77 84h111l-120 -152h-136l-121 152h112z" />
    <glyph glyph-name="scaron.alt" horiz-adv-x="371" 
d="M269 0h-205q105 61 106 119q0 29 -27 60l-57 65q-63 73 -63 133q0 77 59 117t148 40q71 0 128 -22l-42 -118q-35 15 -66 15q-63 0 -63 -43q0 -18 41 -66l59 -69q50 -58 50 -111q0 -34 -18 -66.5t-50 -53.5zM136 755l77 -84l77 84h111l-120 -152h-136l-121 152h112z" />
    <glyph glyph-name="ampersand.alt" horiz-adv-x="777" 
d="M22 221q0 72 42 125t118 68q-55 9 -85 46.5t-30 92.5q0 153 195 153h265l-17 -113h-187q-80 0 -80 -59q0 -28 18.5 -45t55.5 -17h125v-113h-43q-49 0 -90 -9.5t-74.5 -39.5t-33.5 -78q0 -54 38.5 -84.5t103.5 -30.5q70 0 119 43.5t50 110.5q1 29 -4 49h269l-13 -106h-101
q-20 -108 -112.5 -168.5t-217.5 -60.5q-145 0 -228 62.5t-83 173.5z" />
    <glyph glyph-name="zero.altab" horiz-adv-x="731" 
d="M39 351q0 165 92.5 265t233.5 100q142 0 235 -100t93 -265t-93 -265t-235 -100q-141 0 -233.5 100t-92.5 265zM217 351q0 -97 39 -157.5t109 -60.5t109.5 60.5t39.5 157.5q0 95 -39.5 156.5t-109.5 61.5q-69 0 -108.5 -61t-39.5 -157z" />
    <glyph glyph-name="one.altab" horiz-adv-x="731" 
d="M153 0l12 141h155v395q-52 -51 -139 -99l-74 118q48 28 102 65.5t83 61.5l30 24h163v-565h162l-12 -141h-482z" />
    <glyph glyph-name="two.altab" horiz-adv-x="731" 
d="M604 0h-527q0 118 40.5 197.5t138.5 144.5q21 14 83 49.5t87 58t25 49.5q0 42 -33.5 61.5t-80.5 19.5q-100 0 -196 -48l-52 122q111 64 260 64q58 0 107 -10.5t91 -34t66 -66t24 -101.5q0 -72 -37 -118.5t-111 -82.5q-22 -11 -63.5 -30t-62.5 -30t-47 -28t-38 -35.5
t-15 -40.5h364z" />
    <glyph glyph-name="three.altab" horiz-adv-x="731" 
d="M463 210q0 45 -35.5 68.5t-96.5 23.5h-146v120h125q54 0 84.5 22t30.5 58q0 40 -37 58.5t-88 19.5q-83 1 -168 -27l-46 121q108 39 231 39q50 0 96 -8.5t89.5 -27.5t70 -56t26.5 -88q0 -57 -37 -98.5t-96 -50.5q77 -7 129 -55.5t52 -130.5q0 -102 -92.5 -156t-223.5 -54
q-141 0 -261 39l46 122q104 -29 200 -28q147 2 147 89z" />
    <glyph glyph-name="four.altab" horiz-adv-x="731" 
d="M392 191h-288l-59 133l292 382h220v-381h108l-3 -134h-105v-191h-165v191zM196 325h196v249z" />
    <glyph glyph-name="five.altab" horiz-adv-x="731" 
d="M650 245q0 -117 -86.5 -187t-210.5 -70q-80 0 -139 11.5t-136 36.5l40 130q4 -1 23 -8.5t25.5 -10t23.5 -8t28 -8t28 -5.5t34 -4t36 -1q68 2 108.5 35t40.5 93q0 50 -30 75t-74 25q-69 0 -106 -46h-146l21 403h469l3 -135h-338l-8 -149q70 49 161 49q107 0 170 -60.5
t63 -165.5z" />
    <glyph glyph-name="six.altab" horiz-adv-x="731" 
d="M63 295q0 119 63.5 229t176.5 182h260q-244 -123 -300 -269q74 49 151 49q117 0 189 -66.5t72 -176.5q0 -113 -84 -184t-219 -71q-141 0 -225 83t-84 224zM256 241q0 -53 33.5 -84t88.5 -31q57 0 90.5 30.5t33.5 84.5q0 53 -33.5 83t-88.5 30t-89.5 -31t-34.5 -82z" />
    <glyph glyph-name="seven.altab" horiz-adv-x="731" 
d="M465 565h-342l3 141h546q-50 -170 -136 -368t-165 -338h-193q80 119 159.5 279.5t127.5 285.5z" />
    <glyph glyph-name="eight.altab" horiz-adv-x="731" 
d="M365 -12q-62 0 -116 12.5t-99.5 37.5t-72 69.5t-26.5 103.5q0 69 42.5 115.5t112.5 59.5q-53 13 -85 54t-32 98q0 64 44 106t103.5 58t130.5 16q51 0 97.5 -9t88 -29t66 -56.5t24.5 -85.5q0 -56 -32 -97t-86 -55q71 -16 113 -62.5t42 -116.5q0 -58 -26.5 -102t-72 -68.5
t-99.5 -36.5t-117 -12zM365 332q-54 0 -92 -26.5t-38 -77.5q0 -50 38.5 -79t91.5 -29q55 0 93 29t38 79q0 51 -38 77.5t-93 26.5zM367 602q-43 0 -71.5 -20t-28.5 -62t29 -62.5t71 -20.5q41 0 70.5 20.5t29.5 62.5t-28.5 62t-71.5 20z" />
    <glyph glyph-name="nine.altab" horiz-adv-x="731" 
d="M663 403q0 -114 -59.5 -221.5t-170.5 -181.5h-249q133 75 200 141t90 134q-79 -55 -165 -55q-114 0 -185 67t-71 177q0 116 85 185t209 69q147 0 231.5 -84t84.5 -231zM472 466q0 53 -33.5 84t-87.5 31q-55 0 -88 -30.5t-33 -84.5q0 -53 32.5 -83.5t86.5 -30.5
q55 0 89 31t34 83z" />
    <glyph glyph-name="zero.alt" horiz-adv-x="752" 
d="M32 351q0 165 97.5 265t246.5 100t246.5 -100t97.5 -265t-97.5 -265t-246.5 -100t-246.5 100t-97.5 265zM211 351q0 -97 43.5 -157.5t121.5 -60.5t122 60.5t44 157.5q0 95 -44 156.5t-122 61.5q-77 0 -121 -61t-44 -157z" />
    <glyph glyph-name="one.alt" horiz-adv-x="444" 
d="M189 0v506q-36 -55 -90 -99l-73 93q108 104 165 206h163v-706h-165z" />
    <glyph glyph-name="two.alt" horiz-adv-x="613" 
d="M544 0h-527q0 105 27.5 183.5t102.5 131.5q27 20 95 54.5t105 65t37 68.5q0 41 -34 59t-81 18q-89 0 -184 -51l-54 125q108 64 253 64q57 0 105.5 -10.5t90.5 -34t66 -66t24 -101.5q0 -46 -18 -83.5t-53 -65.5t-67.5 -46.5t-79.5 -42t-71 -38.5q-61 -38 -78 -89h364z" />
    <glyph glyph-name="three.alt" horiz-adv-x="530" 
d="M319 0h-298q116 45 204.5 106.5t88.5 120.5q0 74 -115 74h-110v120h78q51 0 80 22t29 59q0 40 -30 58.5t-71 19.5q-65 1 -133 -27l-45 121q94 39 203 39q35 0 67.5 -4.5t66.5 -17.5t59 -32.5t41 -52t16 -73.5q0 -58 -37 -99.5t-96 -49.5q79 -4 130 -44t51 -113
q0 -118 -179 -227z" />
    <glyph glyph-name="four.alt" horiz-adv-x="646" 
d="M352 192h-274l-58 132l276 382h220v-381h92l-3 -133h-89v-192h-164v192zM352 577l-183 -252h183v252z" />
    <glyph glyph-name="five.alt" horiz-adv-x="583" 
d="M354 0h-280q61 31 106 57.5t91.5 61.5t71 72.5t24.5 74.5q0 38 -25.5 60.5t-64.5 22.5q-61 0 -95 -46h-145l20 403h441l13 -135h-320l-7 -149q67 49 157 49q98 0 154 -52t56 -142q0 -81 -56.5 -156t-140.5 -121z" />
    <glyph glyph-name="six.alt" horiz-adv-x="676" 
d="M31 311q0 111 60.5 215.5t172.5 179.5h252q-142 -82 -217 -161t-88 -163q28 51 77.5 77.5t105.5 26.5q113 0 184.5 -67t71.5 -177q0 -116 -85 -185t-210 -69q-150 0 -237 87.5t-87 235.5zM233 240q0 -53 33 -84t87 -31q55 0 87.5 30.5t32.5 84.5q0 53 -32.5 83.5
t-85.5 30.5q-55 0 -88.5 -31t-33.5 -83z" />
    <glyph glyph-name="seven.alt" horiz-adv-x="541" 
d="M243 0h-196q32 34 61 73t54.5 84.5t44 81.5t40 89t32 81t30.5 83.5t26 72.5h-320l3 141h523q-155 -521 -298 -706z" />
    <glyph glyph-name="eight.alt" horiz-adv-x="685" 
d="M25 211q0 70 43 116.5t115 59.5q-55 14 -88 55.5t-33 97.5q0 91 81 134.5t201 43.5q58 0 106.5 -9.5t88.5 -29.5t62 -55.5t22 -83.5q0 -55 -33.5 -96t-88.5 -57q72 -14 115.5 -61.5t43.5 -117.5q0 -77 -47.5 -128.5t-116 -71.5t-154.5 -20q-63 0 -117.5 12.5t-100.5 37.5
t-72.5 69.5t-26.5 103.5zM209 227q0 -51 38 -79t95 -28t95.5 28.5t38.5 78.5t-39.5 77.5t-94.5 27.5t-94 -27t-39 -78zM240 520q0 -42 30 -62.5t74 -20.5q45 0 74 20.5t29 62.5t-29.5 62t-73.5 20q-45 0 -74.5 -20t-29.5 -62z" />
    <glyph glyph-name="nine.alt" horiz-adv-x="677" 
d="M428 0h-239q130 80 204.5 173t74.5 151q0 15 -3 27q-23 -60 -77 -93t-117 -33q-112 0 -181 66.5t-69 176.5q0 116 84 183t209 67q149 0 240.5 -89t91.5 -238q0 -105 -57 -207.5t-161 -183.5zM439 469q0 53 -33 82.5t-84 29.5q-54 0 -87 -30t-33 -82t32.5 -81.5
t86.5 -29.5q51 0 84.5 30.5t33.5 80.5z" />
    </font>
</defs>
</svg>
