<?xml version="1.0" standalone="no"?>
<!DOCTYPE svg PUBLIC "-//W3C//DTD SVG 1.1//EN" "http://www.w3.org/Graphics/SVG/1.1/DTD/svg11.dtd" >
<svg xmlns="http://www.w3.org/2000/svg" xmlns:xlink="http://www.w3.org/1999/xlink" version="1.1">
<metadata>
Created by FontForge 20170731 at Thu Jun  8 12:22:50 2017
 By Aleksey,,,
Copyright (c) Joseph Churchward and BluHead Studio, 2017. All rights reserved.
</metadata>
<defs>
<font id="EdenredLight-Regular" horiz-adv-x="544" >
  <font-face 
    font-family="Edenred Light"
    font-weight="300"
    font-stretch="normal"
    units-per-em="1000"
    panose-1="2 11 3 4 4 6 2 2 2 7"
    ascent="800"
    descent="-200"
    x-height="527"
    cap-height="706"
    bbox="-117 -305 1301 1019"
    underline-thickness="50"
    underline-position="-200"
    unicode-range="U+0020-FB04"
  />
<missing-glyph horiz-adv-x="250" 
 />
    <glyph glyph-name="ff" unicode="ff" horiz-adv-x="470" 
d="M130 0h-70v568q0 68 42.5 105.5t113.5 37.5q21 0 40 -3.5t28 -6.5l8 -3l-18 -60q-20 10 -55 10q-90 0 -90 -84v-37h133l-11 -61h-121v-466zM365 0h-70v568q0 68 42.5 105.5t113.5 37.5q21 0 40 -3.5t27 -6.5l9 -3l-18 -60q-20 10 -55 10q-90 0 -90 -84v-37h133l-11 -61
h-121v-466z" />
    <glyph glyph-name="fi" unicode="fi" horiz-adv-x="424" 
d="M130 0h-70v568q0 68 42.5 105.5t113.5 37.5q21 0 40 -3.5t28 -6.5l8 -3l-18 -60q-20 10 -55 10q-90 0 -90 -84v-37h133l-11 -61h-121v-466zM295 527h69v-527h-69v527zM295 706h69v-77h-69v77z" />
    <glyph glyph-name="fl" unicode="fl" horiz-adv-x="424" 
d="M130 0h-70v568q0 68 42.5 105.5t113.5 37.5q21 0 40 -3.5t28 -6.5l8 -3l-18 -60q-20 10 -55 10q-90 0 -90 -84v-37h133l-11 -61h-121v-466zM295 706h69v-706h-69v706z" />
    <glyph glyph-name="ffi" unicode="ffi" horiz-adv-x="659" 
d="M130 0h-70v568q0 68 42.5 105.5t113.5 37.5q21 0 40 -3.5t28 -6.5l8 -3l-18 -60q-20 10 -55 10q-90 0 -90 -84v-37h133l-11 -61h-121v-466zM365 0h-70v568q0 68 42.5 105.5t113.5 37.5q21 0 40 -3.5t27 -6.5l9 -3l-18 -60q-20 10 -55 10q-90 0 -90 -84v-37h133l-11 -61
h-121v-466zM530 527h69v-527h-69v527zM530 706h69v-77h-69v77z" />
    <glyph glyph-name="ffl" unicode="ffl" horiz-adv-x="659" 
d="M130 0h-70v568q0 68 42.5 105.5t113.5 37.5q21 0 40 -3.5t28 -6.5l8 -3l-18 -60q-20 10 -55 10q-90 0 -90 -84v-37h133l-11 -61h-121v-466zM365 0h-70v568q0 68 42.5 105.5t113.5 37.5q21 0 40 -3.5t27 -6.5l9 -3l-18 -60q-20 10 -55 10q-90 0 -90 -84v-37h133l-11 -61
h-121v-466zM530 706h69v-706h-69v706z" />
    <glyph glyph-name=".notdef" horiz-adv-x="250" 
 />
    <glyph glyph-name=".null" horiz-adv-x="0" 
 />
    <glyph glyph-name="nonmarkingreturn" horiz-adv-x="333" 
 />
    <glyph glyph-name="space" unicode=" " horiz-adv-x="300" 
 />
    <glyph glyph-name="exclam" unicode="!" horiz-adv-x="221" 
d="M82 207l-12 498h79l-12 -498h-55zM63 95h49h46v-95h-95v95z" />
    <glyph glyph-name="quotedbl" unicode="&#x22;" horiz-adv-x="392" 
d="M75 404v302h72v-302h-72zM245 404v302h72v-302h-32h-40z" />
    <glyph glyph-name="numbersign" unicode="#" horiz-adv-x="736" 
d="M413 273l55 156h-139l-55 -156h139zM346 688h73l-71 -205h137l72 205h72l-70 -205h126l-18 -54h-127l-55 -155h136l-19 -54h-136l-73 -205h-73l73 205h-138l-73 -205h-73l72 205h-130l20 54h130l55 155h-140l18 54h141z" />
    <glyph glyph-name="dollar" unicode="$" horiz-adv-x="531" 
d="M238 -84v85q-44 3 -90.5 15t-71.5 22l-24 10l24 62q68 -41 162 -49v297l-52 22q-68 29 -107 65.5t-39 97.5q0 73 55.5 115t142.5 48v60h55v-60q99 -4 171 -42l-29 -60q-62 35 -142 41v-239l26 -11q90 -39 131 -86t41 -123q0 -81 -55 -129.5t-143 -55.5v-85h-55zM420 186
q0 51 -28.5 83.5t-98.5 64.5v-273q63 8 95 45.5t32 79.5zM111 543q1 -38 30 -61t97 -53v215q-59 -5 -93.5 -29.5t-33.5 -71.5z" />
    <glyph glyph-name="percent" unicode="%" horiz-adv-x="911" 
d="M40 521q1 91 52.5 144t129.5 53q79 0 131.5 -53.5t52.5 -143.5q0 -91 -52.5 -144.5t-131.5 -53.5q-78 0 -130.5 53.5t-51.5 144.5zM110 521q0 -64 26.5 -105.5t85.5 -41.5t86 42t27 105t-27 104.5t-86 41.5t-85.5 -41.5t-26.5 -104.5zM578 718l55 -20l-299 -710l-53 23z
M506 184q1 91 52.5 144t129.5 53q79 0 131.5 -53.5t52.5 -143.5q0 -91 -52.5 -144.5t-131.5 -53.5q-78 0 -130.5 53.5t-51.5 144.5zM576 184q0 -64 26.5 -105.5t85.5 -41.5t86 42t27 105t-27 104.5t-86 41.5t-85.5 -41.5t-26.5 -104.5z" />
    <glyph glyph-name="ampersand" unicode="&#x26;" horiz-adv-x="687" 
d="M572 0q-36 36 -75 99q-109 -109 -232 -109q-94 0 -159.5 52t-65.5 152q0 73 44 121.5t96 60.5q-52 23 -78.5 65.5t-26.5 89.5q0 74 55.5 126.5t138.5 52.5q82 0 138 -51t56 -129q0 -54 -32 -96.5t-89 -59.5q53 -9 83.5 -42.5t84.5 -126.5q6 7 22 27.5t22.5 28t20.5 23
t22 22t20 16t23 13.5t22 5v-71q-10 -3 -20.5 -10.5t-23 -21t-22 -24.5t-26.5 -31.5t-27 -32.5q60 -93 119 -149h-90zM111 194q0 -72 45 -106.5t109 -34.5q104 0 199 100v1l-1 2q-8 14 -25.5 45t-24.5 42t-21.5 32t-24.5 28.5t-25.5 17.5t-33.5 13.5t-40 3.5
q-70 0 -113.5 -38.5t-43.5 -105.5zM146 532q0 -45 30.5 -83.5t92.5 -38.5q57 0 90 36.5t33 85.5q0 51 -37 83.5t-86 32.5q-50 0 -86.5 -31.5t-36.5 -84.5z" />
    <glyph glyph-name="quotesingle" unicode="'" horiz-adv-x="222" 
d="M75 404v302h72v-302h-72z" />
    <glyph glyph-name="parenleft" unicode="(" horiz-adv-x="255" 
d="M241 -184h-67q-57 110 -90 213t-32 232t33 231.5t88 213.5h67q-21 -45 -34 -77.5t-33.5 -93t-31 -130t-10.5 -144.5q0 -97 22 -195t40.5 -142.5t47.5 -107.5z" />
    <glyph glyph-name="parenright" unicode=")" horiz-adv-x="255" 
d="M81 -184h-67q29 63 47.5 107.5t40.5 142.5t22 195q0 75 -10.5 144.5t-31 130t-33.5 93t-34 77.5h67q56 -111 88 -213.5t33 -231.5t-32 -232t-90 -213z" />
    <glyph glyph-name="asterisk" unicode="*" horiz-adv-x="500" 
d="M335 350l-86 123l-83 -121l-57 38l95 118l-138 36l21 65l132 -44v141h62v-141l129 44l24 -65l-139 -36l96 -117z" />
    <glyph glyph-name="plus" unicode="+" horiz-adv-x="800" 
d="M668 319h-233v-237h-70v237h-233v70h233v234h70v-234h233v-70z" />
    <glyph glyph-name="comma" unicode="," horiz-adv-x="199" 
d="M84 -112l-49 43q28 31 28 73v90h80v-81q0 -42 -11 -67.5t-48 -57.5z" />
    <glyph glyph-name="hyphen" unicode="-" horiz-adv-x="383" 
d="M43 235v80h297v-80h-297z" />
    <glyph glyph-name="period" unicode="." horiz-adv-x="222" 
d="M63 96h96v-96h-96v96z" />
    <glyph glyph-name="slash" unicode="/" horiz-adv-x="330" 
d="M91 -9l-64 25l242 706l65 -24z" />
    <glyph glyph-name="zero" unicode="0" horiz-adv-x="668" 
d="M40 347q0 170 83.5 267.5t210.5 97.5q126 0 210 -97.5t84 -267.5t-84 -267.5t-210 -97.5q-127 0 -210.5 97.5t-83.5 267.5zM122 347q0 -134 55.5 -217t156.5 -83t156.5 83t55.5 217t-55.5 217t-156.5 83t-156.5 -83t-55.5 -217z" />
    <glyph glyph-name="one" unicode="1" horiz-adv-x="470" 
d="M70 0l10 68h149v561q-55 -46 -154 -100l-38 58q47 24 93.5 54t69.5 47l23 18h77v-638h159l-10 -68h-379z" />
    <glyph glyph-name="two" unicode="2" horiz-adv-x="553" 
d="M493 0h-455q0 52 5.5 92t21 73.5t32.5 57t50.5 50.5t63.5 46.5t83 51.5q66 39 100 74.5t34 85.5q0 61 -48.5 91.5t-114.5 30.5q-113 0 -187 -53l-30 59q90 59 215 59q104 0 173 -45.5t69 -144.5q0 -64 -32.5 -107t-92.5 -79q-18 -11 -56.5 -32.5t-61 -35t-54 -37
t-49.5 -45.5t-33 -54.5t-18 -69.5h396z" />
    <glyph glyph-name="three" unicode="3" horiz-adv-x="577" 
d="M449 199q0 70 -47.5 109t-139.5 39h-118v64h111q70 0 108.5 34.5t38.5 86.5q0 44 -29.5 73t-65 38.5t-74.5 10.5q-85 1 -180 -33l-21 60q90 37 206 37q98 0 169.5 -46.5t71.5 -140.5q0 -47 -27.5 -88.5t-71.5 -54.5q62 -14 105.5 -59t43.5 -126q0 -56 -24 -99t-64 -67.5
t-86.5 -36.5t-97.5 -12q-131 0 -233 37l21 65q47 -14 65.5 -19.5t61 -12t83.5 -6.5q33 0 64 7.5t61.5 23t49.5 45.5t19 71z" />
    <glyph glyph-name="four" unicode="4" horiz-adv-x="584" 
d="M379 226h-326l-28 62l327 418h98v-413h111l-9 -67h-102v-226h-71v226zM112 293h267v342z" />
    <glyph glyph-name="five" unicode="5" horiz-adv-x="607" 
d="M557 260q0 -131 -79.5 -201.5t-192.5 -70.5q-53 0 -103.5 12.5t-70 21t-61.5 29.5l23 69q36 -21 61 -32.5t66.5 -22.5t82.5 -11q81 1 137.5 54t56.5 155q0 80 -47.5 119t-115.5 39q-60 0 -104 -28t-58 -53h-67l13 366h392l8 -68h-341l-8 -230q71 76 177 76t168.5 -61
t62.5 -163z" />
    <glyph glyph-name="six" unicode="6" horiz-adv-x="593" 
d="M40 270q0 133 73.5 249.5t203.5 186.5h142q-136 -47 -223.5 -139t-110.5 -199q72 90 193 90q112 0 178.5 -63.5t66.5 -168.5q0 -107 -73 -172.5t-183 -65.5q-120 0 -193.5 76.5t-73.5 205.5zM132 226q0 -80 46.5 -126.5t128.5 -46.5t130.5 47t48.5 126q0 76 -47.5 121.5
t-124.5 45.5q-80 0 -131 -45.5t-51 -121.5z" />
    <glyph glyph-name="seven" unicode="7" horiz-adv-x="512" 
d="M396 638h-381l9 68h468q-34 -107 -67.5 -198t-70 -172t-57.5 -124.5t-61 -119.5t-48 -92h-93q92 147 172 321.5t129 316.5z" />
    <glyph glyph-name="eight" unicode="8" horiz-adv-x="598" 
d="M38 204q0 67 41.5 118.5t104.5 64.5q-47 15 -77 54.5t-30 94.5q0 48 18.5 84.5t50.5 57t70.5 30.5t82.5 10t82.5 -10t70.5 -30.5t50.5 -57t18.5 -84.5q0 -55 -30 -94.5t-77 -54.5q63 -13 104.5 -64.5t41.5 -118.5q0 -104 -75 -160t-186 -56t-186 56t-75 160zM114 203
q0 -72 53.5 -112t131.5 -40t131.5 40t53.5 112q0 75 -53 112.5t-132 37.5t-132 -37.5t-53 -112.5zM149 535q0 -64 44.5 -93t105.5 -29t105.5 29t44.5 93q0 63 -42.5 91.5t-107.5 28.5t-107.5 -28.5t-42.5 -91.5z" />
    <glyph glyph-name="nine" unicode="9" horiz-adv-x="593" 
d="M553 436q0 -133 -73.5 -249.5t-203.5 -186.5h-142q136 47 223.5 139t110.5 199q-72 -90 -193 -90q-112 0 -178.5 63.5t-66.5 168.5q0 107 73 172.5t183 65.5q120 0 193.5 -76.5t73.5 -205.5zM461 480q0 80 -46.5 126.5t-128.5 46.5t-130.5 -47t-48.5 -126
q0 -76 47.5 -121.5t124.5 -45.5q80 0 131 45.5t51 121.5z" />
    <glyph glyph-name="colon" unicode=":" horiz-adv-x="222" 
d="M63 96h49h47v-96h-96v96zM63 517h96v-96h-96v96z" />
    <glyph glyph-name="semicolon" unicode=";" horiz-adv-x="222" 
d="M63 421v96h96v-96h-96zM95 -112l-49 43q28 31 28 73v90h80v-81q0 -42 -11 -67.5t-48 -57.5z" />
    <glyph glyph-name="less" unicode="&#x3c;" horiz-adv-x="800" 
d="M633 108l-466 213v65l466 209v-78l-379 -162l379 -169v-78z" />
    <glyph glyph-name="equal" unicode="=" horiz-adv-x="800" 
d="M668 429h-536v35v35h536v-70zM668 209h-536v70h536v-70z" />
    <glyph glyph-name="greater" unicode="&#x3e;" horiz-adv-x="800" 
d="M633 321l-466 -213v78l379 169l-379 162v78l466 -209v-65z" />
    <glyph glyph-name="question" unicode="?" horiz-adv-x="522" 
d="M154 155v152q22 -4 54 -4q81 0 139 46t58 129q0 76 -53.5 125.5t-129.5 49.5q-48 0 -96.5 -18t-80.5 -51l-41 48q86 86 221 86q112 0 184 -65t72 -175q0 -107 -74 -169t-182 -68v-86h-71zM143 95h95v-95h-95v95z" />
    <glyph glyph-name="at" unicode="@" horiz-adv-x="863" 
d="M586 157v67q-23 -34 -65 -54.5t-87 -20.5q-92 0 -150 56.5t-58 148.5q0 93 58 148t150 55t149 -54.5t57 -161.5v-121q108 0 108 153q0 132 -81 213t-229 81q-99 0 -174.5 -48t-112 -118t-36.5 -147q0 -145 86 -228.5t219 -83.5q108 0 180 52l31 -54q-9 -7 -26.5 -16.5
t-73 -26t-111.5 -16.5q-158 0 -264 101t-106 272q0 69 26.5 135.5t74 120t122.5 86t165 32.5q171 0 273 -95.5t102 -259.5q0 -216 -227 -216zM574 354q0 67 -39 104.5t-101 37.5q-67 0 -104.5 -41.5t-37.5 -100.5q0 -63 37 -103.5t105 -40.5q62 0 101 39t39 105z" />
    <glyph glyph-name="A" unicode="A" horiz-adv-x="598" 
d="M528 0l-73 197h-313l-72 -197h-76l264 706h82l264 -706h-76zM299 621l-133 -360h266z" />
    <glyph glyph-name="B" unicode="B" horiz-adv-x="632" 
d="M74 706h285q199 0 199 -186q0 -127 -85 -144q125 -25 125 -174q0 -202 -219 -202h-147q-76 0 -117 37t-41 111v558zM148 374v-226q0 -44 20 -64t64 -20h139q146 0 146 138q0 71 -33 100.5t-104 29.5h-153q-21 0 -37.5 7t-23.5 14.5t-18 20.5zM148 642v-169
q0 -33 22.5 -55t63.5 -22h97q146 0 146 123q0 74 -35 98.5t-102 24.5h-192z" />
    <glyph glyph-name="C" unicode="C" horiz-adv-x="600" 
d="M40 353q1 173 103 269t267 96q98 0 177 -41l-34 -60q-65 36 -143 36q-137 0 -212.5 -83t-75.5 -217t75.5 -217t212.5 -83q73 0 152 43l-6 -79q-52 -29 -146 -29q-166 0 -268.5 96.5t-101.5 268.5z" />
    <glyph glyph-name="D" unicode="D" horiz-adv-x="771" 
d="M425 0h-193q-76 0 -117 37.5t-41 111.5v557h351q98 0 170.5 -51.5t107 -130.5t34.5 -171t-34.5 -171t-107 -130.5t-170.5 -51.5zM232 65h178q62 0 110.5 24.5t77 66.5t43 92t14.5 105t-14.5 105t-43 92t-77 66.5t-110.5 24.5h-262v-492q0 -43 20 -63.5t64 -20.5z" />
    <glyph glyph-name="E" unicode="E" horiz-adv-x="575" 
d="M519 0h-287q-76 0 -117 37.5t-41 111.5v557h467l-14 -65h-379v-257h337l-14 -61h-323v-174q0 -43 20 -63.5t64 -20.5h301z" />
    <glyph glyph-name="F" unicode="F" horiz-adv-x="515" 
d="M74 0v549q0 77 31.5 117t110.5 40h289l-14 -65h-222q-75 1 -98 -14.5t-23 -77.5v-156h319l-14 -61h-305v-332h-74z" />
    <glyph glyph-name="G" unicode="G" horiz-adv-x="756" 
d="M629 87q-31 -47 -93.5 -73t-128.5 -26q-160 0 -264 99.5t-104 264.5q0 167 102 266.5t265 99.5q167 0 268 -100l-48 -53q-86 88 -220 88q-136 0 -210.5 -83.5t-74.5 -217.5q0 -127 77 -213t209 -86q33 0 69 9.5t70 27t56 49t23 69.5v120h-320l10 65h381v-289
q0 -33 9.5 -64.5t21.5 -39.5h-80q-18 33 -18 87z" />
    <glyph glyph-name="H" unicode="H" horiz-adv-x="677" 
d="M74 0v706h74v-319h381v319h74v-706h-74v323h-381v-323h-74z" />
    <glyph glyph-name="I" unicode="I" horiz-adv-x="222" 
d="M74 0v706h74v-706h-74z" />
    <glyph glyph-name="J" unicode="J" horiz-adv-x="234" 
d="M96 706h74v-342q0 -94 -25 -179t-72 -185h-83q34 66 52.5 108.5t36 115.5t17.5 150v332z" />
    <glyph glyph-name="K" unicode="K" horiz-adv-x="593" 
d="M74 706h74v-319h31l285 319h87l-286 -319h44q70 0 101 -17.5t57 -83.5l58 -145q19 -47 46.5 -90.5t37.5 -50.5h-90q-11 11 -31 46t-31 64l-49 125q-25 65 -39.5 77.5t-74.5 12.5h-146v-325h-74v706z" />
    <glyph glyph-name="L" unicode="L" horiz-adv-x="512" 
d="M507 0h-275q-76 0 -117 37.5t-41 111.5v557h74v-557q0 -43 20 -63.5t64 -20.5h289z" />
    <glyph glyph-name="M" unicode="M" horiz-adv-x="821" 
d="M148 0h-74v706h126l204 -603h1l219 603h123v-706h-74v654h-1l-237 -654h-67l-219 654h-1v-654z" />
    <glyph glyph-name="N" unicode="N" horiz-adv-x="708" 
d="M634 0h-96l-390 618v-618h-74v706h97l389 -616v616h74v-706z" />
    <glyph glyph-name="O" unicode="O" horiz-adv-x="819" 
d="M40 353q1 173 103 269t267 96q166 0 268 -96.5t102 -268.5t-102 -268.5t-268 -96.5t-268.5 96.5t-101.5 268.5zM122 353q0 -134 75.5 -217t212.5 -83t212.5 83t75.5 217t-75.5 217t-212.5 83t-212.5 -83t-75.5 -217z" />
    <glyph glyph-name="P" unicode="P" horiz-adv-x="632" 
d="M74 706h335q103 0 156 -59.5t53 -147.5q0 -95 -54.5 -151.5t-164.5 -55.5h-172q-21 0 -37.5 7t-24 14t-17.5 20v-333h-74v706zM148 642v-209q0 -33 21.5 -55t62.5 -22h159q69 0 107.5 38t38.5 104q0 144 -137 144h-252z" />
    <glyph glyph-name="Q" unicode="Q" horiz-adv-x="819" 
d="M780 353q0 -164 -93.5 -260t-246.5 -104v-35q0 -55 29 -91h-74q-27 36 -27 91v36q-149 12 -239 107t-89 256q1 173 103 269t267 96q166 0 268 -96.5t102 -268.5zM122 353q0 -123 64.5 -204t181.5 -94v107h72v-108q123 10 190.5 91.5t67.5 207.5q0 134 -75.5 217
t-212.5 83t-212.5 -83t-75.5 -217z" />
    <glyph glyph-name="R" unicode="R" horiz-adv-x="672" 
d="M74 706h340q108 0 162.5 -61.5t54.5 -150.5q0 -86 -54 -144.5t-131 -56.5q31 -4 54.5 -18.5t39.5 -40t25.5 -46t21.5 -54t18 -47.5q30 -66 48 -87h-91q-13 13 -31 60q-6 16 -18 49t-18 48t-18.5 39.5t-25.5 36.5t-33 25.5t-46 19t-59 5.5l-86 1q-18 0 -31 1.5t-21.5 8
t-11 8t-9.5 12.5l-6 11v-325h-74v706zM148 642v-218q0 -33 21.5 -55t62.5 -22h172q69 0 107.5 39.5t38.5 106.5q0 149 -151 149h-251z" />
    <glyph glyph-name="S" unicode="S" horiz-adv-x="534" 
d="M40 40l29 64q97 -51 193 -51q151 0 151 127q0 55 -30.5 87.5t-94.5 63.5l-81 39q-88 42 -130.5 80t-42.5 102q0 84 67 125t166 41q109 0 202 -47l-28 -62q-74 44 -174 44q-151 0 -151 -101q0 -10 2 -19.5t7 -18t8.5 -14.5t13.5 -13.5t15 -11.5t18.5 -11t18.5 -9.5
t21.5 -10.5t20.5 -10l82 -39q89 -43 130.5 -89t41.5 -123q0 -91 -66.5 -143t-166.5 -52q-111 0 -222 52z" />
    <glyph glyph-name="T" unicode="T" horiz-adv-x="548" 
d="M237 0v642h-236v64h543l-10 -64h-223v-642h-74z" />
    <glyph glyph-name="U" unicode="U" horiz-adv-x="686" 
d="M69 218v488h74v-483q0 -87 57.5 -128.5t142.5 -41.5q52 0 95.5 15.5t74 55.5t30.5 99v483h74v-488q0 -112 -80 -171t-194 -59q-54 0 -100 11.5t-86.5 37t-64 72t-23.5 109.5z" />
    <glyph glyph-name="V" unicode="V" horiz-adv-x="578" 
d="M250 0l-261 706h81l220 -619l222 619h80l-264 -706h-78z" />
    <glyph glyph-name="W" unicode="W" horiz-adv-x="888" 
d="M223 0l-216 706h77l173 -587l152 587h66l160 -587l165 587h77l-211 -706h-68l-156 583l-151 -583h-68z" />
    <glyph glyph-name="X" unicode="X" horiz-adv-x="575" 
d="M288 297l-190 -297h-83l232 361l-222 345h83l180 -281l181 281h81l-221 -345q39 -61 116 -180.5t115 -180.5h-81z" />
    <glyph glyph-name="Y" unicode="Y" horiz-adv-x="551" 
d="M49 455v251h74v-242q0 -135 152 -135q150 0 150 135v242h74v-251q0 -83 -50 -131.5t-137 -56.5v-267h-74v267q-90 8 -139.5 55t-49.5 133z" />
    <glyph glyph-name="Z" unicode="Z" horiz-adv-x="565" 
d="M518 0h-500q0 75 13.5 130.5t48.5 104t76 85t113 90.5q80 60 131.5 114.5t65.5 116.5h-419v65h503q0 -49 -16 -94t-38.5 -79.5t-63 -74t-74.5 -66.5t-89 -68q-78 -58 -124 -119.5t-46 -139.5h419v-65z" />
    <glyph glyph-name="bracketleft" unicode="[" horiz-adv-x="268" 
d="M74 -184v890h193v-56h-121v-778h121v-56h-193z" />
    <glyph glyph-name="backslash" unicode="\" horiz-adv-x="330" 
d="M307 18l-68 -27l-247 705l69 26z" />
    <glyph glyph-name="bracketright" unicode="]" horiz-adv-x="268" 
d="M194 706v-890h-193v58h121v774h-121v58h193z" />
    <glyph glyph-name="asciicircum" unicode="^" horiz-adv-x="800" 
d="M415 706l241 -218h-108l-148 137l-148 -137h-108l243 218h28z" />
    <glyph glyph-name="underscore" unicode="_" horiz-adv-x="500" 
d="M0 -138h500v-47h-500v47z" />
    <glyph glyph-name="grave" unicode="`" horiz-adv-x="500" 
d="M277 600l-126 146h105l93 -146h-72z" />
    <glyph glyph-name="a" unicode="a" horiz-adv-x="627" 
d="M579 263v-263h-69v102q-34 -51 -90.5 -80t-126.5 -29q-112 0 -187.5 74.5t-75.5 195.5q0 117 78.5 194t194.5 77q124 0 200 -74.5t76 -196.5zM508 263q0 93 -56.5 151.5t-148.5 58.5q-90 0 -146 -61.5t-56 -148.5q0 -91 55 -150t147 -59t148.5 58t56.5 151z" />
    <glyph glyph-name="b" unicode="b" horiz-adv-x="624" 
d="M45 264v442h69v-281q34 51 90.5 80t126.5 29q112 0 187.5 -74.5t75.5 -195.5q0 -117 -78.5 -194t-194.5 -77q-124 0 -200 74.5t-76 196.5zM116 264q0 -93 56.5 -151.5t148.5 -58.5q90 0 146 61.5t56 148.5q0 91 -55 150t-147 59t-148.5 -58t-56.5 -151z" />
    <glyph glyph-name="c" unicode="c" horiz-adv-x="442" 
d="M409 85l-4 -69q-51 -24 -116 -24q-118 0 -188.5 73.5t-70.5 196.5q0 120 73 196t193 76q78 0 142 -36l-31 -58q-52 32 -110 32q-85 0 -140.5 -57t-55.5 -153q0 -92 50.5 -151.5t149.5 -57.5q61 1 108 32z" />
    <glyph glyph-name="d" unicode="d" horiz-adv-x="624" 
d="M579 706v-438q0 -123 -76.5 -199t-199.5 -76q-116 0 -194.5 76t-78.5 195q0 121 75.5 195.5t187.5 74.5q70 0 126.5 -29t90.5 -80v281h69zM508 264q0 93 -56.5 151t-148.5 58t-147 -59t-55 -150q0 -88 56 -149t146 -61q92 0 148.5 58.5t56.5 151.5z" />
    <glyph glyph-name="e" unicode="e" horiz-adv-x="570" 
d="M415 84l-5 -70q-45 -21 -111 -21q-120 0 -194.5 76t-74.5 196q0 117 76 193t189 76q117 0 183.5 -77.5t66.5 -202.5h-445q3 -98 59.5 -149t144.5 -51q63 0 111 30zM295 473q-73 0 -123.5 -42.5t-66.5 -115.5h366q-10 76 -56 117t-120 41z" />
    <glyph glyph-name="f" unicode="f" horiz-adv-x="235" 
d="M130 0h-70v568q0 68 42.5 105.5t113.5 37.5q21 0 40 -3.5t28 -6.5l8 -3l-18 -60q-20 10 -55 10q-90 0 -90 -84v-37h133l-11 -61h-121v-466z" />
    <glyph glyph-name="g" unicode="g" horiz-adv-x="624" 
d="M579 263v-145q0 -95 -24 -160.5t-104 -141.5h-95q87 72 120.5 133.5t33.5 152.5q-34 -51 -90.5 -80t-126.5 -29q-112 0 -187.5 74.5t-75.5 195.5q0 117 78.5 194t194.5 77q124 0 200 -74.5t76 -196.5zM508 263q0 93 -56.5 151.5t-148.5 58.5q-90 0 -146 -61.5t-56 -148.5
q0 -91 55 -150t147 -59t148.5 58t56.5 151z" />
    <glyph glyph-name="h" unicode="h" horiz-adv-x="549" 
d="M60 706h69v-245q48 73 157 73q100 0 154 -54.5t54 -155.5v-324h-69v319q0 74 -34.5 114.5t-104.5 40.5q-72 0 -114.5 -40.5t-42.5 -111.5v-322h-69v706z" />
    <glyph glyph-name="i" unicode="i" horiz-adv-x="189" 
d="M60 527h69v-527h-69v527zM60 706h69v-77h-69v77z" />
    <glyph glyph-name="j" unicode="j" horiz-adv-x="192" 
d="M65 527h69v-313q0 -71 -11.5 -138t-27.5 -112.5t-32 -80t-27 -51.5l-12 -16h-81q5 7 13 19t29 52.5t37.5 83.5t29.5 109t13 132v315zM65 706h69v-77h-69v77z" />
    <glyph glyph-name="k" unicode="k" horiz-adv-x="452" 
d="M60 706h70v-409h22l203 230h78l-196 -230h22q51 0 72.5 -16.5t40.5 -67.5l29 -79q35 -94 67 -134h-83q-14 21 -37 84l-32 89q-10 28 -16 39.5t-19.5 20t-36.5 8.5h-114v-241h-70v706z" />
    <glyph glyph-name="l" unicode="l" horiz-adv-x="189" 
d="M60 706h69v-706h-69v706z" />
    <glyph glyph-name="m" unicode="m" horiz-adv-x="845" 
d="M420 440h5q45 94 165 94q91 0 144 -51.5t53 -146.5v-336h-69v334q0 66 -33 102.5t-96 36.5q-132 0 -132 -143v-330h-69v330q0 143 -132 143q-63 0 -96 -36.5t-33 -102.5v-334h-69v336q0 95 53 146.5t144 51.5q119 0 165 -94z" />
    <glyph glyph-name="n" unicode="n" 
d="M420 0v325q0 71 -39 109t-109 38t-109 -38t-39 -109v-325h-69v324q0 100 57.5 154.5t159.5 54.5t159.5 -54.5t57.5 -154.5v-324h-69z" />
    <glyph glyph-name="o" unicode="o" horiz-adv-x="608" 
d="M30 263q0 121 80 196.5t194 74.5q121 -1 196.5 -74.5t76.5 -196.5t-75 -196.5t-198 -73.5q-121 0 -197.5 73.5t-76.5 196.5zM101 263q0 -96 57 -152.5t146 -56.5t146 56.5t56 152.5q-1 95 -57.5 152t-144.5 58q-84 1 -143.5 -57t-59.5 -153z" />
    <glyph glyph-name="p" unicode="p" horiz-adv-x="624" 
d="M45 -180v443q0 122 76 196.5t200 74.5q116 0 194.5 -77t78.5 -194q0 -121 -75.5 -195.5t-187.5 -74.5q-70 0 -126.5 29t-90.5 80v-282h-69zM116 263q0 -93 56.5 -151t148.5 -58t147 59t55 150q0 87 -56 148.5t-146 61.5q-92 0 -148.5 -58.5t-56.5 -151.5z" />
    <glyph glyph-name="q" unicode="q" horiz-adv-x="634" 
d="M579 263v-443h-69v282q-34 -51 -90.5 -80t-126.5 -29q-112 0 -187.5 74.5t-75.5 195.5q0 117 78.5 194t194.5 77q124 0 200 -74.5t76 -196.5zM508 263q0 93 -56.5 151.5t-148.5 58.5q-90 0 -146 -61.5t-56 -148.5q0 -91 55 -150t147 -59t148.5 58t56.5 151z" />
    <glyph glyph-name="r" unicode="r" horiz-adv-x="302" 
d="M313 516l-21 -57q-23 13 -59 13q-61 0 -85 -36.5t-24 -110.5v-325h-69v331q0 113 46.5 158t129.5 45q20 0 40.5 -4.5t30.5 -9.5z" />
    <glyph glyph-name="s" unicode="s" horiz-adv-x="395" 
d="M26 34l29 59q75 -39 140 -39q102 0 102 84q0 37 -21.5 60t-65.5 44l-61 29q-64 30 -95.5 59.5t-31.5 78.5q0 63 50 94t123 31q82 0 156 -38l-30 -59q-60 36 -126 36q-102 0 -102 -64q0 -15 6 -26.5t22 -22.5t25 -15.5l33 -16.5l61 -29q67 -32 97.5 -66.5t30.5 -92.5
q0 -70 -49 -108.5t-124 -38.5q-86 0 -169 41z" />
    <glyph glyph-name="t" unicode="t" horiz-adv-x="238" 
d="M51 253v431l69 25v-182h109l-12 -61h-97v-211q0 -39 9 -76.5t24.5 -67.5t28.5 -50.5t28.5 -40t15.5 -20.5h-82l-8 11q-8 11 -11 15t-11.5 17t-13 21t-12 23t-12 27.5t-10 29.5t-8.5 33.5t-5 36t-2 39.5z" />
    <glyph glyph-name="u" unicode="u" 
d="M420 201v326h69v-325q0 -100 -57.5 -154.5t-159.5 -54.5t-159.5 54.5t-57.5 154.5v325h69v-326q0 -71 39 -109t109 -38t109 38t39 109z" />
    <glyph glyph-name="v" unicode="v" horiz-adv-x="417" 
d="M178 0q-136 379 -184 515q-4 8 -4 10l-1 2h74l147 -440l144 440h74l-189 -527h-61z" />
    <glyph glyph-name="w" unicode="w" horiz-adv-x="839" 
d="M422 87h-5q-45 -94 -165 -94q-91 0 -144 51.5t-53 146.5v336h69v-334q0 -66 33 -102.5t96 -36.5q132 0 132 143v330h69v-330q0 -143 132 -143q63 0 96 36.5t33 102.5v334h69v-336q0 -95 -53 -146.5t-144 -51.5q-119 0 -165 94z" />
    <glyph glyph-name="x" unicode="x" horiz-adv-x="452" 
d="M81 0h-76l183 267l-178 260h76l140 -208l140 208h76l-178 -260l183 -267h-76l-145 214z" />
    <glyph glyph-name="y" unicode="y" horiz-adv-x="547" 
d="M391 -184h-87q5 4 12.5 12t27.5 33.5t35.5 53t29 70t14.5 85.5q-54 -77 -160 -77q-94 0 -151 52t-57 159v323h69v-318q0 -73 35 -114.5t104 -41.5q82 0 119.5 45.5t37.5 107.5v321h69v-461q0 -65 -24.5 -127.5t-48.5 -92.5z" />
    <glyph glyph-name="z" unicode="z" horiz-adv-x="439" 
d="M341 467h-307v60h387q0 -46 -13.5 -84.5t-44.5 -73t-52.5 -53t-66.5 -53.5q-64 -49 -103 -97.5t-45 -105.5h311v-60h-389q1 50 14 94t29 73.5t48 63.5t52.5 51.5t61.5 50.5q52 41 81.5 71.5t36.5 62.5z" />
    <glyph glyph-name="braceleft" unicode="{" horiz-adv-x="294" 
d="M105 -37v190q0 33 -20.5 56t-56.5 23v60q36 0 56.5 23t20.5 56v192q0 76 35 109.5t116 33.5h54v-58h-54q-79 0 -79 -85v-208q0 -42 -16.5 -62.5t-55.5 -30.5q39 -10 55.5 -31t16.5 -63v-203q0 -49 23.5 -70t55.5 -21h54v-58h-52q-80 0 -116.5 35.5t-36.5 111.5z" />
    <glyph glyph-name="bar" unicode="|" horiz-adv-x="500" 
d="M217 764h66v-1000h-66v1000z" />
    <glyph glyph-name="braceright" unicode="}" horiz-adv-x="294" 
d="M189 153v-190q0 -76 -36.5 -111.5t-116.5 -35.5h-52v58h54q32 0 55.5 21t23.5 70v203q0 42 16.5 63t55.5 31q-39 10 -55.5 30.5t-16.5 62.5v208q0 85 -79 85h-54v58h54q81 0 116 -33.5t35 -109.5v-192q0 -33 20.5 -56t56.5 -23v-60q-36 0 -56.5 -23t-20.5 -56z" />
    <glyph glyph-name="asciitilde" unicode="~" horiz-adv-x="807" 
d="M658 420l27 -67q-84 -64 -162 -64q-13 0 -25.5 1.5t-27.5 6t-21 6.5t-24 9t-20 8q-73 29 -119 29q-35 0 -64.5 -13t-73.5 -48l-26 65q88 68 167 68q45 0 116 -27q6 -2 23 -9t25 -9.5t21.5 -7t25.5 -6t23 -1.5q36 0 64 12.5t71 46.5z" />
    <glyph glyph-name="nbspace" unicode="&#xa0;" horiz-adv-x="300" 
 />
    <glyph glyph-name="exclamdown" unicode="&#xa1;" horiz-adv-x="221" 
d="M82 318h55l12 -498h-79zM63 432v95h95v-95h-41h-54z" />
    <glyph glyph-name="cent" unicode="&#xa2;" horiz-adv-x="471" 
d="M252 -22v99q-98 17 -155 87.5t-57 177.5q0 109 56 179.5t156 86.5v78h55v-73q79 0 136 -32l-28 -60q-47 31 -108 31v-419h6q68 0 113 38l-3 -75q-51 -24 -110 -24h-6v-94h-55zM111 342q0 -75 38 -129t103 -72v404q-66 -17 -103.5 -70.5t-37.5 -132.5z" />
    <glyph glyph-name="sterling" unicode="&#xa3;" horiz-adv-x="547" 
d="M45 0v67q33 0 55 1t54 4.5t53 12.5t41.5 22.5t31 36.5t10.5 53q0 65 -88 141h-157v52h108q-74 65 -74 157q0 45 21.5 80t56 53.5t71.5 28t75 9.5q106 0 178 -47l-31 -58q-75 40 -151 40q-57 0 -100 -27.5t-43 -81.5q0 -32 19.5 -65.5t34 -48.5t42.5 -40h227l-8 -52h-172
q22 -26 30 -37t19.5 -37t11.5 -52q3 -94 -92 -143h240l-11 -69h-452z" />
    <glyph glyph-name="currency" unicode="&#xa4;" horiz-adv-x="568" 
d="M123 352q0 -66 47.5 -113.5t114.5 -47.5q66 0 113 47.5t47 113.5q0 67 -47 114.5t-113 47.5q-67 0 -114.5 -47.5t-47.5 -114.5zM56 352q0 75 44 133l-67 72l47 42l64 -68q62 49 141 49q77 0 139 -49l65 68l46 -42l-66 -72q43 -59 43 -133t-43 -133l66 -72l-46 -43l-65 69
q-61 -48 -139 -48q-80 0 -141 48l-64 -69l-47 43l67 72q-44 58 -44 133z" />
    <glyph glyph-name="yen" unicode="&#xa5;" horiz-adv-x="543" 
d="M90 128h144v44h-144v50h144v45q-84 0 -136 50.5t-52 137.5v251h69v-242q0 -135 156 -135q77 0 117 33.5t39 101.5v242h69v-251q1 -87 -51.5 -137.5t-136.5 -50.5v-45h144v-50h-144v-44h144v-50h-144v-78h-74v78h-144v50z" />
    <glyph glyph-name="brokenbar" unicode="&#xa6;" horiz-adv-x="500" 
d="M217 699h66v-370h-66v370zM217 199h66v-370h-29h-37v370z" />
    <glyph glyph-name="section" unicode="&#xa7;" horiz-adv-x="600" 
d="M531 206q0 -51 -25 -83.5t-70 -57.5q65 -48 65 -134q0 -43 -16.5 -74.5t-45 -49t-61.5 -25.5t-72 -8q-103 0 -202 54l28 62q84 -53 174 -53q46 0 81.5 21.5t35.5 72.5q0 24 -6.5 42t-24 32t-29.5 21t-41 21l-118 57q-76 36 -105.5 79.5t-29.5 102.5q0 89 95 141
q-65 46 -65 134q0 83 58 120t151 37q94 0 175 -44l-28 -62q-68 43 -146 43q-54 0 -93 -21.5t-39 -72.5q0 -24 6.5 -42t24 -32t29.5 -21t41 -21l118 -57q76 -36 105.5 -79.5t29.5 -102.5zM349 332l-138 67q-64 -42 -64 -113q0 -44 23.5 -71t80.5 -55l137 -67q65 40 65 113
q0 44 -23.5 71t-80.5 55z" />
    <glyph glyph-name="dieresis" unicode="&#xa8;" horiz-adv-x="500" 
d="M107 631v88h88v-88h-41h-47zM305 631v88h88v-88h-88z" />
    <glyph glyph-name="copyright" unicode="&#xa9;" horiz-adv-x="700" 
d="M75 353q0 113 81 194t194 81t194 -81t81 -194t-81 -194t-194 -81t-194 81t-81 194zM129 353q0 -91 64.5 -156t156.5 -65t156.5 65t64.5 156t-64.5 156t-156.5 65t-156.5 -65t-64.5 -156zM424 259l5 -53q-23 -13 -61 -13q-71 0 -115.5 42t-44.5 114t44.5 114.5t115.5 42.5
q50 0 79 -21l-25 -43q-19 17 -57 17q-47 0 -77 -29.5t-30 -80.5t30 -80t77 -29q38 0 59 19z" />
    <glyph glyph-name="ordfeminine" unicode="&#xaa;" horiz-adv-x="424" 
d="M381 545v-163h-53v62q-7 -26 -41.5 -46.5t-81.5 -20.5q-77 0 -128.5 46t-51.5 122q0 75 51.5 121t128.5 46t126.5 -45.5t49.5 -121.5zM321 545q0 54 -31 87t-85 33t-85 -33t-31 -87q0 -55 31.5 -88t84.5 -33t84.5 33t31.5 88z" />
    <glyph glyph-name="guillemotleft" unicode="&#xab;" horiz-adv-x="615" 
d="M312 420l-201 -155l201 -155v-90l-269 211v68l269 211v-90zM562 420l-201 -155l201 -155v-45v-45l-269 211v68l269 211v-90z" />
    <glyph glyph-name="logicalnot" unicode="&#xac;" horiz-adv-x="800" 
d="M668 390v-275h-70v203h-466v72h536z" />
    <glyph glyph-name="uni00AD" unicode="&#xad;" horiz-adv-x="383" 
d="M43 235v80h297v-80h-297z" />
    <glyph glyph-name="registered" unicode="&#xae;" horiz-adv-x="700" 
d="M248 603h137q43 0 65.5 -26.5t22.5 -62.5q0 -34 -23.5 -55t-54.5 -21q12 0 22 -6.5t17.5 -18.5t12 -22t10.5 -25.5t8 -20.5q16 -32 20 -36h-52q-5 7 -12 25q-2 6 -8 22t-8.5 21.5t-8.5 16.5t-11.5 15t-15 7.5t-21.5 3.5h-20q-22 0 -35 20v-130h-45v293zM293 565v-74
q0 -17 8 -24t32 -7h32q28 0 44.5 13.5t16.5 39.5q0 31 -16 41.5t-47 10.5h-70zM75 458q0 113 81 194t194 81t194 -81t81 -194t-81 -194t-194 -81t-194 81t-81 194zM129 458q0 -92 64.5 -156.5t156.5 -64.5t156.5 64.5t64.5 156.5t-64.5 156.5t-156.5 64.5t-156.5 -64.5
t-64.5 -156.5z" />
    <glyph glyph-name="macron" unicode="&#xaf;" horiz-adv-x="500" 
d="M110 641v64h280v-64h-280z" />
    <glyph glyph-name="degree" unicode="&#xb0;" horiz-adv-x="414" 
d="M21 532q0 77 54.5 131.5t131.5 54.5t131.5 -54.5t54.5 -131.5t-54.5 -131.5t-131.5 -54.5t-131.5 54.5t-54.5 131.5zM80 532q0 -52 37 -89.5t90 -37.5t90 37.5t37 89.5t-37 89.5t-90 37.5t-90 -37.5t-37 -89.5z" />
    <glyph glyph-name="plusminus" unicode="&#xb1;" horiz-adv-x="800" 
d="M675 361h-233v-237h-70v237h-232v71h232v234h70v-234h233v-71zM675 8h-535v71h535v-71z" />
    <glyph glyph-name="twosuperior" unicode="&#xb2;" horiz-adv-x="371" 
d="M318 251h-291v40q0 53 24 91.5t58.5 60t68.5 40.5t58 45t24 60q0 65 -88 65q-63 0 -109 -36l-25 56q59 39 141 39q66 0 110 -29.5t44 -93.5q0 -43 -24.5 -76t-60 -53.5t-70.5 -39.5t-60 -46t-25 -62h232z" />
    <glyph glyph-name="threesuperior" unicode="&#xb3;" horiz-adv-x="377" 
d="M278 385q0 82 -98 82h-83v62h78q34 0 54 19t20 48q0 35 -27.5 50.5t-60.5 15.5q-54 1 -118 -25l-18 54q61 27 136 27q63 0 109 -30.5t46 -92.5q0 -25 -15 -49.5t-37 -39.5q83 -30 83 -118q0 -72 -51.5 -107.5t-122.5 -35.5q-82 0 -153 28l17 55q91 -28 137 -27
q39 0 71.5 19.5t32.5 64.5z" />
    <glyph glyph-name="acute" unicode="&#xb4;" horiz-adv-x="500" 
d="M349 746l-126 -146h-72l93 146h105z" />
    <glyph glyph-name="mu" unicode="&#xb5;" horiz-adv-x="564" 
d="M418 202v325h69v-527h-69v61q-51 -67 -137 -67q-20 0 -38.5 3.5t-29 6.5t-24.5 11.5t-17.5 11t-15.5 13.5l-13 12v-236h-69v711h69v-325q0 -70 36.5 -109t101.5 -39t101 39t36 109z" />
    <glyph glyph-name="paragraph" unicode="&#xb6;" horiz-adv-x="695" 
d="M630 706v-60h-71v-792h-69v792h-111v-792h-69v437q-105 4 -170 63.5t-65 149.5q0 202 243 202h312z" />
    <glyph glyph-name="periodcentered" unicode="&#xb7;" horiz-adv-x="222" 
d="M63 384h96v-96h-96v96z" />
    <glyph glyph-name="cedilla" unicode="&#xb8;" horiz-adv-x="500" 
d="M201 5h60l-13 -69q8 -1 18.5 -4.5t28.5 -12.5t30 -29t12 -48q0 -32 -16 -59.5t-39 -43t-46 -26t-39 -14.5l-16 -4l-18 53q98 36 98 86q0 28 -24.5 41.5t-58.5 12.5z" />
    <glyph glyph-name="onesuperior" unicode="&#xb9;" horiz-adv-x="276" 
d="M145 253v390l-86 -63l-29 49l109 77h72v-453h-66z" />
    <glyph glyph-name="ordmasculine" unicode="&#xba;" horiz-adv-x="405" 
d="M25 546q0 78 49 122t128 44q80 0 129 -44t49 -122t-49.5 -123.5t-128.5 -45.5q-78 0 -127.5 45.5t-49.5 123.5zM89 546q0 -54 32 -88t81 -34q50 0 82 34t32 88t-32 86.5t-82 32.5t-81.5 -32.5t-31.5 -86.5z" />
    <glyph glyph-name="guillemotright" unicode="&#xbb;" horiz-adv-x="605" 
d="M244 265l-201 155v90l269 -211v-68l-269 -211v90zM494 265l-201 155v90l269 -211v-68l-269 -211v50v40z" />
    <glyph glyph-name="onequarter" unicode="&#xbc;" horiz-adv-x="827" 
d="M256 -12l-53 23l297 707l55 -20zM145 253v390l-86 -63l-29 49l109 77h72v-453h-66zM661 145h-191l-18 49l190 259h83v-255h55l-6 -53h-49v-145h-64v145zM661 396l-145 -198h145v198z" />
    <glyph glyph-name="onehalf" unicode="&#xbd;" horiz-adv-x="839" 
d="M256 -12l-53 23l297 707l55 -20zM786 0h-291v40q0 53 24 91.5t58.5 60t68.5 40.5t58 45t24 60q0 65 -88 65q-63 0 -109 -36l-25 56q59 39 141 39q66 0 110 -29.5t44 -93.5q0 -43 -24.5 -76t-60 -53.5t-70.5 -39.5t-60 -46t-25 -62h232zM145 253v390l-86 -63l-29 49
l109 77h72v-453h-66z" />
    <glyph glyph-name="threequarters" unicode="&#xbe;" horiz-adv-x="901" 
d="M330 -12l-53 23l297 707l55 -20zM735 144h-191l-18 49l190 259h83v-255h55l-6 -53h-49v-144h-64v144zM735 395l-145 -198h145v198zM278 385q0 82 -98 82h-83v62h78q34 0 54 19t20 48q0 35 -27.5 50.5t-60.5 15.5q-54 1 -118 -25l-18 54q61 27 136 27q63 0 109 -30.5
t46 -92.5q0 -25 -15 -49.5t-37 -39.5q83 -30 83 -118q0 -72 -51.5 -107.5t-122.5 -35.5q-82 0 -153 28l17 55q91 -28 137 -27q39 0 71.5 19.5t32.5 64.5z" />
    <glyph glyph-name="questiondown" unicode="&#xbf;" horiz-adv-x="522" 
d="M392 370v-152q-22 4 -54 4q-81 0 -139 -46t-58 -129q0 -76 53.5 -125.5t129.5 -49.5q48 0 96.5 18t80.5 51l41 -48q-86 -86 -221 -86q-112 0 -184 65t-72 175q0 107 74 169t182 68v86h71zM403 432h-95v95h95v-95z" />
    <glyph glyph-name="Agrave" unicode="&#xc0;" horiz-adv-x="598" 
d="M528 0l-73 197h-313l-72 -197h-76l264 706h82l264 -706h-76zM299 621l-133 -360h266zM273 776l-126 146h105l93 -146h-72z" />
    <glyph glyph-name="Aacute" unicode="&#xc1;" horiz-adv-x="598" 
d="M528 0l-73 197h-313l-72 -197h-76l264 706h82l264 -706h-76zM299 621l-133 -360h266zM463 922l-126 -146h-72l93 146h105z" />
    <glyph glyph-name="Acircumflex" unicode="&#xc2;" horiz-adv-x="598" 
d="M528 0l-73 197h-313l-72 -197h-76l264 706h82l264 -706h-76zM299 621l-133 -360h266zM307 872l-86 -96h-69l103 146h105l103 -146h-69z" />
    <glyph glyph-name="Atilde" unicode="&#xc3;" horiz-adv-x="598" 
d="M528 0l-73 197h-313l-72 -197h-76l264 706h82l264 -706h-76zM299 621l-133 -360h266zM202 788h-56q0 5 1 13t7.5 28.5t16 36t28.5 28.5t44 13q27 0 70 -25t59 -25q19 0 29 13.5t10 27.5l1 14h56q0 -5 -1.5 -13t-8 -29t-15.5 -37t-27 -29t-41 -13q-30 0 -71 27t-57 27
q-19 0 -30 -14.5t-13 -28.5z" />
    <glyph glyph-name="Adieresis" unicode="&#xc4;" horiz-adv-x="598" 
d="M528 0l-73 197h-313l-72 -197h-76l264 706h82l264 -706h-76zM299 621l-133 -360h266zM164 807v88h88v-88h-41h-47zM362 807v88h88v-88h-88z" />
    <glyph glyph-name="Aring" unicode="&#xc5;" horiz-adv-x="598" 
d="M528 0l-73 197h-313l-72 -197h-76l264 706h82l264 -706h-76zM299 621l-133 -360h266zM181 892q0 53 37 90t89 37t89.5 -37.5t37.5 -89.5t-37 -89t-90 -37q-52 0 -89 37t-37 89zM236 892q0 -30 20.5 -50.5t50.5 -20.5t51 20.5t21 50.5t-21 51t-51 21t-50.5 -21t-20.5 -51z
" />
    <glyph glyph-name="AE" unicode="&#xc6;" horiz-adv-x="909" 
d="M853 0h-287q-76 0 -117 37.5t-41 111.5v48h-257l-81 -197h-76l286 706h595l-14 -65h-379v-257h337l-14 -61h-323v-174q0 -43 20 -63.5t64 -20.5h301zM329 641l-153 -380h232v380h-79z" />
    <glyph glyph-name="Ccedilla" unicode="&#xc7;" horiz-adv-x="600" 
d="M40 353q1 173 103 269t267 96q98 0 177 -41l-34 -60q-65 36 -143 36q-137 0 -212.5 -83t-75.5 -217t75.5 -217t212.5 -83q73 0 152 43l-6 -79q-52 -29 -158 -29l-10 -52q8 -1 18.5 -4.5t28.5 -12.5t30 -29t12 -48q0 -32 -16 -59.5t-39 -43t-46 -26t-39 -14.5l-16 -4
l-18 53q98 36 98 86q0 28 -24.5 41.5t-58.5 12.5l20 105q-137 20 -218 114t-80 246z" />
    <glyph glyph-name="Egrave" unicode="&#xc8;" horiz-adv-x="575" 
d="M519 0h-287q-76 0 -117 37.5t-41 111.5v557h467l-14 -65h-379v-257h337l-14 -61h-323v-174q0 -43 20 -63.5t64 -20.5h301zM282 764l-126 146h105l93 -146h-72z" />
    <glyph glyph-name="Eacute" unicode="&#xc9;" horiz-adv-x="575" 
d="M519 0h-287q-76 0 -117 37.5t-41 111.5v557h467l-14 -65h-379v-257h337l-14 -61h-323v-174q0 -43 20 -63.5t64 -20.5h301zM472 910l-126 -146h-72l93 146h105z" />
    <glyph glyph-name="Ecircumflex" unicode="&#xca;" horiz-adv-x="575" 
d="M519 0h-287q-76 0 -117 37.5t-41 111.5v557h467l-14 -65h-379v-257h337l-14 -61h-323v-174q0 -43 20 -63.5t64 -20.5h301zM303 860l-86 -96h-69l103 146h105l103 -146h-69z" />
    <glyph glyph-name="Edieresis" unicode="&#xcb;" horiz-adv-x="575" 
d="M519 0h-287q-76 0 -117 37.5t-41 111.5v557h467l-14 -65h-379v-257h337l-14 -61h-323v-174q0 -43 20 -63.5t64 -20.5h301zM162 795v88h88v-88h-41h-47zM360 795v88h88v-88h-88z" />
    <glyph glyph-name="Igrave" unicode="&#xcc;" horiz-adv-x="222" 
d="M74 0v706h74v-706h-74zM88 764l-126 146h105l93 -146h-72z" />
    <glyph glyph-name="Iacute" unicode="&#xcd;" horiz-adv-x="222" 
d="M74 0v706h74v-706h-74zM278 910l-126 -146h-72l93 146h105z" />
    <glyph glyph-name="Icircumflex" unicode="&#xce;" horiz-adv-x="222" 
d="M74 0v706h74v-706h-74zM109 860l-86 -96h-69l103 146h105l103 -146h-69z" />
    <glyph glyph-name="Idieresis" unicode="&#xcf;" horiz-adv-x="222" 
d="M74 0v706h74v-706h-74zM-32 795v88h88v-88h-41h-47zM166 795v88h88v-88h-88z" />
    <glyph glyph-name="Eth" unicode="&#xd0;" horiz-adv-x="776" 
d="M430 0h-193q-76 0 -117 37.5t-41 111.5v184h-84v61h84v312h351q98 0 170.5 -51.5t107 -130.5t34.5 -171t-34.5 -171t-107 -130.5t-170.5 -51.5zM237 65h178q62 0 110.5 24.5t77 66.5t43 92t14.5 105t-14.5 105t-43 92t-77 66.5t-110.5 24.5h-262v-247h166v-61h-166v-184
q0 -43 20.5 -63.5t63.5 -20.5z" />
    <glyph glyph-name="Ntilde" unicode="&#xd1;" horiz-adv-x="708" 
d="M634 0h-96l-390 618v-618h-74v706h97l389 -616v616h74v-706zM254 776h-56q0 5 1 13t7.5 28.5t16 36t28.5 28.5t44 13q27 0 70 -25t59 -25q19 0 29 13.5t10 27.5l1 14h56q0 -5 -1.5 -13t-8 -29t-15.5 -37t-27 -29t-41 -13q-30 0 -71 27t-57 27q-19 0 -30 -14.5t-13 -28.5z
" />
    <glyph glyph-name="Ograve" unicode="&#xd2;" horiz-adv-x="819" 
d="M40 353q1 173 103 269t267 96q166 0 268 -96.5t102 -268.5t-102 -268.5t-268 -96.5t-268.5 96.5t-101.5 268.5zM122 353q0 -134 75.5 -217t212.5 -83t212.5 83t75.5 217t-75.5 217t-212.5 83t-212.5 -83t-75.5 -217zM389 776l-126 146h105l93 -146h-72z" />
    <glyph glyph-name="Oacute" unicode="&#xd3;" horiz-adv-x="819" 
d="M40 353q1 173 103 269t267 96q166 0 268 -96.5t102 -268.5t-102 -268.5t-268 -96.5t-268.5 96.5t-101.5 268.5zM122 353q0 -134 75.5 -217t212.5 -83t212.5 83t75.5 217t-75.5 217t-212.5 83t-212.5 -83t-75.5 -217zM579 922l-126 -146h-72l93 146h105z" />
    <glyph glyph-name="Ocircumflex" unicode="&#xd4;" horiz-adv-x="819" 
d="M40 353q1 173 103 269t267 96q166 0 268 -96.5t102 -268.5t-102 -268.5t-268 -96.5t-268.5 96.5t-101.5 268.5zM122 353q0 -134 75.5 -217t212.5 -83t212.5 83t75.5 217t-75.5 217t-212.5 83t-212.5 -83t-75.5 -217zM410 872l-86 -96h-69l103 146h105l103 -146h-69z" />
    <glyph glyph-name="Otilde" unicode="&#xd5;" horiz-adv-x="819" 
d="M40 353q1 173 103 269t267 96q166 0 268 -96.5t102 -268.5t-102 -268.5t-268 -96.5t-268.5 96.5t-101.5 268.5zM122 353q0 -134 75.5 -217t212.5 -83t212.5 83t75.5 217t-75.5 217t-212.5 83t-212.5 -83t-75.5 -217zM307 788h-56q0 5 1 13t7.5 28.5t16 36t28.5 28.5
t44 13q27 0 70 -25t59 -25q19 0 29 13.5t10 27.5l1 14h56q0 -5 -1.5 -13t-8 -29t-15.5 -37t-27 -29t-41 -13q-30 0 -71 27t-57 27q-19 0 -30 -14.5t-13 -28.5z" />
    <glyph glyph-name="Odieresis" unicode="&#xd6;" horiz-adv-x="819" 
d="M40 353q1 173 103 269t267 96q166 0 268 -96.5t102 -268.5t-102 -268.5t-268 -96.5t-268.5 96.5t-101.5 268.5zM122 353q0 -134 75.5 -217t212.5 -83t212.5 83t75.5 217t-75.5 217t-212.5 83t-212.5 -83t-75.5 -217zM269 807v88h88v-88h-41h-47zM467 807v88h88v-88h-88z
" />
    <glyph glyph-name="multiply" unicode="&#xd7;" horiz-adv-x="800" 
d="M665 573l-217 -218l212 -217l-50 -51l-212 218l-213 -218l-50 51l213 217l-213 214l51 50l212 -214l216 218z" />
    <glyph glyph-name="Oslash" unicode="&#xd8;" horiz-adv-x="819" 
d="M39 31l79 78q-79 97 -78 244q1 173 103 269t267 96q148 0 245 -77l77 77l49 -43l-80 -79q79 -95 79 -243q0 -172 -102 -268.5t-268 -96.5q-149 0 -246 76l-76 -76zM698 353q0 111 -53 188l-427 -424q73 -64 192 -64q137 0 212.5 83t75.5 217zM122 353q0 -110 52 -188
l428 424q-77 64 -192 64q-137 0 -212.5 -83t-75.5 -217z" />
    <glyph glyph-name="Ugrave" unicode="&#xd9;" horiz-adv-x="686" 
d="M69 218v488h74v-483q0 -87 57.5 -128.5t142.5 -41.5q52 0 95.5 15.5t74 55.5t30.5 99v483h74v-488q0 -112 -80 -171t-194 -59q-54 0 -100 11.5t-86.5 37t-64 72t-23.5 109.5zM320 764l-126 146h105l93 -146h-72z" />
    <glyph glyph-name="Uacute" unicode="&#xda;" horiz-adv-x="686" 
d="M69 218v488h74v-483q0 -87 57.5 -128.5t142.5 -41.5q52 0 95.5 15.5t74 55.5t30.5 99v483h74v-488q0 -112 -80 -171t-194 -59q-54 0 -100 11.5t-86.5 37t-64 72t-23.5 109.5zM510 910l-126 -146h-72l93 146h105z" />
    <glyph glyph-name="Ucircumflex" unicode="&#xdb;" horiz-adv-x="686" 
d="M69 218v488h74v-483q0 -87 57.5 -128.5t142.5 -41.5q52 0 95.5 15.5t74 55.5t30.5 99v483h74v-488q0 -112 -80 -171t-194 -59q-54 0 -100 11.5t-86.5 37t-64 72t-23.5 109.5zM341 860l-86 -96h-69l103 146h105l103 -146h-69z" />
    <glyph glyph-name="Udieresis" unicode="&#xdc;" horiz-adv-x="686" 
d="M69 218v488h74v-483q0 -87 57.5 -128.5t142.5 -41.5q52 0 95.5 15.5t74 55.5t30.5 99v483h74v-488q0 -112 -80 -171t-194 -59q-54 0 -100 11.5t-86.5 37t-64 72t-23.5 109.5zM200 795v88h88v-88h-41h-47zM398 795v88h88v-88h-88z" />
    <glyph glyph-name="Yacute" unicode="&#xdd;" horiz-adv-x="551" 
d="M49 455v251h74v-242q0 -135 152 -135q150 0 150 135v242h74v-251q0 -83 -50 -131.5t-137 -56.5v-267h-74v267q-90 8 -139.5 55t-49.5 133zM442 910l-126 -146h-72l93 146h105z" />
    <glyph glyph-name="Thorn" unicode="&#xde;" horiz-adv-x="632" 
d="M148 706v-135h261q103 0 156 -59.5t53 -147.5q0 -95 -54.5 -151.5t-164.5 -55.5h-172q-21 0 -37.5 7t-24 14t-17.5 20v-198h-74v706h74zM400 507h-252v-209q0 -33 21.5 -55t62.5 -22h159q69 0 107.5 38t38.5 104q0 144 -137 144z" />
    <glyph glyph-name="germandbls" unicode="&#xdf;" horiz-adv-x="591" 
d="M68 0v518q0 47 14 82.5t35.5 56t51 33.5t56 17t55.5 4q36 0 68 -7t63.5 -24t50 -50.5t18.5 -80.5q0 -38 -20 -72t-54 -45q71 -16 111 -73.5t40 -137.5q0 -107 -59.5 -167.5t-166.5 -60.5q-83 0 -133 31v76q55 -46 133 -46q74 0 114 44t40 123q0 77 -47.5 123.5
t-126.5 46.5h-105v61h91q44 0 78 24.5t34 72.5q0 101 -128 101q-80 0 -113.5 -34.5t-33.5 -97.5v-518h-66z" />
    <glyph glyph-name="agrave" unicode="&#xe0;" horiz-adv-x="627" 
d="M579 263v-263h-69v102q-34 -51 -90.5 -80t-126.5 -29q-112 0 -187.5 74.5t-75.5 195.5q0 117 78.5 194t194.5 77q124 0 200 -74.5t76 -196.5zM508 263q0 93 -56.5 151.5t-148.5 58.5q-90 0 -146 -61.5t-56 -148.5q0 -91 55 -150t147 -59t148.5 58t56.5 151zM287 600
l-126 146h105l93 -146h-72z" />
    <glyph glyph-name="aacute" unicode="&#xe1;" horiz-adv-x="627" 
d="M579 263v-263h-69v102q-34 -51 -90.5 -80t-126.5 -29q-112 0 -187.5 74.5t-75.5 195.5q0 117 78.5 194t194.5 77q124 0 200 -74.5t76 -196.5zM508 263q0 93 -56.5 151.5t-148.5 58.5q-90 0 -146 -61.5t-56 -148.5q0 -91 55 -150t147 -59t148.5 58t56.5 151zM477 746
l-126 -146h-72l93 146h105z" />
    <glyph glyph-name="acircumflex" unicode="&#xe2;" horiz-adv-x="627" 
d="M579 263v-263h-69v102q-34 -51 -90.5 -80t-126.5 -29q-112 0 -187.5 74.5t-75.5 195.5q0 117 78.5 194t194.5 77q124 0 200 -74.5t76 -196.5zM508 263q0 93 -56.5 151.5t-148.5 58.5q-90 0 -146 -61.5t-56 -148.5q0 -91 55 -150t147 -59t148.5 58t56.5 151zM308 696
l-86 -96h-69l103 146h105l103 -146h-69z" />
    <glyph glyph-name="atilde" unicode="&#xe3;" horiz-adv-x="627" 
d="M579 263v-263h-69v102q-34 -51 -90.5 -80t-126.5 -29q-112 0 -187.5 74.5t-75.5 195.5q0 117 78.5 194t194.5 77q124 0 200 -74.5t76 -196.5zM508 263q0 93 -56.5 151.5t-148.5 58.5q-90 0 -146 -61.5t-56 -148.5q0 -91 55 -150t147 -59t148.5 58t56.5 151zM205 612h-56
q0 5 1 13t7.5 28.5t16 36t28.5 28.5t44 13q27 0 70 -25t59 -25q19 0 29 13.5t10 27.5l1 14h56q0 -5 -1.5 -13t-8 -29t-15.5 -37t-27 -29t-41 -13q-30 0 -71 27t-57 27q-19 0 -30 -14.5t-13 -28.5z" />
    <glyph glyph-name="adieresis" unicode="&#xe4;" horiz-adv-x="627" 
d="M579 263v-263h-69v102q-34 -51 -90.5 -80t-126.5 -29q-112 0 -187.5 74.5t-75.5 195.5q0 117 78.5 194t194.5 77q124 0 200 -74.5t76 -196.5zM508 263q0 93 -56.5 151.5t-148.5 58.5q-90 0 -146 -61.5t-56 -148.5q0 -91 55 -150t147 -59t148.5 58t56.5 151zM167 631v88
h88v-88h-41h-47zM365 631v88h88v-88h-88z" />
    <glyph glyph-name="aring" unicode="&#xe5;" horiz-adv-x="627" 
d="M579 263v-263h-69v102q-34 -51 -90.5 -80t-126.5 -29q-112 0 -187.5 74.5t-75.5 195.5q0 117 78.5 194t194.5 77q124 0 200 -74.5t76 -196.5zM508 263q0 93 -56.5 151.5t-148.5 58.5q-90 0 -146 -61.5t-56 -148.5q0 -91 55 -150t147 -59t148.5 58t56.5 151zM184 716
q0 53 37 90t89 37t89.5 -37.5t37.5 -89.5t-37 -89t-90 -37q-52 0 -89 37t-37 89zM239 716q0 -30 20.5 -50.5t50.5 -20.5t51 20.5t21 50.5t-21 51t-51 21t-50.5 -21t-20.5 -51z" />
    <glyph glyph-name="ae" unicode="&#xe6;" horiz-adv-x="1048" 
d="M893 84l-5 -70q-46 -21 -111 -21q-124 0 -198 80v-73h-69v102q-34 -51 -90.5 -80t-126.5 -29q-112 0 -187.5 74.5t-75.5 195.5q0 117 78.5 194t194.5 77q82 0 144.5 -34t96.5 -95q34 60 94.5 94.5t134.5 34.5q117 0 183.5 -77.5t66.5 -202.5h-444q3 -101 59.5 -150.5
t143.5 -49.5q63 0 111 30zM508 263q0 93 -56.5 151.5t-148.5 58.5q-90 0 -146 -61.5t-56 -148.5q0 -91 55 -150t147 -59t148.5 58t56.5 151zM773 473q-73 0 -123.5 -42.5t-66.5 -115.5h366q-10 76 -56 117t-120 41z" />
    <glyph glyph-name="ccedilla" unicode="&#xe7;" horiz-adv-x="442" 
d="M30 262q0 120 73 196t193 76q78 0 142 -36l-31 -58q-52 32 -110 32q-85 0 -140.5 -57t-55.5 -153q0 -92 50.5 -151.5t149.5 -57.5q61 1 108 32l-4 -69q-51 -24 -123 -24l-9 -48q8 -1 18.5 -4.5t28.5 -12.5t30 -29t12 -48q0 -32 -16 -59.5t-39 -43t-46 -26t-39 -14.5
l-16 -4l-18 53q98 36 98 86q0 28 -24.5 41.5t-58.5 12.5q5 25 20 103q-90 20 -141.5 89.5t-51.5 173.5z" />
    <glyph glyph-name="egrave" unicode="&#xe8;" horiz-adv-x="570" 
d="M415 84l-5 -70q-45 -21 -111 -21q-120 0 -194.5 76t-74.5 196q0 117 76 193t189 76q117 0 183.5 -77.5t66.5 -202.5h-445q3 -98 59.5 -149t144.5 -51q63 0 111 30zM295 473q-73 0 -123.5 -42.5t-66.5 -115.5h366q-10 76 -56 117t-120 41zM270 600l-126 146h105l93 -146
h-72z" />
    <glyph glyph-name="eacute" unicode="&#xe9;" horiz-adv-x="570" 
d="M415 84l-5 -70q-45 -21 -111 -21q-120 0 -194.5 76t-74.5 196q0 117 76 193t189 76q117 0 183.5 -77.5t66.5 -202.5h-445q3 -98 59.5 -149t144.5 -51q63 0 111 30zM295 473q-73 0 -123.5 -42.5t-66.5 -115.5h366q-10 76 -56 117t-120 41zM460 746l-126 -146h-72l93 146
h105z" />
    <glyph glyph-name="ecircumflex" unicode="&#xea;" horiz-adv-x="570" 
d="M415 84l-5 -70q-45 -21 -111 -21q-120 0 -194.5 76t-74.5 196q0 117 76 193t189 76q117 0 183.5 -77.5t66.5 -202.5h-445q3 -98 59.5 -149t144.5 -51q63 0 111 30zM295 473q-73 0 -123.5 -42.5t-66.5 -115.5h366q-10 76 -56 117t-120 41zM291 696l-86 -96h-69l103 146
h105l103 -146h-69z" />
    <glyph glyph-name="edieresis" unicode="&#xeb;" horiz-adv-x="570" 
d="M415 84l-5 -70q-45 -21 -111 -21q-120 0 -194.5 76t-74.5 196q0 117 76 193t189 76q117 0 183.5 -77.5t66.5 -202.5h-445q3 -98 59.5 -149t144.5 -51q63 0 111 30zM295 473q-73 0 -123.5 -42.5t-66.5 -115.5h366q-10 76 -56 117t-120 41zM150 631v88h88v-88h-41h-47z
M348 631v88h88v-88h-88z" />
    <glyph glyph-name="igrave" unicode="&#xec;" horiz-adv-x="189" 
d="M60 527h69v-527h-69v527zM71 593l-126 146h105l93 -146h-72z" />
    <glyph glyph-name="iacute" unicode="&#xed;" horiz-adv-x="189" 
d="M60 527h69v-527h-69v527zM261 739l-126 -146h-72l93 146h105z" />
    <glyph glyph-name="icircumflex" unicode="&#xee;" horiz-adv-x="189" 
d="M60 527h69v-527h-69v527zM92 689l-86 -96h-69l103 146h105l103 -146h-69z" />
    <glyph glyph-name="idieresis" unicode="&#xef;" horiz-adv-x="189" 
d="M60 527h69v-527h-69v527zM-26 624v88h88v-88h-41h-47zM127 624v88h88v-88h-88z" />
    <glyph glyph-name="eth" unicode="&#xf0;" horiz-adv-x="601" 
d="M206 550l66 61q-53 25 -105 36l28 58q69 -19 127 -47l65 61l35 -40l-52 -48q204 -130 204 -387q0 -114 -78 -183t-195 -69q-122 0 -198 68.5t-76 181.5t76 182t198 69q97 0 171 -63q-38 87 -151 155l-80 -74zM98 242q0 -85 57.5 -137t145.5 -52t145 52t57 137t-57 137.5
t-145 52.5t-145.5 -52.5t-57.5 -137.5z" />
    <glyph glyph-name="ntilde" unicode="&#xf1;" 
d="M420 0v325q0 71 -39 109t-109 38t-109 -38t-39 -109v-325h-69v324q0 100 57.5 154.5t159.5 54.5t159.5 -54.5t57.5 -154.5v-324h-69zM166 612h-56q0 5 1 13t7.5 28.5t16 36t28.5 28.5t44 13q27 0 70 -25t59 -25q19 0 29 13.5t11 27.5v14h56q0 -5 -1.5 -13t-8 -29
t-15.5 -37t-27 -29t-41 -13q-30 0 -71 27t-57 27q-19 0 -30 -14.5t-13 -28.5z" />
    <glyph glyph-name="ograve" unicode="&#xf2;" horiz-adv-x="608" 
d="M30 263q0 121 80 196.5t194 74.5q121 -1 196.5 -74.5t76.5 -196.5t-75 -196.5t-198 -73.5q-121 0 -197.5 73.5t-76.5 196.5zM101 263q0 -96 57 -152.5t146 -56.5t146 56.5t56 152.5q-1 95 -57.5 152t-144.5 58q-84 1 -143.5 -57t-59.5 -153zM281 600l-126 146h105
l93 -146h-72z" />
    <glyph glyph-name="oacute" unicode="&#xf3;" horiz-adv-x="608" 
d="M30 263q0 121 80 196.5t194 74.5q121 -1 196.5 -74.5t76.5 -196.5t-75 -196.5t-198 -73.5q-121 0 -197.5 73.5t-76.5 196.5zM101 263q0 -96 57 -152.5t146 -56.5t146 56.5t56 152.5q-1 95 -57.5 152t-144.5 58q-84 1 -143.5 -57t-59.5 -153zM471 746l-126 -146h-72
l93 146h105z" />
    <glyph glyph-name="ocircumflex" unicode="&#xf4;" horiz-adv-x="608" 
d="M30 263q0 121 80 196.5t194 74.5q121 -1 196.5 -74.5t76.5 -196.5t-75 -196.5t-198 -73.5q-121 0 -197.5 73.5t-76.5 196.5zM101 263q0 -96 57 -152.5t146 -56.5t146 56.5t56 152.5q-1 95 -57.5 152t-144.5 58q-84 1 -143.5 -57t-59.5 -153zM302 696l-86 -96h-69l103 146
h105l103 -146h-69z" />
    <glyph glyph-name="otilde" unicode="&#xf5;" horiz-adv-x="608" 
d="M30 263q0 121 80 196.5t194 74.5q121 -1 196.5 -74.5t76.5 -196.5t-75 -196.5t-198 -73.5q-121 0 -197.5 73.5t-76.5 196.5zM101 263q0 -96 57 -152.5t146 -56.5t146 56.5t56 152.5q-1 95 -57.5 152t-144.5 58q-84 1 -143.5 -57t-59.5 -153zM199 612h-56q0 5 1 13
t7.5 28.5t16 36t28.5 28.5t44 13q27 0 70 -25t59 -25q19 0 29 13.5t10 27.5l1 14h56q0 -5 -1.5 -13t-8 -29t-15.5 -37t-27 -29t-41 -13q-30 0 -71 27t-57 27q-19 0 -30 -14.5t-13 -28.5z" />
    <glyph glyph-name="odieresis" unicode="&#xf6;" horiz-adv-x="608" 
d="M30 263q0 121 80 196.5t194 74.5q121 -1 196.5 -74.5t76.5 -196.5t-75 -196.5t-198 -73.5q-121 0 -197.5 73.5t-76.5 196.5zM101 263q0 -96 57 -152.5t146 -56.5t146 56.5t56 152.5q-1 95 -57.5 152t-144.5 58q-84 1 -143.5 -57t-59.5 -153zM161 631v88h88v-88h-41h-47z
M359 631v88h88v-88h-88z" />
    <glyph glyph-name="divide" unicode="&#xf7;" horiz-adv-x="800" 
d="M668 319h-536v70h536v-70zM357 221h87v-86h-87v86zM357 573h87v-86h-87v39v47z" />
    <glyph glyph-name="oslash" unicode="&#xf8;" horiz-adv-x="612" 
d="M32 263q0 121 80 196.5t194 74.5q109 -2 181 -61l57 56l37 -38l-57 -56q54 -71 55 -172q1 -123 -75 -196.5t-198 -73.5q-108 0 -180 58l-59 -58l-37 39l58 56q-56 70 -56 175zM103 263q0 -73 35 -126l300 289q-53 45 -132 47q-84 1 -143.5 -57t-59.5 -153zM508 263
q-2 74 -35 124l-299 -290q54 -43 132 -43q89 0 146 56.5t56 152.5z" />
    <glyph glyph-name="ugrave" unicode="&#xf9;" 
d="M420 201v326h69v-325q0 -100 -57.5 -154.5t-159.5 -54.5t-159.5 54.5t-57.5 154.5v325h69v-326q0 -71 39 -109t109 -38t109 38t39 109zM256 593l-126 146h105l93 -146h-72z" />
    <glyph glyph-name="uacute" unicode="&#xfa;" 
d="M420 201v326h69v-325q0 -100 -57.5 -154.5t-159.5 -54.5t-159.5 54.5t-57.5 154.5v325h69v-326q0 -71 39 -109t109 -38t109 38t39 109zM446 739l-126 -146h-72l93 146h105z" />
    <glyph glyph-name="ucircumflex" unicode="&#xfb;" 
d="M420 201v326h69v-325q0 -100 -57.5 -154.5t-159.5 -54.5t-159.5 54.5t-57.5 154.5v325h69v-326q0 -71 39 -109t109 -38t109 38t39 109zM277 689l-86 -96h-69l103 146h105l103 -146h-69z" />
    <glyph glyph-name="udieresis" unicode="&#xfc;" 
d="M420 201v326h69v-325q0 -100 -57.5 -154.5t-159.5 -54.5t-159.5 54.5t-57.5 154.5v325h69v-326q0 -71 39 -109t109 -38t109 38t39 109zM136 624v88h88v-88h-41h-47zM334 624v88h88v-88h-88z" />
    <glyph glyph-name="yacute" unicode="&#xfd;" horiz-adv-x="547" 
d="M391 -184h-87q5 4 12.5 12t27.5 33.5t35.5 53t29 70t14.5 85.5q-54 -77 -160 -77q-94 0 -151 52t-57 159v323h69v-318q0 -73 35 -114.5t104 -41.5q82 0 119.5 45.5t37.5 107.5v321h69v-461q0 -65 -24.5 -127.5t-48.5 -92.5zM437 739l-126 -146h-72l93 146h105z" />
    <glyph glyph-name="thorn" unicode="&#xfe;" horiz-adv-x="639" 
d="M60 -180v886h69v-274q78 102 207 102q116 0 194.5 -77t78.5 -194q0 -121 -75.5 -195.5t-187.5 -74.5q-71 0 -127 28.5t-90 78.5v-280h-69zM131 263q0 -93 56.5 -151t148.5 -58t147 59t55 150q0 87 -56 148.5t-146 61.5q-92 0 -148.5 -58.5t-56.5 -151.5z" />
    <glyph glyph-name="ydieresis" unicode="&#xff;" horiz-adv-x="547" 
d="M391 -184h-87q5 4 12.5 12t27.5 33.5t35.5 53t29 70t14.5 85.5q-54 -77 -160 -77q-94 0 -151 52t-57 159v323h69v-318q0 -73 35 -114.5t104 -41.5q82 0 119.5 45.5t37.5 107.5v321h69v-461q0 -65 -24.5 -127.5t-48.5 -92.5zM127 624v88h88v-88h-41h-47zM325 624v88h88
v-88h-88z" />
    <glyph glyph-name="Amacron" unicode="&#x100;" horiz-adv-x="598" 
d="M528 0l-73 197h-313l-72 -197h-76l264 706h82l264 -706h-76zM299 621l-133 -360h266zM168 817v64h280v-64h-280z" />
    <glyph glyph-name="amacron" unicode="&#x101;" horiz-adv-x="627" 
d="M579 263v-263h-69v102q-34 -51 -90.5 -80t-126.5 -29q-112 0 -187.5 74.5t-75.5 195.5q0 117 78.5 194t194.5 77q124 0 200 -74.5t76 -196.5zM508 263q0 93 -56.5 151.5t-148.5 58.5q-90 0 -146 -61.5t-56 -148.5q0 -91 55 -150t147 -59t148.5 58t56.5 151zM165 641v64
h280v-64h-280z" />
    <glyph glyph-name="Abreve" unicode="&#x102;" horiz-adv-x="598" 
d="M528 0l-73 197h-313l-72 -197h-76l264 706h82l264 -706h-76zM299 621l-133 -360h266zM307 846q33 0 53 20t24 56h69q-8 -72 -48.5 -104t-97.5 -32t-97.5 32t-48.5 104h69q4 -36 24 -56t53 -20z" />
    <glyph glyph-name="abreve" unicode="&#x103;" horiz-adv-x="627" 
d="M579 263v-263h-69v102q-34 -51 -90.5 -80t-126.5 -29q-112 0 -187.5 74.5t-75.5 195.5q0 117 78.5 194t194.5 77q124 0 200 -74.5t76 -196.5zM508 263q0 93 -56.5 151.5t-148.5 58.5q-90 0 -146 -61.5t-56 -148.5q0 -91 55 -150t147 -59t148.5 58t56.5 151zM310 670
q33 0 53 20t24 56h69q-8 -72 -48.5 -104t-97.5 -32t-97.5 32t-48.5 104h69q4 -36 24 -56t53 -20z" />
    <glyph glyph-name="Aogonek" unicode="&#x104;" horiz-adv-x="598" 
d="M530 0h-2l-73 197h-313l-73 -197h-75l264 706h82l264 -706q-48 -24 -73 -56t-25 -61q0 -30 18 -45.5t43 -15.5q34 0 70 13l-7 -63q-40 -10 -82 -10q-41 0 -76.5 26t-35.5 83q0 40 28.5 74t65.5 55zM166 261h266l-133 361z" />
    <glyph glyph-name="aogonek" unicode="&#x105;" horiz-adv-x="627" 
d="M511 0h-1v102q-34 -51 -90.5 -80t-126.5 -29q-112 0 -187.5 74.5t-75.5 195.5q0 117 78.5 194t194.5 77q124 0 200 -74.5t76 -196.5v-263q-48 -24 -73 -56t-25 -61q0 -30 18 -45.5t43 -15.5q34 0 70 13l-7 -63q-40 -10 -82 -10q-41 0 -76.5 26t-35.5 83q0 71 100 129z
M508 263q0 93 -56.5 151.5t-148.5 58.5q-90 0 -146 -61.5t-56 -148.5q0 -91 55 -150t147 -59t148.5 58t56.5 151z" />
    <glyph glyph-name="Cacute" unicode="&#x106;" horiz-adv-x="600" 
d="M40 353q1 173 103 269t267 96q98 0 177 -41l-34 -60q-65 36 -143 36q-137 0 -212.5 -83t-75.5 -217t75.5 -217t212.5 -83q73 0 152 43l-6 -79q-52 -29 -146 -29q-166 0 -268.5 96.5t-101.5 268.5zM568 922l-126 -146h-72l93 146h105z" />
    <glyph glyph-name="cacute" unicode="&#x107;" horiz-adv-x="442" 
d="M409 85l-4 -69q-51 -24 -116 -24q-118 0 -188.5 73.5t-70.5 196.5q0 120 73 196t193 76q78 0 142 -36l-31 -58q-52 32 -110 32q-85 0 -140.5 -57t-55.5 -153q0 -92 50.5 -151.5t149.5 -57.5q61 1 108 32zM443 746l-126 -146h-72l93 146h105z" />
    <glyph glyph-name="Ccircumflex" unicode="&#x108;" horiz-adv-x="600" 
d="M40 353q1 173 103 269t267 96q98 0 177 -41l-34 -60q-65 36 -143 36q-137 0 -212.5 -83t-75.5 -217t75.5 -217t212.5 -83q73 0 152 43l-6 -79q-52 -29 -146 -29q-166 0 -268.5 96.5t-101.5 268.5zM399 872l-86 -96h-69l103 146h105l103 -146h-69z" />
    <glyph glyph-name="ccircumflex" unicode="&#x109;" horiz-adv-x="442" 
d="M409 85l-4 -69q-51 -24 -116 -24q-118 0 -188.5 73.5t-70.5 196.5q0 120 73 196t193 76q78 0 142 -36l-31 -58q-52 32 -110 32q-85 0 -140.5 -57t-55.5 -153q0 -92 50.5 -151.5t149.5 -57.5q61 1 108 32zM274 696l-86 -96h-69l103 146h105l103 -146h-69z" />
    <glyph glyph-name="Cdotaccent" unicode="&#x10a;" horiz-adv-x="600" 
d="M40 353q1 173 103 269t267 96q98 0 177 -41l-34 -60q-65 36 -143 36q-137 0 -212.5 -83t-75.5 -217t75.5 -217t212.5 -83q73 0 152 43l-6 -79q-52 -29 -146 -29q-166 0 -268.5 96.5t-101.5 268.5zM358 807v88h88v-88h-88z" />
    <glyph glyph-name="cdotaccent" unicode="&#x10b;" horiz-adv-x="442" 
d="M409 85l-4 -69q-51 -24 -116 -24q-118 0 -188.5 73.5t-70.5 196.5q0 120 73 196t193 76q78 0 142 -36l-31 -58q-52 32 -110 32q-85 0 -140.5 -57t-55.5 -153q0 -92 50.5 -151.5t149.5 -57.5q61 1 108 32zM233 631v88h88v-88h-88z" />
    <glyph glyph-name="Ccaron" unicode="&#x10c;" horiz-adv-x="600" 
d="M40 353q1 173 103 269t267 96q98 0 177 -41l-34 -60q-65 36 -143 36q-137 0 -212.5 -83t-75.5 -217t75.5 -217t212.5 -83q73 0 152 43l-6 -79q-52 -29 -146 -29q-166 0 -268.5 96.5t-101.5 268.5zM314 922l86 -96l87 96h69l-103 -146h-105l-103 146h69z" />
    <glyph glyph-name="ccaron" unicode="&#x10d;" horiz-adv-x="442" 
d="M409 85l-4 -69q-51 -24 -116 -24q-118 0 -188.5 73.5t-70.5 196.5q0 120 73 196t193 76q78 0 142 -36l-31 -58q-52 32 -110 32q-85 0 -140.5 -57t-55.5 -153q0 -92 50.5 -151.5t149.5 -57.5q61 1 108 32zM189 746l86 -96l87 96h69l-103 -146h-105l-103 146h69z" />
    <glyph glyph-name="Dcaron" unicode="&#x10e;" horiz-adv-x="771" 
d="M425 0h-193q-76 0 -117 37.5t-41 111.5v557h351q98 0 170.5 -51.5t107 -130.5t34.5 -171t-34.5 -171t-107 -130.5t-170.5 -51.5zM232 65h178q62 0 110.5 24.5t77 66.5t43 92t14.5 105t-14.5 105t-43 92t-77 66.5t-110.5 24.5h-262v-492q0 -43 20 -63.5t64 -20.5zM282 910
l86 -96l87 96h69l-103 -146h-105l-103 146h69z" />
    <glyph glyph-name="dcaron" unicode="&#x10f;" horiz-adv-x="624" 
d="M579 706v-438q0 -123 -76.5 -199t-199.5 -76q-116 0 -194.5 76t-78.5 195q0 121 75.5 195.5t187.5 74.5q70 0 126.5 -29t90.5 -80v281h69zM508 264q0 93 -56.5 151t-148.5 58t-147 -59t-55 -150q0 -88 56 -149t146 -61q92 0 148.5 58.5t56.5 151.5zM674 530l-44 41
q23 16 29 31t6 44v60h68v-60q0 -41 -11.5 -66t-47.5 -50z" />
    <glyph glyph-name="Dcroat" unicode="&#x110;" horiz-adv-x="776" 
d="M430 0h-193q-76 0 -117 37.5t-41 111.5v184h-84v61h84v312h351q98 0 170.5 -51.5t107 -130.5t34.5 -171t-34.5 -171t-107 -130.5t-170.5 -51.5zM237 65h178q62 0 110.5 24.5t77 66.5t43 92t14.5 105t-14.5 105t-43 92t-77 66.5t-110.5 24.5h-262v-247h166v-61h-166v-184
q0 -43 20.5 -63.5t63.5 -20.5z" />
    <glyph glyph-name="dcroat" unicode="&#x111;" horiz-adv-x="627" 
d="M373 583v59h137v64h69v-64h74v-59h-74v-315q0 -123 -76.5 -199t-199.5 -76q-116 0 -194.5 76t-78.5 195q0 121 75.5 195.5t187.5 74.5q70 0 126.5 -29t90.5 -80v158h-137zM508 264q0 93 -56.5 151t-148.5 58t-147 -59t-55 -150q0 -88 56 -149t146 -61q92 0 148.5 58.5
t56.5 151.5z" />
    <glyph glyph-name="Emacron" unicode="&#x112;" horiz-adv-x="575" 
d="M519 0h-287q-76 0 -117 37.5t-41 111.5v557h467l-14 -65h-379v-257h337l-14 -61h-323v-174q0 -43 20 -63.5t64 -20.5h301zM160 805v64h280v-64h-280z" />
    <glyph glyph-name="emacron" unicode="&#x113;" horiz-adv-x="570" 
d="M415 84l-5 -70q-45 -21 -111 -21q-120 0 -194.5 76t-74.5 196q0 117 76 193t189 76q117 0 183.5 -77.5t66.5 -202.5h-445q3 -98 59.5 -149t144.5 -51q63 0 111 30zM295 473q-73 0 -123.5 -42.5t-66.5 -115.5h366q-10 76 -56 117t-120 41zM148 641v64h280v-64h-280z" />
    <glyph glyph-name="Ebreve" unicode="&#x114;" horiz-adv-x="575" 
d="M519 0h-287q-76 0 -117 37.5t-41 111.5v557h467l-14 -65h-379v-257h337l-14 -61h-323v-174q0 -43 20 -63.5t64 -20.5h301zM305 834q33 0 53 20t24 56h69q-8 -72 -48.5 -104t-97.5 -32t-97.5 32t-48.5 104h69q4 -36 24 -56t53 -20z" />
    <glyph glyph-name="ebreve" unicode="&#x115;" horiz-adv-x="570" 
d="M415 84l-5 -70q-45 -21 -111 -21q-120 0 -194.5 76t-74.5 196q0 117 76 193t189 76q117 0 183.5 -77.5t66.5 -202.5h-445q3 -98 59.5 -149t144.5 -51q63 0 111 30zM295 473q-73 0 -123.5 -42.5t-66.5 -115.5h366q-10 76 -56 117t-120 41zM293 670q33 0 53 20t24 56h69
q-8 -72 -48.5 -104t-97.5 -32t-97.5 32t-48.5 104h69q4 -36 24 -56t53 -20z" />
    <glyph glyph-name="Edotaccent" unicode="&#x116;" horiz-adv-x="575" 
d="M519 0h-287q-76 0 -117 37.5t-41 111.5v557h467l-14 -65h-379v-257h337l-14 -61h-323v-174q0 -43 20 -63.5t64 -20.5h301zM262 795v88h88v-88h-88z" />
    <glyph glyph-name="edotaccent" unicode="&#x117;" horiz-adv-x="570" 
d="M415 84l-5 -70q-45 -21 -111 -21q-120 0 -194.5 76t-74.5 196q0 117 76 193t189 76q117 0 183.5 -77.5t66.5 -202.5h-445q3 -98 59.5 -149t144.5 -51q63 0 111 30zM295 473q-73 0 -123.5 -42.5t-66.5 -115.5h366q-10 76 -56 117t-120 41zM250 631v88h88v-88h-88z" />
    <glyph glyph-name="Eogonek" unicode="&#x118;" horiz-adv-x="575" 
d="M437 0h-205q-76 0 -117 37.5t-41 111.5v557h467l-14 -65h-379v-257h337l-14 -61h-323v-174q0 -43 20 -63.5t64 -20.5h301l-14 -65q-53 -20 -81 -53t-28 -64q0 -30 18 -45.5t43 -15.5q34 0 70 13l-7 -63q-40 -10 -82 -10q-41 0 -76.5 26t-35.5 83q0 74 97 129z" />
    <glyph glyph-name="eogonek" unicode="&#x119;" horiz-adv-x="570" 
d="M415 84l-5 -70q-32 -11 -65 -46.5t-33 -70.5q0 -30 18 -45.5t43 -15.5q34 0 70 13l-7 -63q-40 -10 -82 -10q-41 0 -76.5 26t-35.5 83q0 61 58 108h-1q-120 0 -194.5 76t-74.5 196q0 117 76 193t189 76q117 0 183.5 -77.5t66.5 -202.5h-445q3 -98 59.5 -149t144.5 -51
q63 0 111 30zM295 473q-73 0 -123.5 -42.5t-66.5 -115.5h366q-10 76 -56 117t-120 41z" />
    <glyph glyph-name="Ecaron" unicode="&#x11a;" horiz-adv-x="575" 
d="M519 0h-287q-76 0 -117 37.5t-41 111.5v557h467l-14 -65h-379v-257h337l-14 -61h-323v-174q0 -43 20 -63.5t64 -20.5h301zM218 910l86 -96l87 96h69l-103 -146h-105l-103 146h69z" />
    <glyph glyph-name="ecaron" unicode="&#x11b;" horiz-adv-x="570" 
d="M415 84l-5 -70q-45 -21 -111 -21q-120 0 -194.5 76t-74.5 196q0 117 76 193t189 76q117 0 183.5 -77.5t66.5 -202.5h-445q3 -98 59.5 -149t144.5 -51q63 0 111 30zM295 473q-73 0 -123.5 -42.5t-66.5 -115.5h366q-10 76 -56 117t-120 41zM206 746l86 -96l87 96h69
l-103 -146h-105l-103 146h69z" />
    <glyph glyph-name="Gcircumflex" unicode="&#x11c;" horiz-adv-x="756" 
d="M629 87q-31 -47 -93.5 -73t-128.5 -26q-160 0 -264 99.5t-104 264.5q0 167 102 266.5t265 99.5q167 0 268 -100l-48 -53q-86 88 -220 88q-136 0 -210.5 -83.5t-74.5 -217.5q0 -127 77 -213t209 -86q33 0 69 9.5t70 27t56 49t23 69.5v120h-320l10 65h381v-289
q0 -33 9.5 -64.5t21.5 -39.5h-80q-18 33 -18 87zM408 872l-86 -96h-69l103 146h105l103 -146h-69z" />
    <glyph glyph-name="gcircumflex" unicode="&#x11d;" horiz-adv-x="624" 
d="M579 263v-145q0 -95 -24 -160.5t-104 -141.5h-95q87 72 120.5 133.5t33.5 152.5q-34 -51 -90.5 -80t-126.5 -29q-112 0 -187.5 74.5t-75.5 195.5q0 117 78.5 194t194.5 77q124 0 200 -74.5t76 -196.5zM508 263q0 93 -56.5 151.5t-148.5 58.5q-90 0 -146 -61.5t-56 -148.5
q0 -91 55 -150t147 -59t148.5 58t56.5 151zM309 696l-86 -96h-69l103 146h105l103 -146h-69z" />
    <glyph glyph-name="Gbreve" unicode="&#x11e;" horiz-adv-x="756" 
d="M629 87q-31 -47 -93.5 -73t-128.5 -26q-160 0 -264 99.5t-104 264.5q0 167 102 266.5t265 99.5q167 0 268 -100l-48 -53q-86 88 -220 88q-136 0 -210.5 -83.5t-74.5 -217.5q0 -127 77 -213t209 -86q33 0 69 9.5t70 27t56 49t23 69.5v120h-320l10 65h381v-289
q0 -33 9.5 -64.5t21.5 -39.5h-80q-18 33 -18 87zM410 846q33 0 53 20t24 56h69q-8 -72 -48.5 -104t-97.5 -32t-97.5 32t-48.5 104h69q4 -36 24 -56t53 -20z" />
    <glyph glyph-name="gbreve" unicode="&#x11f;" horiz-adv-x="624" 
d="M579 263v-145q0 -95 -24 -160.5t-104 -141.5h-95q87 72 120.5 133.5t33.5 152.5q-34 -51 -90.5 -80t-126.5 -29q-112 0 -187.5 74.5t-75.5 195.5q0 117 78.5 194t194.5 77q124 0 200 -74.5t76 -196.5zM508 263q0 93 -56.5 151.5t-148.5 58.5q-90 0 -146 -61.5t-56 -148.5
q0 -91 55 -150t147 -59t148.5 58t56.5 151zM311 670q33 0 53 20t24 56h69q-8 -72 -48.5 -104t-97.5 -32t-97.5 32t-48.5 104h69q4 -36 24 -56t53 -20z" />
    <glyph glyph-name="Gdotaccent" unicode="&#x120;" horiz-adv-x="756" 
d="M629 87q-31 -47 -93.5 -73t-128.5 -26q-160 0 -264 99.5t-104 264.5q0 167 102 266.5t265 99.5q167 0 268 -100l-48 -53q-86 88 -220 88q-136 0 -210.5 -83.5t-74.5 -217.5q0 -127 77 -213t209 -86q33 0 69 9.5t70 27t56 49t23 69.5v120h-320l10 65h381v-289
q0 -33 9.5 -64.5t21.5 -39.5h-80q-18 33 -18 87zM367 807v88h88v-88h-88z" />
    <glyph glyph-name="gdotaccent" unicode="&#x121;" horiz-adv-x="624" 
d="M579 263v-145q0 -95 -24 -160.5t-104 -141.5h-95q87 72 120.5 133.5t33.5 152.5q-34 -51 -90.5 -80t-126.5 -29q-112 0 -187.5 74.5t-75.5 195.5q0 117 78.5 194t194.5 77q124 0 200 -74.5t76 -196.5zM508 263q0 93 -56.5 151.5t-148.5 58.5q-90 0 -146 -61.5t-56 -148.5
q0 -91 55 -150t147 -59t148.5 58t56.5 151zM268 631v88h88v-88h-88z" />
    <glyph glyph-name="Gcommaaccent" unicode="&#x122;" horiz-adv-x="756" 
d="M629 87q-31 -47 -93.5 -73t-128.5 -26q-160 0 -264 99.5t-104 264.5q0 167 102 266.5t265 99.5q167 0 268 -100l-48 -53q-86 88 -220 88q-136 0 -210.5 -83.5t-74.5 -217.5q0 -127 77 -213t209 -86q33 0 69 9.5t70 27t56 49t23 69.5v120h-320l10 65h381v-289
q0 -33 9.5 -64.5t21.5 -39.5h-80q-18 33 -18 87zM365 -236l-44 41q23 16 29 31t6 44v60h68v-60q0 -41 -11.5 -66t-47.5 -50z" />
    <glyph glyph-name="gcommaaccent" unicode="&#x123;" horiz-adv-x="624" 
d="M579 263v-145q0 -95 -24 -160.5t-104 -141.5h-95q87 72 120.5 133.5t33.5 152.5q-34 -51 -90.5 -80t-126.5 -29q-112 0 -187.5 74.5t-75.5 195.5q0 117 78.5 194t194.5 77q124 0 200 -74.5t76 -196.5zM508 263q0 93 -56.5 151.5t-148.5 58.5q-90 0 -146 -61.5t-56 -148.5
q0 -91 55 -150t147 -59t148.5 58t56.5 151zM337 796l44 -41q-23 -16 -29 -31t-6 -44v-60h-68v60q0 41 11.5 66t47.5 50z" />
    <glyph glyph-name="Hcircumflex" unicode="&#x124;" horiz-adv-x="677" 
d="M74 0v706h74v-319h381v319h74v-706h-74v323h-381v-323h-74zM336 860l-86 -96h-69l103 146h105l103 -146h-69z" />
    <glyph glyph-name="hcircumflex" unicode="&#x125;" horiz-adv-x="549" 
d="M60 706h69v-245q48 73 157 73q100 0 154 -54.5t54 -155.5v-324h-69v319q0 74 -34.5 114.5t-104.5 40.5q-72 0 -114.5 -40.5t-42.5 -111.5v-322h-69v706zM73 862l-86 -96h-69l103 146h105l103 -146h-69z" />
    <glyph glyph-name="Hbar" unicode="&#x126;" horiz-adv-x="677" 
d="M4 490v62h70v154h74v-154h381v154h74v-154h70v-62h-70v-490h-74v323h-381v-323h-74v490h-70zM148 387h381v103h-381v-103z" />
    <glyph glyph-name="hbar" unicode="&#x127;" horiz-adv-x="549" 
d="M60 706h69v-64h137v-59h-137v-122q48 73 157 73q100 0 154 -54.5t54 -155.5v-324h-69v319q0 74 -34.5 114.5t-104.5 40.5q-72 0 -114.5 -40.5t-42.5 -111.5v-322h-69v583h-74v59h74v64z" />
    <glyph glyph-name="Itilde" unicode="&#x128;" horiz-adv-x="222" 
d="M74 0v706h74v-706h-74zM6 776h-56q0 5 1 13t7.5 28.5t16 36t28.5 28.5t44 13q27 0 70 -25t59 -25q19 0 29 13.5t11 27.5v14h56q0 -5 -1.5 -13t-8 -29t-15.5 -37t-27 -29t-41 -13q-30 0 -71 27t-57 27q-19 0 -30 -14.5t-13 -28.5z" />
    <glyph glyph-name="itilde" unicode="&#x129;" horiz-adv-x="189" 
d="M60 527h69v-527h-69v527zM-11 605h-56q0 5 1 13t7.5 28.5t16 36t28.5 28.5t44 13q27 0 70 -25t59 -25q19 0 29 13.5t10 27.5l1 14h56q0 -5 -1.5 -13t-8 -29t-15.5 -37t-27 -29t-41 -13q-30 0 -71 27t-57 27q-19 0 -30 -14.5t-13 -28.5z" />
    <glyph glyph-name="Imacron" unicode="&#x12a;" horiz-adv-x="222" 
d="M74 0v706h74v-706h-74zM-34 805v64h280v-64h-280z" />
    <glyph glyph-name="imacron" unicode="&#x12b;" horiz-adv-x="189" 
d="M60 527h69v-527h-69v527zM-51 634v64h280v-64h-280z" />
    <glyph glyph-name="Ibreve" unicode="&#x12c;" horiz-adv-x="222" 
d="M74 0v706h74v-706h-74zM111 834q33 0 53 20t24 56h69q-8 -72 -48.5 -104t-97.5 -32t-97.5 32t-48.5 104h69q4 -36 24 -56t53 -20z" />
    <glyph glyph-name="ibreve" unicode="&#x12d;" horiz-adv-x="189" 
d="M60 527h69v-527h-69v527zM94 663q33 0 53 20t24 56h69q-8 -72 -48.5 -104t-97.5 -32t-97.5 32t-48.5 104h69q4 -36 24 -56t53 -20z" />
    <glyph glyph-name="Iogonek" unicode="&#x12e;" horiz-adv-x="222" 
d="M80 0h-6v706h74v-706q-70 -61 -70 -117q0 -30 16 -45.5t40 -15.5q30 0 64 13l-7 -63q-38 -10 -70 -10q-43 0 -78 26t-35 83q0 65 72 129z" />
    <glyph glyph-name="iogonek" unicode="&#x12f;" horiz-adv-x="189" 
d="M61 0h-1v527h69v-527q-70 -61 -70 -117q0 -30 16 -45.5t40 -15.5q30 0 64 13l-7 -63q-38 -10 -70 -10q-43 0 -78 26t-35 83q0 65 72 129zM60 706h69v-77h-69v77z" />
    <glyph glyph-name="Idotaccent" unicode="&#x130;" horiz-adv-x="222" 
d="M74 0v706h74v-706h-74zM68 795v88h88v-88h-88z" />
    <glyph glyph-name="dotlessi" unicode="&#x131;" horiz-adv-x="189" 
d="M60 527h69v-527h-69v527z" />
    <glyph glyph-name="IJ" unicode="&#x132;" horiz-adv-x="456" 
d="M74 0v706h74v-706h-74zM318 706h74v-342q0 -94 -25 -179t-72 -185h-83q34 66 52.5 108.5t36 115.5t17.5 150v332z" />
    <glyph glyph-name="ij" unicode="&#x133;" horiz-adv-x="375" 
d="M60 527h69v-527h-69v527zM60 706h69v-77h-69v77zM248 527h69v-313q0 -71 -11.5 -138t-27.5 -112.5t-32 -80t-28 -51.5l-11 -16h-81q5 7 13 19t29 52.5t37.5 83.5t29.5 109t13 132v315zM248 706h69v-77h-69v77z" />
    <glyph glyph-name="Jcircumflex" unicode="&#x134;" horiz-adv-x="234" 
d="M96 706h74v-342q0 -94 -25 -179t-72 -185h-83q34 66 52.5 108.5t36 115.5t17.5 150v332zM131 860l-86 -96h-69l103 146h105l103 -146h-69z" />
    <glyph glyph-name="jcircumflex" unicode="&#x135;" horiz-adv-x="192" 
d="M65 527h69v-313q0 -71 -11.5 -138t-27.5 -112.5t-32 -80t-27 -51.5l-12 -16h-81q5 7 13 19t29 52.5t37.5 83.5t29.5 109t13 132v315zM98 689l-86 -96h-69l103 146h105l103 -146h-69z" />
    <glyph glyph-name="Kcommaaccent" unicode="&#x136;" horiz-adv-x="593" 
d="M74 706h74v-319h31l285 319h87l-286 -319h44q70 0 101 -17.5t57 -83.5l58 -145q19 -47 46.5 -90.5t37.5 -50.5h-90q-11 11 -31 46t-31 64l-49 125q-25 65 -39.5 77.5t-74.5 12.5h-146v-325h-74v706zM299 -236l-44 41q23 16 29 31t6 44v60h68v-60q0 -41 -11.5 -66
t-47.5 -50z" />
    <glyph glyph-name="kcommaaccent" unicode="&#x137;" horiz-adv-x="452" 
d="M60 706h70v-409h22l203 230h78l-196 -230h22q51 0 72.5 -16.5t40.5 -67.5l29 -79q35 -94 67 -134h-83q-14 21 -37 84l-32 89q-10 28 -16 39.5t-19.5 20t-36.5 8.5h-114v-241h-70v706zM226 -236l-44 41q23 16 29 31t6 44v60h68v-60q0 -41 -11.5 -66t-47.5 -50z" />
    <glyph glyph-name="kgreenlandic" unicode="&#x138;" horiz-adv-x="452" 
d="M60 527h70v-230h22l203 230h78l-196 -230h22q51 0 72.5 -16.5t40.5 -67.5l29 -79q35 -94 67 -134h-83q-14 21 -37 84l-32 89q-10 28 -16 39.5t-19.5 20t-36.5 8.5h-115v-241h-69v527z" />
    <glyph glyph-name="Lacute" unicode="&#x139;" horiz-adv-x="512" 
d="M507 0h-275q-76 0 -117 37.5t-41 111.5v557h74v-557q0 -43 20 -63.5t64 -20.5h289zM278 910l-126 -146h-72l93 146h105z" />
    <glyph glyph-name="lacute" unicode="&#x13a;" horiz-adv-x="189" 
d="M60 706h69v-706h-69v706zM262 911l-126 -146h-72l93 146h105z" />
    <glyph glyph-name="Lcommaaccent" unicode="&#x13b;" horiz-adv-x="512" 
d="M507 0h-275q-76 0 -117 37.5t-41 111.5v557h74v-557q0 -43 20 -63.5t64 -20.5h289zM248 -236l-44 41q23 16 29 31t6 44v60h68v-60q0 -41 -11.5 -66t-47.5 -50z" />
    <glyph glyph-name="lcommaaccent" unicode="&#x13c;" horiz-adv-x="189" 
d="M60 706h69v-706h-69v706zM71 -236l-44 41q23 16 29 31t6 44v60h68v-60q0 -41 -11.5 -66t-47.5 -50z" />
    <glyph glyph-name="Lcaron" unicode="&#x13d;" horiz-adv-x="512" 
d="M507 0h-275q-76 0 -117 37.5t-41 111.5v557h74v-557q0 -43 20 -63.5t64 -20.5h289zM353 530l-44 41q23 16 29 31t6 44v60h68v-60q0 -41 -11.5 -66t-47.5 -50z" />
    <glyph glyph-name="lcaron" unicode="&#x13e;" horiz-adv-x="290" 
d="M60 706h69v-706h-69v706zM221 530l-44 41q23 16 29 31t6 44v60h68v-60q0 -41 -11.5 -66t-47.5 -50z" />
    <glyph glyph-name="Ldot" unicode="&#x13f;" horiz-adv-x="512" 
d="M507 0h-275q-76 0 -117 37.5t-41 111.5v557h74v-557q0 -43 20 -63.5t64 -20.5h289zM321 384h96v-96h-96v96z" />
    <glyph glyph-name="ldotaccent" unicode="&#x140;" horiz-adv-x="283" 
d="M60 706h69v-706h-69v706zM187 384h96v-96h-96v96z" />
    <glyph glyph-name="Lslash" unicode="&#x141;" horiz-adv-x="512" 
d="M-14 256v66l88 34v350h74v-321l138 55v-66l-138 -55v-162q0 -51 23.5 -72t55.5 -21h294l-14 -64h-290q-72 0 -107.5 43.5t-35.5 113.5v133z" />
    <glyph glyph-name="lslash" unicode="&#x142;" horiz-adv-x="199" 
d="M65 706h69v-327l72 29v-62l-72 -29v-317h-69v290l-72 -28v62l72 28v354z" />
    <glyph glyph-name="Nacute" unicode="&#x143;" horiz-adv-x="708" 
d="M634 0h-96l-390 618v-618h-74v706h97l389 -616v616h74v-706zM526 910l-126 -146h-72l93 146h105z" />
    <glyph glyph-name="nacute" unicode="&#x144;" 
d="M420 0v325q0 71 -39 109t-109 38t-109 -38t-39 -109v-325h-69v324q0 100 57.5 154.5t159.5 54.5t159.5 -54.5t57.5 -154.5v-324h-69zM438 746l-126 -146h-72l93 146h105z" />
    <glyph glyph-name="Ncommaaccent" unicode="&#x145;" horiz-adv-x="708" 
d="M634 0h-96l-390 618v-618h-74v706h97l389 -616v616h74v-706zM337 -236l-44 41q23 16 29 31t6 44v60h68v-60q0 -41 -11.5 -66t-47.5 -50z" />
    <glyph glyph-name="ncommaaccent" unicode="&#x146;" 
d="M420 0v325q0 71 -39 109t-109 38t-109 -38t-39 -109v-325h-69v324q0 100 57.5 154.5t159.5 54.5t159.5 -54.5t57.5 -154.5v-324h-69zM250 -236l-44 41q23 16 29 31t6 44v60h68v-60q0 -41 -11.5 -66t-47.5 -50z" />
    <glyph glyph-name="Ncaron" unicode="&#x147;" horiz-adv-x="708" 
d="M634 0h-96l-390 618v-618h-74v706h97l389 -616v616h74v-706zM272 910l86 -96l87 96h69l-103 -146h-105l-103 146h69z" />
    <glyph glyph-name="ncaron" unicode="&#x148;" 
d="M420 0v325q0 71 -39 109t-109 38t-109 -38t-39 -109v-325h-69v324q0 100 57.5 154.5t159.5 54.5t159.5 -54.5t57.5 -154.5v-324h-69zM184 746l86 -96l87 96h69l-103 -146h-105l-103 146h69z" />
    <glyph glyph-name="napostrophe" unicode="&#x149;" horiz-adv-x="620" 
d="M496 0v325q0 71 -39 109t-109 38t-109 -38t-39 -109v-325h-69v324q0 100 57.5 154.5t159.5 54.5t159.5 -54.5t57.5 -154.5v-324h-69zM44 530l-44 41q23 16 29 31t6 44v60h68v-60q0 -41 -11.5 -66t-47.5 -50z" />
    <glyph glyph-name="Eng" unicode="&#x14a;" horiz-adv-x="708" 
d="M560 706h74v-642q0 -96 -23.5 -166t-72.5 -148h-84q31 49 46 75t30.5 66.5t22.5 84.5l-405 642v-618h-74v706h97l389 -616v616z" />
    <glyph glyph-name="eng" unicode="&#x14b;" horiz-adv-x="547" 
d="M420 325q0 71 -39 109t-109 38t-109 -38t-39 -109v-325h-69v324q0 100 57.5 154.5t159.5 54.5t159.5 -54.5t57.5 -154.5v-160q0 -221 -110 -348h-81q122 119 122 346v163z" />
    <glyph glyph-name="Omacron" unicode="&#x14c;" horiz-adv-x="819" 
d="M40 353q1 173 103 269t267 96q166 0 268 -96.5t102 -268.5t-102 -268.5t-268 -96.5t-268.5 96.5t-101.5 268.5zM122 353q0 -134 75.5 -217t212.5 -83t212.5 83t75.5 217t-75.5 217t-212.5 83t-212.5 -83t-75.5 -217zM267 817v64h280v-64h-280z" />
    <glyph glyph-name="omacron" unicode="&#x14d;" horiz-adv-x="608" 
d="M30 263q0 121 80 196.5t194 74.5q121 -1 196.5 -74.5t76.5 -196.5t-75 -196.5t-198 -73.5q-121 0 -197.5 73.5t-76.5 196.5zM101 263q0 -96 57 -152.5t146 -56.5t146 56.5t56 152.5q-1 95 -57.5 152t-144.5 58q-84 1 -143.5 -57t-59.5 -153zM159 641v64h280v-64h-280z
" />
    <glyph glyph-name="Obreve" unicode="&#x14e;" horiz-adv-x="819" 
d="M40 353q1 173 103 269t267 96q166 0 268 -96.5t102 -268.5t-102 -268.5t-268 -96.5t-268.5 96.5t-101.5 268.5zM122 353q0 -134 75.5 -217t212.5 -83t212.5 83t75.5 217t-75.5 217t-212.5 83t-212.5 -83t-75.5 -217zM412 846q33 0 53 20t24 56h69q-8 -72 -48.5 -104
t-97.5 -32t-97.5 32t-48.5 104h69q4 -36 24 -56t53 -20z" />
    <glyph glyph-name="obreve" unicode="&#x14f;" horiz-adv-x="608" 
d="M30 263q0 121 80 196.5t194 74.5q121 -1 196.5 -74.5t76.5 -196.5t-75 -196.5t-198 -73.5q-121 0 -197.5 73.5t-76.5 196.5zM101 263q0 -96 57 -152.5t146 -56.5t146 56.5t56 152.5q-1 95 -57.5 152t-144.5 58q-84 1 -143.5 -57t-59.5 -153zM304 670q33 0 53 20t24 56h69
q-8 -72 -48.5 -104t-97.5 -32t-97.5 32t-48.5 104h69q4 -36 24 -56t53 -20z" />
    <glyph glyph-name="Ohungarumlaut" unicode="&#x150;" horiz-adv-x="819" 
d="M40 353q1 173 103 269t267 96q166 0 268 -96.5t102 -268.5t-102 -268.5t-268 -96.5t-268.5 96.5t-101.5 268.5zM122 353q0 -134 75.5 -217t212.5 -83t212.5 83t75.5 217t-75.5 217t-212.5 83t-212.5 -83t-75.5 -217zM457 922l-96 -146h-67l63 146h100zM633 922l-126 -146
h-36h-36l93 146h105z" />
    <glyph glyph-name="ohungarumlaut" unicode="&#x151;" horiz-adv-x="608" 
d="M30 263q0 121 80 196.5t194 74.5q121 -1 196.5 -74.5t76.5 -196.5t-75 -196.5t-198 -73.5q-121 0 -197.5 73.5t-76.5 196.5zM101 263q0 -96 57 -152.5t146 -56.5t146 56.5t56 152.5q-1 95 -57.5 152t-144.5 58q-84 1 -143.5 -57t-59.5 -153zM349 746l-96 -146h-67l63 146
h100zM525 746l-126 -146h-36h-36l93 146h105z" />
    <glyph glyph-name="OE" unicode="&#x152;" horiz-adv-x="1217" 
d="M1161 0h-300q-67 0 -106.5 31t-47.5 86q-100 -129 -297 -129q-166 0 -268.5 96.5t-101.5 268.5q1 173 103 269t267 96q195 0 296 -128v116h477l-14 -65h-390v-257h348l-14 -61h-334v-175q0 -83 84 -83h312zM122 353q0 -134 75.5 -217t212.5 -83t212.5 83t75.5 217
t-75.5 217t-212.5 83t-212.5 -83t-75.5 -217z" />
    <glyph glyph-name="oe" unicode="&#x153;" horiz-adv-x="1046" 
d="M891 84l-5 -70q-46 -21 -111 -21q-79 0 -139.5 34.5t-93.5 95.5q-32 -62 -94 -96t-144 -34q-121 0 -197.5 73.5t-76.5 196.5q0 121 80 196.5t194 74.5q81 -1 143 -35.5t95 -97.5q33 62 93 97.5t136 35.5q117 0 183.5 -77.5t66.5 -202.5h-445q3 -98 59.5 -149t144.5 -51
q63 0 111 30zM101 263q0 -96 57 -152.5t146 -56.5t146 56.5t56 152.5q-1 95 -57.5 152t-144.5 58q-84 1 -143.5 -57t-59.5 -153zM771 473q-73 0 -123.5 -42.5t-66.5 -115.5h366q-10 76 -56 117t-120 41z" />
    <glyph glyph-name="Racute" unicode="&#x154;" horiz-adv-x="672" 
d="M74 706h340q108 0 162.5 -61.5t54.5 -150.5q0 -86 -54 -144.5t-131 -56.5q31 -4 54.5 -18.5t39.5 -40t25.5 -46t21.5 -54t18 -47.5q30 -66 48 -87h-91q-13 13 -31 60q-6 16 -18 49t-18 48t-18.5 39.5t-25.5 36.5t-33 25.5t-46 19t-59 5.5l-86 1q-18 0 -31 1.5t-21.5 8
t-11 8t-9.5 12.5l-6 11v-325h-74v706zM148 642v-218q0 -33 21.5 -55t62.5 -22h172q69 0 107.5 39.5t38.5 106.5q0 149 -151 149h-251zM491 910l-126 -146h-72l93 146h105z" />
    <glyph glyph-name="racute" unicode="&#x155;" horiz-adv-x="302" 
d="M313 516l-21 -57q-23 13 -59 13q-61 0 -85 -36.5t-24 -110.5v-325h-69v331q0 113 46.5 158t129.5 45q20 0 40.5 -4.5t30.5 -9.5zM369 746l-126 -146h-72l93 146h105z" />
    <glyph glyph-name="Rcommaaccent" unicode="&#x156;" horiz-adv-x="672" 
d="M74 706h340q108 0 162.5 -61.5t54.5 -150.5q0 -86 -54 -144.5t-131 -56.5q31 -4 54.5 -18.5t39.5 -40t25.5 -46t21.5 -54t18 -47.5q30 -66 48 -87h-91q-13 13 -31 60q-6 16 -18 49t-18 48t-18.5 39.5t-25.5 36.5t-33 25.5t-46 19t-59 5.5l-86 1q-18 0 -31 1.5t-21.5 8
t-11 8t-9.5 12.5l-6 11v-325h-74v706zM148 642v-218q0 -33 21.5 -55t62.5 -22h172q69 0 107.5 39.5t38.5 106.5q0 149 -151 149h-251zM323 -236l-44 41q23 16 29 31t6 44v60h68v-60q0 -41 -11.5 -66t-47.5 -50z" />
    <glyph glyph-name="rcommaaccent" unicode="&#x157;" horiz-adv-x="302" 
d="M313 516l-21 -57q-23 13 -59 13q-61 0 -85 -36.5t-24 -110.5v-325h-69v331q0 113 46.5 158t129.5 45q20 0 40.5 -4.5t30.5 -9.5zM67 -236l-44 41q23 16 29 31t6 44v60h68v-60q0 -41 -11.5 -66t-47.5 -50z" />
    <glyph glyph-name="Rcaron" unicode="&#x158;" horiz-adv-x="672" 
d="M74 706h340q108 0 162.5 -61.5t54.5 -150.5q0 -86 -54 -144.5t-131 -56.5q31 -4 54.5 -18.5t39.5 -40t25.5 -46t21.5 -54t18 -47.5q30 -66 48 -87h-91q-13 13 -31 60q-6 16 -18 49t-18 48t-18.5 39.5t-25.5 36.5t-33 25.5t-46 19t-59 5.5l-86 1q-18 0 -31 1.5t-21.5 8
t-11 8t-9.5 12.5l-6 11v-325h-74v706zM148 642v-218q0 -33 21.5 -55t62.5 -22h172q69 0 107.5 39.5t38.5 106.5q0 149 -151 149h-251zM237 910l86 -96l87 96h69l-103 -146h-105l-103 146h69z" />
    <glyph glyph-name="rcaron" unicode="&#x159;" horiz-adv-x="302" 
d="M313 516l-21 -57q-23 13 -59 13q-61 0 -85 -36.5t-24 -110.5v-325h-69v331q0 113 46.5 158t129.5 45q20 0 40.5 -4.5t30.5 -9.5zM115 746l86 -96l87 96h69l-103 -146h-105l-103 146h69z" />
    <glyph glyph-name="Sacute" unicode="&#x15a;" horiz-adv-x="534" 
d="M35 40l29 64q97 -51 193 -51q151 0 151 127q0 55 -30.5 87.5t-94.5 63.5l-81 39q-88 42 -130.5 80t-42.5 102q0 84 67 125t166 41q109 0 202 -47l-28 -62q-74 44 -174 44q-151 0 -151 -101q0 -10 2 -19.5t7 -18t8.5 -14.5t13.5 -13.5t15 -11.5t18.5 -11t18.5 -9.5
t21.5 -10.5t20.5 -10l82 -39q89 -43 130.5 -89t41.5 -123q0 -91 -66.5 -143t-166.5 -52q-111 0 -222 52zM431 922l-126 -146h-72l93 146h105z" />
    <glyph glyph-name="sacute" unicode="&#x15b;" horiz-adv-x="395" 
d="M26 34l29 59q75 -39 140 -39q102 0 102 84q0 37 -21.5 60t-65.5 44l-61 29q-64 30 -95.5 59.5t-31.5 78.5q0 63 50 94t123 31q82 0 156 -38l-30 -59q-60 36 -126 36q-102 0 -102 -64q0 -15 6 -26.5t22 -22.5t25 -15.5l33 -16.5l61 -29q67 -32 97.5 -66.5t30.5 -92.5
q0 -70 -49 -108.5t-124 -38.5q-86 0 -169 41zM369 746l-126 -146h-72l93 146h105z" />
    <glyph glyph-name="Scircumflex" unicode="&#x15c;" horiz-adv-x="534" 
d="M35 40l29 64q97 -51 193 -51q151 0 151 127q0 55 -30.5 87.5t-94.5 63.5l-81 39q-88 42 -130.5 80t-42.5 102q0 84 67 125t166 41q109 0 202 -47l-28 -62q-74 44 -174 44q-151 0 -151 -101q0 -10 2 -19.5t7 -18t8.5 -14.5t13.5 -13.5t15 -11.5t18.5 -11t18.5 -9.5
t21.5 -10.5t20.5 -10l82 -39q89 -43 130.5 -89t41.5 -123q0 -91 -66.5 -143t-166.5 -52q-111 0 -222 52zM262 872l-86 -96h-69l103 146h105l103 -146h-69z" />
    <glyph glyph-name="scircumflex" unicode="&#x15d;" horiz-adv-x="395" 
d="M26 34l29 59q75 -39 140 -39q102 0 102 84q0 37 -21.5 60t-65.5 44l-61 29q-64 30 -95.5 59.5t-31.5 78.5q0 63 50 94t123 31q82 0 156 -38l-30 -59q-60 36 -126 36q-102 0 -102 -64q0 -15 6 -26.5t22 -22.5t25 -15.5l33 -16.5l61 -29q67 -32 97.5 -66.5t30.5 -92.5
q0 -70 -49 -108.5t-124 -38.5q-86 0 -169 41zM200 696l-86 -96h-69l103 146h105l103 -146h-69z" />
    <glyph glyph-name="Scedilla" unicode="&#x15e;" horiz-adv-x="534" 
d="M40 40l29 64q97 -51 193 -51q151 0 151 127q0 55 -30.5 87.5t-94.5 63.5l-81 39q-88 42 -130.5 80t-42.5 102q0 84 67 125t166 41q109 0 202 -47l-28 -62q-74 44 -174 44q-151 0 -151 -101q0 -10 2 -19.5t7 -18t8.5 -14.5t13.5 -13.5t15 -11.5t18.5 -11t18.5 -9.5
t21.5 -10.5t20.5 -10l82 -39q89 -43 130.5 -89t41.5 -123q0 -88 -61.5 -139t-155.5 -55l-10 -53q8 -1 18.5 -4.5t28.5 -12.5t30 -29t12 -48q0 -32 -16 -59.5t-39 -43t-46 -26t-39 -14.5l-16 -4l-18 53q98 36 98 86q0 28 -24.5 41.5t-58.5 12.5l20 102q-87 7 -178 50z" />
    <glyph glyph-name="scedilla" unicode="&#x15f;" horiz-adv-x="395" 
d="M26 34l29 59q75 -39 140 -39q102 0 102 84q0 37 -21.5 60t-65.5 44l-61 29q-64 30 -95.5 59.5t-31.5 78.5q0 63 50 94t123 31q82 0 156 -38l-30 -59q-60 36 -126 36q-102 0 -102 -64q0 -15 6 -26.5t22 -22.5t25 -15.5l33 -16.5l61 -29q67 -32 97.5 -66.5t30.5 -92.5
q0 -66 -44 -104t-113 -42l-9 -48q8 -1 18.5 -4.5t28.5 -12.5t30 -29t12 -48q0 -32 -16 -59.5t-39 -43t-46 -26t-39 -14.5l-16 -4l-18 53q98 36 98 86q0 28 -24.5 41.5t-58.5 12.5l19 98q-61 6 -125 38z" />
    <glyph glyph-name="Scaron" unicode="&#x160;" horiz-adv-x="534" 
d="M35 40l29 64q97 -51 193 -51q151 0 151 127q0 55 -30.5 87.5t-94.5 63.5l-81 39q-88 42 -130.5 80t-42.5 102q0 84 67 125t166 41q109 0 202 -47l-28 -62q-74 44 -174 44q-151 0 -151 -101q0 -10 2 -19.5t7 -18t8.5 -14.5t13.5 -13.5t15 -11.5t18.5 -11t18.5 -9.5
t21.5 -10.5t20.5 -10l82 -39q89 -43 130.5 -89t41.5 -123q0 -91 -66.5 -143t-166.5 -52q-111 0 -222 52zM177 922l86 -96l87 96h69l-103 -146h-105l-103 146h69z" />
    <glyph glyph-name="scaron" unicode="&#x161;" horiz-adv-x="395" 
d="M26 34l29 59q75 -39 140 -39q102 0 102 84q0 37 -21.5 60t-65.5 44l-61 29q-64 30 -95.5 59.5t-31.5 78.5q0 63 50 94t123 31q82 0 156 -38l-30 -59q-60 36 -126 36q-102 0 -102 -64q0 -15 6 -26.5t22 -22.5t25 -15.5l33 -16.5l61 -29q67 -32 97.5 -66.5t30.5 -92.5
q0 -70 -49 -108.5t-124 -38.5q-86 0 -169 41zM115 746l86 -96l87 96h69l-103 -146h-105l-103 146h69z" />
    <glyph glyph-name="Tcommaaccent" unicode="&#x162;" horiz-adv-x="548" 
d="M237 0v642h-236v64h543l-10 -64h-223v-642h-74zM251 -236l-44 41q23 16 29 31t6 44v60h68v-60q0 -41 -11.5 -66t-47.5 -50z" />
    <glyph glyph-name="tcommaaccent" unicode="&#x163;" horiz-adv-x="238" 
d="M51 253v431l69 25v-182h109l-12 -61h-97v-211q0 -39 9 -76.5t24.5 -67.5t28.5 -50.5t28.5 -40t15.5 -20.5h-82l-8 11q-8 11 -11 15t-11.5 17t-13 21t-12 23t-12 27.5t-10 29.5t-8.5 33.5t-5 36t-2 39.5zM127 -236l-44 41q23 16 29 31t6 44v60h68v-60q0 -41 -11.5 -66
t-47.5 -50z" />
    <glyph glyph-name="Tcaron" unicode="&#x164;" horiz-adv-x="548" 
d="M237 0v642h-236v64h543l-10 -64h-223v-642h-74zM187 910l86 -96l87 96h69l-103 -146h-105l-103 146h69z" />
    <glyph glyph-name="tcaron" unicode="&#x165;" horiz-adv-x="284" 
d="M51 253v431l69 25v-182h109l-12 -61h-97v-211q0 -39 9 -76.5t24.5 -67.5t28.5 -50.5t28.5 -40t15.5 -20.5h-82l-8 11q-8 11 -11 15t-11.5 17t-13 21t-12 23t-12 27.5t-10 29.5t-8.5 33.5t-5 36t-2 39.5zM215 588l-44 41q23 16 29 31t6 44v60h68v-60q0 -41 -11.5 -66
t-47.5 -50z" />
    <glyph glyph-name="Tbar" unicode="&#x166;" horiz-adv-x="548" 
d="M130 377v62h107v203h-236v64h543l-10 -64h-223v-203h107v-62h-107v-377h-74v377h-107z" />
    <glyph glyph-name="tbar" unicode="&#x167;" horiz-adv-x="238" 
d="M4 297v59h47v328l69 25v-182h109l-12 -61h-97v-110h102v-59h-102v-42q0 -28 5 -55.5t13.5 -51t17.5 -43.5t21 -38.5t20 -29.5t18 -23t11 -14h-82q-1 1 -10 13.5t-13.5 19.5t-15 24t-16.5 30t-14 33.5t-12.5 39.5t-8 43.5t-3.5 49.5v44h-47z" />
    <glyph glyph-name="Utilde" unicode="&#x168;" horiz-adv-x="686" 
d="M69 218v488h74v-483q0 -87 57.5 -128.5t142.5 -41.5q52 0 95.5 15.5t74 55.5t30.5 99v483h74v-488q0 -112 -80 -171t-194 -59q-54 0 -100 11.5t-86.5 37t-64 72t-23.5 109.5zM238 776h-56q0 5 1 13t7.5 28.5t16 36t28.5 28.5t44 13q27 0 70 -25t59 -25q19 0 29 13.5
t10 27.5l1 14h56q0 -5 -1.5 -13t-8 -29t-15.5 -37t-27 -29t-41 -13q-30 0 -71 27t-57 27q-19 0 -30 -14.5t-13 -28.5z" />
    <glyph glyph-name="utilde" unicode="&#x169;" 
d="M420 201v326h69v-325q0 -100 -57.5 -154.5t-159.5 -54.5t-159.5 54.5t-57.5 154.5v325h69v-326q0 -71 39 -109t109 -38t109 38t39 109zM174 605h-56q0 5 1 13t7.5 28.5t16 36t28.5 28.5t44 13q27 0 70 -25t59 -25q19 0 29 14t11 28v13h56q0 -5 -1.5 -13t-8 -29t-15.5 -37
t-27 -29t-41 -13q-30 0 -71 27t-57 27q-19 0 -30 -14t-13 -28z" />
    <glyph glyph-name="Umacron" unicode="&#x16a;" horiz-adv-x="686" 
d="M69 218v488h74v-483q0 -87 57.5 -128.5t142.5 -41.5q52 0 95.5 15.5t74 55.5t30.5 99v483h74v-488q0 -112 -80 -171t-194 -59q-54 0 -100 11.5t-86.5 37t-64 72t-23.5 109.5zM198 805v64h280v-64h-280z" />
    <glyph glyph-name="umacron" unicode="&#x16b;" 
d="M420 201v326h69v-325q0 -100 -57.5 -154.5t-159.5 -54.5t-159.5 54.5t-57.5 154.5v325h69v-326q0 -71 39 -109t109 -38t109 38t39 109zM134 634v64h280v-64h-280z" />
    <glyph glyph-name="Ubreve" unicode="&#x16c;" horiz-adv-x="686" 
d="M69 218v488h74v-483q0 -87 57.5 -128.5t142.5 -41.5q52 0 95.5 15.5t74 55.5t30.5 99v483h74v-488q0 -112 -80 -171t-194 -59q-54 0 -100 11.5t-86.5 37t-64 72t-23.5 109.5zM343 834q33 0 53 20t24 56h69q-8 -72 -48.5 -104t-97.5 -32t-97.5 32t-48.5 104h69
q4 -36 24 -56t53 -20z" />
    <glyph glyph-name="ubreve" unicode="&#x16d;" 
d="M420 201v326h69v-325q0 -100 -57.5 -154.5t-159.5 -54.5t-159.5 54.5t-57.5 154.5v325h69v-326q0 -71 39 -109t109 -38t109 38t39 109zM279 663q33 0 53 20t24 56h69q-8 -72 -48.5 -104t-97.5 -32t-97.5 32t-48.5 104h69q4 -36 24 -56t53 -20z" />
    <glyph glyph-name="Uring" unicode="&#x16e;" horiz-adv-x="686" 
d="M69 218v488h74v-483q0 -87 57.5 -128.5t142.5 -41.5q52 0 95.5 15.5t74 55.5t30.5 99v483h74v-488q0 -112 -80 -171t-194 -59q-54 0 -100 11.5t-86.5 37t-64 72t-23.5 109.5zM217 880q0 53 37 90t89 37t89.5 -37.5t37.5 -89.5t-37 -89t-90 -37q-52 0 -89 37t-37 89z
M272 880q0 -30 20.5 -50.5t50.5 -20.5t51 20.5t21 50.5t-21 51t-51 21t-50.5 -21t-20.5 -51z" />
    <glyph glyph-name="uring" unicode="&#x16f;" 
d="M420 201v326h69v-325q0 -100 -57.5 -154.5t-159.5 -54.5t-159.5 54.5t-57.5 154.5v325h69v-326q0 -71 39 -109t109 -38t109 38t39 109zM153 709q0 53 37 90t89 37q53 0 90 -37t37 -90q0 -52 -37 -89t-90 -37t-89.5 36.5t-36.5 89.5zM208 709q0 -30 20.5 -50.5t50.5 -20.5
t51 20.5t21 50.5t-21 51t-51 21t-50.5 -21t-20.5 -51z" />
    <glyph glyph-name="Uhungarumlaut" unicode="&#x170;" horiz-adv-x="686" 
d="M69 218v488h74v-483q0 -87 57.5 -128.5t142.5 -41.5q52 0 95.5 15.5t74 55.5t30.5 99v483h74v-488q0 -112 -80 -171t-194 -59q-54 0 -100 11.5t-86.5 37t-64 72t-23.5 109.5zM388 910l-96 -146h-67l63 146h100zM564 910l-126 -146h-36h-36l93 146h105z" />
    <glyph glyph-name="uhungarumlaut" unicode="&#x171;" 
d="M420 201v326h69v-325q0 -100 -57.5 -154.5t-159.5 -54.5t-159.5 54.5t-57.5 154.5v325h69v-326q0 -71 39 -109t109 -38t109 38t39 109zM324 739l-96 -146h-67l63 146h100zM500 739l-126 -146h-36h-36l93 146h105z" />
    <glyph glyph-name="Uogonek" unicode="&#x172;" horiz-adv-x="686" 
d="M69 218v488h74v-483q0 -87 57.5 -128.5t142.5 -41.5q52 0 95.5 15.5t74 55.5t30.5 99v483h74v-488q0 -98 -63 -156t-159 -70q-40 -24 -61 -53t-21 -56q0 -30 18 -45.5t43 -15.5q34 0 70 13l-7 -63q-40 -10 -82 -10q-41 0 -76.5 26t-35.5 83q0 67 71 118q-49 3 -91 16.5
t-77.5 39t-56 70t-20.5 103.5z" />
    <glyph glyph-name="uogonek" unicode="&#x173;" 
d="M420 201v326h69v-325q0 -90 -47 -143.5t-131 -63.5q-72 -47 -72 -102q0 -30 18 -45.5t43 -15.5q34 0 70 13l-7 -63q-40 -10 -82 -10q-41 0 -76.5 26t-35.5 83q0 65 66 114q-85 9 -132.5 62.5t-47.5 144.5v325h69v-326q0 -71 39 -109t109 -38t109 38t39 109z" />
    <glyph glyph-name="Wcircumflex" unicode="&#x174;" horiz-adv-x="888" 
d="M223 0l-216 706h77l173 -587l152 587h66l160 -587l165 587h77l-211 -706h-68l-156 583l-151 -583h-68zM424 860l-86 -96h-69l103 146h105l103 -146h-69z" />
    <glyph glyph-name="wcircumflex" unicode="&#x175;" horiz-adv-x="839" 
d="M422 87h-5q-45 -94 -165 -94q-91 0 -144 51.5t-53 146.5v336h69v-334q0 -66 33 -102.5t96 -36.5q132 0 132 143v330h69v-330q0 -143 132 -143q63 0 96 36.5t33 102.5v334h69v-336q0 -95 -53 -146.5t-144 -51.5q-119 0 -165 94zM418 689l-86 -96h-69l103 146h105l103 -146
h-69z" />
    <glyph glyph-name="Ycircumflex" unicode="&#x176;" horiz-adv-x="551" 
d="M49 455v251h74v-242q0 -135 152 -135q150 0 150 135v242h74v-251q0 -83 -50 -131.5t-137 -56.5v-267h-74v267q-90 8 -139.5 55t-49.5 133zM273 860l-86 -96h-69l103 146h105l103 -146h-69z" />
    <glyph glyph-name="ycircumflex" unicode="&#x177;" horiz-adv-x="547" 
d="M391 -184h-87q5 4 12.5 12t27.5 33.5t35.5 53t29 70t14.5 85.5q-54 -77 -160 -77q-94 0 -151 52t-57 159v323h69v-318q0 -73 35 -114.5t104 -41.5q82 0 119.5 45.5t37.5 107.5v321h69v-461q0 -65 -24.5 -127.5t-48.5 -92.5zM268 689l-86 -96h-69l103 146h105l103 -146
h-69z" />
    <glyph glyph-name="Ydieresis" unicode="&#x178;" horiz-adv-x="551" 
d="M49 455v251h74v-242q0 -135 152 -135q150 0 150 135v242h74v-251q0 -83 -50 -131.5t-137 -56.5v-267h-74v267q-90 8 -139.5 55t-49.5 133zM132 795v88h88v-88h-41h-47zM330 795v88h88v-88h-88z" />
    <glyph glyph-name="Zacute" unicode="&#x179;" horiz-adv-x="565" 
d="M518 0h-500q0 75 13.5 130.5t48.5 104t76 85t113 90.5q80 60 131.5 114.5t65.5 116.5h-419v65h503q0 -49 -16 -94t-38.5 -79.5t-63 -74t-74.5 -66.5t-89 -68q-78 -58 -124 -119.5t-46 -139.5h419v-65zM468 910l-126 -146h-72l93 146h105z" />
    <glyph glyph-name="zacute" unicode="&#x17a;" horiz-adv-x="439" 
d="M341 467h-307v60h387q0 -46 -13.5 -84.5t-44.5 -73t-52.5 -53t-66.5 -53.5q-64 -49 -103 -97.5t-45 -105.5h311v-60h-389q1 50 14 94t29 73.5t48 63.5t52.5 51.5t61.5 50.5q52 41 81.5 71.5t36.5 62.5zM405 739l-126 -146h-72l93 146h105z" />
    <glyph glyph-name="Zdotaccent" unicode="&#x17b;" horiz-adv-x="565" 
d="M518 0h-500q0 75 13.5 130.5t48.5 104t76 85t113 90.5q80 60 131.5 114.5t65.5 116.5h-419v65h503q0 -49 -16 -94t-38.5 -79.5t-63 -74t-74.5 -66.5t-89 -68q-78 -58 -124 -119.5t-46 -139.5h419v-65zM258 795v88h88v-88h-88z" />
    <glyph glyph-name="zdotaccent" unicode="&#x17c;" horiz-adv-x="439" 
d="M341 467h-307v60h387q0 -46 -13.5 -84.5t-44.5 -73t-52.5 -53t-66.5 -53.5q-64 -49 -103 -97.5t-45 -105.5h311v-60h-389q1 50 14 94t29 73.5t48 63.5t52.5 51.5t61.5 50.5q52 41 81.5 71.5t36.5 62.5zM195 624v88h88v-88h-88z" />
    <glyph glyph-name="Zcaron" unicode="&#x17d;" horiz-adv-x="565" 
d="M518 0h-500q0 75 13.5 130.5t48.5 104t76 85t113 90.5q80 60 131.5 114.5t65.5 116.5h-419v65h503q0 -49 -16 -94t-38.5 -79.5t-63 -74t-74.5 -66.5t-89 -68q-78 -58 -124 -119.5t-46 -139.5h419v-65zM214 910l86 -96l87 96h69l-103 -146h-105l-103 146h69z" />
    <glyph glyph-name="zcaron" unicode="&#x17e;" horiz-adv-x="439" 
d="M341 467h-307v60h387q0 -46 -13.5 -84.5t-44.5 -73t-52.5 -53t-66.5 -53.5q-64 -49 -103 -97.5t-45 -105.5h311v-60h-389q1 50 14 94t29 73.5t48 63.5t52.5 51.5t61.5 50.5q52 41 81.5 71.5t36.5 62.5zM151 739l86 -96l87 96h69l-103 -146h-105l-103 146h69z" />
    <glyph glyph-name="florin" unicode="&#x192;" horiz-adv-x="477" 
d="M101 -23l121 429h-103l17 61h104l41 146q17 61 50.5 83t86.5 22q20 0 39 -4t27 -8l9 -4l-22 -58q-21 11 -49 11q-32 0 -50 -15t-30 -59l-33 -114h105l-15 -61h-108l-134 -473q-17 -61 -55 -83t-93 -22q-24 0 -42.5 4t-25.5 8l-7 4l22 58q21 -11 49 -11q36 0 59 17t37 69z
" />
    <glyph glyph-name="AEacute" unicode="&#x1fc;" horiz-adv-x="909" 
d="M853 0h-287q-76 0 -117 37.5t-41 111.5v48h-257l-81 -197h-76l286 706h595l-14 -65h-379v-257h337l-14 -61h-323v-174q0 -43 20 -63.5t64 -20.5h301zM329 641l-153 -380h232v380h-79zM741 910l-126 -146h-72l93 146h105z" />
    <glyph glyph-name="aeacute" unicode="&#x1fd;" horiz-adv-x="1048" 
d="M893 84l-5 -70q-46 -21 -111 -21q-124 0 -198 80v-73h-69v102q-34 -51 -90.5 -80t-126.5 -29q-112 0 -187.5 74.5t-75.5 195.5q0 117 78.5 194t194.5 77q82 0 144.5 -34t96.5 -95q34 60 94.5 94.5t134.5 34.5q117 0 183.5 -77.5t66.5 -202.5h-444q3 -101 59.5 -150.5
t143.5 -49.5q63 0 111 30zM508 263q0 93 -56.5 151.5t-148.5 58.5q-90 0 -146 -61.5t-56 -148.5q0 -91 55 -150t147 -59t148.5 58t56.5 151zM773 473q-73 0 -123.5 -42.5t-66.5 -115.5h366q-10 76 -56 117t-120 41zM670 746l-126 -146h-72l93 146h105z" />
    <glyph glyph-name="Oslashacute" unicode="&#x1fe;" horiz-adv-x="819" 
d="M39 31l79 78q-79 97 -78 244q1 173 103 269t267 96q148 0 245 -77l77 77l49 -43l-80 -79q79 -95 79 -243q0 -172 -102 -268.5t-268 -96.5q-149 0 -246 76l-76 -76zM698 353q0 111 -53 188l-427 -424q73 -64 192 -64q137 0 212.5 83t75.5 217zM122 353q0 -110 52 -188
l428 424q-77 64 -192 64q-137 0 -212.5 -83t-75.5 -217zM577 922l-126 -146h-72l93 146h105z" />
    <glyph glyph-name="oslashacute" unicode="&#x1ff;" horiz-adv-x="612" 
d="M32 263q0 121 80 196.5t194 74.5q109 -2 181 -61l57 56l37 -38l-57 -56q54 -71 55 -172q1 -123 -75 -196.5t-198 -73.5q-108 0 -180 58l-59 -58l-37 39l58 56q-56 70 -56 175zM103 263q0 -73 35 -126l300 289q-53 45 -132 47q-84 1 -143.5 -57t-59.5 -153zM508 263
q-2 74 -35 124l-299 -290q54 -43 132 -43q89 0 146 56.5t56 152.5zM473 746l-126 -146h-72l93 146h105z" />
    <glyph glyph-name="dotlessj" unicode="&#x237;" horiz-adv-x="192" 
d="M65 527h69v-313q0 -71 -11.5 -138t-27.5 -112.5t-32 -80t-27 -51.5l-12 -16h-81q5 7 13 19t29 52.5t37.5 83.5t29.5 109t13 132v315z" />
    <glyph glyph-name="circumflex" unicode="&#x2c6;" horiz-adv-x="500" 
d="M249 696l-86 -96h-69l103 146h105l103 -146h-69z" />
    <glyph glyph-name="caron" unicode="&#x2c7;" horiz-adv-x="500" 
d="M163 746l86 -96l87 96h69l-103 -146h-105l-103 146h69z" />
    <glyph glyph-name="breve" unicode="&#x2d8;" horiz-adv-x="500" 
d="M250 670q33 0 53 20t24 56h69q-8 -72 -48.5 -104t-97.5 -32t-97.5 32t-48.5 104h69q4 -36 24 -56t53 -20z" />
    <glyph glyph-name="dotaccent" unicode="&#x2d9;" horiz-adv-x="500" 
d="M206 631v88h88v-88h-88z" />
    <glyph glyph-name="ring" unicode="&#x2da;" horiz-adv-x="500" 
d="M124 716q0 53 37 90t89 37t89.5 -37.5t37.5 -89.5t-37 -89t-90 -37q-52 0 -89 37t-37 89zM179 716q0 -30 20.5 -50.5t50.5 -20.5t51 20.5t21 50.5t-21 51t-51 21t-50.5 -21t-20.5 -51z" />
    <glyph glyph-name="ogonek" unicode="&#x2db;" horiz-adv-x="500" 
d="M241 0h79q-48 -24 -73 -56t-25 -61q0 -30 18 -45.5t43 -15.5q34 0 70 13l-7 -63q-40 -10 -82 -10q-41 0 -76.5 26t-35.5 83q0 40 26.5 74.5t62.5 54.5z" />
    <glyph glyph-name="tilde" unicode="&#x2dc;" horiz-adv-x="500" 
d="M145 612h-56q0 5 1 13t7.5 28.5t16 36t28.5 28.5t44 13q27 0 70 -25t59 -25q19 0 29 13.5t10 27.5l1 14h56q0 -5 -1.5 -13t-8 -29t-15.5 -37t-27 -29t-41 -13q-30 0 -71 27t-57 27q-19 0 -30 -14.5t-13 -28.5z" />
    <glyph glyph-name="hungarumlaut" unicode="&#x2dd;" horiz-adv-x="500" 
d="M308 746l-96 -146h-67l63 146h100zM484 746l-126 -146h-36h-36l93 146h105z" />
    <glyph glyph-name="uni0312" unicode="&#x312;" horiz-adv-x="500" 
d="M275 796l44 -41q-23 -16 -29 -31t-6 -44v-60h-68v60q0 41 11.5 66t47.5 50z" />
    <glyph glyph-name="uni0315" unicode="&#x315;" horiz-adv-x="103" 
d="M44 588l-44 41q23 16 29 31t6 44v60h68v-60q0 -41 -11.5 -66t-47.5 -50z" />
    <glyph glyph-name="uni0326" unicode="&#x326;" horiz-adv-x="500" 
d="M225 -236l-44 41q23 16 29 31t6 44v60h68v-60q0 -41 -11.5 -66t-47.5 -50z" />
    <glyph glyph-name="tonos" unicode="&#x384;" horiz-adv-x="500" 
d="M306 746l-83 -146h-59l50 146h92z" />
    <glyph glyph-name="dieresistonos" unicode="&#x385;" horiz-adv-x="500" 
d="M87 600v88h78v-88h-41h-37zM335 600v88h78v-88h-78zM339 747l-96 -146h-52l63 146h39h46z" />
    <glyph glyph-name="Alphatonos" unicode="&#x386;" horiz-adv-x="604" 
d="M534 0l-73 197h-313l-72 -197h-76l264 706h82l264 -706h-76zM305 621l-133 -360h266zM194 706l-83 -146h-59l50 146h92z" />
    <glyph glyph-name="Epsilontonos" unicode="&#x388;" horiz-adv-x="693" 
d="M142 706l-83 -146h-59l50 146h92zM637 0h-287q-76 0 -117 37.5t-41 111.5v557h467l-14 -65h-379v-257h337l-14 -61h-323v-174q0 -43 20 -63.5t64 -20.5h301z" />
    <glyph glyph-name="Etatonos" unicode="&#x389;" horiz-adv-x="795" 
d="M192 0v706h74v-319h381v319h74v-706h-74v323h-381v-323h-74zM142 706l-83 -146h-59l50 146h92z" />
    <glyph glyph-name="Iotatonos" unicode="&#x38a;" horiz-adv-x="341" 
d="M193 0v706h74v-706h-74zM142 706l-83 -146h-59l50 146h92z" />
    <glyph glyph-name="Omicrontonos" unicode="&#x38c;" horiz-adv-x="858" 
d="M142 706l-83 -146h-59l50 146h92zM79 353q1 173 103 269t267 96q166 0 268 -96.5t102 -268.5t-102 -268.5t-268 -96.5t-268.5 96.5t-101.5 268.5zM161 353q0 -134 75.5 -217t212.5 -83t212.5 83t75.5 217t-75.5 217t-212.5 83t-212.5 -83t-75.5 -217z" />
    <glyph glyph-name="Upsilontonos" unicode="&#x38e;" horiz-adv-x="704" 
d="M142 706l-83 -146h-59l50 146h92zM193 455v251h74v-242q0 -135 162 -135t162 135v242h74v-251q0 -83 -53.5 -131.5t-145.5 -56.5v-267h-74v267q-95 8 -147 55t-52 133z" />
    <glyph glyph-name="Omegatonos" unicode="&#x38f;" horiz-adv-x="857" 
d="M142 706l-83 -146h-59l50 146h92zM443 653q-124 0 -201.5 -74t-77.5 -207q0 -211 206 -312v-60h-302l12 65h163q-161 109 -161 311q0 144 96.5 243t264.5 99t264.5 -99t96.5 -243q0 -202 -161 -311h175l-12 -65h-290v60q206 101 206 312q0 133 -78 207t-201 74z" />
    <glyph glyph-name="iotadieresistonos" unicode="&#x390;" horiz-adv-x="189" 
d="M60 527h69v-527h-69v527zM-62 600v88h78v-88h-41h-37zM186 600v88h78v-88h-78zM190 747l-96 -146h-52l63 146h39h46z" />
    <glyph glyph-name="Alpha" unicode="&#x391;" horiz-adv-x="598" 
d="M528 0l-73 197h-313l-72 -197h-76l264 706h82l264 -706h-76zM299 621l-133 -360h266z" />
    <glyph glyph-name="Beta" unicode="&#x392;" horiz-adv-x="632" 
d="M74 706h285q199 0 199 -186q0 -127 -85 -144q125 -25 125 -174q0 -202 -219 -202h-147q-76 0 -117 37t-41 111v558zM148 374v-226q0 -44 20 -64t64 -20h139q146 0 146 138q0 71 -33 100.5t-104 29.5h-153q-21 0 -37.5 7t-23.5 14.5t-18 20.5zM148 642v-169
q0 -33 22.5 -55t63.5 -22h97q146 0 146 123q0 74 -35 98.5t-102 24.5h-192z" />
    <glyph glyph-name="Gamma" unicode="&#x393;" horiz-adv-x="472" 
d="M232 706h249l-14 -65h-235q-44 0 -64 -20.5t-20 -63.5v-557h-74v557q0 74 41 111.5t117 37.5z" />
    <glyph glyph-name="uni0394" unicode="&#x394;" horiz-adv-x="597" 
d="M-13 0l271 706h78l274 -706h-623zM298 619l-206 -554h413z" />
    <glyph glyph-name="Epsilon" unicode="&#x395;" horiz-adv-x="575" 
d="M519 0h-287q-76 0 -117 37.5t-41 111.5v557h467l-14 -65h-379v-257h337l-14 -61h-323v-174q0 -43 20 -63.5t64 -20.5h301z" />
    <glyph glyph-name="Zeta" unicode="&#x396;" horiz-adv-x="565" 
d="M518 0h-500q0 75 13.5 130.5t48.5 104t76 85t113 90.5q80 60 131.5 114.5t65.5 116.5h-419v65h503q0 -49 -16 -94t-38.5 -79.5t-63 -74t-74.5 -66.5t-89 -68q-78 -58 -124 -119.5t-46 -139.5h419v-65z" />
    <glyph glyph-name="Eta" unicode="&#x397;" horiz-adv-x="677" 
d="M74 0v706h74v-319h381v319h74v-706h-74v323h-381v-323h-74z" />
    <glyph glyph-name="Theta" unicode="&#x398;" horiz-adv-x="819" 
d="M40 353q1 173 103 269t267 96q166 0 268 -96.5t102 -268.5t-102 -268.5t-268 -96.5t-268.5 96.5t-101.5 268.5zM122 353q0 -134 75.5 -217t212.5 -83t212.5 83t75.5 217t-75.5 217t-212.5 83t-212.5 -83t-75.5 -217zM235 388h360l-10 -66h-360z" />
    <glyph glyph-name="Iota" unicode="&#x399;" horiz-adv-x="222" 
d="M74 0v706h74v-706h-74z" />
    <glyph glyph-name="Kappa" unicode="&#x39a;" horiz-adv-x="593" 
d="M74 706h74v-319h31l285 319h87l-286 -319h44q70 0 101 -17.5t57 -83.5l58 -145q19 -47 46.5 -90.5t37.5 -50.5h-90q-11 11 -31 46t-31 64l-49 125q-25 65 -39.5 77.5t-74.5 12.5h-146v-325h-74v706z" />
    <glyph glyph-name="Lambda" unicode="&#x39b;" horiz-adv-x="581" 
d="M512 0l-222 615l-220 -615h-81l261 706h78l264 -706h-80z" />
    <glyph glyph-name="Mu" unicode="&#x39c;" horiz-adv-x="821" 
d="M148 0h-74v706h126l204 -603h1l219 603h123v-706h-74v654h-1l-237 -654h-67l-219 654h-1v-654z" />
    <glyph glyph-name="Nu" unicode="&#x39d;" horiz-adv-x="708" 
d="M634 0h-96l-390 618v-618h-74v706h97l389 -616v616h74v-706z" />
    <glyph glyph-name="Xi" unicode="&#x39e;" horiz-adv-x="605" 
d="M113 387h390l-10 -65h-390zM53 65h509l-10 -65h-509zM67 706h481l-10 -65h-481z" />
    <glyph glyph-name="Omicron" unicode="&#x39f;" horiz-adv-x="819" 
d="M40 353q1 173 103 269t267 96q166 0 268 -96.5t102 -268.5t-102 -268.5t-268 -96.5t-268.5 96.5t-101.5 268.5zM122 353q0 -134 75.5 -217t212.5 -83t212.5 83t75.5 217t-75.5 217t-212.5 83t-212.5 -83t-75.5 -217z" />
    <glyph glyph-name="Pi" unicode="&#x3a0;" horiz-adv-x="667" 
d="M232 706h203q76 0 117 -37.5t41 -111.5v-557h-74v557q0 43 -20.5 63.5t-63.5 20.5h-203q-44 0 -64 -20.5t-20 -63.5v-557h-74v557q0 74 41 111.5t117 37.5z" />
    <glyph glyph-name="Rho" unicode="&#x3a1;" horiz-adv-x="632" 
d="M74 706h335q103 0 156 -59.5t53 -147.5q0 -95 -54.5 -151.5t-164.5 -55.5h-172q-21 0 -37.5 7t-24 14t-17.5 20v-333h-74v706zM148 642v-209q0 -33 21.5 -55t62.5 -22h159q69 0 107.5 38t38.5 104q0 144 -137 144h-252z" />
    <glyph glyph-name="Sigma" unicode="&#x3a3;" horiz-adv-x="538" 
d="M275 391l-238 248v67h477l-14 -65h-374l242 -252l-218 -197q-41 -38 -41 -69q0 -58 74 -58h333l-14 -65h-319q-62 0 -105 30.5t-43 91.5q0 55 63 111z" />
    <glyph glyph-name="Tau" unicode="&#x3a4;" horiz-adv-x="548" 
d="M237 642h-236v64h543l-10 -64h-223v-642h-74v642z" />
    <glyph glyph-name="Upsilon" unicode="&#x3a5;" horiz-adv-x="550" 
d="M39 455v251h74v-242q0 -135 162 -135t162 135v242h74v-251q0 -83 -53.5 -131.5t-145.5 -56.5v-267h-74v267q-95 8 -147 55t-52 133z" />
    <glyph glyph-name="Phi" unicode="&#x3a6;" horiz-adv-x="819" 
d="M373 -25v84q-151 9 -242.5 86t-90.5 208t91.5 208t241.5 85v85h74v-85q150 -8 241.5 -85t91.5 -208t-91 -208t-242 -86v-84h-74zM120 353q0 -96 66 -159t187 -72v462q-121 -9 -187 -72t-66 -159zM700 353q0 96 -66.5 159t-186.5 72v-462q120 9 186.5 72t66.5 159z" />
    <glyph glyph-name="Chi" unicode="&#x3a7;" horiz-adv-x="575" 
d="M329 361l231 -361h-81l-191 297l-190 -297h-83l232 361l-222 345h83l180 -281l181 281h81z" />
    <glyph glyph-name="Psi" unicode="&#x3a8;" horiz-adv-x="794" 
d="M360 706h74v-395q236 15 236 213v182h74v-191q0 -123 -85.5 -192t-224.5 -77v-246h-74v246q-139 8 -224.5 77t-85.5 192v191h74v-182q0 -199 236 -213v395z" />
    <glyph glyph-name="uni03A9" unicode="&#x3a9;" horiz-adv-x="828" 
d="M414 653q-124 0 -201.5 -74t-77.5 -207q0 -211 206 -312v-60h-302l12 65h163q-161 109 -161 311q0 144 96.5 243t264.5 99t264.5 -99t96.5 -243q0 -202 -161 -311h175l-12 -65h-290v60q206 101 206 312q0 133 -78 207t-201 74z" />
    <glyph glyph-name="Iotadieresis" unicode="&#x3aa;" horiz-adv-x="222" 
d="M74 0v706h74v-706h-74zM-32 795v88h88v-88h-41h-47zM166 795v88h88v-88h-88z" />
    <glyph glyph-name="Upsilondieresis" unicode="&#x3ab;" horiz-adv-x="550" 
d="M39 455v251h74v-242q0 -135 162 -135t162 135v242h74v-251q0 -83 -53.5 -131.5t-145.5 -56.5v-267h-74v267q-95 8 -147 55t-52 133zM132 795v88h88v-88h-41h-47zM330 795v88h88v-88h-88z" />
    <glyph glyph-name="alphatonos" unicode="&#x3ac;" horiz-adv-x="640" 
d="M101 263q0 -87 51.5 -148.5t133.5 -61.5q84 0 136 58.5t52 151.5t-52 152t-136 59q-82 0 -133.5 -62t-51.5 -149zM545 263q17 -125 60 -264h-69q-26 93 -33 128q-38 -65 -89.5 -99.5t-133.5 -34.5q-107 0 -178.5 76t-71.5 194t71.5 194.5t178.5 76.5q82 0 133.5 -35
t89.5 -100q7 35 33 128h69q-43 -139 -60 -264zM415 746l-83 -146h-59l50 146h92z" />
    <glyph glyph-name="epsilontonos" unicode="&#x3ad;" horiz-adv-x="468" 
d="M109 153q0 -36 26 -59.5t57 -31t66 -8.5q66 0 156 28l20 -62q-81 -27 -184 -27q-86 0 -149.5 39.5t-63.5 119.5q0 60 32 93t78 44q-40 10 -64.5 40.5t-24.5 65.5q0 70 59.5 104.5t139.5 34.5q99 0 171 -28l-19 -57q-80 24 -143 23q-32 -1 -60.5 -7t-52.5 -25t-24 -48
q0 -34 32 -56.5t91 -22.5h93v-61h-91q-71 0 -108 -26t-37 -73zM373 746l-83 -146h-59l50 146h92z" />
    <glyph glyph-name="etatonos" unicode="&#x3ae;" 
d="M420 -180v505q0 71 -39 109t-109 38t-109 -38t-39 -109v-325h-69v324q0 100 57.5 154.5t159.5 54.5t159.5 -54.5t57.5 -154.5v-504h-69zM385 746l-83 -146h-59l50 146h92z" />
    <glyph glyph-name="iotatonos" unicode="&#x3af;" horiz-adv-x="189" 
d="M60 527h69v-527h-69v527zM209 746l-83 -146h-59l50 146h92z" />
    <glyph glyph-name="upsilondieresistonos" unicode="&#x3b0;" 
d="M420 201v326h69v-325q0 -100 -57.5 -154.5t-159.5 -54.5t-159.5 54.5t-57.5 154.5v325h69v-326q0 -71 39 -109t109 -38t109 38t39 109zM107 600v88h78v-88h-41h-37zM355 600v88h78v-88h-78zM359 747l-96 -146h-52l63 146h41h44z" />
    <glyph glyph-name="alpha" unicode="&#x3b1;" horiz-adv-x="640" 
d="M101 263q0 -87 51.5 -148.5t133.5 -61.5q84 0 136 58.5t52 151.5t-52 152t-136 59q-82 0 -133.5 -62t-51.5 -149zM545 263q17 -125 60 -264h-69q-26 93 -33 128q-38 -65 -89.5 -99.5t-133.5 -34.5q-107 0 -178.5 76t-71.5 194t71.5 194.5t178.5 76.5q82 0 133.5 -35
t89.5 -100q7 35 33 128h69q-43 -139 -60 -264z" />
    <glyph glyph-name="beta" unicode="&#x3b2;" horiz-adv-x="549" 
d="M287 -6q-102 0 -161 76v-250h-66v698q0 58 20 98.5t54 59.5t67 27t70 8q35 0 67.5 -8.5t63 -27.5t49 -56t18.5 -88q0 -43 -25.5 -81.5t-75.5 -51.5q66 -21 103.5 -71.5t37.5 -121.5q0 -95 -61.5 -153t-160.5 -58zM126 518v-307q0 -69 47 -112.5t112 -43.5q67 0 109.5 40
t42.5 110t-42 112.5t-112 42.5h-75l14 61h47q51 0 90 28.5t39 84.5q0 48 -29 82t-98 34q-79 0 -112 -34.5t-33 -97.5z" />
    <glyph glyph-name="gamma" unicode="&#x3b3;" horiz-adv-x="427" 
d="M179 0l-185 527h74l147 -447l144 447h74l-185 -527v-180h-69v180z" />
    <glyph glyph-name="delta" unicode="&#x3b4;" horiz-adv-x="608" 
d="M101 248q0 -89 57 -141.5t146 -52.5t146 52.5t56 141.5q-1 88 -57.5 141t-144.5 54q-84 1 -143.5 -53t-59.5 -142zM285 503q-56 32 -203 140v63h442l-14 -62h-321q60 -46 204 -134q93 -56 138.5 -112.5t45.5 -149.5q1 -116 -75 -185.5t-198 -69.5q-121 0 -197.5 69.5
t-76.5 185.5q0 113 77.5 184.5t177.5 70.5z" />
    <glyph glyph-name="epsilon" unicode="&#x3b5;" horiz-adv-x="468" 
d="M109 153q0 -36 26 -59.5t57 -31t66 -8.5q66 0 156 28l20 -62q-81 -27 -184 -27q-86 0 -149.5 39.5t-63.5 119.5q0 60 32 93t78 44q-40 10 -64.5 40.5t-24.5 65.5q0 70 59.5 104.5t139.5 34.5q99 0 171 -28l-19 -57q-80 24 -143 23q-32 -1 -60.5 -7t-52.5 -25t-24 -48
q0 -34 32 -56.5t91 -22.5h93v-61h-91q-71 0 -108 -26t-37 -73z" />
    <glyph glyph-name="zeta" unicode="&#x3b6;" horiz-adv-x="458" 
d="M129 644v62h329l-10 -53q-62 -37 -119.5 -85t-107 -106t-79.5 -125t-30 -131q0 -68 33 -101.5t104 -38.5q43 -3 73 -9t59.5 -19t44.5 -37.5t15 -61.5q0 -44 -30 -73t-71.5 -39.5t-92.5 -10.5l13 64q111 0 111 59q0 32 -29 45t-93 16q-209 11 -209 206q0 83 47.5 172
t110.5 154t134 112h-203z" />
    <glyph glyph-name="eta" unicode="&#x3b7;" 
d="M420 -180v505q0 71 -39 109t-109 38t-109 -38t-39 -109v-325h-69v324q0 100 57.5 154.5t159.5 54.5t159.5 -54.5t57.5 -154.5v-504h-69z" />
    <glyph glyph-name="theta" unicode="&#x3b8;" horiz-adv-x="591" 
d="M35 352q0 175 71 267t189 92t189.5 -92t71.5 -267t-71.5 -267t-189.5 -92t-189 92t-71 267zM295 54q85 0 134.5 74.5t54.5 196.5h-378q5 -122 54.5 -196.5t134.5 -74.5zM295 650q-84 0 -133 -72t-55 -191h377q-7 119 -56 191t-133 72z" />
    <glyph glyph-name="iota" unicode="&#x3b9;" horiz-adv-x="189" 
d="M60 527h69v-527h-69v527z" />
    <glyph glyph-name="kappa" unicode="&#x3ba;" horiz-adv-x="452" 
d="M60 527h70v-230h22l203 230h78l-196 -230h22q51 0 72.5 -16.5t40.5 -67.5l29 -79q35 -94 67 -134h-83q-14 21 -37 84l-32 89q-10 28 -16 39.5t-19.5 20t-36.5 8.5h-114v-241h-70v527z" />
    <glyph glyph-name="lambda" unicode="&#x3bb;" horiz-adv-x="459" 
d="M123 706h74l252 -706h-74l-145 427l-146 -427h-74l185 514z" />
    <glyph glyph-name="uni03BC" unicode="&#x3bc;" horiz-adv-x="549" 
d="M60 -180v707h69v-326q0 -71 39 -109t109 -38t109 38t39 109v326h69v-325q0 -100 -57.5 -154.5t-159.5 -54.5q-95 0 -148 59v-232h-69z" />
    <glyph glyph-name="nu" unicode="&#x3bd;" horiz-adv-x="417" 
d="M178 0l-189 527h74l147 -440l144 440h74l-189 -527h-61z" />
    <glyph glyph-name="xi" unicode="&#x3be;" horiz-adv-x="465" 
d="M424 696l-14 -62q-46 10 -92 10q-177 0 -177 -90q0 -84 170 -84h79l-14 -61q-110 0 -185 -52t-75 -142q0 -69 44 -98.5t120 -37.5q79 -9 124.5 -38t45.5 -89q0 -67 -64 -101.5t-155 -34.5l14 62q58 0 97 19t39 49q0 32 -23.5 48.5t-78.5 21.5q-112 10 -173 59.5
t-61 136.5q0 74 46 133t125 85q-66 9 -106 41.5t-40 82.5q0 42 21 73t56 47.5t72.5 24t77.5 7.5q75 0 127 -10z" />
    <glyph glyph-name="omicron" unicode="&#x3bf;" horiz-adv-x="608" 
d="M30 263q0 121 80 196.5t194 74.5q121 -1 196.5 -74.5t76.5 -196.5t-75 -196.5t-198 -73.5q-121 0 -197.5 73.5t-76.5 196.5zM101 263q0 -96 57 -152.5t146 -56.5t146 56.5t56 152.5q-1 95 -57.5 152t-144.5 58q-84 1 -143.5 -57t-59.5 -153z" />
    <glyph glyph-name="pi" unicode="&#x3c0;" horiz-adv-x="594" 
d="M583 465h-89v-465h-69v465h-256v-465h-69v465h-96v62h593z" />
    <glyph glyph-name="rho" unicode="&#x3c1;" horiz-adv-x="624" 
d="M45 -180v443q0 122 76 196.5t200 74.5q116 0 194.5 -77t78.5 -194q0 -121 -75.5 -195.5t-187.5 -74.5q-70 0 -126.5 29t-90.5 80v-282h-69zM116 263q0 -93 56.5 -151t148.5 -58t147 59t55 150q0 87 -56 148.5t-146 61.5q-92 0 -148.5 -58.5t-56.5 -151.5z" />
    <glyph glyph-name="sigma1" unicode="&#x3c2;" horiz-adv-x="470" 
d="M447 508l-21 -64q-61 28 -109 28q-89 0 -152.5 -60.5t-63.5 -145.5q0 -42 12 -72t36.5 -49t49 -29.5t62.5 -20.5q29 -8 48.5 -14t43.5 -17.5t38 -25t24 -34.5t10 -47q0 -69 -56 -105t-128 -36q-31 0 -72 6l17 62q31 -6 58 -6q50 0 80 22t30 54q0 19 -9.5 33t-30 23
t-30.5 12t-32 8q-222 50 -222 227q0 124 82.5 200.5t206.5 76.5q65 0 128 -26z" />
    <glyph glyph-name="sigma" unicode="&#x3c3;" horiz-adv-x="657" 
d="M30 263q0 121 80 196.5t194 74.5q29 0 66 -7h268l-14 -62h-129q80 -74 82 -202q1 -123 -75 -196.5t-198 -73.5q-121 0 -197.5 73.5t-76.5 196.5zM101 263q0 -96 57 -152.5t146 -56.5t146 56.5t56 152.5q-1 95 -57.5 152t-144.5 58q-84 1 -143.5 -57t-59.5 -153z" />
    <glyph glyph-name="tau" unicode="&#x3c4;" horiz-adv-x="430" 
d="M180 467h-176v60h419l-9 -60h-165v-467h-69v467z" />
    <glyph glyph-name="upsilon" unicode="&#x3c5;" 
d="M420 201v326h69v-325q0 -100 -57.5 -154.5t-159.5 -54.5t-159.5 54.5t-57.5 154.5v325h69v-326q0 -71 39 -109t109 -38t109 38t39 109z" />
    <glyph glyph-name="phi" unicode="&#x3c6;" horiz-adv-x="654" 
d="M231 535l-14 -70q-53 -24 -84.5 -77.5t-31.5 -117.5q0 -93 51.5 -149t135.5 -65v310q0 84 37.5 126t101.5 42q88 0 141.5 -65.5t54.5 -185.5q1 -124 -73 -200.5t-193 -87.5v-175h-69v174q-116 9 -187 82t-71 194q0 94 59.5 171t141.5 94zM357 365v-309q87 10 141.5 68
t53.5 159q-1 94 -35 142t-91 48q-69 0 -69 -108z" />
    <glyph glyph-name="chi" unicode="&#x3c7;" horiz-adv-x="462" 
d="M194 178l-179 349h73l143 -281l143 281h73l-180 -349l185 -358h-73l-148 290l-148 -290h-73z" />
    <glyph glyph-name="psi" unicode="&#x3c8;" horiz-adv-x="644" 
d="M288 527h69v-472q78 7 120.5 44.5t42.5 101.5v326h69v-325q0 -93 -61 -146.5t-171 -61.5v-174h-69v174q-111 7 -172 60.5t-61 147.5v325h69v-326q0 -65 42.5 -102t121.5 -44v472z" />
    <glyph glyph-name="omega" unicode="&#x3c9;" horiz-adv-x="803" 
d="M404 97h-5q-21 -49 -63 -76.5t-97 -27.5q-90 0 -142 68t-52 180q0 65 15 129.5t25.5 89t31.5 67.5h74l-7 -14l-9.5 -19t-10.5 -22.5t-11.5 -28.5t-11 -31t-10.5 -36.5t-7.5 -39.5t-5.5 -45t-2 -48q0 -88 32 -138.5t92 -50.5q56 0 91.5 44t35.5 116v206h69v-206
q0 -72 35.5 -116t91.5 -44q60 0 92 50.5t32 138.5q0 24 -2 48t-5.5 45t-7.5 39.5t-10.5 36.5t-11 31t-11.5 28.5t-10.5 22.5l-9.5 19l-7 14h74q21 -43 31.5 -67.5t25.5 -89t15 -129.5q0 -112 -52 -180t-142 -68q-55 0 -97 27.5t-63 76.5z" />
    <glyph glyph-name="iotadieresis" unicode="&#x3ca;" horiz-adv-x="189" 
d="M60 527h69v-527h-69v527zM-26 631v88h88v-88h-41h-47zM127 631v88h88v-88h-88z" />
    <glyph glyph-name="upsilondieresis" unicode="&#x3cb;" 
d="M420 201v326h69v-325q0 -100 -57.5 -154.5t-159.5 -54.5t-159.5 54.5t-57.5 154.5v325h69v-326q0 -71 39 -109t109 -38t109 38t39 109zM129 631v88h88v-88h-41h-47zM327 631v88h88v-88h-88z" />
    <glyph glyph-name="omicrontonos" unicode="&#x3cc;" horiz-adv-x="608" 
d="M30 263q0 121 80 196.5t194 74.5q121 -1 196.5 -74.5t76.5 -196.5t-75 -196.5t-198 -73.5q-121 0 -197.5 73.5t-76.5 196.5zM101 263q0 -96 57 -152.5t146 -56.5t146 56.5t56 152.5q-1 95 -57.5 152t-144.5 58q-84 1 -143.5 -57t-59.5 -153zM418 746l-83 -146h-59l50 146
h92z" />
    <glyph glyph-name="upsilontonos" unicode="&#x3cd;" 
d="M420 201v326h69v-325q0 -100 -57.5 -154.5t-159.5 -54.5t-159.5 54.5t-57.5 154.5v325h69v-326q0 -71 39 -109t109 -38t109 38t39 109zM386 746l-83 -146h-59l50 146h92z" />
    <glyph glyph-name="omegatonos" unicode="&#x3ce;" horiz-adv-x="803" 
d="M404 97h-5q-21 -49 -63 -76.5t-97 -27.5q-90 0 -142 68t-52 180q0 65 15 129.5t25.5 89t31.5 67.5h74l-7 -14l-9.5 -19t-10.5 -22.5t-11.5 -28.5t-11 -31t-10.5 -36.5t-7.5 -39.5t-5.5 -45t-2 -48q0 -88 32 -138.5t92 -50.5q56 0 91.5 44t35.5 116v206h69v-206
q0 -72 35.5 -116t91.5 -44q60 0 92 50.5t32 138.5q0 24 -2 48t-5.5 45t-7.5 39.5t-10.5 36.5t-11 31t-11.5 28.5t-10.5 22.5l-9.5 19l-7 14h74q21 -43 31.5 -67.5t25.5 -89t15 -129.5q0 -112 -52 -180t-142 -68q-55 0 -97 27.5t-63 76.5zM515 746l-83 -146h-59l50 146h92z
" />
    <glyph glyph-name="afii10023" unicode="&#x401;" horiz-adv-x="575" 
d="M519 0h-287q-76 0 -117 37.5t-41 111.5v557h467l-14 -65h-379v-257h337l-14 -61h-323v-174q0 -43 20 -63.5t64 -20.5h301zM162 795v88h88v-88h-41h-47zM360 795v88h88v-88h-88z" />
    <glyph glyph-name="afii10051" unicode="&#x402;" horiz-adv-x="772" 
d="M659 224q0 176 -168 176q-56 0 -112 -21.5t-89 -61.5v-317h-74v642h-216v64h523l-10 -64h-223v-246q36 27 90.5 47.5t113.5 20.5q113 0 176 -62.5t63 -179.5q0 -116 -66 -173t-172 -57q-34 0 -74 6l14 66q33 -7 56 -7q78 0 123 41t45 126z" />
    <glyph glyph-name="afii10052" unicode="&#x403;" horiz-adv-x="472" 
d="M232 706h249l-14 -65h-235q-44 0 -64 -20.5t-20 -63.5v-557h-74v557q0 74 41 111.5t117 37.5zM445 910l-126 -146h-72l93 146h105z" />
    <glyph glyph-name="afii10053" unicode="&#x404;" horiz-adv-x="601" 
d="M410 653q-129 0 -203.5 -74t-83.5 -195h354l-14 -61h-340q8 -122 83 -196t204 -74q73 0 152 43l-6 -79q-52 -29 -146 -29q-166 0 -268.5 96.5t-101.5 268.5q1 173 103 269t267 96q94 0 146 -29l6 -79q-79 43 -152 43z" />
    <glyph glyph-name="afii10054" unicode="&#x405;" horiz-adv-x="534" 
d="M469 671l-28 -62q-74 44 -174 44q-151 0 -151 -101q0 -10 2 -19.5t7 -18t8.5 -14.5t13.5 -13.5t15 -11.5t18.5 -11t18.5 -9.5t21.5 -10.5t20.5 -10l82 -39q89 -43 130.5 -89t41.5 -123q0 -91 -66.5 -143t-166.5 -52q-111 0 -222 52l29 64q97 -51 193 -51q151 0 151 127
q0 55 -30.5 87.5t-94.5 63.5l-81 39q-88 42 -130.5 80t-42.5 102q0 84 67 125t166 41q109 0 202 -47z" />
    <glyph glyph-name="afii10055" unicode="&#x406;" horiz-adv-x="222" 
d="M74 0v706h74v-706h-74z" />
    <glyph glyph-name="afii10056" unicode="&#x407;" horiz-adv-x="222" 
d="M74 0v706h74v-706h-74zM-32 795v88h88v-88h-41h-47zM166 795v88h88v-88h-88z" />
    <glyph glyph-name="afii10057" unicode="&#x408;" horiz-adv-x="234" 
d="M96 706h74v-342q0 -94 -25 -179t-72 -185h-83q34 66 52.5 108.5t36 115.5t17.5 150v332z" />
    <glyph glyph-name="afii10058" unicode="&#x409;" horiz-adv-x="1017" 
d="M178 557v-409q0 -73 -40.5 -110.5t-115.5 -37.5h-2v64h2q82 0 82 84v409q0 74 41 111.5t117 37.5h281v-291h222q65 0 110 -18t67.5 -49.5t31.5 -64t9 -71.5q0 -212 -219 -212h-137q-76 0 -117 37t-41 111v493h-207q-44 0 -64 -20.5t-20 -63.5zM765 351h-222v-203
q0 -44 20.5 -64t63.5 -20h129q146 0 146 148q0 77 -33 108t-104 31z" />
    <glyph glyph-name="afii10059" unicode="&#x40a;" horiz-adv-x="1017" 
d="M543 706v-291h222q65 0 110 -18t67.5 -49.5t31.5 -64t9 -71.5q0 -212 -219 -212h-137q-76 0 -117 37t-41 111v203h-291v-351h-74v706h74v-291h291v291h74zM765 351h-222v-203q0 -44 20.5 -64t63.5 -20h129q146 0 146 148q0 77 -33 108t-104 31z" />
    <glyph glyph-name="afii10060" unicode="&#x40b;" horiz-adv-x="771" 
d="M216 0v642h-216v64h523l-10 -64h-223v-249q56 71 181 71q117 0 179.5 -54.5t62.5 -155.5v-254h-74v245q0 155 -162 155q-78 0 -127.5 -33t-59.5 -92v-275h-74z" />
    <glyph glyph-name="afii10061" unicode="&#x40c;" horiz-adv-x="593" 
d="M189 387l178 217q49 60 82.5 81t90.5 21h43v-64h-34q-65 0 -108 -52l-166 -203h34q70 0 101 -17.5t57 -83.5l58 -145q19 -47 46.5 -90.5t37.5 -50.5h-90q-11 11 -31 46t-31 64l-49 125q-25 65 -39.5 77.5t-74.5 12.5h-146v-325h-74v706h74v-319h41zM425 925l-126 -146
h-72l93 146h105z" />
    <glyph glyph-name="afii10062" unicode="&#x40e;" horiz-adv-x="671" 
d="M326 774q-48 0 -86 24.5t-53 74.5l63 27q13 -66 76 -66t76 66l63 -27q-15 -50 -53 -74.5t-86 -24.5zM69 443v263h74v-253q0 -156 188 -156q100 0 146 45.5t46 107.5v256h74v-401q0 -87 -25 -151.5t-67.5 -99t-90.5 -50.5t-102 -16q-92 0 -177 20l19 67q85 -24 156 -23
q37 0 70.5 11t67.5 36.5t54.5 79t20.5 129.5q-70 -76 -203 -76q-113 0 -182 52t-69 159z" />
    <glyph glyph-name="afii10145" unicode="&#x40f;" horiz-adv-x="667" 
d="M593 706v-557q0 -74 -41 -111.5t-117 -37.5h-65v-174h-73v174h-65q-76 0 -117 37.5t-41 111.5v557h74v-557q0 -43 20 -63.5t64 -20.5h203q43 0 63.5 20.5t20.5 63.5v557h74z" />
    <glyph glyph-name="afii10017" unicode="&#x410;" horiz-adv-x="598" 
d="M528 0l-73 197h-313l-72 -197h-76l264 706h82l264 -706h-76zM299 621l-133 -360h266z" />
    <glyph glyph-name="afii10018" unicode="&#x411;" horiz-adv-x="622" 
d="M74 706h447l-14 -65h-359v-226h222q65 0 110 -18t67.5 -49.5t31.5 -64t9 -71.5q0 -212 -219 -212h-137q-76 0 -117 37t-41 111v558zM370 351h-222v-203q0 -44 20 -64t64 -20h129q146 0 146 148q0 77 -33 108t-104 31z" />
    <glyph glyph-name="afii10019" unicode="&#x412;" horiz-adv-x="632" 
d="M74 706h285q199 0 199 -186q0 -127 -85 -144q125 -25 125 -174q0 -202 -219 -202h-147q-76 0 -117 37t-41 111v558zM148 374v-226q0 -44 20 -64t64 -20h139q146 0 146 138q0 71 -33 100.5t-104 29.5h-153q-21 0 -37.5 7t-23.5 14.5t-18 20.5zM148 642v-169
q0 -33 22.5 -55t63.5 -22h97q146 0 146 123q0 74 -35 98.5t-102 24.5h-192z" />
    <glyph glyph-name="afii10020" unicode="&#x413;" horiz-adv-x="472" 
d="M232 706h249l-14 -65h-235q-44 0 -64 -20.5t-20 -63.5v-557h-74v557q0 74 41 111.5t117 37.5z" />
    <glyph glyph-name="afii10021" unicode="&#x414;" horiz-adv-x="687" 
d="M256 557q0 -131 -16 -230.5t-33 -145t-50 -116.5h363v576h-180q-44 0 -64 -20.5t-20 -63.5zM59 65h15q28 53 40 80t31.5 87.5t28 140t8.5 184.5q0 74 41 111.5t117 37.5h254v-641h6q23 0 38 -16t15 -39v-164h-74v126q0 28 -28 28h-443q-28 0 -28 -28v-126h-74v164
q0 23 15 39t38 16z" />
    <glyph glyph-name="afii10022" unicode="&#x415;" horiz-adv-x="575" 
d="M519 0h-287q-76 0 -117 37.5t-41 111.5v557h467l-14 -65h-379v-257h337l-14 -61h-323v-174q0 -43 20 -63.5t64 -20.5h301z" />
    <glyph glyph-name="afii10024" unicode="&#x416;" horiz-adv-x="864" 
d="M480 387l158 217q44 61 80.5 81.5t100.5 20.5h35v-64h-34q-71 0 -108 -52l-146 -203h14q70 0 101 -17.5t57 -83.5l58 -145q19 -47 46.5 -90.5t37.5 -50.5h-90q-11 11 -31 46t-31 64l-49 125q-25 65 -39.5 77.5t-74.5 12.5h-96v-325h-74v325h-96q-60 0 -74.5 -12.5
t-39.5 -77.5l-49 -125q-11 -29 -31 -64t-31 -46h-90q10 7 37.5 50.5t46.5 90.5l58 145q26 66 57 83.5t101 17.5h14l-146 203q-37 52 -108 52h-34v64h34q65 0 101.5 -20.5t80.5 -81.5l158 -217h11v319h74v-319h11z" />
    <glyph glyph-name="afii10025" unicode="&#x417;" horiz-adv-x="573" 
d="M459 199q0 70 -47.5 109t-139.5 39h-108l13 64h97q76 0 117.5 34.5t41.5 86.5q0 34 -17.5 59t-46 38t-57 19t-58.5 6q-90 1 -191 -33l-21 60q93 37 216 37q102 0 177 -46.5t75 -140.5q0 -47 -33 -88.5t-87 -54.5q62 -14 105.5 -59t43.5 -126q0 -56 -24 -99t-64 -67.5
t-86.5 -36.5t-97.5 -12q-131 0 -233 37l21 65q47 -14 65.5 -19.5t61 -12t83.5 -6.5q33 0 64 7.5t61.5 23t49.5 45.5t19 71z" />
    <glyph glyph-name="afii10026" unicode="&#x418;" horiz-adv-x="708" 
d="M170 0h-96v706h74v-616l389 616h97v-706h-74v618z" />
    <glyph glyph-name="afii10027" unicode="&#x419;" horiz-adv-x="708" 
d="M359 774q-48 0 -86 24.5t-53 74.5l63 27q13 -66 76 -66t76 66l63 -27q-15 -50 -53 -74.5t-86 -24.5zM170 0h-96v706h74v-616l389 616h97v-706h-74v618z" />
    <glyph glyph-name="afii10028" unicode="&#x41a;" horiz-adv-x="593" 
d="M189 387l178 217q49 60 82.5 81t90.5 21h43v-64h-34q-65 0 -108 -52l-166 -203h34q70 0 101 -17.5t57 -83.5l58 -145q19 -47 46.5 -90.5t37.5 -50.5h-90q-11 11 -31 46t-31 64l-49 125q-25 65 -39.5 77.5t-74.5 12.5h-146v-325h-74v706h74v-319h41z" />
    <glyph glyph-name="afii10029" unicode="&#x41b;" horiz-adv-x="617" 
d="M178 557v-409q0 -73 -40 -110.5t-114 -37.5h-4v64h4q80 0 80 84v409q0 74 41 111.5t117 37.5h281v-706h-74v641h-207q-44 0 -64 -20.5t-20 -63.5z" />
    <glyph glyph-name="afii10030" unicode="&#x41c;" horiz-adv-x="821" 
d="M148 0h-74v706h126l204 -603h1l219 603h123v-706h-74v654h-1l-237 -654h-67l-219 654h-1v-654z" />
    <glyph glyph-name="afii10031" unicode="&#x41d;" horiz-adv-x="677" 
d="M74 0v706h74v-319h381v319h74v-706h-74v323h-381v-323h-74z" />
    <glyph glyph-name="afii10032" unicode="&#x41e;" horiz-adv-x="819" 
d="M40 353q1 173 103 269t267 96q166 0 268 -96.5t102 -268.5t-102 -268.5t-268 -96.5t-268.5 96.5t-101.5 268.5zM122 353q0 -134 75.5 -217t212.5 -83t212.5 83t75.5 217t-75.5 217t-212.5 83t-212.5 -83t-75.5 -217z" />
    <glyph glyph-name="afii10033" unicode="&#x41f;" horiz-adv-x="667" 
d="M232 706h203q76 0 117 -37.5t41 -111.5v-557h-74v557q0 43 -20.5 63.5t-63.5 20.5h-203q-44 0 -64 -20.5t-20 -63.5v-557h-74v557q0 74 41 111.5t117 37.5z" />
    <glyph glyph-name="afii10034" unicode="&#x420;" horiz-adv-x="632" 
d="M74 706h335q103 0 156 -59.5t53 -147.5q0 -95 -54.5 -151.5t-164.5 -55.5h-172q-21 0 -37.5 7t-24 14t-17.5 20v-333h-74v706zM148 642v-209q0 -33 21.5 -55t62.5 -22h159q69 0 107.5 38t38.5 104q0 144 -137 144h-252z" />
    <glyph glyph-name="afii10035" unicode="&#x421;" horiz-adv-x="600" 
d="M40 353q1 173 103 269t267 96q98 0 177 -41l-34 -60q-65 36 -143 36q-137 0 -212.5 -83t-75.5 -217t75.5 -217t212.5 -83q73 0 152 43l-6 -79q-52 -29 -146 -29q-166 0 -268.5 96.5t-101.5 268.5z" />
    <glyph glyph-name="afii10036" unicode="&#x422;" horiz-adv-x="548" 
d="M237 642h-236v64h543l-10 -64h-223v-642h-74v642z" />
    <glyph glyph-name="afii10037" unicode="&#x423;" horiz-adv-x="671" 
d="M69 443v263h74v-253q0 -156 188 -156q100 0 146 45.5t46 107.5v256h74v-401q0 -87 -25 -151.5t-67.5 -99t-90.5 -50.5t-102 -16q-92 0 -177 20l19 67q85 -24 156 -23q37 0 70.5 11t67.5 36.5t54.5 79t20.5 129.5q-70 -76 -203 -76q-113 0 -182 52t-69 159z" />
    <glyph glyph-name="afii10038" unicode="&#x424;" horiz-adv-x="799" 
d="M363 0v84q-147 9 -235.5 79t-87.5 190t89 190.5t234 78.5v84h74v-84q146 -8 234.5 -79t88.5 -190q0 -120 -88.5 -190.5t-234.5 -78.5v-84h-74zM680 353q0 85 -63.5 141t-179.5 64v-411q116 8 179.5 64.5t63.5 141.5zM120 353q0 -85 63.5 -141.5t179.5 -64.5v411
q-116 -8 -179.5 -64t-63.5 -141z" />
    <glyph glyph-name="afii10039" unicode="&#x425;" horiz-adv-x="575" 
d="M288 297l-190 -297h-83l232 361l-222 345h83l180 -281l181 281h81l-221 -345q39 -61 116 -180.5t115 -180.5h-81z" />
    <glyph glyph-name="afii10040" unicode="&#x426;" horiz-adv-x="686" 
d="M583 -174v146q0 28 -28 28h-323q-76 0 -117 37.5t-41 111.5v557h74v-557q0 -43 20 -63.5t64 -20.5h287v641h74v-642h11q23 0 38 -16t15 -39v-183h-74z" />
    <glyph glyph-name="afii10041" unicode="&#x427;" horiz-adv-x="584" 
d="M510 706v-706h-74v311q-74 -49 -168 -49q-105 0 -160 54.5t-55 155.5v234h74v-229q0 -75 33 -113t106 -38q110 0 170 64v316h74z" />
    <glyph glyph-name="afii10042" unicode="&#x428;" horiz-adv-x="842" 
d="M768 706v-557q0 -74 -41 -111.5t-117 -37.5h-378q-76 0 -117 37.5t-41 111.5v557h74v-557q0 -43 20 -63.5t64 -20.5h152v641h74v-641h152q44 0 64 20.5t20 63.5v557h74z" />
    <glyph glyph-name="afii10043" unicode="&#x429;" horiz-adv-x="852" 
d="M758 -174v146q0 28 -28 28h-498q-76 0 -117 37.5t-41 111.5v557h74v-557q0 -43 20 -63.5t64 -20.5h152v641h74v-641h236v641h74v-642h11q23 0 38 -16t15 -39v-183h-74z" />
    <glyph glyph-name="afii10044" unicode="&#x42a;" horiz-adv-x="702" 
d="M0 641l14 65h214v-291h222q65 0 110 -18t67.5 -49.5t31.5 -64t9 -71.5q0 -212 -219 -212h-137q-76 0 -117 37t-41 111v493h-154zM450 351h-222v-203q0 -44 20 -64t64 -20h129q146 0 146 148q0 77 -33 108t-104 31z" />
    <glyph glyph-name="afii10045" unicode="&#x42b;" horiz-adv-x="826" 
d="M148 706v-291h222q65 0 110 -18t67.5 -49.5t31.5 -64t9 -71.5q0 -212 -219 -212h-137q-76 0 -117 37t-41 111v558h74zM370 351h-222v-203q0 -44 20 -64t64 -20h129q146 0 146 148q0 77 -33 108t-104 31zM678 0v706h74v-706h-74z" />
    <glyph glyph-name="afii10046" unicode="&#x42c;" horiz-adv-x="622" 
d="M148 706v-291h222q65 0 110 -18t67.5 -49.5t31.5 -64t9 -71.5q0 -212 -219 -212h-137q-76 0 -117 37t-41 111v558h74zM370 351h-222v-203q0 -44 20 -64t64 -20h129q146 0 146 148q0 77 -33 108t-104 31z" />
    <glyph glyph-name="afii10047" unicode="&#x42d;" horiz-adv-x="601" 
d="M191 653q-73 0 -152 -43l6 79q52 29 146 29q165 0 267 -96t103 -269q1 -172 -101.5 -268.5t-268.5 -96.5q-94 0 -146 29l-6 79q79 -43 152 -43q129 0 204 74t83 196h-354l14 61h340q-9 121 -84 195t-203 74z" />
    <glyph glyph-name="afii10048" unicode="&#x42e;" horiz-adv-x="1089" 
d="M680 -12q-158 0 -260 88.5t-110 246.5h-162v-323h-74v706h74v-319h163q12 157 112 244t257 87q166 0 268 -96.5t102 -268.5t-102 -268.5t-268 -96.5zM392 353q0 -134 75.5 -217t212.5 -83t212.5 83t75.5 217t-75.5 217t-212.5 83t-212.5 -83t-75.5 -217z" />
    <glyph glyph-name="afii10049" unicode="&#x42f;" horiz-adv-x="672" 
d="M258 706h340v-706h-74v325q-2 -2 -6 -9.5t-6 -10t-8 -8t-13 -7.5t-19 -4t-27 -2l-86 -1q-33 0 -59 -5.5t-46 -19t-33 -25.5t-25.5 -36.5t-18.5 -39.5t-18 -48t-18 -49q-18 -47 -31 -60h-91q18 21 48 87q6 14 18 47.5t21.5 54t25.5 46t39.5 40t54.5 18.5q-77 -2 -131 56.5
t-54 144.5q0 89 54.5 150.5t162.5 61.5zM524 424v218h-251q-151 0 -151 -149q0 -67 38.5 -106.5t107.5 -39.5h172q41 0 62.5 22t21.5 55z" />
    <glyph glyph-name="afii10065" unicode="&#x430;" horiz-adv-x="627" 
d="M579 263v-263h-69v102q-34 -51 -90.5 -80t-126.5 -29q-112 0 -187.5 74.5t-75.5 195.5q0 117 78.5 194t194.5 77q124 0 200 -74.5t76 -196.5zM508 263q0 93 -56.5 151.5t-148.5 58.5q-90 0 -146 -61.5t-56 -148.5q0 -91 55 -150t147 -59t148.5 58t56.5 151z" />
    <glyph glyph-name="afii10066" unicode="&#x431;" horiz-adv-x="612" 
d="M104 260q0 -91 56.5 -148.5t148.5 -57.5q90 0 146 60.5t56 145.5q0 90 -54.5 148t-147.5 58q-92 0 -148.5 -57.5t-56.5 -148.5zM33 285v65q0 198 79 275q71 71 211 71q114 0 125 27h75q-19 -88 -184 -88q-114 0 -173.5 -47t-63.5 -164q69 103 217 103q112 0 187.5 -74
t75.5 -193q0 -115 -78.5 -191t-194.5 -76q-131 0 -203.5 82t-72.5 210z" />
    <glyph glyph-name="afii10067" unicode="&#x432;" horiz-adv-x="535" 
d="M58 527h237q166 0 166 -139q0 -95 -85 -108q125 -18 125 -130q0 -150 -171 -150h-124q-73 0 -110.5 31.5t-37.5 88.5v407zM127 264v-138q0 -66 74 -66h124q105 0 105 92q0 47 -23.5 66.5t-75.5 19.5h-129q-33 0 -48 5.5t-27 20.5zM127 467v-109q0 -25 18 -42.5t58 -17.5
h90q97 0 97 85q0 51 -26 67.5t-77 16.5h-160z" />
    <glyph glyph-name="afii10068" unicode="&#x433;" horiz-adv-x="379" 
d="M58 0v417q0 54 36 82t95 28h195l-13 -61h-182q-32 0 -46.5 -14.5t-14.5 -46.5v-405h-70z" />
    <glyph glyph-name="afii10069" unicode="&#x434;" horiz-adv-x="551" 
d="M473 527v-467h2q22 0 36 -16t14 -39v-139h-68v106q0 28 -28 28h-332q-28 0 -28 -28v-106h-68v139q0 24 14.5 39.5t37.5 15.5h5q74 150 74 357q0 54 36 82t95 28h210zM132 60h272v407h-141q-63 0 -63 -62q0 -192 -68 -345z" />
    <glyph glyph-name="afii10070" unicode="&#x435;" horiz-adv-x="570" 
d="M415 84l-5 -70q-45 -21 -111 -21q-120 0 -194.5 76t-74.5 196q0 117 76 193t189 76q117 0 183.5 -77.5t66.5 -202.5h-445q3 -98 59.5 -149t144.5 -51q63 0 111 30zM295 473q-73 0 -123.5 -42.5t-66.5 -115.5h366q-10 76 -56 117t-120 41z" />
    <glyph glyph-name="afii10072" unicode="&#x436;" horiz-adv-x="655" 
d="M647 527l-10 -56h-11q-53 0 -81 -37l-103 -137h15q51 0 72.5 -16.5t40.5 -67.5l29 -79q35 -94 67 -134h-83q-14 21 -37 84l-32 89q-10 28 -16 39.5t-19.5 20t-36.5 8.5h-80v-241h-69v241h-80q-33 0 -45 -14t-27 -54l-32 -89q-23 -63 -37 -84h-83q32 40 67 134l29 79
q19 51 40.5 67.5t72.5 16.5h15l-103 137q-28 37 -81 37h-11l-10 56h15q47 0 81 -16t68 -58l118 -156h3v230h69v-230h3l118 156q34 42 68 58t81 16h15z" />
    <glyph glyph-name="afii10073" unicode="&#x437;" horiz-adv-x="468" 
d="M359 153q0 47 -37 73t-108 26h-91v61h93q59 0 91 22.5t32 56.5q0 29 -24 48t-52.5 25t-60.5 7q-63 1 -143 -23l-19 57q72 28 171 28q80 0 139.5 -34.5t59.5 -104.5q0 -35 -24.5 -65.5t-64.5 -40.5q46 -11 78 -44t32 -93q0 -80 -63.5 -119.5t-149.5 -39.5q-103 0 -184 27
l20 62q90 -28 156 -28q35 1 66 8.5t57 31t26 59.5z" />
    <glyph glyph-name="afii10074" unicode="&#x438;" horiz-adv-x="550" 
d="M144 0h-86v527h69v-442l280 442h85v-527h-68v442z" />
    <glyph glyph-name="afii10075" unicode="&#x439;" horiz-adv-x="550" 
d="M144 0h-86v527h69v-442l280 442h85v-527h-68v442zM283 603q-48 0 -86 24.5t-53 74.5l63 27q13 -66 76 -66t76 66l63 -27q-15 -50 -53 -74.5t-86 -24.5z" />
    <glyph glyph-name="afii10076" unicode="&#x43a;" horiz-adv-x="456" 
d="M444 527l-9 -56h-12q-49 0 -78 -37l-113 -137h26q51 0 72.5 -16.5t40.5 -67.5l29 -79q35 -94 67 -134h-83q-14 21 -37 84l-32 89q-10 28 -16 39.5t-19.5 20t-36.5 8.5h-115v-241h-69v527h69v-230h24l128 156q34 42 68 58t81 16h15z" />
    <glyph glyph-name="afii10077" unicode="&#x43b;" horiz-adv-x="507" 
d="M146 405v-295q0 -53 -35.5 -81.5t-93.5 -28.5h-2v60h2q61 0 61 62v295q0 54 36 82t95 28h240v-527h-68v467h-172q-63 0 -63 -62z" />
    <glyph glyph-name="afii10078" unicode="&#x43c;" horiz-adv-x="665" 
d="M127 0h-69v527h107l167 -432h1l167 432h107v-527h-69v462h-1l-178 -462h-53l-178 462h-1v-462z" />
    <glyph glyph-name="afii10079" unicode="&#x43d;" horiz-adv-x="550" 
d="M58 0v527h69v-231h297v231h68v-527h-68v236h-297v-236h-69z" />
    <glyph glyph-name="afii10080" unicode="&#x43e;" horiz-adv-x="608" 
d="M30 263q0 121 80 196.5t194 74.5q121 -1 196.5 -74.5t76.5 -196.5t-75 -196.5t-198 -73.5q-121 0 -197.5 73.5t-76.5 196.5zM101 263q0 -96 57 -152.5t146 -56.5t146 56.5t56 152.5q-1 95 -57.5 152t-144.5 58q-84 1 -143.5 -57t-59.5 -153z" />
    <glyph glyph-name="afii10081" unicode="&#x43f;" horiz-adv-x="550" 
d="M189 527h172q59 0 95 -28t36 -82v-417h-69v405q0 62 -62 62h-172q-62 0 -62 -62v-405h-69v417q0 54 36 82t95 28z" />
    <glyph glyph-name="afii10082" unicode="&#x440;" horiz-adv-x="627" 
d="M48 -180v443q0 122 76 196.5t200 74.5q116 0 194.5 -77t78.5 -194q0 -121 -75.5 -195.5t-187.5 -74.5q-70 0 -126.5 29t-90.5 80v-282h-69zM119 263q0 -93 56.5 -151t148.5 -58t147 59t55 150q0 87 -56 148.5t-146 61.5q-92 0 -148.5 -58.5t-56.5 -151.5z" />
    <glyph glyph-name="afii10083" unicode="&#x441;" horiz-adv-x="442" 
d="M30 262q0 120 73 196t193 76q78 0 142 -36l-31 -58q-52 32 -110 32q-85 0 -140.5 -57t-55.5 -153q0 -92 50.5 -151.5t149.5 -57.5q61 1 108 32l-4 -69q-51 -24 -116 -24q-118 0 -188.5 73.5t-70.5 196.5z" />
    <glyph glyph-name="afii10084" unicode="&#x442;" horiz-adv-x="430" 
d="M180 467h-176v60h419l-9 -60h-165v-467h-69v467z" />
    <glyph glyph-name="afii10085" unicode="&#x443;" horiz-adv-x="547" 
d="M391 -184h-87q5 4 12.5 12t27.5 33.5t35.5 53t29 70t14.5 85.5q-54 -77 -160 -77q-94 0 -151 52t-57 159v323h69v-318q0 -73 35 -114.5t104 -41.5q82 0 119.5 45.5t37.5 107.5v321h69v-461q0 -65 -24.5 -127.5t-48.5 -92.5z" />
    <glyph glyph-name="afii10086" unicode="&#x444;" horiz-adv-x="973" 
d="M451 -180v278q-64 -105 -187 -105q-98 0 -164.5 74.5t-66.5 195.5q0 118 69.5 194.5t173.5 76.5q70 0 125.5 -34.5t84.5 -95.5q32 62 86.5 96t124.5 34q104 0 173.5 -76.5t69.5 -194.5q0 -121 -66.5 -195.5t-164.5 -74.5q-62 0 -111 29t-78 80v-282h-69zM522 263
q0 -93 48.5 -151t126.5 -58q79 0 125.5 59t46.5 150q0 87 -48 148.5t-124 61.5q-78 0 -126.5 -57.5t-48.5 -152.5zM451 263q0 94 -49 152t-126 58q-76 0 -124 -61.5t-48 -148.5q0 -91 46.5 -150t125.5 -59q77 0 126 57.5t49 151.5z" />
    <glyph glyph-name="afii10087" unicode="&#x445;" horiz-adv-x="452" 
d="M81 0h-76l183 267l-178 260h76l140 -208l140 208h76l-178 -260l183 -267h-76l-145 214z" />
    <glyph glyph-name="afii10088" unicode="&#x446;" horiz-adv-x="570" 
d="M455 0h-266q-59 0 -95 28t-36 82v417h69v-405q0 -62 62 -62h234v467h69v-467h6q23 0 38 -16t15 -39v-139h-68v106q0 28 -28 28z" />
    <glyph glyph-name="afii10089" unicode="&#x447;" horiz-adv-x="517" 
d="M459 527v-527h-69v242q-42 -26 -75.5 -37.5t-82.5 -11.5q-98 0 -150 54.5t-52 155.5v124h69v-123q0 -75 31 -113t100 -38q96 0 160 57v217h69z" />
    <glyph glyph-name="afii10090" unicode="&#x448;" horiz-adv-x="755" 
d="M58 110v417h69v-405q0 -62 62 -62h154v467h69v-467h154q62 0 62 62v405h69v-417q0 -54 -36 -82t-95 -28h-377q-59 0 -95 28t-36 82z" />
    <glyph glyph-name="afii10091" unicode="&#x449;" horiz-adv-x="775" 
d="M660 0h-471q-59 0 -95 28t-36 82v417h69v-405q0 -62 62 -62h154v467h69v-467h216v467h69v-467h6q23 0 38 -16t15 -39v-139h-68v106q0 28 -28 28z" />
    <glyph glyph-name="afii10092" unicode="&#x44a;" horiz-adv-x="613" 
d="M20 467l14 60h175v-219h204q88 0 129 -46t41 -107q0 -155 -171 -155h-124q-73 0 -110.5 31.5t-37.5 88.5v347h-120zM413 248h-204v-122q0 -66 74 -66h124q105 0 105 97q0 50 -23.5 70.5t-75.5 20.5z" />
    <glyph glyph-name="afii10093" unicode="&#x44b;" horiz-adv-x="713" 
d="M127 527v-219h204q88 0 129 -46t41 -107q0 -155 -171 -155h-124q-73 0 -110.5 31.5t-37.5 88.5v407h69zM331 248h-204v-122q0 -66 74 -66h124q105 0 105 97q0 50 -23.5 70.5t-75.5 20.5zM586 527h69v-527h-69v527z" />
    <glyph glyph-name="afii10094" unicode="&#x44c;" horiz-adv-x="531" 
d="M127 527v-219h204q88 0 129 -46t41 -107q0 -155 -171 -155h-124q-73 0 -110.5 31.5t-37.5 88.5v407h69zM331 248h-204v-122q0 -66 74 -66h124q105 0 105 97q0 50 -23.5 70.5t-75.5 20.5z" />
    <glyph glyph-name="afii10095" unicode="&#x44d;" horiz-adv-x="450" 
d="M147 473q-71 0 -120 -30l5 70q47 21 115 21q117 0 195 -76t78 -193q0 -120 -76.5 -196t-200.5 -76q-68 0 -115 21l-5 70q49 -30 115 -30q86 0 144.5 45.5t66.5 136.5h-265l10 60h254q-11 84 -68.5 130.5t-132.5 46.5z" />
    <glyph glyph-name="afii10096" unicode="&#x44e;" horiz-adv-x="825" 
d="M521 -7q-114 0 -189 65.5t-84 177.5h-121v-236h-69v527h69v-231h121q12 108 89.5 173.5t183.5 64.5q121 -1 196.5 -74.5t76.5 -196.5t-75 -196.5t-198 -73.5zM318 263q0 -96 57 -152.5t146 -56.5t146 56.5t56 152.5q-1 95 -57.5 152t-144.5 58q-84 1 -143.5 -57
t-59.5 -153z" />
    <glyph glyph-name="afii10097" unicode="&#x44f;" horiz-adv-x="540" 
d="M195 527h287v-527h-68v237q-1 -2 -5 -9t-6.5 -9t-8.5 -6.5t-15.5 -6t-23.5 -1.5h-71q-22 0 -40 -4t-31 -9t-24 -16t-18 -19.5t-15 -24.5t-12 -26.5t-11.5 -30.5t-11.5 -31q-14 -35 -23 -44h-81q12 14 36 65q4 10 13 35.5t16 40.5t19 34t30 30t41 14q-58 -2 -98.5 41.5
t-40.5 108.5q0 66 41 112t121 46zM414 322v145h-197q-113 0 -113 -102q0 -46 28.5 -73t80.5 -27h138q31 0 47 16.5t16 40.5z" />
    <glyph glyph-name="afii10071" unicode="&#x451;" horiz-adv-x="570" 
d="M415 84l-5 -70q-45 -21 -111 -21q-120 0 -194.5 76t-74.5 196q0 117 76 193t189 76q117 0 183.5 -77.5t66.5 -202.5h-445q3 -98 59.5 -149t144.5 -51q63 0 111 30zM295 473q-73 0 -123.5 -42.5t-66.5 -115.5h366q-10 76 -56 117t-120 41zM150 631v88h88v-88h-41h-47z
M348 631v88h88v-88h-88z" />
    <glyph glyph-name="afii10099" unicode="&#x452;" horiz-adv-x="550" 
d="M423 319q0 74 -34.5 114.5t-104.5 40.5q-72 0 -114.5 -40.5t-42.5 -111.5v-322h-69v583h-74v59h74v64h69v-64h137v-59h-137v-122q48 73 157 73q100 0 154 -54.5t54 -155.5v-110q0 -71 -11.5 -138t-27.5 -112.5t-32 -80t-27 -51.5l-12 -16h-77q5 6 13 16.5t28 48t35.5 80
t28.5 110.5t13 141v107z" />
    <glyph glyph-name="afii10100" unicode="&#x453;" horiz-adv-x="379" 
d="M58 0v417q0 54 36 82t95 28h195l-13 -61h-182q-32 0 -46.5 -14.5t-14.5 -46.5v-405h-70zM385 746l-126 -146h-72l93 146h105z" />
    <glyph glyph-name="afii10101" unicode="&#x454;" horiz-adv-x="450" 
d="M303 473q-75 0 -133 -46.5t-68 -130.5h264l-10 -60h-255q8 -91 66 -136.5t145 -45.5q66 0 115 30l-5 -70q-47 -21 -115 -21q-124 0 -200.5 76t-76.5 196q0 117 78 193t195 76q68 0 115 -21l5 -70q-49 30 -120 30z" />
    <glyph glyph-name="afii10102" unicode="&#x455;" horiz-adv-x="395" 
d="M26 34l29 59q75 -39 140 -39q102 0 102 84q0 37 -21.5 60t-65.5 44l-61 29q-64 30 -95.5 59.5t-31.5 78.5q0 63 50 94t123 31q82 0 156 -38l-30 -59q-60 36 -126 36q-102 0 -102 -64q0 -15 6 -26.5t22 -22.5t25 -15.5l33 -16.5l61 -29q67 -32 97.5 -66.5t30.5 -92.5
q0 -70 -49 -108.5t-124 -38.5q-86 0 -169 41z" />
    <glyph glyph-name="afii10103" unicode="&#x456;" horiz-adv-x="189" 
d="M60 527h69v-527h-69v527zM60 706h69v-77h-69v77z" />
    <glyph glyph-name="afii10104" unicode="&#x457;" horiz-adv-x="189" 
d="M60 527h69v-527h-69v527zM-26 624v88h88v-88h-41h-47zM127 624v88h88v-88h-88z" />
    <glyph glyph-name="afii10105" unicode="&#x458;" horiz-adv-x="192" 
d="M65 527h69v-313q0 -71 -11.5 -138t-27.5 -112.5t-32 -80t-27 -51.5l-12 -16h-81q5 7 13 19t29 52.5t37.5 83.5t29.5 109t13 132v315zM65 706h69v-77h-69v77z" />
    <glyph glyph-name="afii10106" unicode="&#x459;" horiz-adv-x="853" 
d="M449 527v-219h204q88 0 129 -46t41 -107q0 -155 -171 -155h-124q-73 0 -110.5 31.5t-37.5 88.5v347h-171q-63 0 -63 -62v-295q0 -53 -35 -81.5t-93 -28.5h-3v60h3q60 0 60 62v295q0 54 36 82t95 28h240zM653 248h-204v-122q0 -66 74 -66h124q105 0 105 97
q0 50 -23.5 70.5t-75.5 20.5z" />
    <glyph glyph-name="afii10107" unicode="&#x45a;" horiz-adv-x="834" 
d="M127 527v-219h234v219h69v-219h204q88 0 129 -46t41 -107q0 -155 -171 -155h-124q-73 0 -110.5 31.5t-37.5 88.5v128h-234v-248h-69v527h69zM634 248h-204v-122q0 -66 74 -66h124q105 0 105 97q0 50 -23.5 70.5t-75.5 20.5z" />
    <glyph glyph-name="afii10108" unicode="&#x45b;" horiz-adv-x="550" 
d="M58 706h69v-64h137v-59h-137v-122q48 73 157 73q100 0 154 -54.5t54 -155.5v-324h-69v319q0 74 -34.5 114.5t-104.5 40.5q-72 0 -114.5 -40.5t-42.5 -111.5v-322h-69v583h-74v59h74v64z" />
    <glyph glyph-name="afii10109" unicode="&#x45c;" horiz-adv-x="451" 
d="M444 527l-9 -56h-12q-49 0 -78 -37l-113 -137h26q51 0 72.5 -16.5t40.5 -67.5l29 -79q35 -94 67 -134h-83q-14 21 -37 84l-32 89q-10 28 -16 39.5t-19.5 20t-36.5 8.5h-115v-241h-69v527h69v-230h24l128 156q34 42 68 58t81 16h15zM365 746l-126 -146h-72l93 146h105z
" />
    <glyph glyph-name="afii10110" unicode="&#x45e;" horiz-adv-x="550" 
d="M394 -184h-87q5 4 12.5 12t27.5 33.5t35.5 53t29 70t14.5 85.5q-54 -77 -160 -77q-94 0 -151 52t-57 159v323h69v-318q0 -73 35 -114.5t104 -41.5q82 0 119.5 45.5t37.5 107.5v321h69v-461q0 -65 -24.5 -127.5t-49.5 -92.5zM273 603q-48 0 -86 24.5t-53 74.5l63 27
q13 -66 76 -66t76 66l63 -27q-15 -50 -53 -74.5t-86 -24.5z" />
    <glyph glyph-name="afii10193" unicode="&#x45f;" horiz-adv-x="550" 
d="M361 0h-52v-134h-68v134h-52q-59 0 -95 28t-36 82v417h69v-405q0 -62 62 -62h172q62 0 62 62v405h69v-417q0 -54 -36 -82t-95 -28z" />
    <glyph glyph-name="afii10050" unicode="&#x490;" horiz-adv-x="472" 
d="M232 706h175v118h74v-183h-249q-44 0 -64 -20.5t-20 -63.5v-557h-74v557q0 74 41 111.5t117 37.5z" />
    <glyph glyph-name="afii10098" unicode="&#x491;" horiz-adv-x="379" 
d="M316 629h68v-163h-195q-32 0 -46.5 -14.5t-14.5 -46.5v-405h-70v417q0 54 36 82t95 28h127v102z" />
    <glyph glyph-name="Wgrave" unicode="&#x1e80;" horiz-adv-x="888" 
d="M223 0l-216 706h77l173 -587l152 587h66l160 -587l165 587h77l-211 -706h-68l-156 583l-151 -583h-68zM403 764l-126 146h105l93 -146h-72z" />
    <glyph glyph-name="wgrave" unicode="&#x1e81;" horiz-adv-x="839" 
d="M422 87h-5q-45 -94 -165 -94q-91 0 -144 51.5t-53 146.5v336h69v-334q0 -66 33 -102.5t96 -36.5q132 0 132 143v330h69v-330q0 -143 132 -143q63 0 96 36.5t33 102.5v334h69v-336q0 -95 -53 -146.5t-144 -51.5q-119 0 -165 94zM397 593l-126 146h105l93 -146h-72z" />
    <glyph glyph-name="Wacute" unicode="&#x1e82;" horiz-adv-x="888" 
d="M223 0l-216 706h77l173 -587l152 587h66l160 -587l165 587h77l-211 -706h-68l-156 583l-151 -583h-68zM593 910l-126 -146h-72l93 146h105z" />
    <glyph glyph-name="wacute" unicode="&#x1e83;" horiz-adv-x="839" 
d="M422 87h-5q-45 -94 -165 -94q-91 0 -144 51.5t-53 146.5v336h69v-334q0 -66 33 -102.5t96 -36.5q132 0 132 143v330h69v-330q0 -143 132 -143q63 0 96 36.5t33 102.5v334h69v-336q0 -95 -53 -146.5t-144 -51.5q-119 0 -165 94zM587 739l-126 -146h-72l93 146h105z" />
    <glyph glyph-name="Wdieresis" unicode="&#x1e84;" horiz-adv-x="888" 
d="M223 0l-216 706h77l173 -587l152 587h66l160 -587l165 587h77l-211 -706h-68l-156 583l-151 -583h-68zM283 795v88h88v-88h-41h-47zM481 795v88h88v-88h-88z" />
    <glyph glyph-name="wdieresis" unicode="&#x1e85;" horiz-adv-x="839" 
d="M422 87h-5q-45 -94 -165 -94q-91 0 -144 51.5t-53 146.5v336h69v-334q0 -66 33 -102.5t96 -36.5q132 0 132 143v330h69v-330q0 -143 132 -143q63 0 96 36.5t33 102.5v334h69v-336q0 -95 -53 -146.5t-144 -51.5q-119 0 -165 94zM277 624v88h88v-88h-41h-47zM475 624v88h88
v-88h-88z" />
    <glyph glyph-name="Ygrave" unicode="&#x1ef2;" horiz-adv-x="551" 
d="M49 455v251h74v-242q0 -135 152 -135q150 0 150 135v242h74v-251q0 -83 -50 -131.5t-137 -56.5v-267h-74v267q-90 8 -139.5 55t-49.5 133zM252 764l-126 146h105l93 -146h-72z" />
    <glyph glyph-name="ygrave" unicode="&#x1ef3;" horiz-adv-x="547" 
d="M391 -184h-87q5 4 12.5 12t27.5 33.5t35.5 53t29 70t14.5 85.5q-54 -77 -160 -77q-94 0 -151 52t-57 159v323h69v-318q0 -73 35 -114.5t104 -41.5q82 0 119.5 45.5t37.5 107.5v321h69v-461q0 -65 -24.5 -127.5t-48.5 -92.5zM247 593l-126 146h105l93 -146h-72z" />
    <glyph glyph-name="endash" unicode="&#x2013;" horiz-adv-x="500" 
d="M0 244v64h500v-64h-500z" />
    <glyph glyph-name="emdash" unicode="&#x2014;" horiz-adv-x="1000" 
d="M0 244v64h1000v-64h-1000z" />
    <glyph glyph-name="afii00208" unicode="&#x2015;" horiz-adv-x="1000" 
d="M43 244v64h914v-64h-914z" />
    <glyph glyph-name="quoteleft" unicode="&#x2018;" horiz-adv-x="189" 
d="M154 543l-43 -38q-37 32 -46 54.5t-9 65.5v81h70v-90q0 -42 28 -73z" />
    <glyph glyph-name="quoteright" unicode="&#x2019;" horiz-adv-x="189" 
d="M79 504l-44 39q28 31 28 73v90h70v-81q0 -44 -9 -67t-45 -54z" />
    <glyph glyph-name="quotesinglbase" unicode="&#x201a;" horiz-adv-x="199" 
d="M79 -108l-44 39q28 31 28 73v90h70v-81q0 -44 -9 -67t-45 -54z" />
    <glyph glyph-name="quotedblleft" unicode="&#x201c;" horiz-adv-x="329" 
d="M154 543l-43 -38q-37 32 -46 54.5t-9 65.5v81h70v-90q0 -42 28 -73zM294 543l-43 -38q-37 32 -46 54.5t-9 65.5v81h40h30v-90q0 -42 28 -73z" />
    <glyph glyph-name="quotedblright" unicode="&#x201d;" horiz-adv-x="349" 
d="M79 504l-44 39q28 31 28 73v90h70v-81q0 -44 -9 -67t-45 -54zM219 504l-44 39q28 31 28 73v90h37h33v-81q0 -44 -9 -67t-45 -54z" />
    <glyph glyph-name="quotedblbase" unicode="&#x201e;" horiz-adv-x="349" 
d="M79 -108l-44 39q28 31 28 73v90h70v-81q0 -44 -9 -67t-45 -54zM219 -108l-44 39q28 31 28 73v90h37h33v-81q0 -44 -9 -67t-45 -54z" />
    <glyph glyph-name="dagger" unicode="&#x2020;" horiz-adv-x="600" 
d="M87 412v67h177v227h72v-227h177v-67h-177v-563h-72v563h-177z" />
    <glyph glyph-name="daggerdbl" unicode="&#x2021;" horiz-adv-x="600" 
d="M87 436v67h177v203h72v-203h177v-67h-177v-317h177v-67h-177v-203h-72v203h-177v67h177v317h-177z" />
    <glyph glyph-name="bullet" unicode="&#x2022;" horiz-adv-x="387" 
d="M75 353q0 49 34.5 83.5t83.5 34.5t84 -34.5t35 -83.5t-35 -84t-84 -35t-83.5 35t-34.5 84z" />
    <glyph glyph-name="ellipsis" unicode="&#x2026;" horiz-adv-x="664" 
d="M63 96h96v-96h-96v96zM285 96h49h47v-96h-96v96zM505 96h96v-96h-96v96z" />
    <glyph glyph-name="perthousand" unicode="&#x2030;" horiz-adv-x="1340" 
d="M40 521q1 91 52.5 144t129.5 53q79 0 131.5 -53.5t52.5 -143.5q0 -91 -52.5 -144.5t-131.5 -53.5q-78 0 -130.5 53.5t-51.5 144.5zM110 521q0 -64 26.5 -105.5t85.5 -41.5t86 42t27 105t-27 104.5t-86 41.5t-85.5 -41.5t-26.5 -104.5zM334 -12l-53 23l297 707l55 -20z
M506 184q1 91 52.5 144t129.5 53q79 0 131.5 -53.5t52.5 -143.5q0 -91 -52.5 -144.5t-131.5 -53.5q-78 0 -130.5 53.5t-51.5 144.5zM576 184q0 -64 26.5 -105.5t85.5 -41.5t86 42t27 105t-27 104.5t-86 41.5t-85.5 -41.5t-26.5 -104.5zM935 184q1 91 52.5 144t129.5 53
q79 0 131.5 -53.5t52.5 -143.5q0 -91 -52.5 -144.5t-131.5 -53.5q-78 0 -130.5 53.5t-51.5 144.5zM1005 184q0 -64 26.5 -105.5t85.5 -41.5t86 42t27 105t-27 104.5t-86 41.5t-85.5 -41.5t-26.5 -104.5z" />
    <glyph glyph-name="guilsinglleft" unicode="&#x2039;" horiz-adv-x="355" 
d="M312 420l-201 -155l201 -155v-90l-269 211v68l269 211v-90z" />
    <glyph glyph-name="guilsinglright" unicode="&#x203a;" horiz-adv-x="355" 
d="M244 265l-201 155v90l269 -211v-68l-269 -211v90z" />
    <glyph glyph-name="fraction" unicode="&#x2044;" horiz-adv-x="118" 
d="M-64 -12l-53 23l297 707l55 -20z" />
    <glyph glyph-name="Euro" unicode="&#x20ac;" horiz-adv-x="620" 
d="M31 386l9 54h63q22 133 108.5 205.5t215.5 72.5q87 0 158 -41l-30 -60q-58 36 -128 36q-102 0 -167.5 -57.5t-85.5 -155.5h336l-9 -54h-334q-1 -10 -1 -31q0 -24 1 -35h325l-9 -54h-308q21 -98 86 -156t166 -58q65 0 136 43l-6 -79q-45 -28 -130 -28q-128 0 -215.5 72.5
t-109.5 205.5h-79l9 54h64q-1 11 -1 35q0 5 0.5 15.5t0.5 15.5h-65z" />
    <glyph glyph-name="afii61352" unicode="&#x2116;" horiz-adv-x="1079" 
d="M614 0h-96l-370 618v-618h-74v706h97l369 -616v616h74v-706zM684 391q0 86 50 138.5t127 52.5q79 0 128.5 -52.5t49.5 -138.5q0 -87 -50 -140.5t-128 -53.5q-77 0 -127 54t-50 140zM753 391q0 -61 30.5 -99t77.5 -38q48 0 78.5 38t30.5 99t-30.5 97.5t-78.5 36.5
q-47 0 -77.5 -36.5t-30.5 -97.5zM704 72v67h315v-67h-315z" />
    <glyph glyph-name="trademark" unicode="&#x2122;" horiz-adv-x="801" 
d="M656 340v308l-108 -288h-35l-98 288v-308h-55v366h83l89 -277l99 277h80v-366h-55zM134 660h-114v46h284l-8 -46h-107v-319h-55v319z" />
    <glyph glyph-name="minus" unicode="&#x2212;" horiz-adv-x="800" 
d="M668 319h-536v70h536v-70z" />
    <glyph glyph-name="approxequal" unicode="&#x2248;" horiz-adv-x="800" 
d="M644 512l37 -57q-84 -64 -162 -64q-41 0 -117 30t-120 30q-37 0 -61 -9.5t-67 -43.5l-36 55q88 68 167 68q43 0 121 -30t113 -30q38 0 61 9t64 42zM644 312l37 -57q-84 -64 -162 -64q-41 0 -117 30t-120 30q-37 0 -61 -9.5t-67 -43.5l-20 31l-16 24q88 68 167 68
q43 0 121 -30t113 -30q38 0 61 9t64 42z" />
    <glyph glyph-name="notequal" unicode="&#x2260;" horiz-adv-x="800" 
d="M668 209h-286l-75 -213l-59 20l68 193h-184v70h208l53 150h-261v70h286l77 219l60 -20l-71 -199h184v-70h-208l-53 -150h261v-70z" />
    <glyph glyph-name="lessequal" unicode="&#x2264;" horiz-adv-x="800" 
d="M633 108l-466 213v65l466 209v-78l-379 -162l379 -169v-78zM645 8h-485v71h485v-71z" />
    <glyph glyph-name="greaterequal" unicode="&#x2265;" horiz-adv-x="800" 
d="M638 321l-466 -213v78l379 169l-379 162v78l466 -209v-65zM645 8h-485v71h485v-71z" />
    <glyph glyph-name="B.alt" horiz-adv-x="652" 
d="M74 706h272q25 0 45 -2t44.5 -9.5t40.5 -20.5t27.5 -37.5t11.5 -58.5q0 -77 -56 -109q66 -23 106 -84.5t40 -144.5q0 -115 -74 -183.5t-190 -68.5t-191.5 69t-75.5 184v465zM148 240q0 -81 58 -134t135 -53t133 52.5t56 134.5q0 83 -54.5 135.5t-134.5 52.5
q-77 0 -135 -53.5t-58 -134.5zM146 642v-249q67 100 195 100q51 0 76.5 15t25.5 58q0 30 -19.5 53t-67.5 23h-210z" />
    <glyph glyph-name="D.alt" horiz-adv-x="771" 
d="M74 243v463h351q145 0 228.5 -106t83.5 -252q0 -157 -105.5 -258t-266.5 -101q-130 0 -210.5 62.5t-80.5 191.5zM148 641v-414q0 -80 66 -126.5t151 -46.5q133 0 212 83t78 211q0 118 -65.5 205.5t-184.5 87.5h-257z" />
    <glyph glyph-name="S.alt" horiz-adv-x="505" 
d="M323 0h-149q77 18 143.5 74.5t66.5 121.5q0 53 -31 81.5t-100 58.5l-67 30q-157 71 -157 180q0 82 71.5 127t167.5 45q104 0 179 -43l-28 -62q-67 40 -151 40q-37 0 -70 -8.5t-60 -33.5t-27 -64q0 -23 9 -41.5t30 -34t37.5 -24.5t48.5 -23l67 -30q81 -37 122 -83t41 -115
q0 -56 -42.5 -112.5t-100.5 -83.5z" />
    <glyph glyph-name="X.alt" horiz-adv-x="537" 
d="M-1 0l81 238q16 42 24.5 62t22.5 42.5t30.5 31.5t40.5 11l-174 321h83l160 -313q147 286 161 313h81l-173 -321q19 -2 34.5 -10.5t26 -19.5t21 -32.5t17 -37.5t17.5 -47l86 -238h-77l-66 188q-6 15 -16 43.5t-14.5 39t-14 27.5t-19.5 23t-26 11.5t-38 5.5q-19 0 -33 -2.5
t-25.5 -11t-18.5 -14.5t-15.5 -23.5t-12 -26t-12.5 -35t-13 -37.5l-61 -188h-77z" />
    <glyph glyph-name="a.alt" horiz-adv-x="503" 
d="M73 510q1 0 9.5 3.5t19.5 6.5t27 6.5t39.5 5.5t50.5 2q112 0 181 -71t69 -192q0 -128 -61.5 -205.5t-168.5 -77.5q-55 0 -98 19t-66.5 49t-35.5 62.5t-12 64.5q0 89 57 140t142 51q45 0 81 -15.5t54.5 -37t30.5 -43.5t15 -38l3 -15h3q0 70 -18 121t-48.5 78.5t-64.5 40
t-73 12.5q-36 0 -70 -8t-50 -16l-16 -8v65zM239 313q-61 0 -100.5 -34.5t-39.5 -95.5q0 -62 41 -97.5t99 -35.5q53 0 93 37.5t40 95.5q0 56 -40 93t-93 37z" />
    <glyph glyph-name="g.alt" horiz-adv-x="510" 
d="M256 592l65 -3l-18 -65q82 -13 128.5 -69.5t46.5 -123.5q0 -78 -57.5 -138.5t-164.5 -60.5q-46 0 -85 11q-43 -17 -43 -43q0 -27 37 -36.5t89 -10.5t104.5 -6t89.5 -31.5t37 -78.5q0 -37 -16 -63.5t-39.5 -37t-46.5 -16t-39 -4.5h-16l-11 65q18 0 27 0.5t25.5 3t25 7.5
t15.5 15.5t7 25.5q0 25 -26 37.5t-65.5 14t-85 5t-85 9.5t-65.5 28t-26 59q0 48 63 74q-102 54 -102 171q0 84 61 137.5t158 58.5zM253 190q82 0 119 43t37 98q0 49 -32.5 88t-88.5 49l-18 -66h-49l12 68q-62 -6 -98 -46.5t-36 -92.5q0 -57 41 -99t113 -42z" />
    <glyph glyph-name="s.alt" horiz-adv-x="301" 
d="M186 0h-111q34 11 75 46.5t42 71.5q1 38 -38 82l-65 74q-67 75 -67 128q0 62 49 97t112 35q25 0 48.5 -5t34.5 -9l11 -5l-21 -62q-30 19 -73 19q-38 0 -63.5 -17t-25.5 -53q0 -33 54 -93l57 -65q31 -35 45 -60t14 -63q0 -32 -23 -66t-55 -55z" />
    <glyph glyph-name="x.alt" horiz-adv-x="453" 
d="M387 0l-72 181q-25 61 -89 61q-67 0 -90 -61l-70 -181h-68l71 183q21 54 40 77t52 30l-131 237h76l120 -232l120 232h76l-132 -237q33 -7 52.5 -30t40.5 -77l72 -183h-68z" />
    <glyph glyph-name="germandbls.alt" horiz-adv-x="615" 
d="M60 0v508q0 97 60.5 150t160.5 53q203 0 203 -152q0 -75 -71 -96q76 -16 122 -79t46 -143q0 -111 -68.5 -179.5t-180.5 -68.5q-31 0 -73.5 8.5t-66.5 23.5v86q64 -57 140 -57q77 0 127 54t50 133q0 76 -56 128.5t-134 52.5q-73 0 -129 -59v66q38 44 111 53
q63 9 87.5 22.5t24.5 54.5q0 91 -132 91q-72 0 -112 -39t-40 -107v-504h-69z" />
    <glyph glyph-name="agrave.alt" horiz-adv-x="503" 
d="M73 510q1 0 9.5 3.5t19.5 6.5t27 6.5t39.5 5.5t50.5 2q112 0 181 -71t69 -192q0 -128 -61.5 -205.5t-168.5 -77.5q-55 0 -98 19t-66.5 49t-35.5 62.5t-12 64.5q0 89 57 140t142 51q45 0 81 -15.5t54.5 -37t30.5 -43.5t15 -38l3 -15h3q0 70 -18 121t-48.5 78.5t-64.5 40
t-73 12.5q-36 0 -70 -8t-50 -16l-16 -8v65zM239 313q-61 0 -100.5 -34.5t-39.5 -95.5q0 -62 41 -97.5t99 -35.5q53 0 93 37.5t40 95.5q0 56 -40 93t-93 37zM206 600l-126 146h105l93 -146h-72z" />
    <glyph glyph-name="aacute.alt" horiz-adv-x="503" 
d="M73 510q1 0 9.5 3.5t19.5 6.5t27 6.5t39.5 5.5t50.5 2q112 0 181 -71t69 -192q0 -128 -61.5 -205.5t-168.5 -77.5q-55 0 -98 19t-66.5 49t-35.5 62.5t-12 64.5q0 89 57 140t142 51q45 0 81 -15.5t54.5 -37t30.5 -43.5t15 -38l3 -15h3q0 70 -18 121t-48.5 78.5t-64.5 40
t-73 12.5q-36 0 -70 -8t-50 -16l-16 -8v65zM239 313q-61 0 -100.5 -34.5t-39.5 -95.5q0 -62 41 -97.5t99 -35.5q53 0 93 37.5t40 95.5q0 56 -40 93t-93 37zM396 746l-126 -146h-72l93 146h105z" />
    <glyph glyph-name="acircumflex.alt" horiz-adv-x="503" 
d="M73 510q1 0 9.5 3.5t19.5 6.5t27 6.5t39.5 5.5t50.5 2q112 0 181 -71t69 -192q0 -128 -61.5 -205.5t-168.5 -77.5q-55 0 -98 19t-66.5 49t-35.5 62.5t-12 64.5q0 89 57 140t142 51q45 0 81 -15.5t54.5 -37t30.5 -43.5t15 -38l3 -15h3q0 70 -18 121t-48.5 78.5t-64.5 40
t-73 12.5q-36 0 -70 -8t-50 -16l-16 -8v65zM239 313q-61 0 -100.5 -34.5t-39.5 -95.5q0 -62 41 -97.5t99 -35.5q53 0 93 37.5t40 95.5q0 56 -40 93t-93 37zM227 696l-86 -96h-69l103 146h105l103 -146h-69z" />
    <glyph glyph-name="atilde.alt" horiz-adv-x="503" 
d="M73 510q1 0 9.5 3.5t19.5 6.5t27 6.5t39.5 5.5t50.5 2q112 0 181 -71t69 -192q0 -128 -61.5 -205.5t-168.5 -77.5q-55 0 -98 19t-66.5 49t-35.5 62.5t-12 64.5q0 89 57 140t142 51q45 0 81 -15.5t54.5 -37t30.5 -43.5t15 -38l3 -15h3q0 70 -18 121t-48.5 78.5t-64.5 40
t-73 12.5q-36 0 -70 -8t-50 -16l-16 -8v65zM239 313q-61 0 -100.5 -34.5t-39.5 -95.5q0 -62 41 -97.5t99 -35.5q53 0 93 37.5t40 95.5q0 56 -40 93t-93 37zM124 612h-56q0 5 1 13t7.5 28.5t16 36t28.5 28.5t44 13q27 0 70 -25t59 -25q19 0 29 13.5t11 27.5v14h56
q0 -5 -1.5 -13t-8 -29t-15.5 -37t-27 -29t-41 -13q-30 0 -71 27t-57 27q-19 0 -30 -14.5t-13 -28.5z" />
    <glyph glyph-name="adieresis.alt" horiz-adv-x="503" 
d="M73 510q1 0 9.5 3.5t19.5 6.5t27 6.5t39.5 5.5t50.5 2q112 0 181 -71t69 -192q0 -128 -61.5 -205.5t-168.5 -77.5q-55 0 -98 19t-66.5 49t-35.5 62.5t-12 64.5q0 89 57 140t142 51q45 0 81 -15.5t54.5 -37t30.5 -43.5t15 -38l3 -15h3q0 70 -18 121t-48.5 78.5t-64.5 40
t-73 12.5q-36 0 -70 -8t-50 -16l-16 -8v65zM239 313q-61 0 -100.5 -34.5t-39.5 -95.5q0 -62 41 -97.5t99 -35.5q53 0 93 37.5t40 95.5q0 56 -40 93t-93 37zM86 631v88h88v-88h-41h-47zM284 631v88h88v-88h-88z" />
    <glyph glyph-name="aring.alt" horiz-adv-x="503" 
d="M73 510q1 0 9.5 3.5t19.5 6.5t27 6.5t39.5 5.5t50.5 2q112 0 181 -71t69 -192q0 -128 -61.5 -205.5t-168.5 -77.5q-55 0 -98 19t-66.5 49t-35.5 62.5t-12 64.5q0 89 57 140t142 51q45 0 81 -15.5t54.5 -37t30.5 -43.5t15 -38l3 -15h3q0 70 -18 121t-48.5 78.5t-64.5 40
t-73 12.5q-36 0 -70 -8t-50 -16l-16 -8v65zM239 313q-61 0 -100.5 -34.5t-39.5 -95.5q0 -62 41 -97.5t99 -35.5q53 0 93 37.5t40 95.5q0 56 -40 93t-93 37zM103 716q0 53 37 90t89 37q53 0 90 -37.5t37 -89.5t-37 -89t-90 -37t-89.5 37t-36.5 89zM158 716q0 -30 20.5 -50.5
t50.5 -20.5t51 20.5t21 50.5t-21 51t-51 21t-50.5 -21t-20.5 -51z" />
    <glyph glyph-name="amacron.alt" horiz-adv-x="503" 
d="M73 510q1 0 9.5 3.5t19.5 6.5t27 6.5t39.5 5.5t50.5 2q112 0 181 -71t69 -192q0 -128 -61.5 -205.5t-168.5 -77.5q-55 0 -98 19t-66.5 49t-35.5 62.5t-12 64.5q0 89 57 140t142 51q45 0 81 -15.5t54.5 -37t30.5 -43.5t15 -38l3 -15h3q0 70 -18 121t-48.5 78.5t-64.5 40
t-73 12.5q-36 0 -70 -8t-50 -16l-16 -8v65zM239 313q-61 0 -100.5 -34.5t-39.5 -95.5q0 -62 41 -97.5t99 -35.5q53 0 93 37.5t40 95.5q0 56 -40 93t-93 37zM84 641v64h280v-64h-280z" />
    <glyph glyph-name="abreve.alt" horiz-adv-x="503" 
d="M73 510q1 0 9.5 3.5t19.5 6.5t27 6.5t39.5 5.5t50.5 2q112 0 181 -71t69 -192q0 -128 -61.5 -205.5t-168.5 -77.5q-55 0 -98 19t-66.5 49t-35.5 62.5t-12 64.5q0 89 57 140t142 51q45 0 81 -15.5t54.5 -37t30.5 -43.5t15 -38l3 -15h3q0 70 -18 121t-48.5 78.5t-64.5 40
t-73 12.5q-36 0 -70 -8t-50 -16l-16 -8v65zM239 313q-61 0 -100.5 -34.5t-39.5 -95.5q0 -62 41 -97.5t99 -35.5q53 0 93 37.5t40 95.5q0 56 -40 93t-93 37zM229 670q33 0 53 20t24 56h69q-8 -72 -48.5 -104t-97.5 -32t-97.5 32t-48.5 104h69q4 -36 24 -56t53 -20z" />
    <glyph glyph-name="aogonek.alt" horiz-adv-x="503" 
d="M73 510q1 0 9.5 3.5t19.5 6.5t27 6.5t39.5 5.5t50.5 2q112 0 181 -71t69 -192q0 -170 -105 -245q-4 -3 -24.5 -17t-28 -20.5t-21 -20.5t-19 -28.5t-5.5 -31.5q0 -30 18 -45.5t43 -15.5q34 0 70 13l-7 -63q-40 -10 -82 -10q-41 0 -76.5 26t-35.5 83q0 49 41 92
q-105 1 -157.5 62t-52.5 133q0 89 57 140t142 51q45 0 81 -15.5t54.5 -37t30.5 -43.5t15 -38l3 -15h3q0 70 -18 121t-48.5 78.5t-64.5 40t-73 12.5q-36 0 -70 -8t-50 -16l-16 -8v65zM239 313q-61 0 -100.5 -34.5t-39.5 -95.5q0 -62 41 -97.5t99 -35.5q53 0 93 37.5t40 95.5
q0 56 -40 93t-93 37z" />
    <glyph glyph-name="Dcaron.alt" horiz-adv-x="771" 
d="M74 243v463h351q145 0 228.5 -106t83.5 -252q0 -157 -105.5 -258t-266.5 -101q-130 0 -210.5 62.5t-80.5 191.5zM148 641v-414q0 -80 66 -126.5t151 -46.5q133 0 212 83t78 211q0 118 -65.5 205.5t-184.5 87.5h-257zM292 910l86 -96l87 96h69l-103 -146h-105l-103 146h69
z" />
    <glyph glyph-name="Eth.alt" horiz-adv-x="776" 
d="M-5 349v61h84v296l351 1q145 0 228.5 -106.5t83.5 -252.5q0 -157 -105.5 -258t-266.5 -101q-130 0 -210.5 62.5t-80.5 191.5v106h-84zM153 641v-231h166v-61h-166v-122q0 -80 66 -127t151 -46q133 0 212 83t78 211q0 118 -65.5 206t-184.5 88z" />
    <glyph glyph-name="Dcroat.alt" horiz-adv-x="776" 
d="M-5 349v61h84v296l351 1q145 0 228.5 -106.5t83.5 -252.5q0 -157 -105.5 -258t-266.5 -101q-130 0 -210.5 62.5t-80.5 191.5v106h-84zM153 641v-231h166v-61h-166v-122q0 -80 66 -127t151 -46q133 0 212 83t78 211q0 118 -65.5 206t-184.5 88z" />
    <glyph glyph-name="gcircumflex.alt" horiz-adv-x="510" 
d="M256 592l65 -3l-18 -65q82 -13 128.5 -69.5t46.5 -123.5q0 -78 -57.5 -138.5t-164.5 -60.5q-46 0 -85 11q-43 -17 -43 -43q0 -27 37 -36.5t89 -10.5t104.5 -6t89.5 -31.5t37 -78.5q0 -37 -16 -63.5t-39.5 -37t-46.5 -16t-39 -4.5h-16l-11 65q18 0 27 0.5t25.5 3t25 7.5
t15.5 15.5t7 25.5q0 25 -26 37.5t-65.5 14t-85 5t-85 9.5t-65.5 28t-26 59q0 48 63 74q-102 54 -102 171q0 84 61 137.5t158 58.5zM253 190q82 0 119 43t37 98q0 49 -32.5 88t-88.5 49l-18 -66h-49l12 68q-62 -6 -98 -46.5t-36 -92.5q0 -57 41 -99t113 -42zM258 739l-86 -96
h-69l103 146h105l103 -146h-69z" />
    <glyph glyph-name="gbreve.alt" horiz-adv-x="510" 
d="M256 592l65 -3l-18 -65q82 -13 128.5 -69.5t46.5 -123.5q0 -78 -57.5 -138.5t-164.5 -60.5q-46 0 -85 11q-43 -17 -43 -43q0 -27 37 -36.5t89 -10.5t104.5 -6t89.5 -31.5t37 -78.5q0 -37 -16 -63.5t-39.5 -37t-46.5 -16t-39 -4.5h-16l-11 65q18 0 27 0.5t25.5 3t25 7.5
t15.5 15.5t7 25.5q0 25 -26 37.5t-65.5 14t-85 5t-85 9.5t-65.5 28t-26 59q0 48 63 74q-102 54 -102 171q0 84 61 137.5t158 58.5zM253 190q82 0 119 43t37 98q0 49 -32.5 88t-88.5 49l-18 -66h-49l12 68q-62 -6 -98 -46.5t-36 -92.5q0 -57 41 -99t113 -42zM260 713
q33 0 53 20t24 56h69q-8 -72 -48.5 -104t-97.5 -32t-97.5 32t-48.5 104h69q4 -36 24 -56t53 -20z" />
    <glyph glyph-name="gdotaccent.alt" horiz-adv-x="510" 
d="M256 592l65 -3l-18 -65q82 -13 128.5 -69.5t46.5 -123.5q0 -78 -57.5 -138.5t-164.5 -60.5q-46 0 -85 11q-43 -17 -43 -43q0 -27 37 -36.5t89 -10.5t104.5 -6t89.5 -31.5t37 -78.5q0 -37 -16 -63.5t-39.5 -37t-46.5 -16t-39 -4.5h-16l-11 65q18 0 27 0.5t25.5 3t25 7.5
t15.5 15.5t7 25.5q0 25 -26 37.5t-65.5 14t-85 5t-85 9.5t-65.5 28t-26 59q0 48 63 74q-102 54 -102 171q0 84 61 137.5t158 58.5zM253 190q82 0 119 43t37 98q0 49 -32.5 88t-88.5 49l-18 -66h-49l12 68q-62 -6 -98 -46.5t-36 -92.5q0 -57 41 -99t113 -42zM217 674v88h88
v-88h-88z" />
    <glyph glyph-name="gcommaaccent.alt" horiz-adv-x="510" 
d="M256 592l65 -3l-18 -65q82 -13 128.5 -69.5t46.5 -123.5q0 -78 -57.5 -138.5t-164.5 -60.5q-46 0 -85 11q-43 -17 -43 -43q0 -27 37 -36.5t89 -10.5t104.5 -6t89.5 -31.5t37 -78.5q0 -37 -16 -63.5t-39.5 -37t-46.5 -16t-39 -4.5h-16l-11 65q18 0 27 0.5t25.5 3t25 7.5
t15.5 15.5t7 25.5q0 25 -26 37.5t-65.5 14t-85 5t-85 9.5t-65.5 28t-26 59q0 48 63 74q-102 54 -102 171q0 84 61 137.5t158 58.5zM253 190q82 0 119 43t37 98q0 49 -32.5 88t-88.5 49l-18 -66h-49l12 68q-62 -6 -98 -46.5t-36 -92.5q0 -57 41 -99t113 -42zM286 839l44 -41
q-23 -16 -29 -31t-6 -44v-60h-68v60q0 41 11.5 66t47.5 50z" />
    <glyph glyph-name="Sacute.alt" horiz-adv-x="505" 
d="M323 0h-149q77 18 143.5 74.5t66.5 121.5q0 53 -31 81.5t-100 58.5l-67 30q-157 71 -157 180q0 82 71.5 127t167.5 45q104 0 179 -43l-28 -62q-67 40 -151 40q-37 0 -70 -8.5t-60 -33.5t-27 -64q0 -23 9 -41.5t30 -34t37.5 -24.5t48.5 -23l67 -30q81 -37 122 -83t41 -115
q0 -56 -42.5 -112.5t-100.5 -83.5zM440 922l-126 -146h-72l93 146h105z" />
    <glyph glyph-name="sacute.alt" horiz-adv-x="301" 
d="M186 0h-111q34 11 75 46.5t42 71.5q1 38 -38 82l-65 74q-67 75 -67 128q0 62 49 97t112 35q25 0 48.5 -5t34.5 -9l11 -5l-21 -62q-30 19 -73 19q-38 0 -63.5 -17t-25.5 -53q0 -33 54 -93l57 -65q31 -35 45 -60t14 -63q0 -32 -23 -66t-55 -55zM331 746l-126 -146h-72
l93 146h105z" />
    <glyph glyph-name="Scircumflex.alt" horiz-adv-x="505" 
d="M323 0h-149q77 18 143.5 74.5t66.5 121.5q0 53 -31 81.5t-100 58.5l-67 30q-157 71 -157 180q0 82 71.5 127t167.5 45q104 0 179 -43l-28 -62q-67 40 -151 40q-37 0 -70 -8.5t-60 -33.5t-27 -64q0 -23 9 -41.5t30 -34t37.5 -24.5t48.5 -23l67 -30q81 -37 122 -83t41 -115
q0 -56 -42.5 -112.5t-100.5 -83.5zM271 872l-86 -96h-69l103 146h105l103 -146h-69z" />
    <glyph glyph-name="scircumflex.alt" horiz-adv-x="301" 
d="M186 0h-111q34 11 75 46.5t42 71.5q1 38 -38 82l-65 74q-67 75 -67 128q0 62 49 97t112 35q25 0 48.5 -5t34.5 -9l11 -5l-21 -62q-30 19 -73 19q-38 0 -63.5 -17t-25.5 -53q0 -33 54 -93l57 -65q31 -35 45 -60t14 -63q0 -32 -23 -66t-55 -55zM162 696l-86 -96h-69
l103 146h105l103 -146h-69z" />
    <glyph glyph-name="Scedilla.alt" horiz-adv-x="505" 
d="M323 0h-65l-12 -64q8 -1 18.5 -4.5t28.5 -12.5t30 -29t12 -48q0 -32 -16 -59.5t-39 -43t-46 -26t-39 -14.5l-16 -4l-18 53q98 36 98 86q0 28 -24.5 41.5t-58.5 12.5q8 43 22 112h-24q77 18 143.5 74.5t66.5 121.5q0 53 -31 81.5t-100 58.5l-67 30q-157 71 -157 180
q0 82 71.5 127t167.5 45q104 0 179 -43l-28 -62q-67 40 -151 40q-37 0 -70 -8.5t-60 -33.5t-27 -64q0 -23 9 -41.5t30 -34t37.5 -24.5t48.5 -23l67 -30q81 -37 122 -83t41 -115q0 -56 -42.5 -112.5t-100.5 -83.5z" />
    <glyph glyph-name="scedilla.alt" horiz-adv-x="301" 
d="M186 0h-28l-12 -64q8 -1 18.5 -4.5t28.5 -12.5t30 -29t12 -48q0 -32 -16 -59.5t-39 -43t-46 -26t-39 -14.5l-16 -4l-18 53q98 36 98 86q0 28 -24.5 41.5t-58.5 12.5q8 43 22 112h-23q34 11 75 46.5t42 71.5q1 38 -38 82l-65 74q-67 75 -67 128q0 62 49 97t112 35
q25 0 48.5 -5t34.5 -9l11 -5l-21 -62q-30 19 -73 19q-38 0 -63.5 -17t-25.5 -53q0 -33 54 -93l57 -65q31 -35 45 -60t14 -63q0 -32 -23 -66t-55 -55z" />
    <glyph glyph-name="Scaron.alt" horiz-adv-x="505" 
d="M323 0h-149q77 18 143.5 74.5t66.5 121.5q0 53 -31 81.5t-100 58.5l-67 30q-157 71 -157 180q0 82 71.5 127t167.5 45q104 0 179 -43l-28 -62q-67 40 -151 40q-37 0 -70 -8.5t-60 -33.5t-27 -64q0 -23 9 -41.5t30 -34t37.5 -24.5t48.5 -23l67 -30q81 -37 122 -83t41 -115
q0 -56 -42.5 -112.5t-100.5 -83.5zM186 922l86 -96l87 96h69l-103 -146h-105l-103 146h69z" />
    <glyph glyph-name="scaron.alt" horiz-adv-x="301" 
d="M186 0h-111q34 11 75 46.5t42 71.5q1 38 -38 82l-65 74q-67 75 -67 128q0 62 49 97t112 35q25 0 48.5 -5t34.5 -9l11 -5l-21 -62q-30 19 -73 19q-38 0 -63.5 -17t-25.5 -53q0 -33 54 -93l57 -65q31 -35 45 -60t14 -63q0 -32 -23 -66t-55 -55zM77 746l86 -96l87 96h69
l-103 -146h-105l-103 146h69z" />
    <glyph glyph-name="ampersand.alt" horiz-adv-x="703" 
d="M34 228q0 76 40.5 135.5t126.5 73.5q-57 0 -90 36.5t-33 88.5q0 69 42.5 106.5t114.5 37.5h217l-7 -60h-181q-118 0 -118 -84q0 -86 103 -86h136v-62h-45q-105 0 -170 -45.5t-65 -140.5q0 -83 55 -129t139 -46q92 0 147 62.5t59 149.5l-3 47h196l-7 -60h-123
q1 -116 -75.5 -190t-194.5 -74q-116 0 -190 64t-74 176z" />
    <glyph glyph-name="zero.altab" horiz-adv-x="668" 
d="M40 347q0 170 83.5 267.5t210.5 97.5q126 0 210 -97.5t84 -267.5t-84 -267.5t-210 -97.5q-127 0 -210.5 97.5t-83.5 267.5zM122 347q0 -134 55.5 -217t156.5 -83t156.5 83t55.5 217t-55.5 217t-156.5 83t-156.5 -83t-55.5 -217z" />
    <glyph glyph-name="one.altab" horiz-adv-x="668" 
d="M160 0l10 68h149v561q-55 -46 -154 -100l-38 58q47 24 93.5 54t69.5 47l23 18h77v-638h159l-10 -68h-379z" />
    <glyph glyph-name="two.altab" horiz-adv-x="668" 
d="M543 0h-455q0 52 5.5 92t21 73.5t32.5 57t50.5 50.5t63.5 46.5t83 51.5q66 39 100 74.5t34 85.5q0 61 -48.5 91.5t-114.5 30.5q-113 0 -187 -53l-30 59q90 59 215 59q104 0 173 -45.5t69 -144.5q0 -64 -32.5 -107t-92.5 -79q-18 -11 -56.5 -32.5t-61 -35t-54 -37
t-49.5 -45.5t-33 -54.5t-18 -69.5h396z" />
    <glyph glyph-name="three.altab" horiz-adv-x="668" 
d="M497 199q0 70 -47.5 109t-139.5 39h-118v64h111q70 0 108.5 34.5t38.5 86.5q0 44 -29.5 73t-65 38.5t-74.5 10.5q-85 1 -180 -33l-21 60q90 37 206 37q98 0 169.5 -46.5t71.5 -140.5q0 -47 -27.5 -88.5t-71.5 -54.5q62 -14 105.5 -59t43.5 -126q0 -56 -24 -99t-64 -67.5
t-86.5 -36.5t-97.5 -12q-131 0 -233 37l21 65q47 -14 65.5 -19.5t61 -12t83.5 -6.5q33 0 64 7.5t61.5 23t49.5 45.5t19 71z" />
    <glyph glyph-name="four.altab" horiz-adv-x="668" 
d="M409 226h-326l-28 62l327 418h98v-413h111l-9 -67h-102v-226h-71v226zM142 293h267v342z" />
    <glyph glyph-name="five.altab" horiz-adv-x="668" 
d="M585 260q0 -131 -79.5 -201.5t-192.5 -70.5q-53 0 -103.5 12.5t-70 21t-61.5 29.5l23 69q36 -21 61 -32.5t66.5 -22.5t82.5 -11q81 1 137.5 54t56.5 155q0 80 -47.5 119t-115.5 39q-60 0 -104 -28t-58 -53h-67l13 366h392l8 -68h-341l-8 -230q71 76 177 76t168.5 -61
t62.5 -163z" />
    <glyph glyph-name="six.altab" horiz-adv-x="668" 
d="M75 270q0 133 73.5 249.5t203.5 186.5h142q-136 -47 -223.5 -139t-110.5 -199q72 90 193 90q112 0 178.5 -63.5t66.5 -168.5q0 -107 -73 -172.5t-183 -65.5q-120 0 -193.5 76.5t-73.5 205.5zM167 226q0 -80 46.5 -126.5t128.5 -46.5t130.5 47t48.5 126q0 76 -47.5 121.5
t-124.5 45.5q-80 0 -131 -45.5t-51 -121.5z" />
    <glyph glyph-name="seven.altab" horiz-adv-x="668" 
d="M495 638h-381l9 68h468q-34 -107 -67.5 -198t-70 -172t-57.5 -124.5t-61 -119.5t-48 -92h-93q92 147 172 321.5t129 316.5z" />
    <glyph glyph-name="eight.altab" horiz-adv-x="668" 
d="M334 -12q-111 0 -186 56t-75 160q0 67 41.5 118.5t104.5 64.5q-47 15 -77 54.5t-30 94.5q0 48 18.5 84.5t50.5 57t70.5 30.5t82.5 10t82.5 -10t70.5 -30.5t50.5 -57t18.5 -84.5q0 -55 -30 -94.5t-77 -54.5q63 -13 104.5 -64.5t41.5 -118.5q0 -104 -75 -160t-186 -56z
M334 353q-79 0 -132 -37.5t-53 -112.5q0 -72 53.5 -112t131.5 -40t131.5 40t53.5 112q0 75 -53 112.5t-132 37.5zM334 655q-65 0 -107.5 -28.5t-42.5 -91.5q0 -64 44.5 -93t105.5 -29t105.5 29t44.5 93q0 63 -42.5 91.5t-107.5 28.5z" />
    <glyph glyph-name="nine.altab" horiz-adv-x="668" 
d="M585 436q0 -133 -73.5 -249.5t-203.5 -186.5h-142q136 47 223.5 139t110.5 199q-72 -90 -193 -90q-112 0 -178.5 63.5t-66.5 168.5q0 107 73 172.5t183 65.5q120 0 193.5 -76.5t73.5 -205.5zM493 480q0 80 -46.5 126.5t-128.5 46.5t-130.5 -47t-48.5 -126
q0 -76 47.5 -121.5t124.5 -45.5q80 0 131 45.5t51 121.5z" />
    <glyph glyph-name="zero.alt" horiz-adv-x="705" 
d="M40 347q0 170 89 267.5t223 97.5t223.5 -97.5t89.5 -267.5t-89.5 -267.5t-223.5 -97.5t-223 97.5t-89 267.5zM122 347q0 -134 60.5 -217t169.5 -83q110 0 170.5 83t60.5 217t-60.5 217t-170.5 83q-109 0 -169.5 -83t-60.5 -217z" />
    <glyph glyph-name="one.alt" horiz-adv-x="343" 
d="M164 0v599q-12 -26 -37.5 -59.5t-46.5 -50.5l-37 52q33 30 66.5 79t48.5 86h75v-706h-69z" />
    <glyph glyph-name="two.alt" horiz-adv-x="555" 
d="M489 0h-455q0 96 27 167.5t102 124.5q19 14 70.5 43.5t89 53t69.5 62.5t32 80q0 61 -48.5 91.5t-114.5 30.5q-113 0 -187 -53l-30 59q90 59 215 59q104 0 173 -45.5t69 -144.5q0 -40 -15 -73.5t-38 -56.5t-56.5 -45.5t-64 -38.5t-67 -37.5t-60.5 -39.5q-87 -67 -96 -169
h396z" />
    <glyph glyph-name="three.alt" horiz-adv-x="515" 
d="M230 0h-150q306 125 306 263q0 51 -40.5 80t-118.5 29h-101v64h92q58 0 89.5 31t31.5 78q0 30 -14.5 52.5t-38 34t-47 17t-47.5 5.5q-74 1 -157 -33l-21 60q81 37 185 37q89 0 153 -43t64 -130q0 -44 -27.5 -82t-71.5 -50q61 -3 105 -44t44 -105q0 -47 -25.5 -92
t-67.5 -79t-75.5 -55t-67.5 -38z" />
    <glyph glyph-name="four.alt" horiz-adv-x="578" 
d="M375 230h-318l-28 58l317 418h98v-413h81l-9 -63h-72v-230h-69v230zM375 643l-264 -350h264v350z" />
    <glyph glyph-name="five.alt" horiz-adv-x="545" 
d="M263 0h-140q47 19 94.5 46.5t95.5 65.5t78 85.5t30 95.5q0 59 -41.5 93.5t-101.5 34.5q-57 0 -103 -29t-58 -52h-67l12 366h372l8 -68h-320l-8 -230q32 36 80.5 56t99.5 20q94 0 150.5 -52.5t56.5 -141.5q0 -162 -238 -290z" />
    <glyph glyph-name="six.alt" horiz-adv-x="603" 
d="M40 286q0 126 77.5 237t209.5 183h142q-152 -59 -258.5 -177t-110.5 -256q13 83 77.5 134t151.5 51q110 0 177 -64t67 -168q0 -108 -71 -173t-182 -65q-129 0 -204.5 82.5t-75.5 215.5zM148 226q0 -80 46 -126.5t126 -46.5t128 47t48 126q0 76 -47 121.5t-122 45.5
q-79 0 -129 -45.5t-50 -121.5z" />
    <glyph glyph-name="seven.alt" horiz-adv-x="486" 
d="M167 0h-102q43 37 80 88t61.5 97t51 114.5t40.5 111.5t37 119t33 108h-353l9 68h438q-10 -25 -38.5 -127.5t-57 -196t-83 -204.5t-116.5 -178z" />
    <glyph glyph-name="eight.alt" horiz-adv-x="598" 
d="M38 204q0 69 43.5 121t112.5 63q-50 14 -83.5 57.5t-33.5 95.5q0 62 33 103t81 57.5t108 16.5q63 0 110.5 -15.5t80 -56.5t32.5 -105q0 -52 -34.5 -95.5t-84.5 -57.5q70 -11 113.5 -62.5t43.5 -119.5q0 -104 -75 -161t-186 -57t-186 56t-75 160zM114 203q0 -72 53.5 -112
t131.5 -40t131.5 40t53.5 112q0 73 -54.5 111.5t-130.5 38.5q-79 0 -132 -37.5t-53 -112.5zM149 535q0 -64 44.5 -93t105.5 -29q151 0 151 122q0 63 -43.5 91.5t-107.5 28.5q-65 0 -107.5 -28.5t-42.5 -91.5z" />
    <glyph glyph-name="nine.alt" horiz-adv-x="601" 
d="M279 0h-141q166 75 260 185t94 229q0 48 -8 77q0 -102 -63.5 -164.5t-156.5 -62.5q-108 0 -174 61.5t-66 167.5q0 103 70.5 164t178.5 61q127 0 207.5 -85.5t80.5 -216.5q0 -126 -71.5 -226t-210.5 -190zM436 492q0 76 -47.5 118.5t-115.5 42.5q-76 0 -124 -43.5
t-48 -117.5q0 -76 46.5 -119.5t122.5 -43.5q67 0 116.5 47.5t49.5 115.5z" />
    </font>
</defs>
</svg>
