<svg width="48" height="48" viewBox="0 0 48 48" fill="none" xmlns="http://www.w3.org/2000/svg">
<path d="M41.288 24.1306C41.288 21.2193 40.5776 18.4722 39.3282 16.0468C41.256 14.9285 42.5565 12.8428 42.5565 10.4581C42.5565 6.89734 39.6596 4.00052 36.0989 4.00052C33.5144 4.00052 31.281 5.52714 30.25 7.72544C28.188 6.88288 25.9345 6.41462 23.573 6.41462C21.3422 6.41462 19.2084 6.83332 17.2409 7.58915C16.1825 5.46416 13.9884 4 11.4576 4C7.89683 4 5 6.89682 5 10.4576C5 12.7116 6.16162 14.6983 7.91644 15.8537C6.60458 18.3256 5.85804 21.1414 5.85804 24.1296C5.85804 29.7818 8.52204 34.8206 12.6574 38.0664L8.33101 42.3928C7.96342 42.7604 7.96342 43.3562 8.33101 43.7238C8.51481 43.9076 8.75538 43.9995 8.99649 43.9995C9.23759 43.9995 9.47818 43.9076 9.66197 43.7238L14.2207 39.1651C16.9373 40.861 20.1418 41.8451 23.5735 41.8451C27.0052 41.8451 30.1323 40.8863 32.8273 39.2286L37.323 43.7243C37.5068 43.9081 37.7474 44 37.9885 44C38.2296 44 38.4701 43.9081 38.6539 43.7243C39.0215 43.3567 39.0215 42.7609 38.6539 42.3934L34.3988 38.1382C38.5858 34.895 41.289 29.8236 41.289 24.1301L41.288 24.1306ZM36.0989 5.88286C38.6219 5.88286 40.6741 7.93557 40.6741 10.4581C40.6741 12.1504 39.7479 13.628 38.3783 14.4195C36.7618 11.9636 34.5542 9.93046 31.9558 8.52877C32.6853 6.96858 34.2656 5.88286 36.0984 5.88286H36.0989ZM31.5242 10.4472C33.4938 11.5965 35.1933 13.1572 36.5052 15.0127C36.371 15.0245 36.2362 15.0333 36.0989 15.0333C33.5759 15.0333 31.5237 12.9806 31.5237 10.4581C31.5237 10.4545 31.5242 10.4509 31.5242 10.4472ZM6.88234 10.4581C6.88234 7.93505 8.93506 5.88286 11.4576 5.88286C13.2238 5.88286 14.7566 6.89063 15.5191 8.35995C12.8433 9.73221 10.5577 11.7612 8.88394 14.2383C7.67689 13.4138 6.88234 12.0276 6.88234 10.4581ZM16.0333 10.4581C16.0333 12.9811 13.9806 15.0333 11.4576 15.0333C11.1912 15.0333 10.9315 15.0054 10.677 14.9616C12.0725 13.0044 13.899 11.374 16.0209 10.2175C16.0251 10.2975 16.0333 10.3765 16.0333 10.4581ZM23.573 39.9632C14.8428 39.9632 7.73988 32.8608 7.73988 24.1306C7.73988 21.4259 8.42291 18.8785 9.62325 16.6493C10.2051 16.8217 10.8205 16.9162 11.4576 16.9162C15.0183 16.9162 17.9151 14.0194 17.9151 10.4586C17.9151 10.0921 17.8826 9.73324 17.8238 9.38321C19.6075 8.6852 21.5451 8.29799 23.573 8.29799C25.7476 8.29799 27.8204 8.73889 29.7084 9.53551C29.6651 9.83701 29.6413 10.1452 29.6413 10.4586C29.6413 14.0194 32.5381 16.9162 36.0989 16.9162C36.6054 16.9162 37.0979 16.8558 37.5713 16.7448C38.7402 18.9513 39.4056 21.4646 39.4056 24.1311C39.4056 32.8614 32.3032 39.9638 23.5725 39.9638L23.573 39.9632Z" fill="black"/>
<path d="M23.5722 12.2238C23.0523 12.2238 22.631 12.6456 22.631 13.1649V26.1467L15.5823 31.9326C15.1806 32.262 15.1223 32.8552 15.4517 33.2568C15.6375 33.4835 15.9076 33.6007 16.1796 33.6007C16.3898 33.6007 16.6014 33.531 16.7759 33.3869L24.1685 27.3191C24.3864 27.1405 24.5123 26.8736 24.5123 26.5917V13.1649C24.5123 12.6456 24.091 12.2238 23.5711 12.2238H23.5722Z" fill="black"/>
</svg>
