<svg width="48" height="48" viewBox="0 0 48 48" fill="none" xmlns="http://www.w3.org/2000/svg">
<path d="M42.671 12.1841C40.9605 10.558 38.2454 10.6263 36.6189 12.3367L31.6746 17.5372V7.03019C31.6746 5.35902 30.3151 4 28.6444 4L7.03019 4C5.35951 4 4 5.35951 4 7.03019L4 40.4442C4 42.1149 5.35951 43.4744 7.03019 43.4744H28.6439C30.3146 43.4744 31.6741 42.1149 31.6741 40.4442V29.9627L42.8236 18.2361C44.4501 16.5252 44.3814 13.8106 42.671 12.1841ZM29.8852 40.4447C29.8852 41.1289 29.3286 41.6854 28.6444 41.6854H7.03019C6.34601 41.6854 5.78945 41.1289 5.78945 40.4447L5.78945 7.03019C5.78945 6.34601 6.34601 5.78945 7.03019 5.78945L28.6439 5.78945C29.3281 5.78945 29.8847 6.34601 29.8847 7.03019V19.4189L21.5671 28.1669C21.4415 28.2994 21.359 28.4668 21.3311 28.6474L20.4722 34.2351C20.4285 34.5178 20.5232 34.804 20.7254 35.0057C20.8942 35.174 21.1215 35.2658 21.3561 35.2658C21.4032 35.2658 21.4503 35.2619 21.4974 35.2545L27.2648 34.3333C27.4587 34.3024 27.6368 34.2086 27.7718 34.0663L29.8842 31.8445V40.4442L29.8852 40.4447ZM26.6842 32.6145L22.4275 33.2943L23.0572 29.1966L29.8847 22.0157V29.2476L26.6837 32.614L26.6842 32.6145ZM41.5269 17.0032L31.6741 27.3664V20.1345L37.9151 13.5701C38.8619 12.5742 40.4417 12.535 41.4376 13.4812C41.92 13.9396 42.1949 14.5585 42.2116 15.2241C42.2283 15.8891 41.9853 16.5212 41.5264 17.0037L41.5269 17.0032Z" fill="black"/>
</svg>
