<svg width="48" height="48" viewBox="0 0 48 48" fill="none" xmlns="http://www.w3.org/2000/svg">
<path d="M35.0769 4L21.1639 4C19.9822 4 19.0206 5.13827 19.0206 6.53707V24.0053H17.4274C13.8832 24.0053 11 26.8885 11 30.4327L11 43.231C11 43.6551 11.344 43.9996 11.7685 43.9996C12.1931 43.9996 12.5371 43.6551 12.5371 43.231L12.5371 30.4327C12.5371 27.7358 14.731 25.5424 17.4278 25.5424H19.021L19.021 26.466L14.6433 30.6983C14.3381 30.9934 14.3301 31.4799 14.6252 31.7851C14.9203 32.0899 15.4064 32.0988 15.7116 31.8037L19.021 28.6043V32.5587C19.021 33.9575 19.9826 35.0962 21.1643 35.0962H21.1816C20.5281 36.057 19.4261 36.6898 18.1791 36.6898H16.7318C16.3073 36.6898 15.9633 37.0342 15.9633 37.4583C15.9633 37.8824 16.3073 38.2269 16.7318 38.2269H18.1791C20.3051 38.2269 22.1348 36.9356 22.9261 35.0962H26.9041C26.8953 35.143 26.8894 35.1915 26.8894 35.2408C26.8894 37.2416 25.2617 38.8694 23.2604 38.8694H21.8131C21.3886 38.8694 21.0446 39.2138 21.0446 39.6379L21.0446 43.2315C21.0446 43.6556 21.3886 44 21.8131 44C22.2377 44 22.5817 43.6556 22.5817 43.2315V40.4064H23.2604C26.1086 40.4064 28.426 38.089 28.426 35.2408C28.426 35.1911 28.4206 35.143 28.4113 35.0962H35.0765C36.2582 35.0962 37.2198 33.9579 37.2198 32.5587V6.53707C37.2198 5.13827 36.2582 4 35.0765 4H35.0769ZM21.1639 33.5587C20.8776 33.5587 20.5577 33.1308 20.5577 32.5583V27.1178L23.2887 24.4774C23.5614 24.219 23.9185 24.0786 24.2937 24.0921C24.6689 24.1022 25.018 24.2578 25.2764 24.531C25.792 25.0757 25.7899 25.923 25.273 26.4652L22.0454 29.5499C21.8936 29.6949 21.8081 29.8956 21.8081 30.1055V33.0604C21.8081 33.2299 21.7925 33.3951 21.7697 33.5583H21.1643L21.1639 33.5587ZM35.6831 32.5583C35.6831 33.1308 35.3632 33.5587 35.0769 33.5587H23.3199C23.3354 33.3947 23.3443 33.229 23.3443 33.0608V30.4344L26.346 27.5655C26.3531 27.5588 26.3599 27.552 26.3666 27.5449C27.4674 26.4108 27.4783 24.6225 26.3919 23.4745C25.8514 22.9033 25.1208 22.577 24.3346 22.5559C23.5479 22.5327 22.8009 22.821 22.2254 23.3674L20.5577 24.98V6.53707C20.5577 5.96457 20.8776 5.53708 21.1639 5.53708L35.0769 5.53708C35.3632 5.53708 35.6831 5.96457 35.6831 6.53707V32.5583Z" fill="black"/>
<path d="M32.6545 7.54675L24.3017 7.54675C23.8772 7.54675 23.5332 7.89118 23.5332 8.31529C23.5332 8.7394 23.8772 9.08384 24.3017 9.08384L32.6545 9.08384C33.079 9.08384 33.4231 8.7394 33.4231 8.31529C33.4231 7.89118 33.079 7.54675 32.6545 7.54675Z" fill="black"/>
</svg>
