<svg width="48" height="48" viewBox="0 0 48 48" fill="none" xmlns="http://www.w3.org/2000/svg">
<path d="M33.5431 24.3218C35.0962 22.2963 36.0219 19.7657 36.0219 17.0222C36.0219 10.3932 30.6287 5 23.9997 5C17.3708 5 11.9775 10.3932 11.9775 17.0222C11.9775 19.7657 12.9033 22.2963 14.4564 24.3218C8.23233 27.7153 4 34.3195 4 41.8938C4 42.4241 4.43019 42.8548 4.96108 42.8548C5.49197 42.8548 5.92216 42.4241 5.92216 41.8938C5.92216 34.8799 9.93992 28.7908 15.7923 25.7947C17.9428 27.8081 20.8292 29.0444 24.0003 29.0444C27.1714 29.0444 30.0578 27.8081 32.2082 25.7947C38.0606 28.7908 42.0778 34.8799 42.0778 41.8938C42.0778 42.4241 42.508 42.8548 43.0389 42.8548C43.5698 42.8548 44 42.4241 44 41.8938C44 34.3195 39.7677 27.7159 33.5436 24.3218H33.5431ZM13.8992 17.0222C13.8992 11.4529 18.4304 6.92216 23.9992 6.92216C29.568 6.92216 34.0992 11.4529 34.0992 17.0222C34.0992 19.4694 33.2241 21.7158 31.7706 23.4656C29.3803 22.4539 26.7538 21.8935 23.9992 21.8935C21.2446 21.8935 18.6181 22.4534 16.2278 23.4656C14.7743 21.7158 13.8992 19.4694 13.8992 17.0222ZM23.9992 27.1222C21.6342 27.1222 19.4579 26.303 17.7351 24.9359C19.6878 24.2121 21.7982 23.8157 23.9992 23.8157C26.2003 23.8157 28.3106 24.2126 30.2634 24.9359C28.5405 26.303 26.3642 27.1222 23.9992 27.1222Z" fill="black"/>
</svg>
