<svg width="49" height="49" viewBox="0 0 49 49" fill="none" xmlns="http://www.w3.org/2000/svg">
<path d="M47.0417 21.6415C47.0417 22.1609 46.8353 22.659 46.4681 23.0262C46.1008 23.3935 45.6027 23.5998 45.0833 23.5998H3.95833C3.70116 23.5998 3.44651 23.5492 3.20891 23.4507C2.97132 23.3523 2.75543 23.2081 2.57358 23.0262C2.20632 22.659 2 22.1609 2 21.6415V17.7248C2 17.2054 2.20632 16.7073 2.57358 16.3401C2.94084 15.9728 3.43895 15.7665 3.95833 15.7665H45.0833C45.6027 15.7665 46.1008 15.9728 46.4681 16.3401C46.8353 16.7073 47.0417 17.2054 47.0417 17.7248V21.6415Z" stroke="white" stroke-width="2.5" stroke-linecap="round" stroke-linejoin="round"/>
<path d="M43.1263 45.1415C43.1263 45.6609 42.92 46.159 42.5527 46.5263C42.1855 46.8935 41.6874 47.0999 41.168 47.0999H7.8763C7.35692 47.0999 6.85881 46.8935 6.49155 46.5263C6.12429 46.159 5.91797 45.6609 5.91797 45.1415V23.5999H43.1263V45.1415Z" stroke="white" stroke-width="2.5" stroke-linecap="round" stroke-linejoin="round"/>
<path d="M17.668 15.7665V47.0998" stroke="white" stroke-width="2.5" stroke-linecap="round" stroke-linejoin="round"/>
<path d="M31.375 47.0998V15.7665" stroke="white" stroke-width="2.5" stroke-linecap="round" stroke-linejoin="round"/>
<path d="M35.15 8.59898C33.6538 10.0971 26.4805 11.8498 26.4805 11.8498C26.4805 11.8498 28.243 4.67644 29.7313 3.18027C30.0843 2.81206 30.5073 2.51801 30.9754 2.31538C31.4435 2.11274 31.9473 2.00559 32.4574 2.00021C32.9675 1.99483 33.4735 2.09133 33.9457 2.28404C34.418 2.47676 34.8471 2.76181 35.2078 3.1225C35.5685 3.48319 35.8535 3.91225 36.0462 4.38454C36.239 4.85682 36.3355 5.36282 36.3301 5.87289C36.3247 6.38295 36.2175 6.8868 36.0149 7.35492C35.8123 7.82303 35.5182 8.24598 35.15 8.59898Z" stroke="white" stroke-width="2.5" stroke-linecap="round" stroke-linejoin="round"/>
<path d="M13.8941 8.59902C15.3902 10.0971 22.5636 11.8499 22.5636 11.8499C22.5636 11.8499 20.8011 4.67648 19.3128 3.18031C18.5891 2.4866 17.6225 2.10402 16.6202 2.11459C15.6178 2.12517 14.6595 2.52806 13.9506 3.23688C13.2418 3.94571 12.8389 4.90404 12.8283 5.90641C12.8178 6.90878 13.2003 7.8754 13.8941 8.59902Z" stroke="white" stroke-width="2.5" stroke-linecap="round" stroke-linejoin="round"/>
</svg>
