<svg width="945" height="353" viewBox="0 0 945 353" fill="none" xmlns="http://www.w3.org/2000/svg">
<path fill-rule="evenodd" clip-rule="evenodd" d="M768.999 0C866.201 0 945 78.7985 945 176.001C945 273.204 866.201 352.003 768.999 352.003H453.823C452.392 352.038 450.957 352.055 449.518 352.055C352.891 352.055 274.56 273.257 274.56 176.054C274.56 78.8508 352.891 0.0522461 449.518 0.0522461C449.518 0.0522461 449.518 0.0522461 449.519 0.0522461V0H768.999Z" fill="#F1F7FF"/>
<circle cx="176.001" cy="176.001" r="176.001" fill="#F72717"/>
<path fill-rule="evenodd" clip-rule="evenodd" d="M313.282 286.202C289.057 256.048 274.562 217.744 274.562 176.054C274.562 134.364 289.057 96.0601 313.282 65.9061C337.507 96.0601 352.002 134.364 352.002 176.054C352.002 217.744 337.507 256.048 313.282 286.202Z" fill="#FED0C8"/>
</svg>
